<svg id="154eab47-be92-4234-b4a1-9239e260d735" data-name="Calque 1" xmlns="http://www.w3.org/2000/svg" viewBox="0 0 181.08 259.63"><title>download_vectorized_woman</title><path d="M42.83,248.8c-2.06-1.61-2.21-4-2.32-6.27-.23-4.82-.33-9.65-.5-14.48,0-1-.11-1.89-.17-2.84a1.86,1.86,0,0,1,0-.71c1-2.69,1-5.58,1.64-8.35q.84-3.65,1.67-7.3c.65-2.91,1.24-5.83,1.94-8.72.77-3.14,1.74-6.24,2.41-9.4A35.45,35.45,0,0,0,48.1,185c.18-3.74-.65-7.38-1.08-11.07-.46-4-.17-8.1-.23-12.15,0-1.11-.16-2.22-.26-3.51-1.23,1.08-2.69,1.9-3.45,3.14A9.06,9.06,0,0,1,41.24,164a3.37,3.37,0,0,1-1.28.68,13.39,13.39,0,0,1-6.79.41,2.86,2.86,0,0,1-1-.4,9.5,9.5,0,0,1-3.09-4.88c-1.13-3.17-2.12-6.38-3.21-9.55A23.62,23.62,0,0,0,24.72,148c-.82-1.68-1.66-3.36-2.44-5.06-1.23-2.68-2.55-5.34-3.58-8.1A43,43,0,0,1,16.45,127c-.47-2.77-1.7-5.3-2.07-8.08-.26-1.92-.91-3.79-1.14-5.72-.19-1.56.47-2,2.06-1.87.09.66.17,1.33.29,2s.47,1,1.14.49c3.44-2.36,6.88-4.71,10.3-7.09a4.24,4.24,0,0,0,.79-1c.55.28,1.41.42,1.59.84a36.56,36.56,0,0,1,1.76,5.2c.73,2.79,1.42,5.6,1.92,8.44a9.19,9.19,0,0,0,2.73,5.25,49.29,49.29,0,0,1,2-4.61,3.56,3.56,0,0,0,.48-2.37,4.88,4.88,0,0,1,.11-2.41,8.6,8.6,0,0,0,.94-4.15,8.17,8.17,0,0,1,.54-2.62c.24-.87.65-1.69.83-2.56.69-3.45,1.31-6.91,2-10.36q.68-3.47,1.45-6.9a14.41,14.41,0,0,1,1.14-3.9c.63-1.11,1.53-2.07,1.77-3.4.84-.64,1.68-1.29,2.54-1.92a11.67,11.67,0,0,1,2-1.39c3.72-1.71,7.47-3.35,11.22-5,1.08,1.21.67,2.44.23,3.81-.76,2.38-1.32,4.83-1.89,7.26a1.41,1.41,0,0,0,.74,1.83l.16,0-.17,0a11.16,11.16,0,0,1,1.16-6.34c0,1-.11,2-.19,3-.19,2.2-.38,4.39-.4,6.62a10.52,10.52,0,0,0,1.59,6.44c.86,1.26,1.48,2.61.65,4.17a2.3,2.3,0,0,0-.09.71l.3.12L66,99.37c.89,1.43,1.8,2.93,2.72,4.42-.22-2.18-.22-2.18.48-2.58a4.2,4.2,0,0,0,2.5,3c1.1.63,2.4,1,2.68,2.51,0,.28.32.53.67,1.07l.18-1.72h1.08V102.6c.31.79.68,1.73,1,2.68a2.19,2.19,0,0,1,.08.81c0,.62-.09,1.25-.13,1.88s-.08,1-.16,1.53c-.48,3,0,5.91.28,8.89.46,4.91.5,9.86.78,14.8.19,3.22.46,6.43.76,9.65.17,1.81.58,3.61.68,5.42.28,5.45.39,10.9.71,16.35.11,1.84.91,3.65.94,5.49a76,76,0,0,0,1.61,12.13c.37,2.11.65,4.23.93,6.35s.42,4.27.83,6.37c.47,2.36,1.18,4.68,1.79,7q1,8.81,1.94,17.59c0,1.6-.08,3.2.06,4.79.17,1.78.68,3.52.8,5.3.2,2.87.21,5.74.3,8.62s-.18,5.83.67,8.68l.13,3.18c-.09.88-.79,1.59-.43,2.63.58,1.7.93,3.47,1.38,5.21.22.67.44,1.35.65,2,0,1-.51,1.24-1.41.95-2-.63-3.91-1.23-5.86-1.84l.59-.65c-2-1.06-2.58-1-3.19.41l-1-.08c-.73-.17-1.48-.27-2.19-.51a25.15,25.15,0,0,0-12.32-.95,22.13,22.13,0,0,1-14-2.55c-3.15-1.66-6.43-3.18-9.07-5.69C43.41,248.9,43.09,248.89,42.83,248.8Z" transform="translate(-1.32 -1.41)" style="fill:#0086be"/><path d="M147.84,157.56a65.59,65.59,0,0,0-.16,7.54,30.15,30.15,0,0,1-.52,7.83c-.63,3.78-1.16,7.57-1.66,11.37-.4,3.08-.68,6.17-1,9.26A20,20,0,0,0,144,197c.15,2.48.51,4.93.79,7.4.19,1.72.35,3.45.62,5.16.37,2.36.83,4.71,1.25,7.06.29,1.65.62,3.28.89,4.93.35,2.23.71,4.45,1,6.68.16,1.32.13,2.67.24,4,.15,1.82.39,3.62.51,5.44s.2,3.4.18,5.1a1.65,1.65,0,0,1-.77,1.16,36.4,36.4,0,0,1-10.31,3.73,1.09,1.09,0,0,0-.62.89,13.12,13.12,0,0,1-1.35,6.93,5.59,5.59,0,0,1-1.7,1.73c-1.18,1-2.27,2.2-4,2.2-1.53-.17-3.05-.38-4.59-.49-1.92-.14-4-1.69-3.94-3.1.18-2.61.44-5.21.76-7.8.45-3.6,1.46-7.13.9-10.82a19.89,19.89,0,0,1,.08-3c0-1.58,0-3.16-.07-4.74-.17-2.33-.54-4.65-.72-7-.12-1.43,0-2.87-.07-4.3.23-2.28.61-4.56.65-6.84,0-2.56-.25-5.13-.4-7.7,0-.09-.13-.18-.21-.27,0-1.2.05-2.41-.07-3.59a105.11,105.11,0,0,1-.69-14.63c.2-6.21.19-12.43.21-18.65,0-.84-.53-1.68-.61-2.54-.11-1.25,0-2.52,0-3.77-.23-4.78-.45-9.55-.75-14.32-.15-2.34-.48-4.66-.73-7l-.21-8.26a5.08,5.08,0,0,1-.21-1.14c0-1.62.17-3.24.2-4.85a3.3,3.3,0,0,0-.34-1c-.52-3.59-1.9-7-1.86-10.73,0-1.72-.82-3.44-1.31-5.15-.76-2.66-1.56-5.31-2.34-8-.07-.46-.16-.92-.19-1.39a4.26,4.26,0,0,1,.09-.86l.32,0,.55,1.2,1.07-3.64h.2l.39,1.69c.74-3.12.18-6-.49-9l.91,1a40.52,40.52,0,0,0-1-5.36,34.08,34.08,0,0,1-1.81-10.19l2,1.13a1,1,0,0,0,.24-.48,5.39,5.39,0,0,0-.67-3.39c-.87-1.26-1.66-2.59-2.54-3.85-.18-.26-.57-.36-.86-.53l-.44-5c1.45,1.38,2.51,3.24,4.63,3.8a15.37,15.37,0,0,1,2.38.61c1.75.82,3.45,1.77,5.18,2.63a2.53,2.53,0,0,0,1.45.43,3.21,3.21,0,0,1,2.74.86c2.95,2.19,5.93,4.35,8.78,6.66a16.74,16.74,0,0,1,2.34,3c.49.64,1,1.27,1.5,1.9.07.1.2.19.21.29.36,3.73,1.24,7.41,1,11.21-.12,2.21,0,4.43.1,6.64a8.18,8.18,0,0,0,.4,2.42,36.33,36.33,0,0,1,1.69,4.55,28.35,28.35,0,0,1,.68,4.74c.11,1.44-.37,3.23,1.7,3.88.21.07.27.52.44.78s.34.63.53.64a1.26,1.26,0,0,0,.87-.4,5.73,5.73,0,0,0,.61-1.12c.29-.58.43-1.37.89-1.69a4.59,4.59,0,0,1,1.89-.38c.13-.79.26-1.64.43-2.49a31,31,0,0,0,.74-3.89A21.93,21.93,0,0,1,155.78,98a2.74,2.74,0,0,1,3.66-1.54l3.43,2.32c2.44,1.69,4.68,3.71,7.6,4.59l2.42,1.18a8,8,0,0,1,.21-1.45c.12-.35.4-.82.7-.89a1.33,1.33,0,0,1,1.15.33c1.25,1.51,1.16,3.32.82,5.09-.25,1.33-.75,2.61-1,3.93s-.39,2.65-.59,4L173,122.61c0,.12,0,.26,0,.35-1.52,3-1.78,6.42-3.22,9.43a43.39,43.39,0,0,0-2,4.42c-.75,2.15-1.37,4.34-2,6.54-.65,2.42-1.12,4.9-1.79,7.31s-2.54,4.2-4,6.21c-2,2.82-4.77,3.3-7.77,2.77-1.57-.29-3-1.35-4.51-2.06l0-.29-.1,0Z" transform="translate(-1.32 -1.41)" style="fill:#0086be"/><path d="M61.92,86.76a1.41,1.41,0,0,1-.74-1.83c.57-2.43,1.13-4.88,1.89-7.26.44-1.37.85-2.6-.23-3.81a27.38,27.38,0,0,1,1.26-9c.09-1.83.19-3.65.28-5.47q.24-6.07.47-12.15c.13-1.17.26-2.34.38-3.5l.56-3.35c.22-1.06.44-2.12.65-3.18l.5-4.15-.35-.06-.38,2.35v1.44l.06.44c-.17-.29-.46-.56-.49-.86-.07-.81,0-1.64,0-2.46a4.58,4.58,0,0,1,.51-1.64c1-1.23,1-2.7,1.15-4.13.1-.78.14-1.57.2-2.36.68-4.08,1-8.27,2.95-12a19.19,19.19,0,0,1,2.57-3.23,31,31,0,0,0,2.74-3.25,8.59,8.59,0,0,1,5.05-3.78C82.72,3,84.52,2.5,86.31,2c5-1.48,9.41.14,13.56,2.86a41.3,41.3,0,0,0,3.73,2.32,7.7,7.7,0,0,1,3.05,2.75,27.6,27.6,0,0,1,3.52,9.15,20.55,20.55,0,0,0,.75,2.12,3.51,3.51,0,0,0,.44,3.62l-.23.28c0,.71-.3.86-.81.37a2.84,2.84,0,0,1-.47-.77l-.13-.27-.11-.26-.15-.33-.11-.17-.43-.39-.23-.31c-.13-.2-.28-.38-.4-.59-.78-1.32-1.48-2.7-2.36-4s-2-2.48-3-3.7c-.53-.64-1-1.5-1.65-1.85a17.21,17.21,0,0,0-6.88-2.15c-3.36-.16-6.17,1.31-8.9,3-3.38,2-4.27,5.3-4.2,9a5.47,5.47,0,0,1-.05,1.9c-.81,2.25-.16,4.39.36,6.54.21.86.51,1.69.82,2.71a3.5,3.5,0,0,1-.72-.44c-.26-.32-.47-.68-.8-1.16,0,.74,0,1.32,0,1.89,0,.38-.12.91-.37,1.06-.8.5-.6,1.09-.34,1.74s.49,1.43.82,2.11a27.82,27.82,0,0,1,2.72,13.28,6.15,6.15,0,0,1-.26,1.17l-.25-.08c-.2-1.14-.39-2.27-.63-3.7a6.8,6.8,0,0,0-.68,1.85q0,3,.2,5.93a15,15,0,0,0,.49,2.45c.48,2.07,1,4.15,1.45,6.22l.24,1.14-.7-.87-.24.08.39,2.06c-.78.64-.47,1.4-.23,2.15a8.69,8.69,0,0,0,.29,1.87,47.18,47.18,0,0,1,3.29,15.91,6.31,6.31,0,0,1-.24,1.27c-.13.72-.25,1.43-.37,2.15v2.2l-.31,0-.51-3.39-.13,0,.21,4.76c-.21.49-.61,1-.6,1.47,0,1.36,0,2.6-1.75,2.68-.06.87-.11,1.63-.16,2.4l-.28,0L82.29,101l-.37,0L81,105.83l-.36-.07-.36-2.1-.61.75-1-.78.13,1.11-.25-.15a3.81,3.81,0,0,0-.61.87c-.28.82-.48,1.67-.7,2.51,0-.63.1-1.26.13-1.88a2.19,2.19,0,0,0-.08-.81c-.34-1-.71-1.89-1-2.68v3.47H75.27l-.18,1.72c-.35-.54-.62-.79-.67-1.07-.28-1.51-1.58-1.88-2.68-2.51a4.2,4.2,0,0,1-2.5-3c-.7.4-.7.4-.48,2.58-.92-1.49-1.83-3-2.72-4.42l-1.11,2.15-.3-.12a2.3,2.3,0,0,1,.09-.71c.83-1.56.21-2.91-.65-4.17a10.52,10.52,0,0,1-1.59-6.44c0-2.23.21-4.42.4-6.62.08-1,.17-2,.19-3a11.16,11.16,0,0,0-1.16,6.34Zm2.15,8.93.32-.12a6.17,6.17,0,0,0,0-2.22c-.18-.55-.91-.91-1.39-1.36l-.2.06Zm.27-27.78-.3,0c-.16,1.89-.33,3.78-.49,5.67l.43,0C64.87,71.74,64.25,69.8,64.34,67.91Z" transform="translate(-1.32 -1.41)" style="fill:#020209"/><path d="M111.13,25.07l.23-.28.39.45.21-.94c2.34-.77,4.75-.42,7.13-.49,1.85-.06,3.7-.14,5.54-.16,2.3,0,4.59.05,6.88,0s4.83-.41,7.25-.42c3.89,0,7.79.13,11.68.19,1.78,0,3.57-.06,5.35,0a25.76,25.76,0,0,1,3,.61c1.17.21,2.34.39,3.51.55a21,21,0,0,1,10.33,3.88,14.87,14.87,0,0,1,3.23,4.34c1.69,2.89,3.31,5.84,4.74,8.86a18.67,18.67,0,0,1,.89,4.15c.11.52.33,1,.44,1.54a12.32,12.32,0,0,1,.49,2.66,25,25,0,0,1-.29,5.94c-.59,2.45-1.16,5-2.7,7.14-1.32,1.84-2.16,4-4,5.45a2.55,2.55,0,0,0-.49.76,2.71,2.71,0,0,0-2.08,1.85,1.54,1.54,0,0,1-.55.72c-1.9,1.1-3.8,2.19-5.74,3.21a1.74,1.74,0,0,1-1.31,0,25.08,25.08,0,0,1-2.86-1.38,2.16,2.16,0,0,1-1-.78A20.9,20.9,0,0,1,160,69.42a15.18,15.18,0,0,0-3.22-6.65,2.11,2.11,0,0,0-2.46-.86c.05.29.1.56.14.83.58,3.32,1.25,6.63,1.69,10a53.36,53.36,0,0,1,.13,5.8,20.39,20.39,0,0,0-2.48.15c-2.51.42-5,.91-7.5,1.38l-5.18,1c-.5-.63-1-1.26-1.5-1.9a16.74,16.74,0,0,0-2.34-3c-2.85-2.31-5.83-4.47-8.78-6.66a3.21,3.21,0,0,0-2.74-.86,2.53,2.53,0,0,1-1.45-.43c-1.73-.86-3.43-1.81-5.18-2.63a15.37,15.37,0,0,0-2.38-.61c-2.12-.56-3.18-2.42-4.63-3.8-.08-.74-.16-1.49-.25-2.24l.82-.5h0l1.91,1c-.64.84-.27,1.27.45,1.6s1.63.87,2.49,1.18a1.17,1.17,0,0,0,1.55-.71c.46-.91,1.07-1.74,1.57-2.54,1.91,1.65,3.69,3.18,5.45,4.72a25.66,25.66,0,0,0,2.43,2.14,22,22,0,0,0,3.1,1.47c.16.07.41,0,.69-.08l-.59-1,7.2-5.88c1,.82,2.06,1.68,3.13,2.49s2.52,1.3,3.17,2.33c1.16,1.86,2.68.8,4.36,1.23-1.28-1.84,0-2.71.91-3.47,2-1.68,4.16-3.2,6.23-4.77,2.11,1.33,3.66,3.27,5.95,4.24,1.33.57,3.43.88,4.25.09a77,77,0,0,0,5.53-5.61,6,6,0,0,0,1-3.27c0-.4-.89-.88-1.37-1.32-.08-.08-.13-.21-.22-.28-1.13-.87-2.23-1.78-3.41-2.58a5.64,5.64,0,0,0-1.65-.45c.49-.38.75-.54,1-.75,2.06-2,4.08-4.09,6.16-6.09,1.32-1.26,1.28-1.86-.33-2.75A16.58,16.58,0,0,1,171.3,38c-.58-.45-.8-1.44-1.87-1.08-.09,0-.35-.31-.46-.53-.38-.76-.73-1.53-1.12-2.36l.74-1a9.69,9.69,0,0,0-2.23,1.19c-1.42.89-2.94,1.64-4.26,2.65s-2.54,2.35-3.82,3.5a1,1,0,0,1-.82.25,10.46,10.46,0,0,1-2.47-.92c-1-.62-1.93-1.46-2.94-2.13-1.63-1.09-3.3-2.13-5-3.21L148.11,33l-.08-.34c-1.47.53-2.94,1.27-4.49.26l-.14.39c.42.43.83.87,1.24,1.28-1.88,1.81-3.72,3.62-5.62,5.37a.94.94,0,0,1-1.49,0A16.56,16.56,0,0,0,135,37.83c-1.74-1.24-3.53-2.41-5.29-3.62a6.11,6.11,0,0,1-.6-.53l.44-.84L126,33a6,6,0,0,1-.75,1.52c-.88.91-1.85,1.73-2.79,2.58l-3.12,2.78a8,8,0,0,1-1.61-1c-.89-.86-1.7-1.81-2.52-2.74s-1.35-.12-1.74.21-.16.87.48,1c.1,0,.13.35.23.68-1-.41-1.81-.35-2.38.54-.44.69-.92,1.35-1.37,2-.08-.84-.19-1.66-.22-2.5-.07-2.18-.11-4.36-.15-6.54v.05c0-.42,0-.84.07-1.26l1,4,.23,0-.95-8.06.51-.08c.26,1.7.53,3.4.79,5.1l.37-.06Z" transform="translate(-1.32 -1.41)" style="fill:#eb5e5c"/><path d="M64.1,64.91a27.38,27.38,0,0,0-1.26,9c-3.75,1.66-7.5,3.3-11.22,5a11.67,11.67,0,0,0-2,1.39c-.86.63-1.7,1.28-2.54,1.92a4.36,4.36,0,0,0-1.34-.59,38,38,0,0,0-5.64,0,50,50,0,0,1-8.48.07,7,7,0,0,0-2.22.61,2.48,2.48,0,0,1,.08-2.39,2.55,2.55,0,0,0,.22-1.27c-.14-4.54-.31-9.08-.44-13.62,0-.87.08-1.75.13-2.69-1.76.22-3,.72-3.32,2.46-.18,1.07-.36,2.14-.52,3.21a29.73,29.73,0,0,0-.79,5.79c.11,2.37-1.1,3.67-2.81,4.77-.88.57-1.74,1.19-3,.71a41.1,41.1,0,0,0-5-1.57,13.12,13.12,0,0,0-2.59-.17,3.87,3.87,0,0,0-.48-.79c-2.08-2.07-4.25-4-5.7-6.66A36.62,36.62,0,0,1,1.78,58.84a32.65,32.65,0,0,1,.14-11.62c.48-2.67,2.28-4.69,3.48-7a19.29,19.29,0,0,1,4.33-5,20.24,20.24,0,0,1,4.21-2.82,56.17,56.17,0,0,1,6.68-3.22,22.13,22.13,0,0,1,5-1c2.32-.3,4.64-.54,7-.67,3.18-.19,6.37-.24,9.56-.37s6.34-.3,9.51-.45c1.12-.06,2.24-.11,3.36-.22,3-.29,6.05-.62,9.08-.91a6.36,6.36,0,0,1,3.56.23c-.06.79-.1,1.58-.2,2.36-.17,1.43-.13,2.9-1.15,4.13A4.58,4.58,0,0,0,65.76,34a8.76,8.76,0,0,0-.23,1.51c.06,1.66.17,3.31.26,5-.18,1.11-.37,2.23-.56,3.35l-1,.81A29.27,29.27,0,0,0,62,41.88a51.27,51.27,0,0,0-4.48-4,31,31,0,0,0-3.74-2.23.54.54,0,0,0-.46.19c0,.12.06.36.16.49a1.51,1.51,0,0,0,.42.32l-7.57,5.77c-.73-.63-1.38-1.22-2-1.79a50.06,50.06,0,0,1-4.23-3.56,2.77,2.77,0,0,0-2.45-1c-.22,0-.45-.16-.9-.33-.05.25-.12.7-.23,1.14s-.1.85-.34,1.06c-1.14,1-2.31,2-3.53,2.92a19.93,19.93,0,0,0-3.13,2.21c-.74.84-1.34.62-1.77.11-1.41-1.69-3.32-2.66-5.1-3.83a3.78,3.78,0,0,0-4.88.43c-1.27,1.15-2.44,2.43-3.8,3.45s-1.86,2.57-2.34,4.07c-.12.37.49,1,.82,1.46.08.12.42,0,.52.17A14.41,14.41,0,0,0,18,52.76a6.1,6.1,0,0,1-.47.52c-2.38,2.07-4.79,4.11-7.14,6.21-.89.78-.79,1.44.21,2.07,1.53,1,3.1,1.9,4.62,2.88.22.14.26.53.4.8l1,1.86a1.94,1.94,0,0,0,.14.2l-.69,1.06c1.49-.77,2.64-1.39,3.81-2a8.68,8.68,0,0,0,1.57-.73c1.37-1.09,2.68-2.26,4-3.41A2.83,2.83,0,0,1,29.34,62c1.85,1.4,3.72,2.76,5.58,4.15.84.64,1.67,1.29,2.52,1.93L36.3,69.32l.15.25A4.54,4.54,0,0,1,41,69.46l.19-.29L39.73,68c2.05-1.79,4-3.54,6-5.21a1.39,1.39,0,0,1,1.29.11c2.51,1.87,4.93,3.86,7.47,5.68.7.5,1.08.83.46,1.67h3.75l.12-.28-.68-.5Z" transform="translate(-1.32 -1.41)" style="fill:#eb5e5c"/><path d="M11.42,77.45a13.12,13.12,0,0,1,2.59.17,41.1,41.1,0,0,1,5,1.57c1.23.48,2.09-.14,3-.71,1.71-1.1,2.92-2.4,2.81-4.77a29.73,29.73,0,0,1,.79-5.79c.16-1.07.34-2.14.52-3.21.29-1.74,1.56-2.24,3.32-2.46,0,.94-.16,1.82-.13,2.69.13,4.54.3,9.08.44,13.62a2.55,2.55,0,0,1-.22,1.27,2.48,2.48,0,0,0-.08,2.39c-1.61,3.21-1.94,6.71-2.28,10.21-.29,3-.69,5.95,0,8.94.32,1.44.48,2.91.72,4.36a4.24,4.24,0,0,1-.79,1c-3.42,2.38-6.86,4.73-10.3,7.09-.67.47-1,.24-1.14-.49s-.2-1.33-.29-2c-.62-5.86-1.2-11.73-1.88-17.58a19.86,19.86,0,0,0-1-3.56,28.78,28.78,0,0,1-1.26-11.8A5,5,0,0,1,11.42,77.45Z" transform="translate(-1.32 -1.41)" style="fill:#fdfbfb"/><path d="M156.28,78.51a53.36,53.36,0,0,0-.13-5.8c-.44-3.34-1.11-6.65-1.69-10,0-.27-.09-.54-.14-.83a2.11,2.11,0,0,1,2.46.86A15.18,15.18,0,0,1,160,69.42,20.9,20.9,0,0,0,161.35,73a2.16,2.16,0,0,0,1,.78,25.08,25.08,0,0,0,2.86,1.38,1.74,1.74,0,0,0,1.31,0c1.94-1,3.84-2.11,5.74-3.21a1.54,1.54,0,0,0,.55-.72,2.71,2.71,0,0,1,2.08-1.85c0,2.47-.19,5,0,7.4a44.63,44.63,0,0,1-.68,11.83c-.54,3.18-1.21,6.34-1.78,9.51a8.78,8.78,0,0,0-.16,2.5c.17,1.49-.24,2.48-1.8,2.79-2.92-.88-5.16-2.9-7.6-4.59l-3.43-2.32a4.31,4.31,0,0,1-.23-1.39,34.7,34.7,0,0,1,.86-4.05c.56-2,1-3.75-.7-5.52a7,7,0,0,1-1.56-3.41A7.66,7.66,0,0,0,156.28,78.51Z" transform="translate(-1.32 -1.41)" style="fill:#fdfbfb"/><path d="M112,24.3l-.21.94-.39-.45a3.51,3.51,0,0,1-.44-3.62C111.27,22.21,111.61,23.25,112,24.3Z" transform="translate(-1.32 -1.41)" style="fill:#301319"/><path d="M77.32,108c.22-.84.42-1.69.7-2.51a3.81,3.81,0,0,1,.61-.87l.25.15-.13-1.11,1,.78.61-.75.36,2.1.36.07.89-4.85.37,0,.64,1.06.28,0c.05-.77.1-1.53.16-2.4,1.77-.08,1.77-1.32,1.75-2.68,0-.49.39-1,.6-1.46.1-.24.2-.47.31-.71l.43.52V91.88c.12-.72.24-1.43.37-2.15a6.31,6.31,0,0,0,.24-1.27,47.18,47.18,0,0,0-3.29-15.91,8.69,8.69,0,0,1-.29-1.87c.17.32.37.63.51,1l2.75,6.78.38-.15-1-3.1L84,68.89h.41l.29.05.48,0,.72.2.43.09,1,.2c5.4,1.57,10.81.7,16.22,0a38.77,38.77,0,0,0,1.88,4.33,4.18,4.18,0,0,1,.7,2.41c-.12,2-.21,4,1.24,5.55a5.66,5.66,0,0,1,1.33,3.62,8.84,8.84,0,0,0,.27,1.13l.21,1.17,0,.27.19.72.07.34.19.55.58,1.27.13.18,0,0,.18.27c.9,2.85,1.18,5.93,3.05,8.74l.16-1,.53.62c.78,2.65,1.58,5.3,2.34,8,.49,1.71,1.32,3.43,1.31,5.15,0,3.72,1.34,7.14,1.86,10.73,0,.74,0,1.49,0,2.24-.08,4.13-.18,8.26-.25,12.39a2.58,2.58,0,0,0,.26.8l.07-.09a1.17,1.17,0,0,1,0-.11l.42.07c.25,2.34.58,4.66.73,7,.3,4.77.52,9.54.75,14.32.06,1.25-.06,2.52,0,3.77.08.86.61,1.7.61,2.54,0,6.22,0,12.44-.21,18.65a105.11,105.11,0,0,0,.69,14.63c.12,1.18,0,2.39.07,3.59a11.08,11.08,0,0,0-5.6-1.9,17.66,17.66,0,0,0-7.41.71c-2.72.86-5.88.39-8.85.39-1.84,0-3.68-.28-5.53-.32s-3.87.11-5.8.08c-1.16,0-2.32-.21-3.47-.33-.61-2.33-1.32-4.65-1.79-7-.41-2.1-.54-4.25-.83-6.37s-.56-4.24-.93-6.35a76,76,0,0,1-1.61-12.13c0-1.84-.83-3.65-.94-5.49-.32-5.45-.43-10.9-.71-16.35-.1-1.81-.51-3.61-.68-5.42-.3-3.22-.57-6.43-.76-9.65-.28-4.94-.32-9.89-.78-14.8-.29-3-.76-5.91-.28-8.89C77.24,109,77.26,108.48,77.32,108Z" transform="translate(-1.32 -1.41)" style="fill:#fef000"/><path d="M61.91,86.77l.17,0-.16,0Z" transform="translate(-1.32 -1.41)" style="fill:#020209"/><path d="M110.28,90.84c-.19-.42-.39-.84-.58-1.27l-.19-.55-.07-.34-.19-.72,0-.27L109,86.52a8.84,8.84,0,0,1-.27-1.13,5.66,5.66,0,0,0-1.33-3.62c-1.45-1.51-1.36-3.58-1.24-5.55a4.18,4.18,0,0,0-.7-2.41,38.77,38.77,0,0,1-1.88-4.33,30.21,30.21,0,0,0-1.78-8.81,54.6,54.6,0,0,1-1.2-5.54c-.21-1.11.45-2.38,1.07-2.13,1.6.65,3-.11,4.54-.3a8.81,8.81,0,0,0,1.49-1.5,13.55,13.55,0,0,0,.93-2.29c.34-1.17.69-2.35,1-3.5l.44.14c.31,1.92.56,3.76.92,5.58.47,2.36,1,4.71,1.55,7.07l-.69-1.42v2.14c.09.75.17,1.5.25,2.24.15,1.65.29,3.3.44,5,.24,1.28.48,2.56.73,3.85h0c-.08.22-.29.51-.22.67.42.88.9,1.73,1.36,2.59a34.08,34.08,0,0,0,1.81,10.19,40.52,40.52,0,0,1,1,5.36l-.91-1c.67,2.93,1.23,5.84.49,9L116.41,95h-.2l-1.07,3.64-.55-1.2-.32,0a4.26,4.26,0,0,0-.09.86c0,.47.12.93.19,1.39l-.53-.62-.16,1c-1.87-2.81-2.15-5.89-3.05-8.74l-.18-.27,0,0Zm-2.54-14.22-.52,0a6.61,6.61,0,0,0,1.12,5l.33-.06Zm2.78-24.76-.33,0c.36,2,.73,4,1.09,6.06l.15,0Zm-5.47,18.58,1.2,3.13C106.83,72.12,105.65,71.37,105.05,70.44Zm4.4,13.68-.31,0c.12.78.23,1.57.34,2.35l.26,0C109.64,85.69,109.54,84.91,109.45,84.12Zm.24,3.58.14,0c0-.07.1-.15.08-.21a1.35,1.35,0,0,0-.18-.26Zm.3,1h.1v-.36H110Zm.27,1,0-.15-.08,0Z" transform="translate(-1.32 -1.41)" style="fill:#04050c"/><path d="M114.41,73.23c-.46-.86-.94-1.71-1.36-2.59-.07-.16.14-.45.22-.67,0,.1.07.2.1.3l.08-.06c0-.09-.11-.17-.16-.25-.25-1.29-.49-2.57-.73-3.85.29.17.68.27.86.53.88,1.26,1.67,2.59,2.54,3.85a5.39,5.39,0,0,1,.67,3.39,1,1,0,0,1-.24.48Z" transform="translate(-1.32 -1.41)" style="fill:#301319"/><path d="M120,138.76a1.17,1.17,0,0,0,0,.11l-.07.09a2.58,2.58,0,0,1-.26-.8c.07-4.13.17-8.26.25-12.39,0-.75,0-1.5,0-2.24a3.3,3.3,0,0,1,.34,1c0,1.61-.15,3.23-.2,4.85a5.08,5.08,0,0,0,.21,1.14Z" transform="translate(-1.32 -1.41)" style="fill:#742d2f"/><path d="M120,138.76l.21-8.19.21,8.26Z" transform="translate(-1.32 -1.41)" style="fill:#db6863"/><path d="M147.84,157.56l-.15-.25.1,0,0,.29Z" transform="translate(-1.32 -1.41)" style="fill:#ec5f5c"/><path d="M106.21,52.7c-1.5.19-2.94.95-4.54.3-.62-.25-1.28,1-1.07,2.13a54.6,54.6,0,0,0,1.2,5.54,30.21,30.21,0,0,1,1.78,8.81c-5.41.68-10.82,1.55-16.22,0l-1-.2-.43-.09-.69-.67c-.29-.85-.15-1.91-1.19-2.38-.48-2.07-1-4.15-1.45-6.22a15,15,0,0,1-.49-2.45q-.2-3-.2-5.93a6.8,6.8,0,0,1,.68-1.85c.24,1.43.43,2.56.63,3.7l.25.08a6.15,6.15,0,0,0,.26-1.17A27.82,27.82,0,0,0,81,39c-.33-.68-.54-1.41-.82-2.11s-.46-1.24.34-1.74c.25-.15.33-.68.37-1.06.06-.57,0-1.15,0-1.89.33.48.54.84.8,1.16a3.5,3.5,0,0,0,.72.44c-.31-1-.61-1.85-.82-2.71-.52-2.15-1.17-4.29-.36-6.54a5.47,5.47,0,0,0,.05-1.9c-.07-3.69.82-6.95,4.2-9,2.73-1.65,5.54-3.12,8.9-3a17.21,17.21,0,0,1,6.88,2.15c.69.35,1.12,1.21,1.65,1.85,1,1.22,2.1,2.4,3,3.7s1.58,2.63,2.36,4c.12.21.27.39.4.59l.23.31.43.39.11.17.15.33.11.26.13.27c.09,1.92.19,3.85.28,5.77,0,.42,0,.84-.07,1.26v-.05c0,2.18.08,4.36.15,6.54,0,.84.14,1.66.22,2.5l-2,6.77a1.8,1.8,0,0,0-.37.42C107.44,49.48,106.83,51.09,106.21,52.7ZM107,41.26c-1.29-.78-2.51.23-3.61.45-1.53.31-2.83,1.74-4.22,2.7,0,0,0,.15,0,.31l1.38-.06c1.35-.08,2.71-.12,4.06-.25a3.22,3.22,0,0,0,2.83-2.92C107.49,41.41,107.18,41.33,107,41.26Z" transform="translate(-1.32 -1.41)" style="fill:#fbf8f7"/><path d="M64.1,64.91l-5.93,4.6.68.5-.12.28H55c.62-.84.24-1.17-.46-1.67-2.54-1.82-5-3.81-7.47-5.68a1.39,1.39,0,0,0-1.29-.11c-2,1.67-4,3.42-6,5.21l1.42,1.13-.19.29a4.54,4.54,0,0,0-4.51.11l-.15-.25,1.14-1.23c-.85-.64-1.68-1.29-2.52-1.93-1.86-1.39-3.73-2.75-5.58-4.15a2.83,2.83,0,0,0-3.89.22c-1.32,1.15-2.63,2.32-4,3.41a8.68,8.68,0,0,1-1.57.73c-1.17.6-2.32,1.22-3.81,2l.69-1.06a1.94,1.94,0,0,1-.14-.2l-1-1.86c-.14-.27-.18-.66-.4-.8-1.52-1-3.09-1.91-4.62-2.88-1-.63-1.1-1.29-.21-2.07,2.35-2.1,4.76-4.14,7.14-6.21a6.1,6.1,0,0,0,.47-.52A14.41,14.41,0,0,1,12.92,49c-.1-.12-.44,0-.52-.17-.33-.47-.94-1.09-.82-1.46.48-1.5.93-3,2.34-4.07s2.53-2.3,3.8-3.45a3.78,3.78,0,0,1,4.88-.43c1.78,1.17,3.69,2.14,5.1,3.83.43.51,1,.73,1.77-.11a19.93,19.93,0,0,1,3.13-2.21C33.82,40,35,39,36.13,38c.24-.21.25-.69.34-1.06s.18-.89.23-1.14c.45.17.68.34.9.33a2.77,2.77,0,0,1,2.45,1,50.06,50.06,0,0,0,4.23,3.56c.67.57,1.32,1.16,2,1.79l7.57-5.77a1.51,1.51,0,0,1-.42-.32c-.1-.13-.21-.37-.16-.49a.54.54,0,0,1,.46-.19,31,31,0,0,1,3.74,2.23,51.27,51.27,0,0,1,4.48,4,29.27,29.27,0,0,1,2.28,2.72l1-.81c-.12,1.16-.25,2.33-.38,3.5-.22,0-.53-.19-.64-.1-2.26,2-4.49,4-6.9,6.08.43.22.81.41,1.16.61a3.55,3.55,0,0,1,1.14.73c.5.68.72,1.61,1.31,2.16a40.82,40.82,0,0,0,3.46,2.67C64.29,61.26,64.19,63.08,64.1,64.91ZM46.62,44.42c-3.45,2.7-6.62,5-9.21,7.95,1.48,1.37,2.84,2.66,4.24,3.9s2.66,2.24,4,3.38c.77.65,1.4.3,2-.26l5.44-5c.56-.51,1.14-1,1.6-1.41ZM28.24,45.71l-8.19,7.07c1.34.87,2.47,1.56,3.55,2.32,1.39,1,3.14,1.58,3.72,3.6,2.45-2,4.87-4,7.25-6a1,1,0,0,0,.07-1,24.79,24.79,0,0,0-2.43-2.68C31,47.9,29.63,46.87,28.24,45.71Z" transform="translate(-1.32 -1.41)" style="fill:#0086bf"/><path d="M64.38,59.44a40.82,40.82,0,0,1-3.46-2.67c-.59-.55-.81-1.48-1.31-2.16a3.55,3.55,0,0,0-1.14-.73c-.35-.2-.73-.39-1.16-.61,2.41-2.13,4.64-4.12,6.9-6.08.11-.09.42.06.64.1Q64.63,53.37,64.38,59.44Z" transform="translate(-1.32 -1.41)" style="fill:#eb5e5c"/><path d="M110.13,30.44c-.09-1.92-.19-3.85-.28-5.77a2.84,2.84,0,0,0,.47.77c.51.49.81.34.81-.37l1,6.26-.37.06c-.26-1.7-.53-3.4-.79-5.1l-.51.08.95,8.06-.23,0Z" transform="translate(-1.32 -1.41)" style="fill:#301319"/><path d="M84,68.89l2.1,6.28,1,3.1-.38.15L84,71.64c-.14-.33-.34-.64-.51-1-.24-.75-.55-1.51.23-2.15Z" transform="translate(-1.32 -1.41)" style="fill:#301319"/><path d="M64.07,95.69l-1.23-3.64L63,92c.48.45,1.21.81,1.39,1.36a6.17,6.17,0,0,1,0,2.22Z" transform="translate(-1.32 -1.41)" style="fill:#0086be"/><path d="M64.34,67.91c-.09,1.89.53,3.83-.36,5.67l-.43,0c.16-1.89.33-3.78.49-5.67Z" transform="translate(-1.32 -1.41)" style="fill:#f6e900"/><path d="M84,68.89l-.29-.36-.39-2.06.24-.08.7.87L84,66.12c1,.47.9,1.53,1.19,2.38l0,0-.81.34Z" transform="translate(-1.32 -1.41)" style="fill:#f4eeec"/><path d="M86.46,91.88v3.44L86,94.8c-.11.24-.21.47-.31.71l-.21-4.77.13,0,.51,3.39.31,0Z" transform="translate(-1.32 -1.41)" style="fill:#db6863"/><path d="M65.79,40.44c-.09-1.66-.2-3.31-.26-5A8.76,8.76,0,0,1,65.76,34c0,.82-.05,1.65,0,2.46,0,.3.32.57.49.86l.17,0C66.23,38.32,66,39.38,65.79,40.44Z" transform="translate(-1.32 -1.41)" style="fill:#301319"/><path d="M66.44,37.26l-.17,0-.06-.44V35.4l.38-2.35.35.06Z" transform="translate(-1.32 -1.41)" style="fill:#f6e900"/><path d="M66.21,35.4v0Z" transform="translate(-1.32 -1.41)" style="fill:#301319"/><path d="M109.72,24.4l-.11-.26Z" transform="translate(-1.32 -1.41)" style="fill:#301319"/><path d="M109.46,23.81l-.11-.17Z" transform="translate(-1.32 -1.41)" style="fill:#301319"/><path d="M108.92,23.25l-.23-.31Z" transform="translate(-1.32 -1.41)" style="fill:#301319"/><path d="M108.44,47.46l2-6.77c.45-.68.93-1.34,1.37-2,.57-.89,1.36-.95,2.38-.54-.1-.33-.13-.66-.23-.68-.64-.14-1-.59-.48-1s1-1,1.74-.21,1.63,1.88,2.52,2.74a8,8,0,0,0,1.61,1l3.12-2.78c.94-.85,1.91-1.67,2.79-2.58A6,6,0,0,0,126,33l3.53-.2-.44.84a6.11,6.11,0,0,0,.6.53c1.76,1.21,3.55,2.38,5.29,3.62a16.56,16.56,0,0,1,2.56,2.07.94.94,0,0,0,1.49,0c1.9-1.75,3.74-3.56,5.62-5.37-.41-.41-.82-.85-1.24-1.28l.14-.39c1.55,1,3,.27,4.49-.26l.08.34-1.05,1.44c1.69,1.08,3.36,2.12,5,3.21,1,.67,1.91,1.51,2.94,2.13a10.46,10.46,0,0,0,2.47.92,1,1,0,0,0,.82-.25c1.28-1.15,2.45-2.45,3.82-3.5s2.84-1.76,4.26-2.65a9.69,9.69,0,0,1,2.23-1.19l-.74,1c.39.83.74,1.6,1.12,2.36.11.22.37.56.46.53,1.07-.36,1.29.63,1.87,1.08a16.58,16.58,0,0,0,2.28,1.4c1.61.89,1.65,1.49.33,2.75-2.08,2-4.1,4.06-6.16,6.09-.21.21-.47.37-1,.75a5.64,5.64,0,0,1,1.65.45c1.18.8,2.28,1.71,3.41,2.58.09.07.14.2.22.28.48.44,1.4.92,1.37,1.32a6,6,0,0,1-1,3.27,77,77,0,0,1-5.53,5.61c-.82.79-2.92.48-4.25-.09-2.29-1-3.84-2.91-5.95-4.24-2.07,1.57-4.22,3.09-6.23,4.77-.92.76-2.19,1.63-.91,3.47-1.68-.43-3.2.63-4.36-1.23-.65-1-2.11-1.54-3.17-2.33s-2.09-1.67-3.13-2.49l-7.2,5.88.59,1c-.28,0-.53.15-.69.08a22,22,0,0,1-3.1-1.47,25.66,25.66,0,0,1-2.43-2.14c-1.76-1.54-3.54-3.07-5.45-4.72-.5.8-1.11,1.63-1.57,2.54a1.17,1.17,0,0,1-1.55.71c-.86-.31-1.65-.8-2.49-1.18s-1.09-.76-.45-1.6l-1.91-1c0-.08-.07-.16-.11-.23h0c-.52-2.36-1.08-4.71-1.55-7.07-.36-1.82-.61-3.66-.92-5.58l-.44-.14c-.33,1.15-.68,2.33-1,3.5C108.57,48.42,108.5,47.94,108.44,47.46Zm39.38,2.61-9.57-7.78-8.06,7.93L139,58.16Zm-20.21,0c-.28-.2-.77-.73-.94-.65-1,.54-1.3-.3-1.56-.89a6.83,6.83,0,0,0-2.69-3c-1.19-.78-2.25-1.76-3.23-2.54-1.69,1.85-3.41,3.8-5.21,5.67a1.42,1.42,0,0,0-.31,1.89,10.16,10.16,0,0,0,2.07,2c1.69,1.34,3.41,2.65,5,3.88Zm29.64-6.59-7.08,6.35a5.68,5.68,0,0,0,.8,1.3c1.26,1.18,2.54,2.34,3.88,3.41,2.23,1.78,2.23,1.73,4.29-.29,1.6-1.56,3.19-3.14,4.89-4.58.74-.62.54-.89-.05-1.26-1.76-1.14-3.55-2.22-5.29-3.39A9.62,9.62,0,0,1,157.25,43.45Z" transform="translate(-1.32 -1.41)" style="fill:#0086bf"/><path d="M111.87,58.92V56.78l.69,1.42h0l.13.22Z" transform="translate(-1.32 -1.41)" style="fill:#0086bf"/><path d="M112.69,58.42l-.13-.22c0,.07.07.15.11.23Z" transform="translate(-1.32 -1.41)" style="fill:#04050c"/><path d="M110.05,31.65v0Z" transform="translate(-1.32 -1.41)" style="fill:#301319"/><path d="M85.22,68.5l.69.67-.72-.2c0-.14,0-.29,0-.43Z" transform="translate(-1.32 -1.41)" style="fill:#f4eeec"/><path d="M85.18,68.54c0,.14,0,.29,0,.43l-.48,0-.29-.05h0Z" transform="translate(-1.32 -1.41)" style="fill:#fbf8f7"/><path d="M109,86.52l.21,1.17Z" transform="translate(-1.32 -1.41)" style="fill:#301319"/><path d="M86.34,69.26l1,.2Z" transform="translate(-1.32 -1.41)" style="fill:#f4eeec"/><path d="M109.25,88l.19.72Z" transform="translate(-1.32 -1.41)" style="fill:#301319"/><path d="M109.51,89l.19.55Z" transform="translate(-1.32 -1.41)" style="fill:#301319"/><path d="M110.45,91.07l.18.27Z" transform="translate(-1.32 -1.41)" style="fill:#301319"/><path d="M110.28,90.84l.13.18Z" transform="translate(-1.32 -1.41)" style="fill:#301319"/><path d="M84.42,68.88l.29.05Z" transform="translate(-1.32 -1.41)" style="fill:#f4eeec"/><path d="M107.74,76.62l.93,5-.33.06a6.61,6.61,0,0,1-1.12-5Z" transform="translate(-1.32 -1.41)" style="fill:#f6e900"/><path d="M108.44,47.46c.06.48.13,1,.19,1.45a13.55,13.55,0,0,1-.93,2.29,8.81,8.81,0,0,1-1.49,1.5c.62-1.61,1.23-3.22,1.86-4.82A1.8,1.8,0,0,1,108.44,47.46Z" transform="translate(-1.32 -1.41)" style="fill:#f6e900"/><path d="M110.52,51.86l.91,6.09-.15,0c-.36-2-.73-4-1.09-6.06Z" transform="translate(-1.32 -1.41)" style="fill:#0086be"/><path d="M105.05,70.44c.6.93,1.78,1.68,1.2,3.13Z" transform="translate(-1.32 -1.41)" style="fill:#f6e900"/><path d="M109.45,84.12c.09.79.19,1.57.29,2.36l-.26,0c-.11-.78-.22-1.57-.34-2.35Z" transform="translate(-1.32 -1.41)" style="fill:#301319"/><path d="M109.69,87.7l0-.44a1.35,1.35,0,0,1,.18.26c0,.06,0,.14-.08.21Z" transform="translate(-1.32 -1.41)" style="fill:#301319"/><path d="M110,88.74v-.36h.1v.36Z" transform="translate(-1.32 -1.41)" style="fill:#301319"/><path d="M110.26,89.73l0-.13.08,0Z" transform="translate(-1.32 -1.41)" style="fill:#301319"/><path d="M113.29,70c0,.08.11.16.16.25l-.08.06c0-.1-.06-.2-.1-.3Z" transform="translate(-1.32 -1.41)" style="fill:#04050c"/><path d="M100.6,44.66l-1.38.06c0-.16-.06-.29,0-.31,1.39-1,2.69-2.39,4.22-2.7,1.1-.22,2.32-1.23,3.61-.45A4.38,4.38,0,0,1,104.61,43C103.24,43.45,101.93,44.1,100.6,44.66Z" transform="translate(-1.32 -1.41)" style="fill:#ea635f"/><path d="M100.6,44.66c1.33-.56,2.64-1.21,4-1.65A4.38,4.38,0,0,0,107,41.26c.16.07.47.15.47.23a3.22,3.22,0,0,1-2.83,2.92C103.31,44.54,102,44.58,100.6,44.66Z" transform="translate(-1.32 -1.41)" style="fill:#db6863"/><path d="M46.62,44.42,54.68,53c-.46.4-1,.9-1.6,1.41l-5.44,5c-.61.56-1.24.91-2,.26-1.32-1.14-2.68-2.23-4-3.38s-2.76-2.53-4.24-3.9C40,49.46,43.17,47.12,46.62,44.42Z" transform="translate(-1.32 -1.41)" style="fill:#eb5e5c"/><path d="M28.24,45.71c1.39,1.16,2.73,2.19,4,3.34a24.79,24.79,0,0,1,2.43,2.68,1,1,0,0,1-.07,1c-2.38,2-4.8,4-7.25,6-.58-2-2.33-2.63-3.72-3.6-1.08-.76-2.21-1.45-3.55-2.32Z" transform="translate(-1.32 -1.41)" style="fill:#eb5e5c"/><path d="M147.82,50.07,139,58.16l-8.78-7.94,8.06-7.93Z" transform="translate(-1.32 -1.41)" style="fill:#eb5e5c"/><path d="M127.61,50l-6.85,6.28c-1.61-1.23-3.33-2.54-5-3.88a10.16,10.16,0,0,1-2.07-2,1.42,1.42,0,0,1,.31-1.89c1.8-1.87,3.52-3.82,5.21-5.67,1,.78,2,1.76,3.23,2.54a6.83,6.83,0,0,1,2.69,3c.26.59.51,1.43,1.56.89C126.84,49.31,127.33,49.84,127.61,50Z" transform="translate(-1.32 -1.41)" style="fill:#eb5e5c"/><path d="M157.25,43.45A9.62,9.62,0,0,0,158.69,45c1.74,1.17,3.53,2.25,5.29,3.39.59.37.79.64.05,1.26-1.7,1.44-3.29,3-4.89,4.58-2.06,2-2.06,2.07-4.29.29-1.34-1.07-2.62-2.23-3.88-3.41a5.68,5.68,0,0,1-.8-1.3Z" transform="translate(-1.32 -1.41)" style="fill:#eb5e5c"/></svg>