<svg id="9d819093-9dfe-4462-bd6b-efe3cc1867dd" data-name="Calque 1" xmlns="http://www.w3.org/2000/svg" viewBox="0 0 546.64 414.08"><title>vectorized-woman-header</title><path d="M283,333.2h-1a12.43,12.43,0,0,0-3,.41l-8.46.54a17.76,17.76,0,0,0-3.9.25l-7.06.46h0l-5,.33h0l-6.69.43h-.65a24.75,24.75,0,0,0-6.05.44h0l-.56.13a4.49,4.49,0,0,1-3.11,2.71,4.49,4.49,0,0,0,3.11-2.71l.56-.13-1.9.12-3.64,0a13.6,13.6,0,0,1-1.86.37q-7.58.53-15.14,1c-.43,0-.87,0-1.3,0H216l-1,0-6.26.44h0l-.46.16-3.43.22-3.28.1h0a.82.82,0,0,0-1.44,0l-2.8,0c-1.79.11-3.64-.53-5.37.44l-7.75.66v.05l-6.11.39c-.91,0-1.8,0-2.66,0s-1.42.26-2.13.25a5.66,5.66,0,0,0-1.69.15l-7.24.47c-1.45,0-2.92,0-4.39,0a2,2,0,0,0-.91.3l-6.09.39c-.27-.21-.7-.15-1.58,0a9.3,9.3,0,0,1-1.66.14,9.75,9.75,0,0,0-3.21.3l-5.79.38a1.58,1.58,0,0,0-.65-.12,43.56,43.56,0,0,0-5.84.53l-7.06.46a.91.91,0,0,0-.07-.14c-3.72.22-7.58.41-11.43.68-1.9.13-3.8.29-5.71.45l-5.7.48h0l.48,2.25h0c.2,1.32.39,2.64.59,4v4.83h0l0,.19.68.17c0,.37-.06.74-.09,1.13,0-.39.06-.76.09-1.13l-.68-.17c-1,2.24-.7,4.6-.68,6.94l-.06.85-1.17,5.71h0c-2.24,3.56-4.47,7.14-6.75,10.68-.63,1-1.09,1.95-.49,3.11.72.34,1.47.63,2.15,1,4.59,2.77,9.13,5.61,13.75,8.33a195.2,195.2,0,0,0,26.72,13.53c5.64,2.25,11.12,4.91,16.65,7.42.43.2,1.35.15,1,1.12H260.63c.77-1.14,1.46-2.35,2.33-3.42,2.2-2.72,4.47-5.37,5.87-8.63.22-.42.44-.85.67-1.27a2.2,2.2,0,0,1-.78-1.58,2.2,2.2,0,0,0,.78,1.58,8.66,8.66,0,0,0,1.07-6.38c-.09-.78-.17-1.56-.26-2.34q-.39-3.42-.8-6.86c.05-1.59.09-3.18.14-4.76.06-.47.13-.93.2-1.4h0l.25-1,1.38-4.31h0l1.74-4.75L274,368l3-5c.56-1.13,1.13-2.25,1.7-3.38-.56.16-1.13.28-1.68.45.55-.17,1.12-.29,1.68-.45a23.83,23.83,0,0,0,3.54-8.61l1-5.35c.29-1.75.59-3.5.88-5.26.29-2.39.57-4.77.85-7.16h0Zm-4.22,5.95c-.14,0-.28-.08-.41-.12C278.51,339.07,278.65,339.12,278.79,339.15Zm-43.66,21.62a3,3,0,0,0,1.06-.73A3,3,0,0,1,235.13,360.77Zm1.24-1a2.15,2.15,0,0,0,.18-.24A2.15,2.15,0,0,1,236.37,359.8Zm2.71-13.4a4.48,4.48,0,0,0,1.36-.61A4.48,4.48,0,0,1,239.08,346.4Zm-2.44-.24h0a5.06,5.06,0,0,0,.6.18A5.06,5.06,0,0,1,236.64,346.16Zm0,0c0,.31,0,.62,0,.93,0-.31,0-.62,0-.93Zm31.35,45a4.53,4.53,0,0,0-.91.61A4.53,4.53,0,0,1,268,391.18Zm.06,0a3.39,3.39,0,0,1,1.33-.33A3.39,3.39,0,0,0,268,391.16ZM275,339c0,.34.08.69.13,1-.05-.36-.09-.71-.13-1Zm-77.68-.11a4.9,4.9,0,0,1-.88,3.13,3.65,3.65,0,0,1-1.11.93,3.65,3.65,0,0,0,1.11-.93,4.9,4.9,0,0,0,.88-3.13Zm-20,68.75c-.31-.11-.62-.23-.93-.37C176.72,407.38,177,407.5,177.34,407.61Zm92.33-16.8h0c-.26-.54-.46-1.11-.77-1.62C269.21,389.7,269.41,390.27,269.67,390.81Zm0-16.78a1.81,1.81,0,0,0,1.42.45h0A1.81,1.81,0,0,1,269.68,374Z" transform="translate(-0.66 -1.18)" style="fill:#0085be"/><path d="M340.82,329.8l1.27-.22-3.88.25C339.08,329.78,340,329.84,340.82,329.8Z" transform="translate(-0.66 -1.18)" style="fill:#0085be"/><path d="M400.75,359.7l-3.37,1.23h0l-4.24,1.65,0,4.39,5.84-4.85h0Z" transform="translate(-0.66 -1.18)" style="fill:#0085be"/><path d="M377.36,364l-2.41-.47L371.48,361l-.78-1.52a12.12,12.12,0,0,1-.45-5.61q1.26-7,2.53-13.92L374,335.2h0l2.75-5.37c1-2.13,2.74-2.69,5-2.82l-8,.52a2.22,2.22,0,0,0-.73,0l-.93.14-12.12.78h-1.43c-.12-.09-.29-.29-.36-.26a8.7,8.7,0,0,1-1.47.48l-11.88.77-1.62,0-1.13.2h0l-1.27.22c-.86,0-1.74,0-2.61,0H338l-.57.06.57-.06-4.62.3a2.42,2.42,0,0,0-1.77.11l-14.22.92,5.49,4.49,1.73,1.7h0l1.8,1.65,3.73,3.23.87.71,4.41,3.78L338,349h0l3.2,3h0l2.88,2.74,2,2.06c.57,1.71,1.15,3.41,1.72,5.12l.69,1.45c1.42-.39,2.85-.75,4.26-1.16-1.41.41-2.84.77-4.26,1.16l.9,2a8.52,8.52,0,0,0,2.93,4.33,9.08,9.08,0,0,0,1.49,1.1c3,1.47,6,2.89,9,4.32,3.57,2.51,7.2,2.17,10.05-.84a4.41,4.41,0,0,1,1.78-.9c1.34-.47,2.7-.86,4.05-1.28l2.88-.41a19.13,19.13,0,0,0,8.65-2.95h0l2.89-1.76,0-4.39-7.67,1.91Zm6.44,2.75c.54-.14,1.08-.26,1.62-.41h0c-.54.15-1.08.27-1.62.41s-1.09.28-1.62.46C382.71,367,383.25,366.87,383.8,366.74Zm-26.26-25.51a4.65,4.65,0,0,1,.65-.74A4.65,4.65,0,0,0,357.54,341.23Zm-.72-6.33a11.7,11.7,0,0,1,.73-2.16A11.7,11.7,0,0,0,356.82,334.9Zm-1.22,3.68c0-.41.1-.79.14-1.17h0C355.7,337.79,355.65,338.17,355.6,338.58Zm-4.23-9.27a2.83,2.83,0,0,1,.28-.23,2.83,2.83,0,0,0-.28.23l-1,.05Zm-21.9,3.14-3,4.12h0ZM342.37,351a5.86,5.86,0,0,0,1.8-2.56h0A5.86,5.86,0,0,1,342.37,351Z" transform="translate(-0.66 -1.18)" style="fill:#0085be"/><path d="M156.14,415.26c.37-1-.55-.93-1-1.12-5.53-2.51-11-5.18-16.65-7.42a195.2,195.2,0,0,1-26.72-13.53c-4.62-2.72-9.16-5.56-13.75-8.33a23.57,23.57,0,0,0-2.15-1c-.6-1.16-.14-2.12.49-3.11,2.28-3.55,4.51-7.12,6.75-10.69,2.11,1.56,4.23,3.1,6.32,4.68a5.34,5.34,0,0,0,3.54,1.2c1.19,0,2.18.29,2.45,1.74a2.14,2.14,0,0,0,1,1.18c2.37,1.32,4.79,2.55,7.17,3.85a2.46,2.46,0,0,0,2.27-.05c1.18-.45,2.13-.13,2.18.94.12,2.22,1.9,2.48,3.45,3.52,1.51-3.75,4.76-3.61,7.82-4,.77,3.05.54,3.55-1.87,4.55-.78.33-1.57.64-2.51,1a2.92,2.92,0,0,0,3.07,1.69,1.94,1.94,0,0,1,2.34,1.47c.48,1.45,2,1.61,3,2.19.84-.76,1.56-1.39,2.24-2a1.92,1.92,0,0,1,2.2-.45,1.35,1.35,0,0,1,.77,2.11,19.79,19.79,0,0,1-1.67,2,15.29,15.29,0,0,0,1.6,1c1.66.79,3.35,1.51,5,2.27,1.4.64,2.74,1.23,4.29.26a3.79,3.79,0,0,1,1.87-.19c.89,0,1.64.37,1.6,1.37,0,1.24.69,1.65,1.67,2,2.88,1,5.75,1.93,8.6,2.94a10.79,10.79,0,0,1,1.63.95,14.17,14.17,0,0,0,5.93,2.38l4.77,1.92c1.5.52,3,1.5,4.5,1.47,3.16-.09,5.7,1.49,8.47,2.47.66.23,1.29.56,1.93.85Z" transform="translate(-0.66 -1.18)" style="fill:#0085be"/><path d="M229.58,415.26a4,4,0,0,1,2-3.58,2.12,2.12,0,0,0,1.15-2.8,2.71,2.71,0,0,1,1.21-3.51,2.54,2.54,0,0,0,1.08-3.27c-.48-1.62-.39-3.07,1.28-4.2,1.3-.88,1.16-1.51-.18-2.46-1.71-1.22-1.88-3.07-.23-4.36,1-.78,1.62-1.5,1.11-2.78-2.75-1.17-3-2.56-.93-4.77.67-.71,1.42-1.34.86-2.6a4.65,4.65,0,0,0-1-.21,2.19,2.19,0,0,1-2.33-1.32,3,3,0,0,1,1.4-3,3.68,3.68,0,0,0,2.49-3.64c-.65.21-1.2.41-1.77.57-.95.26-2,.52-2.55-.57a2.44,2.44,0,0,1,.36-2.9,8.6,8.6,0,0,1,1.49-1.18c1.13-.75,1.14-.73,1.55-2.61a9.52,9.52,0,0,0-1.34.07c-.95.18-1.93.47-2.57-.59a3.47,3.47,0,0,1,.45-3.37,2.36,2.36,0,0,1,1-.68c2.12-.48,2.65-2,2.76-3.91a.65.65,0,0,1,.29-.3,9.18,9.18,0,0,1,2.1-.41,6.64,6.64,0,0,1,2.5.5,1.12,1.12,0,0,1,.32,2,14.51,14.51,0,0,1-3.07,2.59c-1.08.59-1.29,1.2-1,2.16a18.78,18.78,0,0,1,3.37.37c1.37.41,1.63,1.48.68,2.59a19.61,19.61,0,0,1-2.28,2.08c-.29.25-.79.35-1,.64a1.87,1.87,0,0,0-.17,1.31c0,.18.65.26,1,.32a11.61,11.61,0,0,1,2.53.37c1.45.58,1.64,1.62.55,2.77-.71.75-1.57,1.34-2.32,2.05-.43.4-.78.88-1.48,1.68,1.26.3,2.08.45,2.87.7,1.82.57,2.06,1.51.84,2.94-.86,1-1.67,2.06-2.65,3.28,1,.54,1.67.86,2.3,1.3,1.43,1,1.44,1.74.17,3a8.47,8.47,0,0,0-1.2,1.47c-.94,1.45-.8,1.9.71,2.79,1.86,1.08,2,1.72.41,3.23s-2.34,2.81-1.06,4.79a1.41,1.41,0,0,1-.36,1.94,11.47,11.47,0,0,0-2.43,2.63c0,.15-.13.34-.08.46a3.65,3.65,0,0,1-1.34,5.13,3.16,3.16,0,0,0-1.24,3.39Z" transform="translate(-0.66 -1.18)" style="fill:#0085be"/><path d="M252.63,414.93a4.76,4.76,0,0,1,2.92-5c1.47-.68,2.45-.23,2.81,1.38a5.2,5.2,0,0,0,.49,1.66c.51-1.42,1-2.74-.57-3.93a2.65,2.65,0,0,1-.6-3.25c.59-1.07,2.85-2.26,3.84-2s1.14,1,1.2,1.83-.36,1.76.56,2.32c1-.17.8-.92.85-1.51q.36-3.87,4.37-3.23c-1.4,3.26-3.67,5.92-5.87,8.64-.87,1.06-1.56,2.27-2.33,3.42h-7.68C252.62,415.15,252.62,415,252.63,414.93Z" transform="translate(-0.66 -1.18)" style="fill:#0085be"/><path d="M252.63,414.93c0,.11,0,.22,0,.33h-7.2c.21-2.85,2-4.12,4.62-3.15.79.29,1.64.61,1.36,1.83C251.17,415,252.14,414.69,252.63,414.93Z" transform="translate(-0.66 -1.18)" style="fill:#0085be"/><path d="M221.42,415.26a4,4,0,0,1,2.41-3.74c1.66-.86,2.75-.22,2.88,1.62,0,.7,0,1.41,0,2.12Z" transform="translate(-0.66 -1.18)" style="fill:#0085be"/><path d="M211.34,415.26c.77-3.33,2.95-4.08,6.16-2-.13.61-.26,1.29-.4,2Z" transform="translate(-0.66 -1.18)" style="fill:#0085be"/><path d="M200.3,415.26c-.15-1.54,1-2.3,2-3s2.49.14,2.76,1.36a9.13,9.13,0,0,1,0,1.66Z" transform="translate(-0.66 -1.18)" style="fill:#0085be"/><path d="M238.22,415.26a10.39,10.39,0,0,1,1.73-2.13c.37-.28,1.21-.07,1.79.09a1.77,1.77,0,0,1,1.28,2Z" transform="translate(-0.66 -1.18)" style="fill:#0085be"/><path d="M274.7,339.42c.6-1.08,1.29-1.05,2.29-.4a11,11,0,0,0,2.53.9L278,342l2,2.35c1.29-1.48,1.58-3.63,3.83-3.5-.29,1.75-.59,3.51-.88,5.26-1.58,0-2.41.86-3,2.24l2,3.11a23.91,23.91,0,0,1-3.54,8.61,18.29,18.29,0,0,0-2.22.65,14.8,14.8,0,0,0-1.79,1.1c-2.41-1.36-2.59-2.56-.67-4.34a6,6,0,0,1,1.58-1.06c1.26-.57,1.58-1.45,1-2.87l-1.45.6a1.7,1.7,0,0,1-2.1-.66,1.64,1.64,0,0,1,0-2.2c.8-1,1.66-1.92,2.67-3.08L275,347c-.25,0-.5-.17-.69-.11a1.69,1.69,0,0,1-2.34-1,2.16,2.16,0,0,1,.8-2.75c.69-.52,1.42-1,2.15-1.52Z" transform="translate(-0.66 -1.18)" style="fill:#0085be"/><path d="M343.73,355.22a36.45,36.45,0,0,1,5.85-4.72,4.64,4.64,0,0,0,1.84-1.66,2.84,2.84,0,0,1,2.89-1.7c1.78.07,3.05-.33,3.69-2.24a2.46,2.46,0,0,1,2.66-1.66,2.13,2.13,0,0,0,2.42-1.46,3.93,3.93,0,0,1,1.07-1.27,2.27,2.27,0,0,1,3.21.26,2.1,2.1,0,0,1-.17,2.82A4.84,4.84,0,0,1,365,345a5.84,5.84,0,0,0-3,1.83,12.53,12.53,0,0,1-1.72,1.24c-.26.18-.69.26-.79.49-1.16,2.86-3.91,3.38-6.33,4.4-.32.14-.53.53-.79.8-.48.51-.87,1.21-1.46,1.48-1.7.78-3.48,1.38-5.23,2.05Z" transform="translate(-0.66 -1.18)" style="fill:#0085be"/><path d="M362.48,375.57c.15-.06.37-.09.42-.2,1.15-2.37,3.61-3.2,5.53-4.63,2.48-1.85,5.29-.89,6.47,2.05,1.13-.1,2.23-1.5,3.46-.25-1.35.43-2.71.82-4.05,1.29a4.52,4.52,0,0,0-1.78.89C369.68,377.74,366.05,378.08,362.48,375.57Z" transform="translate(-0.66 -1.18)" style="fill:#0085be"/><path d="M347.46,362.41a28.13,28.13,0,0,1,2.07-3.43,42.29,42.29,0,0,1,3.3-3.4c1.32-1.32,2.45-1.49,3.84-.56,1.76,1.16,1.8,2,.35,3.61-.94,1.06-1.77,2.23-2.65,3.36l0,0c-.66.25-1.31.53-2,.73-1.41.41-2.84.77-4.26,1.15Z" transform="translate(-0.66 -1.18)" style="fill:#0085be"/><path d="M354.37,362c1.39-.06,2.74-.77,4.19,0,1.64.87,2,2,.77,3.38a38.38,38.38,0,0,1-3.39,3.36,5.64,5.64,0,0,1-4,1.42,8.51,8.51,0,0,1-2.93-4.34c.9-.21,1.81-.41,2.7-.63,2-.52,2.42-1,2.64-3.21Z" transform="translate(-0.66 -1.18)" style="fill:#0085be"/><path d="M381.24,372.14a14.83,14.83,0,0,1,2-2.73,5.9,5.9,0,0,0,1.81-2.63,20.73,20.73,0,0,1,3.5-1.39c1.21-.25,1.75.45,1.6,1.67-.08.71-.2,1.42-.3,2.13A19.37,19.37,0,0,1,381.24,372.14Z" transform="translate(-0.66 -1.18)" style="fill:#0085be"/><path d="M330.69,343.41a2.84,2.84,0,0,1,3.23-.94,2.79,2.79,0,0,0,2.86-.59,5.81,5.81,0,0,1,1.45-.82,1.49,1.49,0,0,1,2,1.8c-.35,2-2,2.57-3.54,3.16-.67.26-1.44.22-1.56,1.16Z" transform="translate(-0.66 -1.18)" style="fill:#0085be"/><path d="M327,337a20.51,20.51,0,0,1,3.2-1.39c1.27-.32,1.92.27,2,1.57.17,1.81-.11,3.45-1.77,4.57-.3.2-.45.61-.68.92q-1.86-1.62-3.73-3.23C326.41,338.66,326.72,337.84,327,337Z" transform="translate(-0.66 -1.18)" style="fill:#0085be"/><path d="M269.88,395.55c-.56.28-1.14.55-1.68.87-.88.52-1.73.87-2.56-.09a2.17,2.17,0,0,1-.07-2.85c1-1.18,2.05-2.26,3.77-2.21.21.65.43,1.3.64,2s.18,1.56.26,2.33A.87.87,0,0,0,269.88,395.55Z" transform="translate(-0.66 -1.18)" style="fill:#0085be"/><path d="M392.78,367.43l0-4.4,4.24-1.65,1.57,1.2Z" transform="translate(-0.66 -1.18)" style="fill:#0085be"/><path d="M337.65,349.47c.51-.14,1.23-.12,1.49-.45,1.27-1.6,2.95-1.55,4.69-1.41,0,.43,0,.87,0,1.3-.51,1.6-1.78,2.56-3,3.58Z" transform="translate(-0.66 -1.18)" style="fill:#0085be"/><path d="M270.77,374.94c-1.29,0-1.88-.6-1.86-1.89a3,3,0,0,1,2.1-2.83,9.76,9.76,0,0,1,1.88-.08l-1.74,4.75A1,1,0,0,0,270.77,374.94Z" transform="translate(-0.66 -1.18)" style="fill:#0085be"/><path d="M273.68,368.45c-1.35-.47-1.39-1.58-1.36-2.73v-.89l1.94-.64,2.44-.76Z" transform="translate(-0.66 -1.18)" style="fill:#0085be"/><path d="M269.88,395.55a.87.87,0,0,1,.36,0,8.67,8.67,0,0,1-1.07,6.39,2.14,2.14,0,0,1-.18-3.14A4.15,4.15,0,0,0,269.88,395.55Z" transform="translate(-0.66 -1.18)" style="fill:#0085be"/><path d="M270,393.22c-.21-.65-.43-1.3-.64-2a17.4,17.4,0,0,0-.77-1.63c-.89-1.45-.8-2,.61-3.28C269.45,388.65,269.72,390.93,270,393.22Z" transform="translate(-0.66 -1.18)" style="fill:#0085be"/><path d="M398.62,362.58l-1.57-1.2,3.37-1.23Z" transform="translate(-0.66 -1.18)" style="fill:#0085be"/><path d="M270.77,374.94a1,1,0,0,1,.38-.05l-1.38,4.31C270.11,377.78,270.44,376.36,270.77,374.94Z" transform="translate(-0.66 -1.18)" style="fill:#0085be"/><path d="M269.32,381.59c-.51-.54-.4-1,.2-1.39C269.45,380.66,269.38,381.13,269.32,381.59Z" transform="translate(-0.66 -1.18)" style="fill:#0085be"/><path d="M305.6,332.15l.59,0Z" transform="translate(-0.66 -1.18)" style="fill:#0085be"/><path d="M313.28,331.68l.59,0Z" transform="translate(-0.66 -1.18)" style="fill:#0085be"/><path d="M185.09,384.47c.57-.45,1-.88,1.57-1.22a3.29,3.29,0,0,1,3.93.49,1.26,1.26,0,0,1,.16,1.9c-.69.76-1.42,1.5-2.18,2.2a1.89,1.89,0,0,1-2.43.15,2.71,2.71,0,0,0-3.1.12,3.79,3.79,0,0,1-2,.67,2.82,2.82,0,0,1-2-1,2.28,2.28,0,0,1,.22-1.94C180.29,384.21,183.09,383.52,185.09,384.47Z" transform="translate(-0.66 -1.18)" style="fill:#0085be"/><path d="M272.32,364.83v.89c-.42.36-.86.71-1.27,1.09-1.78,1.59-2.27,1.66-4.18.75l-6.24,1.86c-.06-2-.66-3.54,1.12-4.77,1.62-1.12,3-.49,4.57.23,1.15-1.1,2.32-2.15,4.12-2C271.68,363,272.39,363.49,272.32,364.83Z" transform="translate(-0.66 -1.18)" style="fill:#0085be"/><path d="M237.13,357.24a.65.65,0,0,0-.29.3c-.87.37-1.73.77-2.61,1.11s-1.88.46-2.48-.64a2.75,2.75,0,0,1,.62-3.25,7.61,7.61,0,0,1,2.13-1,3.12,3.12,0,0,0,2.17-1.94,3.47,3.47,0,0,1,4-2.24,2.74,2.74,0,0,1,1.61,1.2c.18.37-.22,1.17-.56,1.63a4.42,4.42,0,0,1-4.23,2C237.38,355.41,237.26,356.32,237.13,357.24Z" transform="translate(-0.66 -1.18)" style="fill:#0085be"/><path d="M185.37,380.54c-.89-.43-2.18.18-3.49.76a3.37,3.37,0,0,1-1.39.29,1.69,1.69,0,0,1-1.5-2.38,4.7,4.7,0,0,1,4.45-2.67,3.37,3.37,0,0,0,2.42-.58,2.56,2.56,0,0,1,2.72-.16c1.79.87,2,1.82.61,3.28C188.31,380,187.47,381,185.37,380.54Z" transform="translate(-0.66 -1.18)" style="fill:#0085be"/><path d="M186.48,368.2a16.47,16.47,0,0,1,2,.71,1.24,1.24,0,0,1,.58,1.83c-.9,1.26-1.74,2.66-3.61,2.79a33.49,33.49,0,0,0-4.45.6c-.78.16-1.54.22-1.84-.54a2.81,2.81,0,0,1,0-2,2.92,2.92,0,0,1,1.38-1.56C182.5,369.34,184.48,368.81,186.48,368.2Z" transform="translate(-0.66 -1.18)" style="fill:#0085be"/><path d="M260.73,361.85c-.83-3.05.29-4.79,3.14-5.13,1-.13,2-.44,3-.65.39-.09.84-.3,1.15-.17a4.76,4.76,0,0,1,2.17,1.23c.59.86-.24,1.59-.84,2.25a4.49,4.49,0,0,1-3.49,1.7A34.41,34.41,0,0,0,260.73,361.85Z" transform="translate(-0.66 -1.18)" style="fill:#0085be"/><path d="M180.76,366.79c-1.78-.05-2.37-.94-1.82-2.39.83-2.15,6.65-4,8.6-2.71.73.48,1,1.18.36,1.81-1.26,1.31-2.16,3.19-4.57,2.85A8,8,0,0,0,180.76,366.79Z" transform="translate(-0.66 -1.18)" style="fill:#0085be"/><path d="M235.27,336.6l5,0c-.84,2-2.49,2.78-4.6,3a6.92,6.92,0,0,0-.29,1.15c-.2,2.09-1.11,3.13-3.17,3.42-.94.14-2,.27-2.48-.87a2.58,2.58,0,0,1,.82-3,8.54,8.54,0,0,1,2.83-1.21A2,2,0,0,0,235.27,336.6Z" transform="translate(-0.66 -1.18)" style="fill:#0085be"/><path d="M133.4,381.42c-.64-.31-1.72-.49-1.89-1a3.63,3.63,0,0,1,.41-2.41,2.61,2.61,0,0,1,1.42-1.21,40.5,40.5,0,0,1,4.83-1.3c.92-.19,1.48.36,1.61,1.34a3,3,0,0,1-2.07,3.39A36.08,36.08,0,0,1,133.4,381.42Z" transform="translate(-0.66 -1.18)" style="fill:#0085be"/><path d="M132.72,374.17c-.61-.31-1.59-.5-1.71-.94a3.84,3.84,0,0,1,.31-2.41,2.66,2.66,0,0,1,1.43-1.19,31.28,31.28,0,0,1,4.55-1.35c1.45-.29,2,.43,1.81,1.9a3.1,3.1,0,0,1-2.37,2.91C135.45,373.47,134.15,373.79,132.72,374.17Z" transform="translate(-0.66 -1.18)" style="fill:#0085be"/><path d="M180.07,359.66c-.43-.33-1.46-.75-1.49-1.24-.06-.83.26-2.17.86-2.49a29.83,29.83,0,0,1,5.49-2c.43-.13,1.07.23,1.54.49.83.46,1.13,1.22.43,2-1.23,1.28-2.22,3-4.42,2.8A9.93,9.93,0,0,0,180.07,359.66Z" transform="translate(-0.66 -1.18)" style="fill:#0085be"/><path d="M138.12,361.09c.48,3.38,0,4-2.79,4.78-1,.26-2,.63-3,.84a1.77,1.77,0,0,1-2.23-.91,4.31,4.31,0,0,1,.31-2.19,1.32,1.32,0,0,1,.61-.71A14,14,0,0,1,138.12,361.09Z" transform="translate(-0.66 -1.18)" style="fill:#0085be"/><path d="M137.08,353.86c.86,2.8.06,4.11-2.48,4.76-.69.18-1.35.48-2,.7-1.39.44-2.51.19-3-.73-.59-1.15.08-2.07.83-2.75C132.3,354.16,134.61,353.85,137.08,353.86Z" transform="translate(-0.66 -1.18)" style="fill:#0085be"/><path d="M260.08,354.51c-.44-3.2.25-4.3,3.1-5a10.09,10.09,0,0,1,2.81-.43,2.29,2.29,0,0,1,1.75.86,2.33,2.33,0,0,1-.46,1.89,5.54,5.54,0,0,1-4.68,2.45C261.81,354.28,261,354.42,260.08,354.51Z" transform="translate(-0.66 -1.18)" style="fill:#0085be"/><path d="M186.32,347.87a8.45,8.45,0,0,1-6.11,4.38,1.67,1.67,0,0,1-2.05-.78,2.23,2.23,0,0,1-.13-1.76c1-1.8,2.91-2.33,4.72-2.91A3.38,3.38,0,0,1,186.32,347.87Z" transform="translate(-0.66 -1.18)" style="fill:#0085be"/><path d="M136.25,347.27c-.5,3.18-2.45,4.87-5.23,4.64-1.57-.13-2.07-1-1.47-2.43C130.5,347.14,133.7,346,136.25,347.27Z" transform="translate(-0.66 -1.18)" style="fill:#0085be"/><path d="M259.14,400.56c-.08,2.91-1.82,3.81-6.22,3.91.2-1.77-.27-3.81,1.78-4.75A3.74,3.74,0,0,1,259.14,400.56Z" transform="translate(-0.66 -1.18)" style="fill:#0085be"/><path d="M249.25,411.05a14.45,14.45,0,0,1,.28-3.67c.65-1.81,4-2.33,5.38-.92a1.57,1.57,0,0,1,.32,1.45,10.94,10.94,0,0,1-2,2.22,3.28,3.28,0,0,1-1.36.37C251.16,410.66,250.48,410.79,249.25,411.05Z" transform="translate(-0.66 -1.18)" style="fill:#0085be"/><path d="M236.29,346.61c0,.32,0,.63,0,.95,0,2.7-1.37,4.14-4,4.07a2.11,2.11,0,0,1-1.54-1.14,2.26,2.26,0,0,1,.56-2.83c1.49-1.08,3.08-2,5-1Z" transform="translate(-0.66 -1.18)" style="fill:#0085be"/><path d="M256.33,397.71c-.78-3.41.6-5.41,3.51-4.94.79.13,2,.7,2.09,1.24a3.7,3.7,0,0,1-.95,2.49C260.21,397.47,258.3,397.82,256.33,397.71Z" transform="translate(-0.66 -1.18)" style="fill:#0085be"/><path d="M260.07,346.83c-.92-2.69.51-4.12,2.17-4.69a4.19,4.19,0,0,1,2.5.06c1.32.43,1.52,1.2.87,2.41C264.56,346.6,262.88,347.29,260.07,346.83Z" transform="translate(-0.66 -1.18)" style="fill:#0085be"/><path d="M211.52,402.61c-.13-1.69-.7-3.28,1-4.44,1.44-1,2.92-.88,4.78.4C217,401.66,216.6,401.94,211.52,402.61Z" transform="translate(-0.66 -1.18)" style="fill:#0085be"/><path d="M215.08,376.86c-.18,2.21-1.23,3.31-3.34,3.41a16.7,16.7,0,0,0-2.24.42c-.88-2.36-.67-3.34.87-4.47S213.08,375.22,215.08,376.86Z" transform="translate(-0.66 -1.18)" style="fill:#0085be"/><path d="M260.58,383.83c-.3-1.54-.8-3.09.78-4.3,1.38-1.06,2.84-1,4.82.21C266.16,382.8,265.25,383.48,260.58,383.83Z" transform="translate(-0.66 -1.18)" style="fill:#0085be"/><path d="M192.57,399.6a22.84,22.84,0,0,0-2,2.2c-.86,1.25-2.05,1.14-3.18.81a2,2,0,0,1-1-1.41,3,3,0,0,1,1.27-3.12C189.36,396.93,191.09,397.42,192.57,399.6Z" transform="translate(-0.66 -1.18)" style="fill:#0085be"/><path d="M210.4,395.74c0-1.4,0-2.18,0-2.95.09-1.44,1.15-2.07,2.33-2.37a3.19,3.19,0,0,1,3.34.6,2.16,2.16,0,0,1-.85,3A36.38,36.38,0,0,1,210.4,395.74Z" transform="translate(-0.66 -1.18)" style="fill:#0085be"/><path d="M211.54,410.12c.12-1.15.18-1.84.26-2.53a3.24,3.24,0,0,1,4.32-2.72,2.59,2.59,0,0,1,1.37,1.7A2.25,2.25,0,0,1,216,409C214.67,409.48,213.27,409.71,211.54,410.12Z" transform="translate(-0.66 -1.18)" style="fill:#0085be"/><path d="M192.15,392.37c-.89.92-1.69,1.8-2.55,2.6a2.15,2.15,0,0,1-2.85.19,2.05,2.05,0,0,1-.73-2.55,2.91,2.91,0,0,1,2.17-2.29C189.8,390,190.68,390.39,192.15,392.37Z" transform="translate(-0.66 -1.18)" style="fill:#0085be"/><path d="M189.52,410c-1.78,0-2.45-.76-2.17-2.55a3.11,3.11,0,0,1,4.91-2.14,2.17,2.17,0,0,1,.75,1.59C193,408.05,190.67,410,189.52,410Z" transform="translate(-0.66 -1.18)" style="fill:#0085be"/><path d="M260.59,376.22c-.52-3.53.61-4.88,3.62-4.67a2.18,2.18,0,0,1,2.12,1.26,2.73,2.73,0,0,1-1.28,2.6A7.47,7.47,0,0,1,260.59,376.22Z" transform="translate(-0.66 -1.18)" style="fill:#0085be"/><path d="M208.23,373.1c.07-.71.13-1.42.22-2.12a3,3,0,0,1,3.29-2.72c1.22.06,2.31.78,2.4,1.59a3.27,3.27,0,0,1-1.61,2.68A8.33,8.33,0,0,1,208.23,373.1Z" transform="translate(-0.66 -1.18)" style="fill:#0085be"/><path d="M209.77,388c-.62-3.76.47-5.12,3.5-4.93,1,.07,2.07.32,2.16,1.43A2.26,2.26,0,0,1,214,387C212.66,387.42,211.27,387.66,209.77,388Z" transform="translate(-0.66 -1.18)" style="fill:#0085be"/><path d="M225.14,410c-1-.91-2.15-1.5-1.48-3s2.82-3.24,4-2.94a2.13,2.13,0,0,1,1.29,1.2,2.43,2.43,0,0,1-.79,3C227.25,408.8,226.26,409.31,225.14,410Z" transform="translate(-0.66 -1.18)" style="fill:#0085be"/><path d="M107.52,366.13c-.53-2.64-.28-3.41,1.3-4.46s3-.47,4.32.56C112.63,365.24,112.36,365.44,107.52,366.13Z" transform="translate(-0.66 -1.18)" style="fill:#0085be"/><path d="M267,399.56c-.05,1.53-2.38,3.75-3.85,3.68a2,2,0,0,1-1.68-2.59,4.66,4.66,0,0,1,3.64-3A1.84,1.84,0,0,1,267,399.56Z" transform="translate(-0.66 -1.18)" style="fill:#0085be"/><path d="M258.58,391.27a6.16,6.16,0,0,0,.13-2c-.55-1.54.6-2.21,1.49-2.88a3.18,3.18,0,0,1,3.37-.1,1.65,1.65,0,0,1,.84,1.27,2.85,2.85,0,0,1-1.49,2.53,3.73,3.73,0,0,1-.67.21Z" transform="translate(-0.66 -1.18)" style="fill:#0085be"/><path d="M207.22,366.24c.11-.94.19-1.55.26-2.17a3.17,3.17,0,0,1,3.69-3c1.84.18,2.57,1.49,1.51,2.95a5.33,5.33,0,0,1-2.21,1.64A16.44,16.44,0,0,1,207.22,366.24Z" transform="translate(-0.66 -1.18)" style="fill:#0085be"/><path d="M206.25,359c.12-1,.2-1.58.27-2.2a3.26,3.26,0,0,1,4-3c1.57.29,2.2,1.45,1.32,2.76a9,9,0,0,1-2.11,1.78,1.62,1.62,0,0,1-.68.17Z" transform="translate(-0.66 -1.18)" style="fill:#0085be"/><path d="M229,391.22c0,1.27-2.15,3.6-3.45,3.82a1.91,1.91,0,0,1-2.06-2.44,4.48,4.48,0,0,1,3.27-3.15A1.77,1.77,0,0,1,229,391.22Z" transform="translate(-0.66 -1.18)" style="fill:#0085be"/><path d="M109,373.55c-.67-3,.08-4.52,2.26-5.16a2.35,2.35,0,0,1,3,1.19,2.05,2.05,0,0,1-1.31,2.67A39,39,0,0,1,109,373.55Z" transform="translate(-0.66 -1.18)" style="fill:#0085be"/><path d="M183.13,398.48c1.34,0,1.77.53,1.64,1.65a3.94,3.94,0,0,1-4.21,3.51c-.45-.05-1.18-.52-1.22-.86a3.92,3.92,0,0,1,.3-2.45A5,5,0,0,1,183.13,398.48Z" transform="translate(-0.66 -1.18)" style="fill:#0085be"/><path d="M207.59,338.74l.84-.29a3.58,3.58,0,0,0,.61,1c.62.47,1.64.78,1.24,1.75a4.21,4.21,0,0,1-1.66,2.15,16,16,0,0,1-3.57.95c-.74-2.9-.6-3.27,1.48-4.6A10.28,10.28,0,0,0,207.59,338.74Z" transform="translate(-0.66 -1.18)" style="fill:#0085be"/><path d="M228,383.83c0,1.52-2.38,4-3.85,4a2.06,2.06,0,0,1-1.53-2.91,4.91,4.91,0,0,1,3.22-2.67A1.71,1.71,0,0,1,228,383.83Z" transform="translate(-0.66 -1.18)" style="fill:#0085be"/><path d="M225.73,362.37c0,1.54-2.7,3.75-4.17,3.38-1.1-.27-1.63-2.06-.77-3.21a6.55,6.55,0,0,1,2.33-2C224.68,359.82,225.7,360.59,225.73,362.37Z" transform="translate(-0.66 -1.18)" style="fill:#0085be"/><path d="M229.09,399c0,1.41-2.65,3.53-4.06,3.28-1.13-.2-1.76-2-.94-3.16a6.46,6.46,0,0,1,2.28-2C228,396.24,229.13,397.07,229.09,399Z" transform="translate(-0.66 -1.18)" style="fill:#0085be"/><path d="M223.25,380.69c-1-.89-2.2-1.44-1.53-3,.6-1.39,2.44-2.81,3.63-2.73a1.78,1.78,0,0,1,1.58,2.37C226.45,379.15,224.9,379.82,223.25,380.69Z" transform="translate(-0.66 -1.18)" style="fill:#0085be"/><path d="M205.92,351.53c-.63-3.51.79-5.26,3.53-4.89,1.79.24,2.35,1.31,1.39,2.82a2.69,2.69,0,0,1-1.19,1.08C208.49,351,207.26,351.18,205.92,351.53Z" transform="translate(-0.66 -1.18)" style="fill:#0085be"/><path d="M124.18,380.71c-2.46-1.74-2.54-3-.55-4.57a10.61,10.61,0,0,1,1.38-.91,1.71,1.71,0,0,1,2.33.47,1.64,1.64,0,0,1,0,2.36C126.36,379,125.27,379.79,124.18,380.71Z" transform="translate(-0.66 -1.18)" style="fill:#0085be"/><path d="M191.65,339.45c1.73-1,3.58-.34,5.37-.44.07,2.15-.52,3.92-2.75,4.71-.71.25-1.52.81-2.2,0s-.39-1.61.24-2.34c.25-.29.46-.62.76-1Z" transform="translate(-0.66 -1.18)" style="fill:#0085be"/><path d="M179.5,395.86c-.69-1.61-.31-2.87,1-3.65s2.64-1.54,4.13-.44C184.41,395.47,183.3,396.37,179.5,395.86Z" transform="translate(-0.66 -1.18)" style="fill:#0085be"/><path d="M161.75,392.55c-1,3-3.3,3.23-5.71,3.39-.53-2.29-.23-3.16,1.39-4.12S160,391.11,161.75,392.55Z" transform="translate(-0.66 -1.18)" style="fill:#0085be"/><path d="M224.65,367.73a1.79,1.79,0,0,1,1.7,2.62,5,5,0,0,1-3.23,2.59c-1.05.38-2.2-.79-2.13-1.94S223.37,367.7,224.65,367.73Z" transform="translate(-0.66 -1.18)" style="fill:#0085be"/><path d="M155.4,388.8c.12-1,.19-1.68.28-2.38.3-2.17,3.46-2.89,5-2.1a1.24,1.24,0,0,1,.38,2,8.55,8.55,0,0,1-2.64,1.9A13.58,13.58,0,0,1,155.4,388.8Z" transform="translate(-0.66 -1.18)" style="fill:#0085be"/><path d="M155.52,373.73c-.5-2.17-.19-3,1.43-4s2.59-.71,4.25.68C160.05,373.18,158.8,373.91,155.52,373.73Z" transform="translate(-0.66 -1.18)" style="fill:#0085be"/><path d="M223.29,353a2,2,0,0,1,1.21,3,10.14,10.14,0,0,1-3.13,2.44c-.86.47-1.46-.3-1.74-1.12C219,355.64,221.35,352.91,223.29,353Z" transform="translate(-0.66 -1.18)" style="fill:#0085be"/><path d="M236.31,346.63c.23-3.12,2-4.74,4.68-4.29a1.83,1.83,0,0,1,1.3.8,1.81,1.81,0,0,1-.43,1.45c-1.44,1.75-3.12,3-5.57,2Z" transform="translate(-0.66 -1.18)" style="fill:#0085be"/><path d="M223.79,348.28a6.1,6.1,0,0,1-.77,1.23c-.43.45-1,.72-1.51,1.14-.72.62-1.42,1-2.28.24a2.08,2.08,0,0,1-.35-2.79,8.3,8.3,0,0,1,2.29-2C222.57,345.29,223.84,346.21,223.79,348.28Z" transform="translate(-0.66 -1.18)" style="fill:#0085be"/><path d="M153,352.33c.14-1,.19-1.61.31-2.23a3.45,3.45,0,0,1,5-2.27,1.49,1.49,0,0,1,.52,1.35,8.65,8.65,0,0,1-1.74,2.13,3,3,0,0,1-1.34.46C154.91,352,154.07,352.11,153,352.33Z" transform="translate(-0.66 -1.18)" style="fill:#0085be"/><path d="M219.21,344.13c-1.27,0-2.17-1.93-1.35-3.14a9.59,9.59,0,0,1,2.24-2.06c.59-.44,1.39-.68,1.93,0a3.6,3.6,0,0,1,.77,1.86C222.87,341.81,220.23,344.16,219.21,344.13Z" transform="translate(-0.66 -1.18)" style="fill:#0085be"/><path d="M247.38,400a2.23,2.23,0,0,1,2.31,1.93c0,1.5-1.87,3.16-3.63,3.24-1.07.05-1.6-.57-1.59-1.88S246.1,400,247.38,400Z" transform="translate(-0.66 -1.18)" style="fill:#0085be"/><path d="M173.24,384.35c-.05,1.73-2.79,4.35-4.08,4.32a1.8,1.8,0,0,1-1.46-1.88c.07-1.3,2.73-3.77,4-3.54C172.35,383.36,172.87,384.06,173.24,384.35Z" transform="translate(-0.66 -1.18)" style="fill:#0085be"/><path d="M105.73,356.22c2-2.51,3.71-2.7,5.62-.59-.63,3.14-3.33,2.87-5.82,3.46.07-.9.13-1.64.19-2.39C105.73,356.54,105.73,356.38,105.73,356.22Z" transform="translate(-0.66 -1.18)" style="fill:#0085be"/><path d="M159.93,355.67c-.58,3.49-3.32,3.31-5.86,3.85.07-1.56-.23-3.09,1.3-4.06A3.59,3.59,0,0,1,159.93,355.67Z" transform="translate(-0.66 -1.18)" style="fill:#0085be"/><path d="M248.78,389.32a3.93,3.93,0,0,1,2.66-3.28,2.07,2.07,0,0,1,2.28.91,1.69,1.69,0,0,1-.37,2.35,8.49,8.49,0,0,1-2.32,1.55C249.45,391.48,248.77,391,248.78,389.32Z" transform="translate(-0.66 -1.18)" style="fill:#0085be"/><path d="M155.43,381.66c.52-4.88,2.09-6,5.68-4.24-.17,2.39-.41,2.7-2.53,3.3C157.6,381,156.64,381.3,155.43,381.66Z" transform="translate(-0.66 -1.18)" style="fill:#0085be"/><path d="M119.23,351.4a1.73,1.73,0,0,1-1.75-2.21,4.46,4.46,0,0,1,3.18-2.95c1.46-.39,2.41.73,2,2.22A5,5,0,0,1,119.23,351.4Z" transform="translate(-0.66 -1.18)" style="fill:#0085be"/><path d="M199.83,408.05a3.92,3.92,0,0,1,2.64-3.29,2.08,2.08,0,0,1,2.29.9,1.67,1.67,0,0,1-.36,2.35,9.56,9.56,0,0,1-2.54,1.63C200.46,410.18,199.82,409.59,199.83,408.05Z" transform="translate(-0.66 -1.18)" style="fill:#0085be"/><path d="M254.05,372.86c-.06,2.19-2.88,4-4.43,3.36a1.83,1.83,0,0,1-.5-2.67,6.39,6.39,0,0,1,1.81-1.85,2.27,2.27,0,0,1,1.9-.15C253.42,371.83,253.8,372.58,254.05,372.86Z" transform="translate(-0.66 -1.18)" style="fill:#0085be"/><path d="M252.13,394.66c0,2.28-2.77,4-4.4,3.16a1.86,1.86,0,0,1-.79-1.08c-.32-1.28.58-2,1.37-2.82a2.11,2.11,0,0,1,2.6-.53A4.72,4.72,0,0,1,252.13,394.66Z" transform="translate(-0.66 -1.18)" style="fill:#0085be"/><path d="M124.75,354.94c0,1.27-2.61,3.69-3.9,3.62a1.83,1.83,0,0,1-1.49-2.46,4.88,4.88,0,0,1,3.42-2.71A1.66,1.66,0,0,1,124.75,354.94Z" transform="translate(-0.66 -1.18)" style="fill:#0085be"/><path d="M168.07,359.52c-1.84-1.84-1.81-2.86,0-4.2.32-.24.65-.47,1-.68,1.44-.9,2.23-.92,2.72-.1a2.68,2.68,0,0,1-.71,3.23C170.14,358.41,169.13,358.9,168.07,359.52Z" transform="translate(-0.66 -1.18)" style="fill:#0085be"/><path d="M241.57,410c-.15-1.42.93-2.19,1.9-3a2,2,0,0,1,2.43.12c1,.58,1.3,1.57.56,2.39a8.5,8.5,0,0,1-2.79,2C242.25,412.15,241.61,411.59,241.57,410Z" transform="translate(-0.66 -1.18)" style="fill:#0085be"/><path d="M200.78,370.15c0,1.54-2.26,3.47-3.79,3.22a1.71,1.71,0,0,1-1.28-2.37,8.56,8.56,0,0,1,2.45-2.53A1.8,1.8,0,0,1,200.78,370.15Z" transform="translate(-0.66 -1.18)" style="fill:#0085be"/><path d="M125.91,362.34c0,1.43-2.56,3.68-3.89,3.37a1.78,1.78,0,0,1-1.11-2.63,9,9,0,0,1,2.88-2.35C125,360.12,125.87,360.88,125.91,362.34Z" transform="translate(-0.66 -1.18)" style="fill:#0085be"/><path d="M126.87,369.74c0,1.32-2.6,3.44-3.84,3.19a1.8,1.8,0,0,1-1.06-2.81,8,8,0,0,1,2.51-2.09C126,367.28,126.92,368.06,126.87,369.74Z" transform="translate(-0.66 -1.18)" style="fill:#0085be"/><path d="M201.73,377.12c0,1.84-2.58,3.81-3.94,3.44a1.8,1.8,0,0,1-1-2.7,6.65,6.65,0,0,1,1.81-1.85,2.34,2.34,0,0,1,1.92-.29C201.14,376,201.49,376.81,201.73,377.12Z" transform="translate(-0.66 -1.18)" style="fill:#0085be"/><path d="M201.57,390.28c.26.15,1.09.35,1.34.85a2.43,2.43,0,0,1-.08,2,3.78,3.78,0,0,1-3.07,2c-1.35.12-2-.71-1.82-2.06A4,4,0,0,1,201.57,390.28Z" transform="translate(-0.66 -1.18)" style="fill:#0085be"/><path d="M172.94,377.73c0,1.55-2.7,3.74-4.19,3.38a1.72,1.72,0,0,1-.88-2.55A5.45,5.45,0,0,1,171.5,376C172.38,375.8,172.93,376.53,172.94,377.73Z" transform="translate(-0.66 -1.18)" style="fill:#0085be"/><path d="M173.23,399.51c.06,1.43-2.74,3.91-4.11,3.65a1.79,1.79,0,0,1-1.32-2,5.44,5.44,0,0,1,3.6-3.17A1.73,1.73,0,0,1,173.23,399.51Z" transform="translate(-0.66 -1.18)" style="fill:#0085be"/><path d="M252.18,378.78a1.73,1.73,0,0,1,1.6,2.76,4,4,0,0,1-3.05,2c-1.37.17-2.1-.63-1.91-2A3.81,3.81,0,0,1,252.18,378.78Z" transform="translate(-0.66 -1.18)" style="fill:#0085be"/><path d="M199.1,402c-.74-1.89.28-3,1.51-4a2.19,2.19,0,0,1,3,.25c.71.82.63,1.8-.33,2.74C202.08,402.15,200.71,402.77,199.1,402Z" transform="translate(-0.66 -1.18)" style="fill:#0085be"/><path d="M250.18,369.32c-.53-.41-1-.61-1.2-1-.67-1.58.46-2.48,1.4-3.46s1.64-1.2,2.72-.5,1.39,2.11.52,2.84A26,26,0,0,1,250.18,369.32Z" transform="translate(-0.66 -1.18)" style="fill:#0085be"/><path d="M167.68,351.87c-1.09,0-1.72-1-1.41-2.23a5.56,5.56,0,0,1,3.5-2.95c1.25-.15,2,.83,1.65,2.19A5.9,5.9,0,0,1,167.68,351.87Z" transform="translate(-0.66 -1.18)" style="fill:#0085be"/><path d="M167.65,372c0-1.41,2.68-3.51,4.1-3.25a1.66,1.66,0,0,1,.87,2.66,11.64,11.64,0,0,1-3.45,2.41C168.29,374.24,167.61,373.32,167.65,372Z" transform="translate(-0.66 -1.18)" style="fill:#0085be"/><path d="M160.43,363c-.57,3.08-2.94,3.27-5.18,3.67-.82-1.87-.68-2.61.62-3.71C157.34,361.72,158.52,361.71,160.43,363Z" transform="translate(-0.66 -1.18)" style="fill:#0085be"/><path d="M201.29,383.1c.23.17,1.08.48,1.2,1a2.52,2.52,0,0,1-.45,2.14,7.55,7.55,0,0,1-2.88,1.57c-1,.32-1.65-.34-1.72-1.41C197.33,384.8,199.15,383,201.29,383.1Z" transform="translate(-0.66 -1.18)" style="fill:#0085be"/><path d="M173,392.51c0,1.31-2.55,3.6-3.77,3.45s-2-1.67-1.24-2.56a9.67,9.67,0,0,1,3.06-2.48C172.11,390.37,173,391.22,173,392.51Z" transform="translate(-0.66 -1.18)" style="fill:#0085be"/><path d="M199.82,363.05c.11,1-.52,1.62-1.45,2.07s-2,1.09-3.12.47a1.34,1.34,0,0,1-.4-2.06,8.87,8.87,0,0,1,2.15-2.17A1.83,1.83,0,0,1,199.82,363.05Z" transform="translate(-0.66 -1.18)" style="fill:#0085be"/><path d="M171.21,361.5c.21.14,1,.4,1,.73a3.79,3.79,0,0,1-.36,2.38,5.84,5.84,0,0,1-2.27,1.63,1.83,1.83,0,0,1-1.64-.05,2.49,2.49,0,0,1-.6-1.85C167.5,363.24,169.77,361.57,171.21,361.5Z" transform="translate(-0.66 -1.18)" style="fill:#0085be"/><path d="M195,358.66c-.26-.15-.95-.3-1.11-.69a2.14,2.14,0,0,1,.06-1.74,9.29,9.29,0,0,1,2-2,1.79,1.79,0,0,1,2.4.2,1.65,1.65,0,0,1,.13,2.36A4.37,4.37,0,0,1,195,358.66Z" transform="translate(-0.66 -1.18)" style="fill:#0085be"/><path d="M248.61,361.26c-.43-2.19,0-3.14,1.59-4.06a2,2,0,0,1,2.61.24,2.37,2.37,0,0,1-.34,2.84C251.4,361.15,250.26,361.92,248.61,361.26Z" transform="translate(-0.66 -1.18)" style="fill:#0085be"/><path d="M184,410.47l-4.77-1.92c.47-2.17,2.37-2.35,4-2.76.86-.21,1.63.73,1.48,1.69S184.21,409.47,184,410.47Z" transform="translate(-0.66 -1.18)" style="fill:#0085be"/><path d="M148,371.22c0,1-1,1.55-2,2.07-1.58.8-2.61.86-3,0-.54-1.15.25-1.95.94-2.71a5.06,5.06,0,0,1,1.44-1.22A1.84,1.84,0,0,1,148,371.22Z" transform="translate(-0.66 -1.18)" style="fill:#0085be"/><path d="M251.46,349.52c.28.15,1.07.31,1.3.75a2.34,2.34,0,0,1,0,2,5.51,5.51,0,0,1-2.16,1.74c-.54.26-1.71.28-1.92,0a3.21,3.21,0,0,1-.21-2.2A4,4,0,0,1,251.46,349.52Z" transform="translate(-0.66 -1.18)" style="fill:#0085be"/><path d="M193.34,351.16c-.31-2.14.29-3.68,1.85-4.26a2.79,2.79,0,0,1,2.2.18c.82.55.65,1.56.2,2.38C196.89,350.72,195.52,351.26,193.34,351.16Z" transform="translate(-0.66 -1.18)" style="fill:#0085be"/><path d="M144,388.21a2.27,2.27,0,0,1,.6-2.93,3.12,3.12,0,0,1,2.7-1.24c1.48.17,2.09,1.34,1.19,2.52A4,4,0,0,1,144,388.21Z" transform="translate(-0.66 -1.18)" style="fill:#0085be"/><path d="M144.07,381c-.64-2.18.08-3.69,2-4.39a1.58,1.58,0,0,1,2.1.57,2.32,2.32,0,0,1,0,2A4,4,0,0,1,144.07,381Z" transform="translate(-0.66 -1.18)" style="fill:#0085be"/><path d="M147.46,363.56a3.22,3.22,0,0,1-2.08,2.34c-.87.4-1.76,1.37-2.78.35-.68-.66-.37-1.63.81-2.84.72-.73,1.37-1.55,2.59-1.42A1.43,1.43,0,0,1,147.46,363.56Z" transform="translate(-0.66 -1.18)" style="fill:#0085be"/><path d="M253.08,344.41a4.65,4.65,0,0,1-.86,1.14,6.38,6.38,0,0,1-1.88,1c-.47.17-1.28.37-1.49.14a2.4,2.4,0,0,1-.49-1.68,3.84,3.84,0,0,1,3-2.68C252.5,342.27,253.12,342.85,253.08,344.41Z" transform="translate(-0.66 -1.18)" style="fill:#0085be"/><path d="M105.05,351.51c-.2-1.32-.39-2.64-.59-4,.7-.14,1.39-.34,2.09-.41a2,2,0,0,1,2.34,1.22,2.76,2.76,0,0,1-1.33,2.57A16.06,16.06,0,0,1,105.05,351.51Z" transform="translate(-0.66 -1.18)" style="fill:#0085be"/><path d="M141.49,351.67c-.29-2.89,1.22-4.26,4.12-3.91C146.45,350.26,144.92,351.77,141.49,351.67Z" transform="translate(-0.66 -1.18)" style="fill:#0085be"/><path d="M142,358.89c-.68-2.11.69-3,1.88-3.85a1.7,1.7,0,0,1,2.38.29,1.64,1.64,0,0,1-.37,2.33C144.78,358.68,143.62,359.42,142,358.89Z" transform="translate(-0.66 -1.18)" style="fill:#0085be"/><path d="M199.82,339a.82.82,0,0,1,1.44,0A.86.86,0,0,1,199.82,339Z" transform="translate(-0.66 -1.18)" style="fill:#0085be"/><path d="M214.7,338l1-.05Z" transform="translate(-0.66 -1.18)" style="fill:#0085be"/><path d="M104.3,364.33l.06-.85Z" transform="translate(-0.66 -1.18)" style="fill:#0085be"/><path d="M105.73,356.22c0,.16,0,.32,0,.48l-.68-.16,0-.2Z" transform="translate(-0.66 -1.18)" style="fill:#0085be"/><path d="M355.41,337.86a4.87,4.87,0,0,1-3.71.29,1.93,1.93,0,0,0-1.15.09c-1.13.31-2.26.67-3.6,1.07a3.46,3.46,0,0,1-3.71,3c-.88,0-1.79,0-2.19-1s-.1-2.75.79-3.23A23.32,23.32,0,0,1,344.7,337c.64-.24,1.54-.35,1.83-.81a4.62,4.62,0,0,1,3.37-2,4.32,4.32,0,0,0,3-2.48L351,329.76c.12-.08.25-.25.38-.25a16.8,16.8,0,0,0,6.44-.9c.07,0,.24.16.36.26l.3,2.1a11,11,0,0,0-2.23,6.09C356,337.33,355.71,337.6,355.41,337.86Z" transform="translate(-0.66 -1.18)" style="fill:#0085be"/><path d="M342.89,329.84c.11.62.23,1.23.35,1.85.35,2-.26,3.4-2.14,4a13.45,13.45,0,0,0-4.48,2.56c-.82.64-1.63,1.09-2.51.2a2.43,2.43,0,0,1,.25-3.05c2-1.73,4.08-3.41,6.13-5.12Z" transform="translate(-0.66 -1.18)" style="fill:#0085be"/><path d="M350.06,329.82a3.62,3.62,0,0,1-3,1.91c-1.51.15-1.81-.12-2.31-1.87Z" transform="translate(-0.66 -1.18)" style="fill:#0085be"/><path d="M366.85,328.85a3.22,3.22,0,0,1-3,1.47c-1,0-1.38-.51-1.41-1.42Z" transform="translate(-0.66 -1.18)" style="fill:#0085be"/><path d="M370.37,359.91c-.95.41-1.9.82-2.84,1.25-.44.19-.85.46-1.3.62a2.61,2.61,0,0,1-3-.71,3.4,3.4,0,0,1,.54-3.34,25.65,25.65,0,0,1,3.46-2.91,7.67,7.67,0,0,1,2.73-.52A12.13,12.13,0,0,0,370.37,359.91Z" transform="translate(-0.66 -1.18)" style="fill:#0085be"/><path d="M385.14,364.94l0,1.85c-2.18.58-4.44.88-6.21,2.55-1.24,1.16-2.64,1.37-3.4.72s-.57-2.17.49-3.58a12.51,12.51,0,0,0,1-2Z" transform="translate(-0.66 -1.18)" style="fill:#0085be"/><path d="M374.62,364c-.06.14-.08.37-.18.42a19.51,19.51,0,0,0-5,3.82,2.53,2.53,0,0,1-3.07,0c-.66-.65-.64-2.69,0-3.56a1.82,1.82,0,0,1,.34-.34l4.43-2.91Z" transform="translate(-0.66 -1.18)" style="fill:#0085be"/><path d="M372.45,340.38H369.7c-.73-3,.74-4.65,4-4.72Z" transform="translate(-0.66 -1.18)" style="fill:#0085be"/><path d="M355.41,337.86c.3-.26.59-.53.88-.8a3,3,0,0,1,3.69-.52c1.17.56,1.43,1.26.57,2.18s-1.82,1.45-2.69,2.22a11.41,11.41,0,0,0-1.12,1.36c-.89.1-.92.76-.92,1.44a3.42,3.42,0,0,1-3.71,1.94,14,14,0,0,0-1.81,0,14.43,14.43,0,0,1-2.1,2.78c-1.27,1-2.87.59-4.36.47,0-.43,0-.87,0-1.3.09-3,1-3.69,5.3-4,1.13-2.32,2.87-3.87,6-3.25C355.23,339.39,355.32,338.63,355.41,337.86Z" transform="translate(-0.66 -1.18)" style="fill:#0085be"/><path d="M359.17,354.47c.53-1.28.76-3.22,2.62-4.08a6.57,6.57,0,0,0,2.77-2.1c1-1.41,2.25-1.49,3.2-.51a2.31,2.31,0,0,1-.27,3.67,10.2,10.2,0,0,0-3.34,3.59,3.71,3.71,0,0,1-3.51,1.62C359.51,356.65,359.17,355.9,359.17,354.47Z" transform="translate(-0.66 -1.18)" style="fill:#0085be"/><path d="M366,332.58a35.54,35.54,0,0,1,2.66-3.26,1.8,1.8,0,1,1,2.46,2.62,29.65,29.65,0,0,1-3.6,2.23,3.56,3.56,0,0,1-2.61,3.5,2.54,2.54,0,0,1-2-.18,1.9,1.9,0,0,1-.66-2.34A3.61,3.61,0,0,1,366,332.58Z" transform="translate(-0.66 -1.18)" style="fill:#0085be"/><path d="M364.94,369.17a8.37,8.37,0,0,1-.78,1.46c-.54.68-1.26,1.21-1.84,1.86a2.55,2.55,0,0,1-3.22.71c-.78-.33-1.4-.84-1.32-1.77.1-1.26.18-2.64,1.56-3.24a23,23,0,0,1,3.8-1.3C364.33,366.59,365,367.3,364.94,369.17Z" transform="translate(-0.66 -1.18)" style="fill:#0085be"/><path d="M355.82,343.74c0-.68,0-1.34.92-1.44C356.44,342.78,356.13,343.26,355.82,343.74Z" transform="translate(-0.66 -1.18)" style="fill:#0085be"/><path d="M269.32,381.59c-.05,1.59-.09,3.18-.14,4.77-1.41,1.28-1.5,1.83-.61,3.28a17.4,17.4,0,0,1,.77,1.63c-1.72,0-2.81,1-3.77,2.21a2.17,2.17,0,0,0,.07,2.85c.83,1,1.68.61,2.56.09.54-.32,1.12-.59,1.68-.87a4.15,4.15,0,0,1-.89,3.25,2.14,2.14,0,0,0,.18,3.14c-.23.42-.45.84-.67,1.26q-4-.65-4.37,3.23c-.05.59.18,1.34-.85,1.51-.92-.56-.51-1.52-.56-2.32s-.23-1.59-1.2-1.83-3.25.95-3.84,2a2.65,2.65,0,0,0,.6,3.25c1.54,1.19,1.08,2.51.57,3.93a5.2,5.2,0,0,1-.49-1.66c-.36-1.61-1.34-2.06-2.81-1.38a4.76,4.76,0,0,0-2.92,5c-.49-.24-1.46,0-1.23-1,.28-1.22-.57-1.54-1.36-1.83-2.58-1-4.41.3-4.62,3.15H243a1.77,1.77,0,0,0-1.28-2c-.58-.16-1.42-.37-1.79-.09a10.39,10.39,0,0,0-1.73,2.13h-2.4a3.16,3.16,0,0,1,1.24-3.39,3.65,3.65,0,0,0,1.34-5.13c-.05-.12,0-.31.08-.46a11.47,11.47,0,0,1,2.43-2.63,1.41,1.41,0,0,0,.36-1.94c-1.28-2-.45-3.38,1.06-4.79s1.45-2.15-.41-3.23c-1.51-.89-1.65-1.34-.71-2.79a8.47,8.47,0,0,1,1.2-1.47c1.27-1.24,1.26-2-.17-3-.63-.44-1.33-.76-2.3-1.3,1-1.22,1.79-2.27,2.65-3.28,1.22-1.43,1-2.37-.84-2.94-.79-.25-1.61-.4-2.87-.7.7-.8,1.05-1.28,1.48-1.68.75-.71,1.61-1.3,2.32-2.05,1.09-1.15.9-2.19-.55-2.77a11.61,11.61,0,0,0-2.53-.37c-.36-.06-1-.14-1-.32a1.87,1.87,0,0,1,.17-1.31c.16-.29.66-.39,1-.64A19.61,19.61,0,0,0,242,367c.95-1.11.69-2.18-.68-2.59a18.78,18.78,0,0,0-3.37-.37c-.25-1,0-1.57,1-2.16a14.51,14.51,0,0,0,3.07-2.59,1.12,1.12,0,0,0-.32-2,6.64,6.64,0,0,0-2.5-.5,9.18,9.18,0,0,0-2.1.41c.13-.92.25-1.83.38-2.84a4.42,4.42,0,0,0,4.23-2c.34-.46.74-1.26.56-1.63a2.74,2.74,0,0,0-1.61-1.2,3.47,3.47,0,0,0-4,2.24,3.12,3.12,0,0,1-2.17,1.94,7.61,7.61,0,0,0-2.13,1,2.75,2.75,0,0,0-.62,3.25c.6,1.1,1.52,1,2.48.64s1.74-.74,2.61-1.11c-.11,1.87-.64,3.43-2.76,3.91a2.36,2.36,0,0,0-1,.68,3.47,3.47,0,0,0-.45,3.37c.64,1.06,1.62.77,2.57.59a9.52,9.52,0,0,1,1.34-.07c-.41,1.88-.42,1.86-1.55,2.61a8.6,8.6,0,0,0-1.49,1.18,2.44,2.44,0,0,0-.36,2.9c.55,1.09,1.6.83,2.55.57.57-.16,1.12-.36,1.77-.57a3.68,3.68,0,0,1-2.49,3.64,3,3,0,0,0-1.4,3,2.19,2.19,0,0,0,2.33,1.32,4.65,4.65,0,0,1,1,.21c.56,1.26-.19,1.89-.86,2.6-2.1,2.21-1.82,3.6.93,4.77.51,1.28-.12,2-1.11,2.78-1.65,1.29-1.48,3.14.23,4.36,1.34.95,1.48,1.58.18,2.46-1.67,1.13-1.76,2.58-1.28,4.2a2.54,2.54,0,0,1-1.08,3.27,2.71,2.71,0,0,0-1.21,3.51,2.12,2.12,0,0,1-1.15,2.8,4,4,0,0,0-2,3.58H226.7c0-.71.06-1.42,0-2.12-.13-1.84-1.22-2.48-2.88-1.62a4,4,0,0,0-2.41,3.74H217.1c.14-.68.27-1.36.4-2-3.21-2.11-5.39-1.36-6.16,2H205.1a9.13,9.13,0,0,0,0-1.66c-.27-1.22-1.84-2-2.76-1.36s-2.14,1.48-2,3h-1.44c-.64-.29-1.27-.62-1.93-.85-2.77-1-5.31-2.56-8.47-2.47-1.49,0-3-.95-4.5-1.47.25-1,.57-2,.73-3s-.62-1.9-1.48-1.69c-1.65.41-3.55.59-4,2.76a14.17,14.17,0,0,1-5.93-2.38,10.79,10.79,0,0,0-1.63-.95c-2.85-1-5.72-2-8.6-2.94-1-.32-1.71-.73-1.67-2,0-1-.71-1.36-1.6-1.37a3.79,3.79,0,0,0-1.87.19c-1.55,1-2.89.38-4.29-.26-1.67-.76-3.36-1.48-5-2.27a15.29,15.29,0,0,1-1.6-1,19.79,19.79,0,0,0,1.67-2,1.35,1.35,0,0,0-.77-2.11,1.92,1.92,0,0,0-2.2.45c-.68.65-1.4,1.28-2.24,2-1-.58-2.55-.74-3-2.19a1.94,1.94,0,0,0-2.34-1.47,2.92,2.92,0,0,1-3.07-1.69c.94-.38,1.73-.69,2.51-1,2.41-1,2.64-1.5,1.87-4.55-3.06.43-6.31.29-7.82,4-1.55-1-3.33-1.3-3.45-3.52-.05-1.07-1-1.39-2.18-.94a2.46,2.46,0,0,1-2.27.05c-2.38-1.3-4.8-2.53-7.17-3.85a2.14,2.14,0,0,1-1-1.18c-.27-1.45-1.26-1.78-2.45-1.74a5.34,5.34,0,0,1-3.54-1.2c-2.09-1.58-4.21-3.12-6.32-4.67l1.17-5.71.06-.85c0-2.34-.27-4.7.68-6.94l.68.16-.19,2.39c2.49-.59,5.19-.32,5.82-3.46-1.91-2.11-3.64-1.92-5.62.59l-.68.12v-4.83a16.06,16.06,0,0,0,2.51-.58,2.76,2.76,0,0,0,1.33-2.57,2,2,0,0,0-2.34-1.22c-.7.07-1.39.27-2.09.41L104,345.3c3.8-.32,7.6-.67,11.41-.94s7.71-.45,11.43-.67c1.09,2.16,1.7,2.38,3.42,1.47a3.85,3.85,0,0,0,.6-.39c2.69-2,5.89-1.66,8.95-1.93a1.31,1.31,0,0,1,1.06.41c.93,1.42,2.05,1,3.11.34a8.75,8.75,0,0,1,5.48-1.31,8.47,8.47,0,0,0,1.66-.15c1.74-.23,1.73-.23,2.15,1.57a5.08,5.08,0,0,0,.34.79c1.9-.25,3.58-.59,4.66-2.27a2,2,0,0,1,1.43-.74c1.9-.09,3.8,0,5.66,0a2.88,2.88,0,0,1,.18.57c0,.16-.08.31-.08.47,0,1.93.91,2.5,2.5,1.54.68-.41,1.63-.83,1.84-1.45.58-1.71,1.79-1.78,3.22-1.76.71,0,1.42-.21,2.13-.24,1.21,0,2.41,0,3.75,0-1.29,2-1.29,2-.78,3.88,1.8.31,2.41.3,3.38-.45,1.31-1,2.59-2.05,2.42-3.89l7.75-.65,1.42.93c-.3.4-.51.73-.76,1-.63.73-.93,1.53-.24,2.34s1.49.23,2.2,0c2.23-.79,2.82-2.56,2.75-4.71l2.8,0a.86.86,0,0,0,1.44,0l6.33-.19a10.28,10.28,0,0,1-1.06.92c-2.08,1.33-2.22,1.7-1.48,4.6a16,16,0,0,0,3.57-.95,4.21,4.21,0,0,0,1.66-2.15c.4-1-.62-1.28-1.24-1.75a3.58,3.58,0,0,1-.61-1l6.27-.44,1-.05c.87,0,1.74,0,2.61,0q7.57-.46,15.14-1a13.6,13.6,0,0,0,1.86-.37,2,2,0,0,1-1.91,2.48,8.54,8.54,0,0,0-2.83,1.21,2.58,2.58,0,0,0-.82,3c.51,1.14,1.54,1,2.48.87,2.06-.29,3-1.33,3.17-3.42a6.92,6.92,0,0,1,.29-1.15c2.11-.18,3.76-1,4.6-3,2.87-.81,5.78-.53,8.94-.55a6.38,6.38,0,0,0-.42,1.17c-.06.57-.05,1.15-.07,1.73.58-.05,1.32.11,1.73-.18,1.19-.84,2.25-1.86,3.77-3.17l5-.32c-.29.57-.48,1-.68,1.36-.4.78-.94,1.55-.22,2.43a2.31,2.31,0,0,0,2.83.57c.82-.29,1.62-.64,2.45-.94a2.49,2.49,0,0,0,1.67-2.14c.08-.52.07-1.06.1-1.53,2.66-.69,6.34-.62,7.74.14a6.21,6.21,0,0,1-.54.77,2.3,2.3,0,0,0-.65,2.62c.42,1,1.41.85,2.28.84h.48l.26,2.15c-.73.51-1.46,1-2.15,1.52a2.16,2.16,0,0,0-.8,2.75,1.69,1.69,0,0,0,2.34,1c.19-.06.44.07.69.11l.38,1.23c-1,1.16-1.87,2.09-2.67,3.08a1.64,1.64,0,0,0,0,2.2,1.7,1.7,0,0,0,2.1.66l1.45-.6c.57,1.42.25,2.3-1,2.87a6,6,0,0,0-1.58,1.06c-1.92,1.78-1.74,3,.67,4.34a14.8,14.8,0,0,1,1.79-1.1,18.29,18.29,0,0,1,2.22-.65l-1.7,3.37-2.44.76-1.94.64c.07-1.34-.64-1.79-1.88-1.92-1.8-.18-3,.87-4.12,2-1.55-.72-2.95-1.35-4.57-.23-1.78,1.23-1.18,2.8-1.12,4.77l6.24-1.86c1.91.91,2.4.84,4.18-.75.41-.38.85-.73,1.27-1.09,0,1.15,0,2.26,1.36,2.73-.26.56-.53,1.12-.79,1.69a9.76,9.76,0,0,0-1.88.08,3,3,0,0,0-2.1,2.83c0,1.29.57,1.92,1.86,1.89l-1,4.25c-.08.34-.16.67-.25,1C268.92,380.58,268.81,381.05,269.32,381.59Zm-33-35c-1.95-1-3.54-.05-5,1a2.26,2.26,0,0,0-.56,2.83,2.11,2.11,0,0,0,1.54,1.14c2.67.07,4-1.37,4-4.07,0-.32,0-.63,0-.95,2.45,1,4.13-.27,5.57-2a1.81,1.81,0,0,0,.43-1.45,1.83,1.83,0,0,0-1.3-.8C238.27,341.89,236.54,343.51,236.31,346.63Zm-51.22,37.84c-2-1-4.8-.26-5.78,1.41a2.28,2.28,0,0,0-.22,1.94,2.82,2.82,0,0,0,2,1,3.79,3.79,0,0,0,2-.67,2.71,2.71,0,0,1,3.1-.12,1.89,1.89,0,0,0,2.43-.15c.76-.7,1.49-1.44,2.18-2.2a1.26,1.26,0,0,0-.16-1.9,3.29,3.29,0,0,0-3.93-.49C186.13,383.59,185.66,384,185.09,384.47Zm.28-3.93c2.1.5,2.94-.53,3.82-1.46,1.38-1.46,1.18-2.41-.61-3.28a2.56,2.56,0,0,0-2.72.16,3.37,3.37,0,0,1-2.42.58,4.7,4.7,0,0,0-4.45,2.67,1.69,1.69,0,0,0,1.5,2.38,3.37,3.37,0,0,0,1.39-.29C183.19,380.72,184.48,380.11,185.37,380.54Zm1.11-12.34c-2,.61-4,1.14-5.89,1.87a2.92,2.92,0,0,0-1.38,1.56,2.81,2.81,0,0,0,0,2c.3.76,1.06.7,1.84.54a33.49,33.49,0,0,1,4.45-.6c1.87-.13,2.71-1.53,3.61-2.79a1.24,1.24,0,0,0-.58-1.83A16.47,16.47,0,0,0,186.48,368.2Zm74.25-6.35a34.41,34.41,0,0,1,5.12-.77,4.49,4.49,0,0,0,3.49-1.7c.6-.66,1.43-1.39.84-2.25A4.76,4.76,0,0,0,268,355.9c-.31-.13-.76.08-1.15.17-1,.21-2,.52-3,.65C261,357.06,259.9,358.8,260.73,361.85Zm-80,4.94a8,8,0,0,1,2.57-.44c2.41.34,3.31-1.54,4.57-2.85.6-.63.37-1.33-.36-1.81-1.95-1.28-7.77.56-8.6,2.71C178.39,365.85,179,366.74,180.76,366.79ZM133.4,381.42a36.08,36.08,0,0,0,4.31-1.18,3,3,0,0,0,2.07-3.39c-.13-1-.69-1.53-1.61-1.34a40.5,40.5,0,0,0-4.83,1.3,2.61,2.61,0,0,0-1.42,1.21,3.63,3.63,0,0,0-.41,2.41C131.68,380.93,132.76,381.11,133.4,381.42Zm-.68-7.25c1.43-.38,2.73-.7,4-1.08a3.1,3.1,0,0,0,2.37-2.91c.16-1.47-.36-2.19-1.81-1.9a31.28,31.28,0,0,0-4.55,1.35,2.66,2.66,0,0,0-1.43,1.19,3.84,3.84,0,0,0-.31,2.41C131.13,373.67,132.11,373.86,132.72,374.17Zm47.35-14.51a9.93,9.93,0,0,1,2.41-.51c2.2.16,3.19-1.52,4.42-2.8.7-.74.4-1.5-.43-2-.47-.26-1.11-.62-1.54-.49a29.83,29.83,0,0,0-5.49,2c-.6.32-.92,1.66-.86,2.49C178.61,358.91,179.64,359.33,180.07,359.66Zm-41.95,1.43A14,14,0,0,0,131,362.9a1.32,1.32,0,0,0-.61.71,4.31,4.31,0,0,0-.31,2.19,1.77,1.77,0,0,0,2.23.91c1-.21,2-.58,3-.84C138.17,365.12,138.6,364.47,138.12,361.09Zm-1-7.23c-2.47,0-4.78.3-6.66,2-.75.68-1.42,1.6-.83,2.75.47.92,1.59,1.17,3,.73.68-.22,1.34-.52,2-.7C137.14,358,137.94,356.66,137.08,353.86Zm123,.65c.94-.09,1.73-.23,2.52-.24a5.54,5.54,0,0,0,4.68-2.45,2.33,2.33,0,0,0,.46-1.89,2.29,2.29,0,0,0-1.75-.86,10.09,10.09,0,0,0-2.81.43C260.33,350.21,259.64,351.31,260.08,354.51Zm-73.76-6.64a3.38,3.38,0,0,0-3.57-1.07c-1.81.58-3.71,1.11-4.72,2.91a2.23,2.23,0,0,0,.13,1.76,1.67,1.67,0,0,0,2.05.78A8.45,8.45,0,0,0,186.32,347.87Zm-50.07-.6c-2.55-1.24-5.75-.13-6.7,2.21-.6,1.47-.1,2.3,1.47,2.43C133.8,352.14,135.75,350.45,136.25,347.27Zm122.89,53.29a3.74,3.74,0,0,0-4.44-.84c-2,.94-1.58,3-1.78,4.75C257.32,404.37,259.06,403.47,259.14,400.56Zm-9.89,10.49c1.23-.26,1.91-.39,2.59-.55a3.28,3.28,0,0,0,1.36-.37,10.94,10.94,0,0,0,2-2.22,1.57,1.57,0,0,0-.32-1.45c-1.38-1.41-4.73-.89-5.38.92A14.45,14.45,0,0,0,249.25,411.05Zm7.08-13.34c2,.11,3.88-.24,4.65-1.21a3.7,3.7,0,0,0,.95-2.49c-.1-.54-1.3-1.11-2.09-1.24C256.93,392.3,255.55,394.3,256.33,397.71Zm3.74-50.88c2.81.46,4.49-.23,5.54-2.22.65-1.21.45-2-.87-2.41a4.19,4.19,0,0,0-2.5-.06C260.58,342.71,259.15,344.14,260.07,346.83Zm-48.55,55.78c5.08-.67,5.47-.95,5.76-4-1.86-1.28-3.34-1.39-4.78-.4C210.82,399.33,211.39,400.92,211.52,402.61Zm3.56-25.75c-2-1.64-3.14-1.78-4.71-.64s-1.75,2.11-.87,4.47a16.7,16.7,0,0,1,2.24-.42C213.85,380.17,214.9,379.07,215.08,376.86Zm45.5,7c4.67-.35,5.58-1,5.6-4.09-2-1.2-3.44-1.27-4.82-.21C259.78,380.74,260.28,382.29,260.58,383.83Zm-68,15.77c-1.48-2.18-3.21-2.67-4.87-1.52a3,3,0,0,0-1.27,3.12,2,2,0,0,0,1,1.41c1.13.33,2.32.44,3.18-.81A22.84,22.84,0,0,1,192.57,399.6Zm17.83-3.86a36.38,36.38,0,0,0,4.83-1.69,2.16,2.16,0,0,0,.85-3,3.19,3.19,0,0,0-3.34-.6c-1.18.3-2.24.93-2.33,2.37C210.36,393.56,210.4,394.34,210.4,395.74Zm1.14,14.38c1.73-.41,3.13-.64,4.45-1.09a2.25,2.25,0,0,0,1.5-2.46,2.59,2.59,0,0,0-1.37-1.7,3.24,3.24,0,0,0-4.32,2.72C211.72,408.28,211.66,409,211.54,410.12Zm-19.39-17.75c-1.47-2-2.35-2.38-4-2.05a2.91,2.91,0,0,0-2.17,2.29,2.05,2.05,0,0,0,.73,2.55,2.15,2.15,0,0,0,2.85-.19C190.46,394.17,191.26,393.29,192.15,392.37ZM189.52,410c1.15,0,3.46-1.95,3.49-3.1a2.17,2.17,0,0,0-.75-1.59,3.11,3.11,0,0,0-4.91,2.14C187.07,409.24,187.74,410,189.52,410Zm71.07-33.78a7.47,7.47,0,0,0,4.46-.81,2.73,2.73,0,0,0,1.28-2.6,2.18,2.18,0,0,0-2.12-1.26C261.2,371.34,260.07,372.69,260.59,376.22Zm-52.36-3.12a8.33,8.33,0,0,0,4.3-.57,3.27,3.27,0,0,0,1.61-2.68c-.09-.81-1.18-1.53-2.4-1.59a3,3,0,0,0-3.29,2.72C208.36,371.68,208.3,372.39,208.23,373.1Zm1.54,14.9c1.5-.34,2.89-.58,4.23-1a2.26,2.26,0,0,0,1.43-2.51c-.09-1.11-1.13-1.36-2.16-1.43C210.24,382.88,209.15,384.24,209.77,388Zm15.37,22c1.12-.65,2.11-1.16,3-1.78a2.43,2.43,0,0,0,.79-3,2.13,2.13,0,0,0-1.29-1.2c-1.17-.3-3.33,1.45-4,2.94S224.12,409.05,225.14,410ZM107.52,366.13c4.84-.69,5.11-.89,5.62-3.9-1.32-1-2.68-1.64-4.32-.56S107,363.49,107.52,366.13ZM267,399.56a1.84,1.84,0,0,0-1.89-1.95,4.66,4.66,0,0,0-3.64,3,2,2,0,0,0,1.68,2.59C264.57,403.31,266.9,401.09,267,399.56Zm-8.37-8.29,3.67-1a3.73,3.73,0,0,0,.67-.21,2.85,2.85,0,0,0,1.49-2.53,1.65,1.65,0,0,0-.84-1.27,3.18,3.18,0,0,0-3.37.1c-.89.67-2,1.34-1.49,2.88A6.16,6.16,0,0,1,258.58,391.27Zm-51.36-25a16.44,16.44,0,0,0,3.25-.6,5.33,5.33,0,0,0,2.21-1.64c1.06-1.46.33-2.77-1.51-2.95a3.17,3.17,0,0,0-3.69,3C207.41,364.69,207.33,365.3,207.22,366.24Zm-1-7.22,2.77-.45a1.62,1.62,0,0,0,.68-.17,9,9,0,0,0,2.11-1.78c.88-1.31.25-2.47-1.32-2.76a3.26,3.26,0,0,0-4,3C206.45,357.44,206.37,358.06,206.25,359ZM229,391.22a1.77,1.77,0,0,0-2.24-1.77,4.48,4.48,0,0,0-3.27,3.15,1.91,1.91,0,0,0,2.06,2.44C226.83,394.82,228.93,392.49,229,391.22ZM109,373.55a39,39,0,0,0,4-1.3,2.05,2.05,0,0,0,1.31-2.67,2.35,2.35,0,0,0-3-1.19C109.1,369,108.35,370.58,109,373.55Zm74.11,24.93a5,5,0,0,0-3.49,1.85,3.92,3.92,0,0,0-.3,2.45c0,.34.77.81,1.22.86a3.94,3.94,0,0,0,4.21-3.51C184.9,399,184.47,398.53,183.13,398.48ZM228,383.83a1.71,1.71,0,0,0-2.16-1.6,4.91,4.91,0,0,0-3.22,2.67,2.06,2.06,0,0,0,1.53,2.91C225.57,387.79,227.94,385.35,228,383.83Zm-2.22-21.46c0-1.78-1-2.55-2.61-1.78a6.55,6.55,0,0,0-2.33,2c-.86,1.15-.33,2.94.77,3.21C223,366.12,225.75,363.91,225.73,362.37ZM229.09,399c0-1.91-1.05-2.74-2.72-1.88a6.46,6.46,0,0,0-2.28,2c-.82,1.2-.19,3,.94,3.16C226.44,402.51,229.06,400.39,229.09,399Zm-5.84-18.29c1.65-.87,3.2-1.54,3.68-3.36a1.78,1.78,0,0,0-1.58-2.37c-1.19-.08-3,1.34-3.63,2.73C221.05,379.25,222.23,379.8,223.25,380.69Zm-17.33-29.16c1.34-.35,2.57-.58,3.73-1a2.69,2.69,0,0,0,1.19-1.08c1-1.51.4-2.58-1.39-2.82C206.71,346.27,205.29,348,205.92,351.53Zm-81.74,29.18c1.09-.92,2.18-1.72,3.11-2.65a1.64,1.64,0,0,0,0-2.36,1.71,1.71,0,0,0-2.33-.47,10.61,10.61,0,0,0-1.38.91C121.64,377.71,121.72,379,124.18,380.71Zm55.32,15.15c3.8.51,4.91-.39,5.12-4.09-1.49-1.1-2.88-.31-4.13.44S178.81,394.25,179.5,395.86Zm-17.75-3.31c-1.73-1.44-2.84-1.62-4.32-.73s-1.92,1.83-1.39,4.12C158.45,395.78,160.79,395.57,161.75,392.55Zm62.9-24.82c-1.28,0-3.58,2-3.66,3.27s1.08,2.32,2.13,1.94a5,5,0,0,0,3.23-2.59A1.79,1.79,0,0,0,224.65,367.73ZM155.4,388.8a13.58,13.58,0,0,0,3.06-.55,8.55,8.55,0,0,0,2.64-1.9,1.24,1.24,0,0,0-.38-2c-1.58-.79-4.74-.07-5,2.1C155.59,387.12,155.52,387.81,155.4,388.8Zm.12-15.07c3.28.18,4.53-.55,5.68-3.3-1.66-1.39-2.76-1.56-4.25-.68S155,371.56,155.52,373.73ZM223.29,353c-1.94-.13-4.26,2.6-3.66,4.32.28.82.88,1.59,1.74,1.12A10.14,10.14,0,0,0,224.5,356,2,2,0,0,0,223.29,353Zm.5-4.76c.05-2.07-1.22-3-2.62-2.19a8.3,8.3,0,0,0-2.29,2,2.08,2.08,0,0,0,.35,2.79c.86.8,1.56.38,2.28-.24.47-.42,1.08-.69,1.51-1.14A6.1,6.1,0,0,0,223.79,348.28ZM153,352.33c1.11-.22,1.95-.37,2.78-.56a3,3,0,0,0,1.34-.46,8.65,8.65,0,0,0,1.74-2.13,1.49,1.49,0,0,0-.52-1.35,3.45,3.45,0,0,0-5,2.27C153.15,350.72,153.1,351.35,153,352.33Zm66.25-8.2c1,0,3.66-2.32,3.59-3.35a3.6,3.6,0,0,0-.77-1.86c-.54-.67-1.34-.43-1.93,0a9.59,9.59,0,0,0-2.24,2.06C217,342.2,217.94,344.1,219.21,344.13ZM247.38,400c-1.28,0-2.9,1.85-2.91,3.29s.52,1.93,1.59,1.88c1.76-.08,3.62-1.74,3.63-3.24A2.23,2.23,0,0,0,247.38,400Zm-74.14-15.6c-.37-.29-.89-1-1.51-1.1-1.3-.23-4,2.24-4,3.54a1.8,1.8,0,0,0,1.46,1.88C170.45,388.7,173.19,386.08,173.24,384.35Zm-13.31-28.68a3.59,3.59,0,0,0-4.56-.21c-1.53,1-1.23,2.5-1.3,4.06C156.61,359,159.35,359.16,159.93,355.67Zm88.85,33.65c0,1.63.67,2.16,2.25,1.53a8.49,8.49,0,0,0,2.32-1.55,1.69,1.69,0,0,0,.37-2.35,2.07,2.07,0,0,0-2.28-.91A3.93,3.93,0,0,0,248.78,389.32Zm-93.35-7.66c1.21-.36,2.17-.66,3.15-.94,2.12-.6,2.36-.91,2.53-3.3C157.52,375.7,156,376.78,155.43,381.66Zm-36.2-30.26a5,5,0,0,0,3.41-2.94c.43-1.49-.52-2.61-2-2.22a4.46,4.46,0,0,0-3.18,2.95A1.73,1.73,0,0,0,119.23,351.4Zm80.6,56.65c0,1.54.63,2.13,2,1.59A9.56,9.56,0,0,0,204.4,408a1.67,1.67,0,0,0,.36-2.35,2.08,2.08,0,0,0-2.29-.9A3.92,3.92,0,0,0,199.83,408.05Zm54.22-35.19c-.25-.28-.63-1-1.22-1.31a2.27,2.27,0,0,0-1.9.15,6.39,6.39,0,0,0-1.81,1.85,1.83,1.83,0,0,0,.5,2.67C251.17,376.89,254,375.05,254.05,372.86Zm-1.92,21.8a4.72,4.72,0,0,0-1.22-1.27,2.11,2.11,0,0,0-2.6.53c-.79.79-1.69,1.54-1.37,2.82a1.86,1.86,0,0,0,.79,1.08C249.36,398.65,252.12,396.94,252.13,394.66ZM124.75,354.94a1.66,1.66,0,0,0-2-1.55,4.88,4.88,0,0,0-3.42,2.71,1.83,1.83,0,0,0,1.49,2.46C122.14,358.63,124.75,356.21,124.75,354.94Zm43.32,4.58c1.06-.62,2.07-1.11,3-1.75a2.68,2.68,0,0,0,.71-3.23c-.49-.82-1.28-.8-2.72.1-.33.21-.66.44-1,.68C166.26,356.66,166.23,357.68,168.07,359.52ZM241.57,410c0,1.61.68,2.17,2.1,1.56a8.5,8.5,0,0,0,2.79-2c.74-.82.4-1.81-.56-2.39a2,2,0,0,0-2.43-.12C242.5,407.79,241.42,408.56,241.57,410Zm-40.79-39.83a1.8,1.8,0,0,0-2.62-1.68,8.56,8.56,0,0,0-2.45,2.53,1.71,1.71,0,0,0,1.28,2.37C198.52,373.62,200.8,371.69,200.78,370.15Zm-74.87-7.81c0-1.46-.89-2.22-2.12-1.61a9,9,0,0,0-2.88,2.35,1.78,1.78,0,0,0,1.11,2.63C123.35,366,126,363.77,125.91,362.34Zm1,7.4c0-1.68-.92-2.46-2.39-1.71a8,8,0,0,0-2.51,2.09,1.8,1.8,0,0,0,1.06,2.81C124.27,373.18,126.83,371.06,126.87,369.74Zm74.86,7.38c-.24-.31-.59-1.12-1.19-1.4a2.34,2.34,0,0,0-1.92.29,6.65,6.65,0,0,0-1.81,1.85,1.8,1.8,0,0,0,1,2.7C199.15,380.93,201.74,379,201.73,377.12Zm-.16,13.16a4,4,0,0,0-3.63,2.74c-.23,1.35.47,2.18,1.82,2.06a3.78,3.78,0,0,0,3.07-2,2.43,2.43,0,0,0,.08-2C202.66,390.63,201.83,390.43,201.57,390.28Zm-28.63-12.55c0-1.2-.56-1.93-1.44-1.7a5.45,5.45,0,0,0-3.63,2.53,1.72,1.72,0,0,0,.88,2.55C170.24,381.47,173,379.28,172.94,377.73Zm.29,21.78A1.73,1.73,0,0,0,171.4,398a5.44,5.44,0,0,0-3.6,3.17,1.79,1.79,0,0,0,1.32,2C170.49,403.42,173.29,400.94,173.23,399.51Zm79-20.73a3.81,3.81,0,0,0-3.36,2.8c-.19,1.35.54,2.15,1.91,2a4,4,0,0,0,3.05-2A1.73,1.73,0,0,0,252.18,378.78ZM199.1,402c1.61.81,3,.19,4.2-1,1-.94,1-1.92.33-2.74a2.19,2.19,0,0,0-3-.25C199.38,399,198.36,400.07,199.1,402Zm51.08-32.64a26,26,0,0,0,3.44-2.08c.87-.73.47-2.2-.52-2.84s-1.9-.35-2.72.5-2.07,1.88-1.4,3.46C249.14,368.71,249.65,368.91,250.18,369.32Zm-82.5-17.45a5.9,5.9,0,0,0,3.74-3c.33-1.36-.4-2.34-1.65-2.19a5.56,5.56,0,0,0-3.5,2.95C166,350.88,166.59,351.88,167.68,351.87Zm0,20.13c0,1.32.64,2.24,1.52,1.82a11.64,11.64,0,0,0,3.45-2.41,1.66,1.66,0,0,0-.87-2.66C170.33,368.49,167.69,370.59,167.65,372Zm-7.22-9c-1.91-1.29-3.09-1.28-4.56,0-1.3,1.1-1.44,1.84-.62,3.71C157.49,366.27,159.86,366.08,160.43,363Zm40.86,20.1c-2.14-.07-4,1.7-3.85,3.28.07,1.07.73,1.73,1.72,1.41a7.55,7.55,0,0,0,2.88-1.57,2.52,2.52,0,0,0,.45-2.14C202.37,383.58,201.52,383.27,201.29,383.1ZM173,392.51c0-1.29-.84-2.14-1.95-1.59a9.67,9.67,0,0,0-3.06,2.48c-.73.89.15,2.42,1.24,2.56S172.91,393.82,173,392.51Zm26.87-29.46a1.83,1.83,0,0,0-2.82-1.69,8.87,8.87,0,0,0-2.15,2.17,1.34,1.34,0,0,0,.4,2.06c1.1.62,2.12,0,3.12-.47S199.93,364.06,199.82,363.05Zm-28.61-1.55c-1.44.07-3.71,1.74-3.87,2.84a2.49,2.49,0,0,0,.6,1.85,1.83,1.83,0,0,0,1.64.05,5.84,5.84,0,0,0,2.27-1.63,3.79,3.79,0,0,0,.36-2.38C172.17,361.9,171.42,361.64,171.21,361.5ZM195,358.66a4.37,4.37,0,0,0,3.45-1.91,1.65,1.65,0,0,0-.13-2.36,1.79,1.79,0,0,0-2.4-.2,9.29,9.29,0,0,0-2,2,2.14,2.14,0,0,0-.06,1.74C194.08,358.36,194.77,358.51,195,358.66Zm53.58,2.6c1.65.66,2.79-.11,3.86-1a2.37,2.37,0,0,0,.34-2.84,2,2,0,0,0-2.61-.24C248.57,358.12,248.18,359.07,248.61,361.26ZM148,371.22a1.84,1.84,0,0,0-2.59-1.82,5.06,5.06,0,0,0-1.44,1.22c-.69.76-1.48,1.56-.94,2.71.38.82,1.41.76,3,0C147,372.77,148,372.23,148,371.22Zm103.49-21.7a4,4,0,0,0-3,2.22,3.21,3.21,0,0,0,.21,2.2c.21.32,1.38.3,1.92,0a5.51,5.51,0,0,0,2.16-1.74,2.34,2.34,0,0,0,0-2C252.53,349.83,251.74,349.67,251.46,349.52Zm-58.12,1.64c2.18.1,3.55-.44,4.25-1.7.45-.82.62-1.83-.2-2.38a2.79,2.79,0,0,0-2.2-.18C193.63,347.48,193,349,193.34,351.16Zm-49.32,37a4,4,0,0,0,4.49-1.65c.9-1.18.29-2.35-1.19-2.52a3.12,3.12,0,0,0-2.7,1.24A2.27,2.27,0,0,0,144,388.21Zm0-7.18a4,4,0,0,0,4.05-1.84,2.32,2.32,0,0,0,0-2,1.58,1.58,0,0,0-2.1-.57C144.15,377.34,143.43,378.85,144.07,381Zm3.39-17.47A1.43,1.43,0,0,0,146,362c-1.22-.13-1.87.69-2.59,1.42-1.18,1.21-1.49,2.18-.81,2.84,1,1,1.91.05,2.78-.35A3.22,3.22,0,0,0,147.46,363.56Zm105.62-19.15c0-1.56-.58-2.14-1.76-2.09a3.84,3.84,0,0,0-3,2.68,2.4,2.4,0,0,0,.49,1.68c.21.23,1,0,1.49-.14a6.38,6.38,0,0,0,1.88-1A4.65,4.65,0,0,0,253.08,344.41Zm-111.59,7.26c3.43.1,5-1.41,4.12-3.91C142.71,347.41,141.2,348.78,141.49,351.67Zm.46,7.22c1.67.53,2.83-.21,3.89-1.23a1.64,1.64,0,0,0,.37-2.33,1.7,1.7,0,0,0-2.38-.29C142.64,355.88,141.27,356.78,142,358.89Z" transform="translate(-0.66 -1.18)" style="fill:#005e8c"/><path d="M70.7,415.26c.7-1.25,1.47-2.47,2.09-3.76a5.39,5.39,0,0,0,.69-2.47c-.25-3.52,1.57-5.88,4.09-7.94.92-.75,1.72-1.65,2.61-2.45a5.83,5.83,0,0,0,2.17-5c-.12-1.93,1-3.47,2.53-4.68.55-.45,1.12-.86,1.69-1.29a17.61,17.61,0,0,0,2.52-.53,10.25,10.25,0,0,0,3.09-1.47,7.66,7.66,0,0,1,3.71-1.84,23.57,23.57,0,0,1,2.15,1c4.59,2.77,9.13,5.61,13.75,8.33a195.2,195.2,0,0,0,26.72,13.53c5.64,2.24,11.12,4.91,16.65,7.42.43.19,1.35.15,1,1.12Z" transform="translate(-0.66 -1.18)" style="fill:#0e1d2f"/><path d="M282.2,46.71c-3.25.29-6.5.63-9.76.85q-13.63.9-27.28,1.73c-3.43.21-6.86.33-10.29.5-1.12-1.75-2.28-3.47-3.36-5.24-2.52-4.13-6.3-7-10-9.87a6.25,6.25,0,0,0-1.74-.78c-4.43-1.59-8.86-3.19-13.31-4.74a13.66,13.66,0,0,0-2.31-.36c0,2.79-.19,5.27,0,7.71.46,4.87-1,9.13-3.54,13.16-.46.75-.9,1.51-1.34,2.27-2.69.28-5.37.65-8.06.83-9.63.65-19.27,1.23-28.9,1.83l-24.6,1.53a17.51,17.51,0,0,1-1.91-.07c.07-1,.12-1.91.22-2.86.48-4.79,2.64-8.43,7-10.68,1.84-.94,3.92-1.91,5.12-3.46s1.16-3.72,1.81-5.58a42.29,42.29,0,0,1,2.18-5.31q2.37-4.71,5-9.28C162,10.48,169.72,6,178.89,4.12c4.16-.85,8.59-.61,12.88-.49,3.72.1,7.33,1,9.83,4.41.88-.74,1.64-1.32,2.31-2,3.39-3.23,7.65-4,12.06-4.67,7-1,13,1.44,18.88,4.8,1.59.91,3.28,1.65,4.86,2.57,1.92,1.13,3.76,2.39,5.67,3.54a21.61,21.61,0,0,0,3.36,1.7c3.5,1.32,7.12,2.36,10.54,3.86,2.23,1,4.2,2.44,6.65,3.13a7.44,7.44,0,0,1,5.13,5.59,6,6,0,0,0,2.62,3.54c6,4.17,10.12,9.89,13.38,16.32l-3.14.1c-1.66-3.35-2.42-4.43-4.2-5.6ZM196.92,48c1.75-2.72,3.47-5.46,3-9l-3.91,9-1.11,2.36A2.56,2.56,0,0,0,196.92,48Zm-58,6.18c3.23-2.85,6-5.32,8.81-7.77,1.09-1,.74-2.06.55-3.54-2.37,1.58-4.53,2.91-6.55,4.42a5.25,5.25,0,0,0-1.59,2.3A42.78,42.78,0,0,0,138.91,54.22Z" transform="translate(-0.66 -1.18)" style="fill:#101e30"/><path d="M376.43,330.29c1-2.13,2.74-2.69,5-2.82,13.88-.76,27.74-1.67,41.6-2.54,6.78-.42,13.55-.87,20.32-1.3.79-.05,1.59,0,2.39,0-2.5,3.11-5.07,6.16-7.48,9.34a31.4,31.4,0,0,1-6.88,6.24C427.52,342,423.8,345,420,348c-2.2,1.74-4.31,3.56-6.5,5.3a40.52,40.52,0,0,1-10.89,6c-.75.28-1.48.59-2.23.88L397,361.38,392.81,363l-7.67,1.91-8.11-.49-2.41-.47-3.47-2.56-.78-1.51a12.13,12.13,0,0,1-.45-5.61l2.53-13.92,1.23-4.72Z" transform="translate(-0.66 -1.18)" style="fill:#fcfdfc"/><path d="M57.83,348.2c4.46-.34,8.92-.71,13.38-1q14.82-1,29.66-1.87c1-.07,2.07,0,3.11,0l.48,2.25c.2,1.32.39,2.64.59,4,0,1.61,0,3.22,0,4.83l0,.2c-1,2.24-.7,4.6-.68,6.94l-.06.85L103.13,370c-2.24,3.56-4.47,7.13-6.75,10.68-.63,1-1.09,1.95-.49,3.11a7.66,7.66,0,0,0-3.71,1.84,10.25,10.25,0,0,1-3.09,1.47,17.61,17.61,0,0,1-2.52.53c-4.75.46-8.4-1.86-12-4.53a32.62,32.62,0,0,1-11-13.35c-1.48-3.44-3.23-6.78-4.59-10.26A22.28,22.28,0,0,1,57.83,348.2Z" transform="translate(-0.66 -1.18)" style="fill:#fcfdfc"/><polygon points="1.92 63.5 520.05 30.51 538.51 316.26 20.01 349.2 1.92 63.5" style="fill:#0086bf"/><polygon points="19.75 78.31 506.03 47.38 522.38 300.4 36.77 331.28 19.75 78.31" style="fill:none;stroke:#fff;stroke-miterlimit:10;stroke-width:2px"/><path d="M10.91,200.51c3.18.13,6.37.31,9.56.38,2.71.07,5.43,0,8.14,0a8,8,0,0,1,4.55,1.86c2.87,2,3.66,4.88,4.13,8a2.25,2.25,0,0,0,1.12,1.94c2.53,1.41,2.29,5.77-.48,7.18a26.47,26.47,0,0,1-4,1.42,5.81,5.81,0,0,0-1.41.47c1.54.36,2.82.91,3.45,2.46,1,2.34.2,4.09-2.25,4.79-1.3.37-2.64.62-4,.94a20.41,20.41,0,0,0-6.38,2.63,16.7,16.7,0,0,1-4.69,1.69c-1.94.51-3.88.94-5.46,2.3-4.1.54-6.73-1.07-8.09-5a7.25,7.25,0,0,1-.55-1.83,5.53,5.53,0,0,0-2.29-4.26A4.58,4.58,0,0,1,.7,221.22c.09-1-.07-2,0-3A9.51,9.51,0,0,1,1,214.91a6.13,6.13,0,0,0,.53-3.69c-.69-3.77,1.25-6.44,3.79-8.81C6.89,201,8.9,200.7,10.91,200.51Z" transform="translate(-0.66 -1.18)" style="fill:#fcfdfc"/><path d="M515.48,256.1a5.89,5.89,0,0,1,3-3.8c.56-.35,1.06-.81,1.76-1.34-.68-.64-1.15-1-1.59-1.47a3.16,3.16,0,0,1,.12-5A6.32,6.32,0,0,1,523,243c3.81-.22,7.62-.48,11.43-.73,1.51,0,3,.05,4.54.11,3,.12,4,1.08,4.14,4,.1,1.57.37,2.94,2.31,3.43a2.56,2.56,0,0,1,1.48,1.89c.18,2.42,1.06,4.9-.28,7.3-.22.39,0,1.07.08,1.6a27.43,27.43,0,0,1,.53,2.82c.17,2.82-.88,5.13-3.57,6.18a64.36,64.36,0,0,1-6.89,1.91c-.62-.44-1.11-.43-1.39.37l-1,.15a9.55,9.55,0,0,0-5.64.83,10.35,10.35,0,0,1-6.54-.7c-1.36-.72-2.61-1.6-2.55-3.42v-.88l.6-1.93c1.06-1.56,1-2-.47-2.55a8.52,8.52,0,0,0-1.35-.29l-.43-.43c-.24-.37-.47-.74-.7-1.11l-1.83-2.55C515.47,258.08,515.47,257.09,515.48,256.1Z" transform="translate(-0.66 -1.18)" style="fill:#fcfdfc"/><path d="M370.37,359.91l.78,1.52-4.43,2.91a1.82,1.82,0,0,0-.34.34c-.68.87-.7,2.91,0,3.56a2.53,2.53,0,0,0,3.07,0,19.51,19.51,0,0,1,5-3.82c.1,0,.12-.28.18-.42l2.41.47a12.51,12.51,0,0,1-1,2c-1.06,1.41-1.32,2.86-.49,3.58s2.16.44,3.4-.72c1.77-1.67,4-2,6.21-2.55h0a5.9,5.9,0,0,1-1.81,2.63,14.83,14.83,0,0,0-2,2.73l-2.88.4c-1.23-1.25-2.33.15-3.46.25-1.18-2.94-4-3.9-6.47-2.05-1.92,1.43-4.38,2.26-5.53,4.63,0,.11-.27.14-.42.2-3-1.43-6-2.85-9-4.32a10.4,10.4,0,0,1-1.49-1.1,5.64,5.64,0,0,0,4-1.42,38.38,38.38,0,0,0,3.39-3.36c1.24-1.37.87-2.51-.77-3.38-1.45-.77-2.8-.06-4.19,0,.88-1.13,1.71-2.3,2.65-3.36,1.45-1.63,1.41-2.45-.35-3.61-1.39-.93-2.52-.76-3.84.56a42.29,42.29,0,0,0-3.3,3.4,28.13,28.13,0,0,0-2.07,3.43c-.57-1.71-1.15-3.42-1.72-5.12,1.75-.67,3.53-1.27,5.23-2.05.59-.27,1-1,1.46-1.48.26-.27.47-.66.79-.8,2.42-1,5.17-1.54,6.33-4.4.1-.23.53-.31.79-.49a12.53,12.53,0,0,0,1.72-1.24,5.84,5.84,0,0,1,3-1.83,4.84,4.84,0,0,0,2.15-1.41,2.1,2.1,0,0,0,.17-2.82,2.27,2.27,0,0,0-3.21-.26,3.93,3.93,0,0,0-1.07,1.27,2.13,2.13,0,0,1-2.42,1.46A2.46,2.46,0,0,0,358,344.9c-.64,1.91-1.91,2.31-3.69,2.24a2.84,2.84,0,0,0-2.89,1.7,4.64,4.64,0,0,1-1.84,1.66,36.45,36.45,0,0,0-5.85,4.72l-2.88-2.73c1.21-1,2.48-2,3-3.58,1.49.12,3.09.52,4.36-.47a14.43,14.43,0,0,0,2.1-2.78,14,14,0,0,1,1.81,0,3.42,3.42,0,0,0,3.71-1.94l.92-1.44a11.41,11.41,0,0,1,1.12-1.36c.87-.77,1.9-1.38,2.69-2.22s.6-1.62-.57-2.18a3,3,0,0,0-3.69.52,11,11,0,0,1,2.23-6.09l-.3-2.1,4.26,0c0,.91.41,1.46,1.41,1.42a3.22,3.22,0,0,0,3-1.47c1.95-.3,3.89-.64,5.85-.89a1.4,1.4,0,0,1,1.77,1.19c.17,1.28,1.08,1.15,2,1.14l-2.75,5.37c-3.24.07-4.71,1.7-4,4.72h2.75q-1.27,7-2.53,13.92a7.67,7.67,0,0,0-2.73.52,25.65,25.65,0,0,0-3.46,2.91,3.4,3.4,0,0,0-.54,3.34,2.61,2.61,0,0,0,3,.71c.45-.16.86-.43,1.3-.62C368.47,360.73,369.42,360.32,370.37,359.91Zm-11.2-5.44c0,1.43.34,2.18,1.47,2.19a3.71,3.71,0,0,0,3.51-1.62,10.2,10.2,0,0,1,3.34-3.59,2.31,2.31,0,0,0,.27-3.67c-.95-1-2.16-.9-3.2.51a6.57,6.57,0,0,1-2.77,2.1C359.93,351.25,359.7,353.19,359.17,354.47ZM366,332.58a3.61,3.61,0,0,0-3.71,2.57,1.9,1.9,0,0,0,.66,2.34,2.54,2.54,0,0,0,2,.18,3.56,3.56,0,0,0,2.61-3.5,29.65,29.65,0,0,0,3.6-2.23,1.8,1.8,0,1,0-2.46-2.62A35.54,35.54,0,0,0,366,332.58Zm-1.08,36.59c0-1.87-.61-2.58-1.8-2.28a23,23,0,0,0-3.8,1.3c-1.38.6-1.46,2-1.56,3.24-.08.93.54,1.44,1.32,1.77a2.55,2.55,0,0,0,3.22-.71c.58-.65,1.3-1.18,1.84-1.86A8.37,8.37,0,0,0,364.94,369.17Z" transform="translate(-0.66 -1.18)" style="fill:#00628f"/><path d="M342.89,329.84l1.83,0c.5,1.75.8,2,2.31,1.87a3.62,3.62,0,0,0,3-1.91l1-.06,1.83,1.93a4.32,4.32,0,0,1-3,2.48,4.62,4.62,0,0,0-3.37,2c-.29.46-1.19.57-1.83.81a23.32,23.32,0,0,0-2.86,1.07c-.89.48-1.21,2.15-.79,3.23s1.31,1,2.19,1a3.46,3.46,0,0,0,3.71-3c1.34-.4,2.47-.76,3.6-1.07a1.93,1.93,0,0,1,1.15-.09,4.87,4.87,0,0,0,3.71-.29c-.09.77-.18,1.53-.31,2.52-3.1-.62-4.84.93-6,3.25-4.33.29-5.21,1-5.3,4-1.74-.14-3.42-.19-4.69,1.41-.26.33-1,.31-1.49.45l-2.55-2.29c.12-.94.89-.9,1.56-1.16,1.55-.59,3.19-1.17,3.54-3.16a1.49,1.49,0,0,0-2-1.8,5.81,5.81,0,0,0-1.45.82,2.79,2.79,0,0,1-2.86.59,2.84,2.84,0,0,0-3.23.94l-.87-.71c.23-.31.38-.72.68-.92,1.66-1.12,1.94-2.76,1.77-4.57-.12-1.3-.77-1.89-2-1.57A20.51,20.51,0,0,0,327,337h-.92l3-4.12c.05-.06.15-.08.19-.15,1.18-2,2.61-3.09,4.94-1.59a1.09,1.09,0,0,0,.89-.14c1.68-1,3.53-.69,5.33-.78-2.05,1.71-4.11,3.39-6.13,5.12a2.43,2.43,0,0,0-.25,3.05c.88.89,1.69.44,2.51-.2a13.45,13.45,0,0,1,4.48-2.56c1.88-.57,2.49-2,2.14-4C343.12,331.07,343,330.46,342.89,329.84Z" transform="translate(-0.66 -1.18)" style="fill:#00618f"/><path d="M536.78,279.86c-2.44.18-4.88.4-7.32.51a10.87,10.87,0,0,1-3.47-.22,2.84,2.84,0,0,1-2.17-3c.07-1.43.81-2.28,2.45-2.79a4.91,4.91,0,0,1,.94-.09,17,17,0,0,0,2.48-.11c1.57-.27,3.13-.66,4.7-1l1.19-.13,5-.25a2.15,2.15,0,0,1,2.16,1.63c.09.53.18,1.07.26,1.61-.42,2.61-1,3.16-3.39,3.42C538.64,279.51,537.71,279.71,536.78,279.86Z" transform="translate(-0.66 -1.18)" style="fill:#f7f9fb"/><path d="M283.81,340.84c-2.25-.13-2.54,2-3.83,3.5L278,342l1.52-2.07a20,20,0,0,0,2.1-2.53c.71-1.2.07-2.21-1.36-2.26-.69,0-1.4.27-2.1.28a2.26,2.26,0,0,1-1.34-.61c2.52-1.38,5.2-1.14,7.84-1.12Q284.24,337.25,283.81,340.84Z" transform="translate(-0.66 -1.18)" style="fill:#006997"/><path d="M389.89,369.19c.1-.71.22-1.42.3-2.13.15-1.22-.39-1.92-1.6-1.67a20.73,20.73,0,0,0-3.5,1.39h0l0-1.85,7.67-1.91,0,4.4Z" transform="translate(-0.66 -1.18)" style="fill:#00628f"/><path d="M317.07,331.63l7.41-.34c-.73,1.84-1.33,3.33-1.92,4.83Z" transform="translate(-0.66 -1.18)" style="fill:#076790"/><path d="M354.39,362c-.22,2.22-.6,2.69-2.64,3.21-.89.22-1.8.42-2.7.63l-.9-2c1.42-.38,2.85-.74,4.26-1.15C353.08,362.5,353.73,362.22,354.39,362Z" transform="translate(-0.66 -1.18)" style="fill:#00628f"/><path d="M281.94,351.45l-2-3.11c.56-1.38,1.39-2.28,3-2.24Z" transform="translate(-0.66 -1.18)" style="fill:#076790"/><path d="M540.55,272.75l-5,.25c-.08-.35-.17-.69-.25-1,.28-.8.77-.81,1.39-.37-.1.73.26.89.93.9C538.62,272.51,539.58,272.66,540.55,272.75Z" transform="translate(-0.66 -1.18)" style="fill:#d2dde4"/><path d="M327,337c-.31.81-.62,1.63-.94,2.44l-1.8-1.65,1.82-.79Z" transform="translate(-0.66 -1.18)" style="fill:#076790"/><path d="M543,276c-.08-.54-.17-1.08-.26-1.61C543.24,274.84,543.54,275.35,543,276Z" transform="translate(-0.66 -1.18)" style="fill:#d2dde4"/><path d="M199.29,51.94c.44-.76.88-1.52,1.34-2.27,2.51-4,4-8.29,3.54-13.16-.23-2.44,0-4.92,0-7.71a13.66,13.66,0,0,1,2.31.36c4.45,1.55,8.88,3.15,13.31,4.74a6.25,6.25,0,0,1,1.74.78c3.72,2.91,7.5,5.74,10,9.87,1.08,1.77,2.24,3.49,3.36,5.24q-11.82.81-23.66,1.62-5.37.36-10.76.66A6.54,6.54,0,0,1,199.29,51.94Z" transform="translate(-0.66 -1.18)" style="fill:#f7f9fb"/><path d="M534.39,273.13c-1.57.34-3.13.73-4.7,1a17,17,0,0,1-2.48.11l1.51-1.3a9.55,9.55,0,0,1,5.64-.83Z" transform="translate(-0.66 -1.18)" style="fill:#d2dde4"/><path d="M282.2,46.71,279.72,41c1.78,1.17,2.54,2.25,4.2,5.6Z" transform="translate(-0.66 -1.18)" style="fill:#bea15f"/><path d="M518.42,263.17a8.52,8.52,0,0,1,1.35.29c1.46.57,1.53,1,.47,2.55,0-.52.07-1.05.1-1.49Z" transform="translate(-0.66 -1.18)" style="fill:#d2dde4"/><path d="M515.48,256.1c0,1,0,2,0,3A2.15,2.15,0,0,1,515.48,256.1Z" transform="translate(-0.66 -1.18)" style="fill:#d2dde4"/><path d="M517.29,261.63c.23.37.46.74.7,1.11Z" transform="translate(-0.66 -1.18)" style="fill:#d2dde4"/><path d="M519.64,267.94v.88C519.63,268.53,519.64,268.23,519.64,267.94Z" transform="translate(-0.66 -1.18)" style="fill:#d2dde4"/><path d="M196.05,48.05,200,39c.43,3.54-1.29,6.28-3,9Z" transform="translate(-0.66 -1.18)" style="fill:#b7b9c1"/><path d="M196.05,48.05h.87a2.56,2.56,0,0,1-2,2.37Z" transform="translate(-0.66 -1.18)" style="fill:#666a78"/><path d="M534.39,273.13l0-1,1-.15c.08.35.17.69.25,1Z" transform="translate(-0.66 -1.18)" style="fill:#0086bf"/></svg>