<svg id="e5d3370a-3f9b-4af8-beec-ab4120fea763" data-name="Calque 1" xmlns="http://www.w3.org/2000/svg" viewBox="0 0 20 28.01"><title>icon_download</title><path d="M25.44,25.22H5.5V28.5H25.44Zm-.33-13.11a1.31,1.31,0,0,0-1.85,0l-6.5,6.43V1.79a1.31,1.31,0,0,0-2.62,0V18.54L7.74,12.2a1.32,1.32,0,0,0-1.86,0,1.29,1.29,0,0,0,0,1.83l8.65,8.56.09.08.05,0,.06,0,0,0,.06,0,.06,0,0,0,.06,0,.06,0,.06,0h.64l.06,0,.07,0,0,0,.06,0,.06,0,.05,0,.06,0,.06,0,0,0a.86.86,0,0,0,.14-.13l0,0,8.64-8.56a1.29,1.29,0,0,0,0-1.83" transform="translate(-5.5 -0.5)" style="fill:#fff"/></svg>