<?xml version="1.0" encoding="utf-8"?>
<!-- Generator: Adobe Illustrator 22.0.0, SVG Export Plug-In . SVG Version: 6.00 Build 0)  -->
<svg version="1.1" id="_x37_966c9d0-2b54-44b0-90bb-c86484bffc1f"
	 xmlns="http://www.w3.org/2000/svg" xmlns:xlink="http://www.w3.org/1999/xlink" x="0px" y="0px" viewBox="0 0 50 50"
	 style="enable-background:new 0 0 50 50;" xml:space="preserve">
<style type="text/css">
	.st0{fill:#FFFFFF;}
</style>
<title>icon_facebook</title>
<path class="st0" d="M45,0H5C2.2,0,0,2.2,0,5v40c0,2.8,2.2,5,5,5h40c2.8,0,5-2.2,5-5V5C50,2.2,47.8,0,45,0z M32,14h-2.5
	c-2.2,0-2.5,0.8-2.5,2.2V20h4.8l-0.6,5H27v17h-7V25h-4v-5h4v-4.3c0-4.2,1.8-6.7,7.4-6.7H32V14z"/>
</svg>
