<svg id="3d343937-fe7f-43e8-b684-97b60eb486e7" data-name="Calque 1" xmlns="http://www.w3.org/2000/svg" viewBox="0 0 38.31 45.75"><title>icon_youtube</title><path d="M11.8,2.25h2.63L16.13,9h.17l1.62-6.78h2.66l-3,9.92v7H14.91V12.49Z" transform="translate(-5.69 -2.25)" style="fill:#fff"/><path d="M20.46,9.56a3,3,0,0,1,.94-2.32,3.58,3.58,0,0,1,2.52-.86,3.24,3.24,0,0,1,2.36.91,3.14,3.14,0,0,1,.93,2.34v6.46a3.42,3.42,0,0,1-.91,2.51,3.34,3.34,0,0,1-2.49.92,3.25,3.25,0,0,1-2.44-.95A3.46,3.46,0,0,1,20.46,16V9.56Zm2.39,6.71a1.15,1.15,0,0,0,.25.8.88.88,0,0,0,.71.28,1,1,0,0,0,.75-.29,1.1,1.1,0,0,0,.28-.79V9.46a.85.85,0,0,0-.29-.66,1.07,1.07,0,0,0-.74-.25.93.93,0,0,0-.69.25.87.87,0,0,0-.27.66v6.81Z" transform="translate(-5.69 -2.25)" style="fill:#fff"/><path d="M35.81,6.7V19.2H33.49V17.82A5,5,0,0,1,32.15,19a2.65,2.65,0,0,1-1.35.4,1.38,1.38,0,0,1-1.21-.56,2.76,2.76,0,0,1-.41-1.67V6.7H31.5v9.58a1.11,1.11,0,0,0,.15.65.55.55,0,0,0,.47.2,1.25,1.25,0,0,0,.65-.27,3.23,3.23,0,0,0,.72-.67V6.7Z" transform="translate(-5.69 -2.25)" style="fill:#fff"/><path d="M37.43,32.7a.93.93,0,0,0-.8.34,2,2,0,0,0-.24,1.13v1.08h2V34.17A2,2,0,0,0,38.2,33,.9.9,0,0,0,37.43,32.7Z" transform="translate(-5.69 -2.25)" style="fill:#fff"/><path d="M28.88,32.66a1.11,1.11,0,0,0-.49.12,1.78,1.78,0,0,0-.48.38v7.61a1.89,1.89,0,0,0,.55.44,1.25,1.25,0,0,0,.56.14.72.72,0,0,0,.63-.27,1.45,1.45,0,0,0,.2-.86V34a1.55,1.55,0,0,0-.25-1A.83.83,0,0,0,28.88,32.66Z" transform="translate(-5.69 -2.25)" style="fill:#fff"/><path d="M43.75,27.93a5.51,5.51,0,0,0-5.54-5.47q-6.53-.27-13.36-.25t-13.37.25A5.5,5.5,0,0,0,6,27.93c-.19,2.39-.27,4.78-.26,7.17s.07,4.78.26,7.18a5.5,5.5,0,0,0,5.53,5.47Q18,48,24.85,48t13.36-.25a5.51,5.51,0,0,0,5.54-5.47q.27-3.6.25-7.18T43.75,27.93ZM14,43.15v.18H11.37V28.84H8.66V26.2h8v2.64H14V43.15ZM23.3,30.83v12.5H21V42a5.12,5.12,0,0,1-1.34,1.17,2.73,2.73,0,0,1-1.35.39A1.41,1.41,0,0,1,17.07,43a2.89,2.89,0,0,1-.41-1.68V30.65H19v9.58a1.1,1.1,0,0,0,.14.65.56.56,0,0,0,.47.2,1.22,1.22,0,0,0,.65-.27,3.23,3.23,0,0,0,.72-.67V30.65H23.3v.18Zm8.94,3v6.93a3.31,3.31,0,0,1-.54,2,1.86,1.86,0,0,1-1.58.71,2.67,2.67,0,0,1-1.22-.27,3.36,3.36,0,0,1-1-.85v1H25.56V26.2h2.35v5.46a3.64,3.64,0,0,1,1-.87,2.14,2.14,0,0,1,1.07-.3,2,2,0,0,1,1.68.8,4,4,0,0,1,.58,2.34v.18Zm8.6.38v3.19H36.39v2.17a2.9,2.9,0,0,0,.23,1.37.82.82,0,0,0,.78.38.93.93,0,0,0,.81-.32,2.77,2.77,0,0,0,.23-1.43v-.87h2.4V39.8A4.22,4.22,0,0,1,40,42.7a3.32,3.32,0,0,1-2.61,1,3.09,3.09,0,0,1-2.46-1A4.22,4.22,0,0,1,34,39.8V34a3.69,3.69,0,0,1,1-2.65,3.41,3.41,0,0,1,2.55-1,3.14,3.14,0,0,1,2.45,1A4,4,0,0,1,40.84,34v.18Z" transform="translate(-5.69 -2.25)" style="fill:#fff"/></svg>