<svg id="3425a684-1bcc-408f-948c-894af59b5ff2" data-name="Calque 1" xmlns="http://www.w3.org/2000/svg" viewBox="0 0 50 50"><title>icon_instagram</title><path d="M34.72,0H15.28A15.28,15.28,0,0,0,0,15.28V34.72A15.28,15.28,0,0,0,15.28,50H34.72A15.28,15.28,0,0,0,50,34.72V15.28A15.28,15.28,0,0,0,34.72,0ZM45.83,34.72A11.1,11.1,0,0,1,34.72,45.83H15.28A11.1,11.1,0,0,1,4.17,34.72V15.28A11.1,11.1,0,0,1,15.28,4.17H34.72A11.1,11.1,0,0,1,45.83,15.28Z" transform="translate(0 0)" style="fill:#fff"/><path d="M25,12.5A12.5,12.5,0,1,0,37.5,25,12.5,12.5,0,0,0,25,12.5Zm0,20.83A8.33,8.33,0,1,1,33.33,25,8.33,8.33,0,0,1,25,33.33Z" transform="translate(0 0)" style="fill:#fff"/><path d="M38.06,9.17a2.78,2.78,0,1,1-2.78,2.77A2.77,2.77,0,0,1,38.06,9.17Z" transform="translate(0 0)" style="fill:#fff"/></svg>