<svg id="e6fda66e-9954-422d-972f-c155775b1411" data-name="Calque 1" xmlns="http://www.w3.org/2000/svg" viewBox="0 0 50 50"><title>icon_twitter</title><path d="M43.75,0H6.25A6.25,6.25,0,0,0,0,6.25v37.5A6.25,6.25,0,0,0,6.25,50h37.5A6.25,6.25,0,0,0,50,43.75V6.25A6.25,6.25,0,0,0,43.75,0ZM40.53,17c0,.35,0,.69,0,1,0,10.59-8.07,22.8-22.81,22.8a22.64,22.64,0,0,1-12.28-3.6,15.07,15.07,0,0,0,1.91.11,16.05,16.05,0,0,0,10-3.43,8,8,0,0,1-7.48-5.56,8.31,8.31,0,0,0,1.51.14,8.2,8.2,0,0,0,2.11-.28A8,8,0,0,1,7,20.39v-.1a8,8,0,0,0,3.63,1,8,8,0,0,1-2.48-10.7A22.77,22.77,0,0,0,24.71,19a7.9,7.9,0,0,1-.21-1.83,8,8,0,0,1,13.86-5.48,16,16,0,0,0,5.09-1.95,8.07,8.07,0,0,1-3.52,4.44,16.17,16.17,0,0,0,4.6-1.27A16.11,16.11,0,0,1,40.53,17Z" style="fill:#fff"/></svg>