<svg id="5ab3761e-d1ab-42cd-8450-172d14431883" data-name="Calque 1" xmlns="http://www.w3.org/2000/svg" viewBox="0 0 30 30"><title>icon_shopping</title><path d="M26.7,20.5H11a1.14,1.14,0,0,1-1.12-.87L7.22,8.4a1.13,1.13,0,0,1,.86-1.34,1.15,1.15,0,0,1,.26,0h21A1.14,1.14,0,0,1,30.5,8.15a1.07,1.07,0,0,1,0,.25L27.82,19.63A1.14,1.14,0,0,1,26.7,20.5ZM11.9,18.26H25.79l2.12-9H9.78Z" transform="translate(-0.5 -0.5)" style="fill:#0c1d2f"/><path d="M13.24,30.5a4.29,4.29,0,1,1,4.4-4.29A4.35,4.35,0,0,1,13.24,30.5Zm0-6.34a2.05,2.05,0,1,0,2.1,2.05h0A2.08,2.08,0,0,0,13.24,24.16Z" transform="translate(-0.5 -0.5)" style="fill:#0c1d2f"/><path d="M24.45,30.5a4.29,4.29,0,1,1,4.4-4.29A4.35,4.35,0,0,1,24.45,30.5Zm0-6.34a2.05,2.05,0,1,0,2.11,2.05h0A2.09,2.09,0,0,0,24.45,24.16Z" transform="translate(-0.5 -0.5)" style="fill:#0c1d2f"/><path d="M8.34,9.27A1.15,1.15,0,0,1,7.25,8.5l-2-5.76H1.65A1.13,1.13,0,0,1,.5,1.62,1.13,1.13,0,0,1,1.65.5H6.11a1.14,1.14,0,0,1,1.09.77L9.44,7.79A1.15,1.15,0,0,1,8.35,9.27Z" transform="translate(-0.5 -0.5)" style="fill:#0c1d2f"/></svg>