<svg id="b7903434-ea19-44fd-852e-49c7858f78d2" data-name="Calque 1" xmlns="http://www.w3.org/2000/svg" viewBox="0 0 609.97 119.01"><title>marker-background</title><path d="M3.66,108.49l607.62-2.27,1.36,14L5,122.5Z" transform="translate(-3.51 -3.49)" style="fill-rule:evenodd"/><path d="M5.46,3.49,608.74,4l2.3,6.8L7.76,10.29Z" transform="translate(-3.51 -3.49)" style="fill-rule:evenodd"/><polygon points="609.97 99.7 608.61 85.68 607.62 85.69 607.56 82.25 608.7 82.24 608.38 64.3 608.67 64.3 608.36 63.38 608.08 47.26 609.51 47.26 607.2 40.46 606.69 40.46 606.41 24.3 606.7 24.3 606.39 23.38 606.09 6.13 1.81 12.17 1.89 17.04 1.13 17.04 1.94 19.43 2.11 29.2 0.98 29.21 1.17 40 0.98 40 1.18 40.58 1.39 52.17 0.83 52.17 0.92 57.04 0.15 57.04 0.96 59.43 1.14 69.2 0 69.22 0.64 105.33 539.79 99.96 609.97 99.7" style="fill-rule:evenodd"/></svg>