<svg id="8e171e25-040b-410e-8b90-576d3d44ccd2" data-name="Calque 1" xmlns="http://www.w3.org/2000/svg" viewBox="0 0 66.03 76.09"><title>video_vectorized_woman_hand_1</title><path d="M30.84,29.87c9.4.75,18.81,1.45,28.2,2.28a12.67,12.67,0,0,1,4.71,1.26c4.47,2.31,5,6.42,1.27,9.81-1.18,1.08-2.49,2-4.06,3.26,3.38,1.86,7.66,3.07,6.33,7.72-1.84,6.45-8.08,6-11.89,7,1.39,2.9,4.11,5.94,3.9,8.75-.33,4.39-5,5-8.7,5.7-5,.89-10.09,1.29-15.13,1.91-4.65-.17-9.32-.12-13.94-.57C11.31,76,9.19,72.89,11.47,64.66,8.54,62,4.5,60,4,57.37c-.55-2.88,2.18-6.39,3.61-10a11.56,11.56,0,0,1-2.32-1C.45,43.48.1,37.29,5.15,34.88,9.47,32.82,14.46,32,19.23,31.1,23,30.36,27,30.26,30.84,29.87Z" transform="translate(-1.51 -1.46)" style="fill:#fff"/><path d="M28.13,1.46c5.54,1.19,11.18,2,16.54,3.76,1.92.62,4.65,3.65,4.38,5.07a9.46,9.46,0,0,1-4.83,6.09c-4.49,1.91-9.47,2.7-14.24,3.94-5-.28-10.14-.19-15.11-.94-6.45-1-9.29-4.26-8.87-9.15.47-5.39,4.24-8.51,10.51-8.64C20.38,1.51,24.26,1.5,28.13,1.46Z" transform="translate(-1.51 -1.46)" style="fill:#fff"/></svg>