<svg id="729b246f-afd4-4819-80dd-deaa121e555c" data-name="Calque 1" xmlns="http://www.w3.org/2000/svg" width="53.1" height="221.99" viewBox="0 0 53.1 221.99"><title>video_vectorized_woman_hand_2</title><path d="M56.26,96.21c0-1.07,0-2.15,0-3.22a6.05,6.05,0,0,0-.85-3.78c-.23-1.91-.49-4-.76-6.33-2-17-28-82-28-82V105.34A104.62,104.62,0,0,1,16.55,135a114.54,114.54,0,0,0-8.17,20.67c-1.9,6.48-2.63,13.31-3.7,20-.53,3.33-.68,6.73-1,10.3,3.68,0,6.38-.88,7.78-3.88,1.56-3.35,2.78-6.85,4.25-10.25,2-4.61,3.94-9.25,6.19-13.73.45-.89,2.21-1.12,3.37-1.66.5,1.11,1.42,2.21,1.44,3.33.13,10.91.07,21.82.14,32.73.07,10.1.23,20.21.36,30.31,3.78-4.14,7.4-8.44,11.38-12.38a25.6,25.6,0,0,0,7.47-15.92c1.36-11.61,2.61-23.23,4.18-34.81,2-14.74,4.28-29.44,6.44-44.15-.06-2.93-.16-5.87-.25-8.8C57,104.47,56.83,101.41,56.26,96.21Z" transform="translate(-3.67 -0.88)" style="fill:#fff;fill-rule:evenodd"/></svg>