<svg id="b98bf93a-2f9c-499c-aec9-64d19ca34375" data-name="Calque 1" xmlns="http://www.w3.org/2000/svg" viewBox="0 0 165.07 254.62"><title>vectorized-woman-video</title><path d="M100.6,134.36l-3.51.32c-.13-.19-.23-.46-.41-.55-1.54-.7-2.15-2.09-2.71-3.53,0-3.51,0-7,0-10.54.46-2,1-4.07,1.38-6.12.23-1.3.24-2.65.35-4l-.19-.27-.33-.42-.39-.51c-.11-.16-.23-.31-.34-.46a1.21,1.21,0,0,0-.06-.34,16.29,16.29,0,0,1-1.93-8.5,9.73,9.73,0,0,0-.71-2.7c-.21-1.22-.43-2.44-.64-3.66l-.49-5.92-.1-.49c-.1-.66-.2-1.32-.31-2l-.35-.11-1.35,1.33a.27.27,0,0,0-.18.11c-.58.1-1.16.18-1.73.3s-1,.26-1.5.39a.09.09,0,0,0-.11.05c-.41.22-.8.45-1.22.64s-.85.53-1.15.42c-.93-.34-1.43.11-1.89.78l-.26.3c-.34.4-.69.79-1,1.18l-1,1.85-.45.75-.28.44-.19.3-.37.45a.09.09,0,0,0-.09.09l-.38.39-1.06,1.06-.35.36-.4.52-1.21.91-.43.33-.8.61a.25.25,0,0,0-.17.11l-1,.65-1.2.65-3.51.79c1.91-1.91,5-2.37,6.2-5.37-1.8-.1-2.42,1.43-3.53,2.1L69,96.91l.83-1.58,1.72-1.11.16-.1,0-.06a1.94,1.94,0,0,0,1.68-1.9c.07-3.21,1.8-5.35,4.25-7.22A27.06,27.06,0,0,0,81.14,81l-1-.82a8.46,8.46,0,0,1-.61-5.25,16.87,16.87,0,0,0,.1-2l0-.63c.06-.54.11-1.09.17-1.63l.55-1A2.59,2.59,0,0,0,81.05,67a17.25,17.25,0,0,1-.82-4.2c0-2.35-1.74-3.18-3.33-4.26a8.51,8.51,0,0,0,1,2.38c.24.4.49.68-.15.86a.82.82,0,0,0-.2-.12c-.51-1.26-1-2.53-1.54-3.79a2.84,2.84,0,0,0-.39-.54l-.32-.43c-.53-.81-1.07-1.62-1.61-2.43h0l-1-.63-.39-.12-.81-.61-1-1A30.08,30.08,0,0,0,69,48.54a17.09,17.09,0,0,0-2-2.46L66,45.14l-1-1.2a.72.72,0,0,0-.09-.2c-.27-.76-.58-.61-.9,0h0c-.36.59-.3.68.75,1a.55.55,0,0,0,.15.08l.53,1.59v.38l-.83,1.56-.06.07-.07,0,0,.06c0,.8-.09,1.6-.13,2.39l-.2.17a3.11,3.11,0,0,1-.3-3.86,1.3,1.3,0,0,0-.45-1.93c-1.29-.9-1.32-1.43-.15-2.54a.93.93,0,0,0,.18-1.33,3.82,3.82,0,0,0-2.3-1.77c-2-.79-2.75-1.8-2-3.51a4.42,4.42,0,0,0-.33-4.16,2.67,2.67,0,0,1-.3-.78c-.2-1.94-2-2.39-3-3.41-.78,1.54-1.44,3-2.24,4.34A24,24,0,0,1,51,35.52a4.17,4.17,0,0,0-1,3.51,12.62,12.62,0,0,0,.31,1.51,21.08,21.08,0,0,1,1.1,4c.23,3.34.17,6.7.31,10a8.62,8.62,0,0,0,.6,3.26,65.43,65.43,0,0,0,3.27,5.69,33.7,33.7,0,0,0,8.13,9.35,10.31,10.31,0,0,0,4.88,2.41c-.05.46-.09.92-.14,1.38-.08.93-.17,1.86-.25,2.79L62.64,81l-3.59.93c-1.16.28-2.33.52-3.48.83a1.62,1.62,0,0,0-1.31,2.08,34,34,0,0,0,1.21,3.33l-.37,1.51-.68.59h0l-.46.3h0l-.6.45q-.09,0-.12.06l-.61.42-.07,0,0,.06c-1.65.34-3.31.67-5,1-.6.13-1.19.34-1.79.52a13.88,13.88,0,0,0-1.89.61,16.12,16.12,0,0,0-1.71,1.06l-.33.35-.12.21-.45.34.2-1.33h-4a8.11,8.11,0,0,1,.25-2.78,11.54,11.54,0,0,0,.77-5.15c0-2.36,0-4.72,0-7.08A9,9,0,0,1,40.14,74c1.42-2,.8-4,.14-6.07-.12-.35-.6-.61-1-.86a17.08,17.08,0,0,1-5.72-6,7.6,7.6,0,0,1-.81-5.32c.31-1.48.85-2.91,1.21-4.38a2.11,2.11,0,0,0-.06-1.43c-2.93-5-1.58-9.58,1.44-14a4,4,0,0,1,1.44-1.24,6.76,6.76,0,0,0,3.92-6.15,50.79,50.79,0,0,1,1-8.19c1.06-4.56,4.43-7.26,8.37-9.33,1.34-.7,2.73-1.32,4.07-2a2,2,0,0,0,.92-.84c1.22-2.93,3.37-4.53,6.41-4.28A7.71,7.71,0,0,0,66,2.77c3-1.63,6.45-2,9.85-2.28a20.22,20.22,0,0,1,7,.44,50.89,50.89,0,0,0,5.69.78A15.37,15.37,0,0,1,100.12,10a2.49,2.49,0,0,0,.87.95,9.84,9.84,0,0,1,3.57,4.1,8.38,8.38,0,0,0,1.57,2.07c3.36,3.22,6.24,6.72,7.46,11.36.8,3.05,2,6,2.57,9.08A9.5,9.5,0,0,0,117.87,42l1.5,3.44.11.45c.12.57.24,1.14.35,1.71,0,1.17,0,2.34,0,3.51-.21,1.14-.41,2.27-.62,3.4V56c.07.4.13.81.2,1.22l.06.69v4.54l-.09,1.41-.15,1.71,0,.45c-.24,1.37-.47,2.74-.7,4.1,0,.71,0,1.42-.07,2.14-.17.51-.34,1-.5,1.55l-.9,1.57-.19.51,0,1c.06.48.3,1,.15,1.44-.63,1.67.32,2.92.94,4.28l2.3,4.85-1.28,0c-1.56-1-3.26-.67-4.83-.26s-2.79.78-3.88-.68c0,0-.15,0-.31,0v.89a14.27,14.27,0,0,1-1.5,9.2,8.62,8.62,0,0,0-.45,1.09l-.17.46c.27,1.51.48,3,.83,4.52,1,4.61,2.93,9.07,2.6,13.94-.53,2.45-.86,5-2.58,7-1.36.15-1.76,1.28-2.1,2.3a37.2,37.2,0,0,0-.89,3.82l-.22,0c-.11-.75-.23-1.51-.34-2.26l.1-.73c-.42.28-.78.38-.9.61C103.05,129.68,101.83,132,100.6,134.36Zm16.84-63.87a36,36,0,0,0,1.12-10.43c-.34,2-.49,3.94-.71,5.91-.17,1.5-.43,3-.65,4.47s-1.33,2.57-1.06,4.3A4.87,4.87,0,0,0,117.44,70.49Zm-19.06-61c-.78-3.34-8.66-7.91-12.63-7.33ZM34.6,47.57l2.5-11.13C34.35,38.39,32.8,45.37,34.6,47.57Zm81.79-6.09c-.35,4.17.56,8.13,2.31,10.1A13.8,13.8,0,0,0,116.39,41.48ZM43,69.06l-.33.18a4.09,4.09,0,0,0,0,.7,6.65,6.65,0,0,1-1.23,5.42c-1,1.42-1.13,3.13-1,5.17.92-1.94,1.63-3.64,2.51-5.23s.71-3.48.68-5.26C43.55,69.71,43.17,69.39,43,69.06Zm53.42,63.47L94.82,123C93.7,126.94,94.33,131,96.38,132.53ZM79.68,59.09c.38-1.33-1.27-5.2-2.32-5.71a.81.81,0,0,0-.44-.17.69.69,0,0,0-.46.28,4,4,0,0,0,.7,3.39C78,57.61,78.77,58.29,79.68,59.09ZM38.84,64.52a15.27,15.27,0,0,1-4.29-9.3C33.22,58.07,35.29,62.45,38.84,64.52ZM91.72,86.61l.93,8.54C94,93,93.37,88,91.72,86.61ZM81.42,71.33c-1.24,1.74-1.34,6.88,0,8C81.61,76.61,82.06,74.07,81.42,71.33ZM75,91.73c1-1.49,2.85-2.6,2.34-5C75.63,88.11,74.68,89.63,75,91.73ZM61.77,5.35c-2.21-.18-4.26.87-4.87,2.53A8.11,8.11,0,0,0,61.77,5.35Zm8.3,43.74A6,6,0,0,0,73.23,53C73.58,51.16,72.92,50.35,70.07,49.09Zm32.44,80.16c-2.07.85-2.65,1.89-2,3.68Zm-6.85-21.34a4.21,4.21,0,0,0-2-4.46ZM60.84,35.44c-1.25,1.54-1.09,2.72,1.49,3C61.81,37.42,61.37,36.52,60.84,35.44ZM95.12,102.9l.45-.14-1.65-4.87A7.28,7.28,0,0,0,95.12,102.9Zm8.1-87.6.34-.26-2.27-3-.34.26A6.7,6.7,0,0,0,103.22,15.3Zm7.4,9-.42.18c.7,1.68,1.41,3.37,2.11,5.06l.41-.17ZM74.87,51.88l-.59.4,1,1.59.7-.49Zm31.91,41.8.31.07c1-1.3,1.1-1.93.59-3.23C107.35,91.67,107.07,92.68,106.78,93.68Z" transform="translate(0.02 -0.38)" style="fill:#ea9594"/><path d="M108.66,123.59c1.72-2,2-4.53,2.58-7,1.62-.23,1.9-.7,1.41-2.38-.09-.31-.32-.61-.3-.9,0-.49.08-1.27.36-1.39a13.68,13.68,0,0,1,4.09-1.32c1-.09,1.48-.23,1.53-1.25s-.31-1.62-1.42-1.58a8.13,8.13,0,0,1-1.56,0c-1.5-.23-3-.48-4-1.83-1.48-2.11-2.93-4.24-2.95-7,0-.27-.38-.54-.59-.81l.17-.46c.77.94,1.49,1.92,2.31,2.81a7.56,7.56,0,0,0,1.37,1c.14-.47.28-.93.43-1.4a.93.93,0,0,1,.15-.2,12.19,12.19,0,0,0,1,1.46c.37.37,1,.73,1.15-.14a8,8,0,0,0-.1-2.84c-.32-1.3-.89-2.54-1.32-3.82-.09-.27-.15-.73,0-.88.89-.92.34-1.74-.17-2.47-.91-1.31-1.92-2.53-2.89-3.79v-.89c.16,0,.28,0,.31,0,1.09,1.46,2.39,1.08,3.88.68s3.27-.71,4.83.26a5.58,5.58,0,0,1-4,1.84c-.76,0-1.55.24-1.35,1.08a2.89,2.89,0,0,0,1.35,1.73,4.79,4.79,0,0,0,2.37.29c2.82-.16,4.4,1.49,5.62,3.71.78,1.44,1.58,2.87,2.38,4.29a2,2,0,0,0,2.42.5c.79-.5.33-1.11.1-1.68-.42-1-.94-2-1.26-3.1-.64-2.07-1.17-4.17-1.74-6.26l3.56.22,1.24.39.93.29.49.21h0l.49.23a.79.79,0,0,1,.22.05l.27.19.42.11.55.36a.48.48,0,0,1,.18.07l.56.38.39.13.53.4.21.06.25.2h0l.27.21a.66.66,0,0,1,.2.06l.26.2.45.29.52.42h0l1,.72.44.29L139,96h0l.24.23h0l.25.23.23.25.24.23h0l.24.23.24.24c.37.42.75.83,1.13,1.25.1.14.21.28.31.43s.29.34.43.52a.4.4,0,0,1,.07.18l.22.26h0c.16.49.33,1,.49,1.48-.88.15-1-.49-1.26-1.11-.48-1.23-1.25-1.34-2.07-.34-.15.18-.38.33-.47.53-.39.88-1.14,1.83-1,2.66.31,2.27,0,3-2.12,3.78-1.42.51-2.87.94-4.25,1.55a1.79,1.79,0,0,0-1,1.25c0,.33.68.8,1.15,1,1,.43,2,.7,3,1.09,2,.77,2,.79,2,2.91q0,.42,0,.84a5,5,0,0,1-.66,3.19,6,6,0,0,0-.76,2.36c-.17.94-.1,1.78,1.25,1.72a1.49,1.49,0,0,1,1.06.47c1.29,1.55,3,2.77,3.67,4.81.08.24.38.57.59.58a1.29,1.29,0,0,0,.9-.38,2,2,0,0,0,.4-1c.51-2.92.49-6,2-8.66a2.25,2.25,0,0,0,.15-.46c.22-.92-.07-1.67-1-1.84s-1.06-.8-1.11-1.63c-.14-2.38-.29-4.77-.6-7.13-.26-2-.24-2.14,1.71-2.18h.12l.72,0,.47.27c.81,2.15,1.61,4.31,2.41,6.46,0,.23,0,.47,0,.7.14.57.27,1.13.41,1.7,0,.24,0,.48,0,.73s-.23.65-.35,1c-1.37,0-2.2.93-1.66,2.16.39.91.11,1.16-.63,1.52a1.42,1.42,0,0,0-.61,1.12c0,.24.58.51.94.68s.83.23,1.23.39c1.51.6,2.65.47,3.3-.4.08.32.17.64.25,1-.29.48-.61,1-.87,1.46-.78,1.52-.17,2.94.37,4.35.24.62.57,1.19.86,1.79l.38-.12a26.64,26.64,0,0,1-.22-2.68c0-.46-.49-1.12.35-1.39l.06.7.19,2.65v1.2c0,.46-.08.92-.13,1.39,0,.3-.11.6-.2,1l-.26-1.15c-1.18.2-2.23,1.24-1.93,2.17.4,1.24-.37,1.64-1.08,2.18-.22.17-.6.22-.71.42-.33.6-.57,1.26-.85,1.89a10.36,10.36,0,0,0,1.61.43,7.91,7.91,0,0,0,1.63-.17,13.05,13.05,0,0,1-.89,2.42c-1,1.51-2.61,2.12-4.12,2.91-.42.22-.6.9-.89,1.36.56.31,1.17.92,1.68.85a14.81,14.81,0,0,0,3.1-1c1.86-.71,2.28-.37,2.15,1.58a6,6,0,0,0,.39,1.7l0,.49v3.39c-.59-.56-.89-1-1.3-1.17a2.66,2.66,0,0,0-1.65,0,1.32,1.32,0,0,0-.26,1.21c1.2,1.75,2.29,3.62,4.34,4.56l.82,2.37.2.24.52.71.21.25c.1.15.19.31.28.46s.14.17.2.26a1.46,1.46,0,0,1,.07.19c.1,1-.16,2.23,1.35,2.47l.3.92.19.27a.54.54,0,0,1,.08.19l.15.29c0,.14.06.28.08.43a2.69,2.69,0,0,1,.16.29,58.74,58.74,0,0,1,2,22.57c-.1,1.26-.21,2.53-.24,3.8a3.18,3.18,0,0,0,.35,1.11c.43,1.15.87,2.29,1.31,3.44l.18,1,0,.47,0,.48v4.14h-.53c-.07-.77-.17-1.54-.2-2.32A1.72,1.72,0,0,0,158,199.7a3.52,3.52,0,0,1-1.53.27c-1-.06-1.38.42-1,1.21a10.32,10.32,0,0,0,1.82,3.12,3.12,3.12,0,0,1,.91,3c-.19,1-.57,1.9-.85,2.86s-.55,1.91-.73,2.89a1,1,0,0,0,.37.9,1.13,1.13,0,0,0,1-.18c2.08-1.46,4.13-3,6.2-4.43a33.73,33.73,0,0,1,1,5.73c.05,8.07-.09,16.14-.16,24.22a12.48,12.48,0,0,0-3.61.37,8.1,8.1,0,0,1-4.43.39,4,4,0,0,0-2,.29,1.35,1.35,0,0,0-.7,1c0,1.39.46,1.66,1.87,1.46s2.84-.31,4.26-.4c.3,0,.83.23.86.41a1.22,1.22,0,0,1-.37,1c-1.34,1-2.71,2.08-4.12,3-1,.69-1.67,1.4-1.65,1.83l4.76-.31a3,3,0,0,0,1-.12c.43-.21,1.07-.53,1.11-.85a2.57,2.57,0,0,0-.54-1.62c-.36-.46-.47-.63.08-1a4.58,4.58,0,0,0,1.25-1.11c.54-.74,1-1.56,1.56-2.52l.13,1a16.11,16.11,0,0,1-3.1,7.39,8.86,8.86,0,0,1-4.11,2.94,4.37,4.37,0,0,0-2.53,1.62,4.32,4.32,0,0,1-1.14.84c-.25-2.25-.59-4.49-.74-6.75-.07-1.07-.47-1.5-1.49-1.47a15.59,15.59,0,0,0-2.74.07,10.08,10.08,0,0,0-3.76,1.31c-.51.37-.28,1.77-.39,2.7a.49.49,0,0,0,0,.12c-.21-1.8-.43-3.6-.64-5.4,1-.71,2-1.39,3-2.13a5.23,5.23,0,0,0,.77-1c-.46-.18-.95-.57-1.35-.49a19.63,19.63,0,0,0-2.67.93c-.17-1.84-.34-3.67-.5-5.51a7,7,0,0,0,1.44-.57,3.84,3.84,0,0,1,4.38.1c.56.32,1.08.69,1.64,1,1,.55,2,1.11,3.06,1.56a1.33,1.33,0,0,0,1.07-.27c.12-.08,0-.62-.16-.93-.55-1.45-1.18-2.88-1.68-4.34-.68-2-.33-3.18,1.12-4.37a13.65,13.65,0,0,0,1-1c.66-.71,1-1.67.4-2.35-.29-.31-1.53-.07-2.11.28-1.53.93-2.93,2.07-4.39,3.11a12.35,12.35,0,0,1-1.33.68,8.56,8.56,0,0,1,1.84-4.79c.63-.94.61-1.74-.3-2.26s-1.17.29-1.55.82c-1.33,1.85-2.9,3.29-5.38,3.22-.16-1.59-.32-3.18-.47-4.77,1.32-.13,1.58-.62.83-1.72a8.73,8.73,0,0,0-1.12-1.16c-.39-3.84-.79-7.69-1.16-11.54-.25-2.7-.46-5.4-.7-8.1,1.27.06,2.55.13,3.82.17,1.12,0,2.24.07,3.35,0a1.43,1.43,0,0,0,.92-.59c.09-.14-.13-.6-.32-.81-.94-1-1.91-2-2.89-2.92A3.54,3.54,0,0,1,143,193c.05-.73-.36-1-1-1s-1.48,0-2,0a26,26,0,0,1,.74-4,4.5,4.5,0,0,1,1.66-2.2c1.33-.86,2.84-1.41,4.26-2.14a7,7,0,0,0,1.46-1,1,1,0,0,0,.28-.83c-.06-.2-.49-.34-.78-.37-1.06-.12-2.15-.11-3.21-.29-.87-.14-2-.22-2.51-.79a4.07,4.07,0,0,1,.17-5.73c.68-.72,1.48-1.33,2.18-2a1.88,1.88,0,0,0,.67-1c0-.42-.3-1.18-.51-1.19a2.92,2.92,0,0,0-1.64.44c-1.82,1.17-3.56,2.52-5.94,1.74l-.52-5.52a4.18,4.18,0,0,0,1,.45,9.91,9.91,0,0,0,1.45.08c0-.48.24-1.13,0-1.42-.87-1.12-1.88-2.13-2.84-3.18-.33-3.53-.65-7.06-1-10.59a26.6,26.6,0,0,1,3.41,1.23c1.22.62,2.29,1.51,3.47,2.21a1.13,1.13,0,0,0,1,0c.17-.11.17-.56.19-.86a9.1,9.1,0,0,0,0-1.28c-.08-1.36.65-2.88-.89-4,.23-.21.41-.51.62-.54,1-.11,1.81-.65,1.66-1.5-.11-.61-1.06-1.13-1.72-1.58-1.12-.78-2.38-1.39-3.45-2.23-.84-.65-1.43-1.6-2.22-2.32-.31-.29-.88-.3-1.33-.43a4.29,4.29,0,0,0-.36,1.36,16.59,16.59,0,0,1-.68,6.68l-1.2-12.5c.47.11,1.09.47,1.36.29a1.78,1.78,0,0,0,.74-1.37,43.23,43.23,0,0,0-.95-4.9c0-.17-.7-.33-1-.26s-.52.46-.77.71l-5.32.47a4.43,4.43,0,0,1,1.64-4.15c.71-.59,1.45-1.13,2.14-1.73,1.05-.91,2.09-1.83,3.07-2.81a1.22,1.22,0,0,0,.14-1.06c-.06-.16-.6-.22-.93-.21-2.06,0-4.12.18-6.17.09-1.86-.08-2.65-1.7-1.79-3.37a12.18,12.18,0,0,0,1.37-2.62,9.84,9.84,0,0,1,2.11-4.28c1.18-1.43.75-2.63-.82-3.57a2.6,2.6,0,0,1-.69-.46c-1.77-2.42-4-4.55-5-7.49-.14-.4-.83-.62-1.26-.92a3.38,3.38,0,0,0-.53,1.17c-.06,1.84,0,3.68,0,5.52a7.4,7.4,0,0,1-.49,1.93c-.23.72-.6,1.39-.79,2.11a1.59,1.59,0,0,0,2,1.9c.25-.06.89.4.87.45a3.24,3.24,0,0,0,.71,3.12,3.28,3.28,0,0,1,.24,1.12c-2.18.4-2.39.73-2,2.95a.86.86,0,0,1,.06.23c.19,2.35.36,4.75-2,6.18a25.07,25.07,0,0,1-4.1,1.82c-.82.31-1.65,1.32-1.36,2.12s1.11.48,1.75.36l1.29-.26c2.72-.49,4.14.19,5,2.4l-11.06,1.13c.62-1.31,1.29-2.6,1.83-3.94.18-.44.19-1.28,0-1.45a3,3,0,0,0-1.65-.19,6.92,6.92,0,0,0-1.4.43,1.87,1.87,0,0,0,0-2.57A8.93,8.93,0,0,1,108.66,123.59ZM157.53,179c-.32-.95-.48-1.64-.77-2.26-.44-.92-1.38-1.77-1.41-2.68-.09-3-1.1-6-.56-9a1.66,1.66,0,0,0,0-.83c-.24-.61-.48-1.16-1.39-.88a3,3,0,0,1-1.85.1c-1.9-.76-3.72-1.7-5.6-2.52a2.19,2.19,0,0,0-1.39-.16c-.2.07-.31.81-.23,1.2.21.88.59,1.73.84,2.6.45,1.56,1.09,3,.62,4.78a2.07,2.07,0,0,0,.72,1.81,1.55,1.55,0,0,0,2.15-.67c.09-.14.78-.1.79,0,.39,1.63,2,1.54,3.08,2.21s1.47,1.2.67,2.29c-1.26,1.72-1.19,4.17-3.11,5.54-.35.24-.37.94-.57,1.42a.77.77,0,0,0,.61,1.17c2.78.71,3.44,3.28,4.7,5.33.25.4.56.76.84,1.14.32-.36.78-.68.93-1.1.56-1.61.85-3.34,1.56-4.88s.42-3.18.52-4.81Zm1.86,43.84c-.22-.54-.44-1.22-.76-1.84a15.18,15.18,0,0,1-2.07-5.59c0-.21-.24-.41-.35-.61-.35-.64-.73-.79-1.45-.4a4.21,4.21,0,0,1-2.25.6c-1.76-.21-3.48-.71-5.23-1a4.15,4.15,0,0,0-1.39.28,4.23,4.23,0,0,0,.28,1.14c1.26,2.24,3.47,4,3.64,6.82a1.11,1.11,0,0,0,.45.81,2.42,2.42,0,0,0,1.41.24c.33-.08.57-.55.83-.87.14-.17.18-.43.34-.55a.54.54,0,0,1,.49.17c.4.9,1.19.87,2,1a16.28,16.28,0,0,1,3,.72C159.16,224.07,159.31,223.67,159.39,222.87ZM132,99.62l.25-.06c-.42-1.53-.78-3.07-1.28-4.57a1.67,1.67,0,0,0-2.14-1.07c-1.1.26-.54,1.12-.38,1.67.52,1.79,1.12,3.56,1.77,5.31a1.1,1.1,0,0,0,.89.58,1.52,1.52,0,0,0,.86-.8C132.09,100.39,132,100,132,99.62Zm13.82,37.58a40,40,0,0,0-1.61-3.95c-.2-.37-1-.58-1.5-.57-.21,0-.6.79-.57,1.2a12.12,12.12,0,0,0,.64,3.62c.29.71,1.26,1.14,1.92,1.69Zm-2.88,68.59-1.46.58a9.61,9.61,0,0,0,.67,1.32c1,1.37,2.62,1.59,4.1,2,.33.1.89-.39,1.24-.73a.83.83,0,0,0-.08-.83C146,207.22,144.81,205.93,142.91,205.79Zm5.45-12.44c-.15-1-.28-2.17-.5-3.3-.06-.31-.37-.58-.56-.88-.37.25-1,.48-1.06.74a38.6,38.6,0,0,0,0,4.81c0,.25.72.63,1.1.62s.66-.48.84-.82A3.5,3.5,0,0,0,148.36,193.35Zm4.2,14.52a2.46,2.46,0,0,0-.15-.52,6.87,6.87,0,0,0-3.73-3c-.28-.12-1,.44-1.29.83-.12.14.13.83.39,1,1.19.87,2.43,1.69,3.69,2.45C152.24,209.14,152.42,208.51,152.56,207.87ZM146.65,188l-.05-.41c-.88-.18-1.74-.39-2.62-.53-1.07-.18-1.8.09-1.69,1.41a10.14,10.14,0,0,1-.24,1.41,6.67,6.67,0,0,0,.08,1.09c.44-.05,1,0,1.31-.18C144.55,189.88,145.59,188.9,146.65,188Zm5.73,5.81.34-.38a5.71,5.71,0,0,0-1-1.76c-.32-.27-1.06-.09-1.59,0-.11,0-.25.79-.15.85C150.74,193,151.57,193.36,152.38,193.77Z" transform="translate(0.02 -0.38)" style="fill:#213f4c"/><path d="M53.28,91q0-.11.12-.06l.6-.45h0l.46-.3h0l.8,0c2.24,0,3.55,3.11,3.77,5.47.28,3.11.18,6.26.31,9.38a5.1,5.1,0,0,0,.52,1.44,5.27,5.27,0,0,0,1.48-.75c1.55-1.64,1.68-3.73,1.57-5.83a2.54,2.54,0,0,1,1.52-2.73c1.45-.61,3-1,4.5-1.45-.11,2.22-2.08,3.09-3.3,4.5-.54.63-1.27,1.11-1.75,1.78a3.25,3.25,0,0,0-.36,3,2,2,0,0,0,.52-1,4.08,4.08,0,0,1,3.21-3.46,30.18,30.18,0,0,0,2.89-1l1.2-.65,1-.65a.25.25,0,0,1,.17-.11l.8-.61.43-.33,1.21-.46a10.45,10.45,0,0,1,1.29,1.38c.7,1.14,1.32,2.33,2,3.5a1.62,1.62,0,0,1,.11.58c.12.94.24,1.87.32,2.81,0,.28,0,.78-.14.82-1.73.52-3.29,1.82-5.31,1.12a1.92,1.92,0,0,0-1.23.23c-.69.32-1.34.74-2.28,1.27a11.88,11.88,0,0,0,.13-1.41c0-.48,0-1.2-.24-1.38a1.9,1.9,0,0,0-1.55-.1,3,3,0,0,0-1.25,1.16c-.89,1.32-1.61,2.75-2.54,4a3.48,3.48,0,0,1-3.42,1.57c-1.22-.18-2.4-.56-3.61-.71a2.75,2.75,0,0,0-1.79.38c-.39.27.37,1.81.95,2.07,1.05.47,2.1.92,3.14,1.4,1.55.71,2.84,1.73,3,3.56a23.11,23.11,0,0,1-.16,4.24c-.11,1,.07,1.5,1.08,1.75,1.6.39,1.6.43,2.13-1.21.21-.68.38-1.38.56-2.08s.3-1.26.4-1.7a10.51,10.51,0,0,0,2.45.16c1.25-.24,2.45-.7,3.68-1a3.58,3.58,0,0,1,.74-.06c0,.26.12.57,0,.77a14.1,14.1,0,0,1-1.32,2.25c-1,1.3-2.11,2.49-3.08,3.8-.28.38-.21,1-.3,1.52a5.86,5.86,0,0,0,1.44.08,6.75,6.75,0,0,0,3.9-2.37c2.08-2.46,5.27-3.92,6.54-7.15,0-.13.22-.22.33-.34l2.85-3.17c-.33-.51-.73-.86-.78-1.25a9.58,9.58,0,0,1,0-2.51,3.47,3.47,0,0,1,2.48-3.16,4.19,4.19,0,0,0,2-1.33,2.72,2.72,0,0,0,.41-1.94c0-.25-1-.54-1.53-.48-1,.13-1.92.53-2.89.74-.58.13-1.37.37-1.76.11a3.08,3.08,0,0,1-.74-3.1A21.52,21.52,0,0,0,82,98.39c.13-.46-.17-1-.28-1.58a9.75,9.75,0,0,0,1.62,0c1.19-.2,1.59-1.33.62-2.51a15.28,15.28,0,0,1-2.95-5c-.05-.18-.36-.27-.56-.41l.26-.3c.37-.13.79-.44,1.09-.35,1.54.46,2.28-.65,3.17-1.49a.09.09,0,0,1,.11-.05,7.61,7.61,0,0,0,1.51-.06,12.26,12.26,0,0,0,1.72-.63.27.27,0,0,1,.18-.11l1.34-.61.67,1.37.1.49a6.79,6.79,0,0,0,0,.9c.1,1.43.21,2.87.31,4.31-1.47.25-3,.45-4.41.8-.47.11-1.25.8-1.2.91.28.62.68,1.46,1.22,1.63a51.21,51.21,0,0,0,5.1,1.05c.19,1.69.37,3.38.55,5.06.27,2.33.69,4.61,2.31,6.46l.34.46.25.56-2.33,2.24a7.17,7.17,0,0,1,1.08,1.62,6.9,6.9,0,0,1,.18,2c0,.09-.28.25-.45.28a1.2,1.2,0,0,1-1.43-1.39c.08-.8-.57-1.66-1-1.33-1.14.82-2.19,1.75-3.47,2.79,1,.37,1.6,1,2.4.24.48-.47.89-.35.94.37.12,2,1.68,2.87,3,3.92,0,3.51,0,7,0,10.54-1.14-.1-1.55-1-2-1.85-.58-1.22-1.13-2.45-1.82-4,.63-.49,1.56-1.19,2.46-1.94a1.93,1.93,0,0,0,.63-.9c0-.15-.32-.55-.57-.62a10.33,10.33,0,0,0-3.08-.74,9.3,9.3,0,0,1-4.87-1.34,1.25,1.25,0,0,0-1.86.49,4.41,4.41,0,0,1-.81.87c-1.93,1.86-3.86,3.7-5.78,5.57a8.33,8.33,0,0,0-.78,1c.26.15.37.26.46.26a6.34,6.34,0,0,1,5.45,2c1,1,2.3.48,2.77-.92,1.36.12,3,1.74,4.12-.67.34,1.78.67,3.55,1,5.33l-.44.14c-.35-.77-.71-1.53-1-2.31a1.48,1.48,0,0,0-2-.83c-.94.24-.66,1-.53,1.67.23,1.28.39,2.57.58,3.87l-6.51.63c.09-.16.2-.32.29-.49.22-.39.7-.95.58-1.13a1.62,1.62,0,0,0-1.21-.71,10.21,10.21,0,0,0-3.59.91c-1,.55-2.54.53-2.76,2.12l-5.5.56v-3l-2.61,2.23.68,1c-2.83.31-5.66.65-8.5.95-1.58.16-3.16.27-4.74.4a18.68,18.68,0,0,1,2.11-2.47c1.58-1.32,1.72-1.61.74-3.64a11.14,11.14,0,0,1-1.59.78c-1.13.33-2.39,1-3.4.72a14.19,14.19,0,0,1-3.78-2.15.79.79,0,0,1-.22-.63c0-.68.21-1.34.22-2,0-.38-.08-.95-.33-1.1s-.78,0-1.18.13a15.58,15.58,0,0,1-2,.46c-1,.07-1.43.78-1.13,1.79.15.47.17,1.27-.11,1.52a5.18,5.18,0,0,1-2.29,1.33,38.06,38.06,0,0,1-4.15.32c-1,.1-2,.32-3,.48h-.76c.63-1.36-1-1.57-1.35-2.47a1.48,1.48,0,0,1,.39-.11c1.42.18,1.74-.11,1.25-1.41-.61-1.65-.79-3.53-2.36-4.71a1,1,0,0,1-.29-.51c-.48-1.51-1.8-1.94-2.92-.79a13.51,13.51,0,0,0-1.67,2.71c-.29.48-.53,1-.86,1.63-1.43-3.22-1.65-5.94.58-7.59a14.61,14.61,0,0,1,1.95-1.14c.7-.37,1.44-.75,1-1.7s-1.31-1.13-2.33-.64a19,19,0,0,1-2.22.82c-.59.18-1,0-1.06-.7a4.4,4.4,0,0,0-.71-1.35c-.48.29-1.22.47-1.4.89-.42,1-.95,1.12-2.05.43-.16,1.81-.33,3.38-.41,4.95a3.28,3.28,0,0,0,.31,1.51c.69,1.4,1.46,2.76,2.26,4.25a3.67,3.67,0,0,1-3.22-.49,13.47,13.47,0,0,0-2-1,9.32,9.32,0,0,0,1-4.71,5.88,5.88,0,0,1,.52-2.31c1.51-3.89,3.06-7.77,4.62-11.65.39-1,.82-1.9,1.28-2.83s.78-1.55.15-2.46a1.24,1.24,0,0,1,.12-1.11c.58-.88,1.27-1.7,1.92-2.55l.19,1.25a5.1,5.1,0,0,1,5.27,2c1.51,2.07,1.65,3.62.4,5.52-.69-.34-1.37-.7-2.07-1-.43-.18-.91-.25-1.35-.4s-.77-.32-1.15-.48a7.13,7.13,0,0,0-.32,1.09c-.3,2.2,1.05,3.86,2,5.65.15.3.75.35,1.11.57a15.18,15.18,0,0,1,1.27.86c-1.91.63-2.54,1.4-2,2.27a5.21,5.21,0,0,0,1.73,1.35c1.07.65,2.26,1.13,3.28,1.84s1.67,1.61,2.6,2.28c1.48,1.06,2.17,2.25,1.17,4a2,2,0,0,0-.11.95,11.82,11.82,0,0,0,.13,1.18c.51-.15,1.33-.16,1.46-.47A34.85,34.85,0,0,0,39.05,123a.94.94,0,0,0-1.3-1.06c-1,.43-1.17,0-1.26-.76-.13-1.15-.12-2.31-.31-3.44a4.59,4.59,0,0,1,.69-3.63,1,1,0,0,0-.37-1.68c-1.08-.61-2.19-1.19-3.29-1.78.67-1.27,3.84-1.89,6-.84-.28.31-.75.45-1,.76a4.94,4.94,0,0,0-.69,1.21c.44.21.89.63,1.31.6,1.5-.12,3-.36,4.48-.62.74-.13,1.31,0,1.58.72a13.88,13.88,0,0,1,.47,1.82c.35,1.5.65,3,1.07,4.49.19.69.78.83,1.29.3a9.84,9.84,0,0,0,1.43-1.85c.59-1,1.2-2,2.9-1.57l-2.82-11.14c-1.46.53-1.6.42-2.29-1-.81-1.6-1.74-3.13-2.57-4.7a1.49,1.49,0,0,1-.13-1c.51-1.48,1.08-2.94,1.64-4.4.76-.17,1.53-.3,2.27-.52,1.48-.44,2.94-.92,4.41-1.39l0-.06.07,0Zm4.81,38.15v1.19a17.79,17.79,0,0,0-.22,2.71c0,.45.41,1.19.74,1.25a2.26,2.26,0,0,0,1.77-.4c.6-.56.77-.46,1.06.19a9.16,9.16,0,0,0,.76,1.22l1.19-1.15c1.65-.62,3.32-1.2,4.95-1.87.39-.16.67-.61,1-.92-.34-.35-.67-.7-1-1a6.65,6.65,0,0,0-.67-.47,14.79,14.79,0,0,0-.09-1.88c-.15-1-.62-1.52-1.74-1.11a1.52,1.52,0,0,1-1.15,0c-2.1-1.25-4.44-2.16-6-4.16a1.3,1.3,0,0,0-1-.4A1.06,1.06,0,0,0,57,123a3.35,3.35,0,0,0,.15,1.28C57.42,125.92,57.76,127.55,58.09,129.18Zm-12.43-9c.51-.86,0-1.85-1.07-2.34a4.44,4.44,0,0,0-1.47-.09,4.23,4.23,0,0,0,.2,1.31c1.24,2.4,2.44,4.82,3.83,7.13a12.68,12.68,0,0,0,2.51,2.62,1.13,1.13,0,0,0,1.07.06,1.11,1.11,0,0,0,.29-1,27.32,27.32,0,0,0-1.57-3.16c-.55-1-1.21-1.85-1.83-2.76C47.13,121.28,47.06,120.13,45.66,120.23Zm9.22-20.17c-.23-1.18-.42-2.44-.77-3.65-.12-.41-.65-.71-1-1.06-.31.32-.74.59-.91,1-1,2.19-.21,4.29.5,6.35a.86.86,0,0,0,1.65-.06A15.7,15.7,0,0,0,54.88,100.06Zm34,8.57.34.18c.72-.6,1.47-1.16,2.14-1.81a1.06,1.06,0,0,0,.11-.93,5.88,5.88,0,0,0-.8-1.58,1.28,1.28,0,0,0-.94-.48c-.3,0-.8.39-.81.64C88.83,106,88.87,107.3,88.87,108.63Z" transform="translate(0.02 -0.38)" style="fill:#213f4c"/><path d="M45.88,93.4c-.56,1.46-1.13,2.92-1.64,4.4a1.49,1.49,0,0,0,.13,1c.83,1.57,1.76,3.1,2.57,4.7.69,1.37.83,1.48,2.29,1l2.82,11.14c-1.7-.4-2.31.53-2.9,1.57A9.84,9.84,0,0,1,47.72,119c-.51.53-1.1.39-1.29-.3-.42-1.48-.72-3-1.07-4.49a13.88,13.88,0,0,0-.47-1.82c-.27-.7-.84-.85-1.58-.72-1.48.26-3,.5-4.48.62-.42,0-.87-.39-1.31-.6a4.94,4.94,0,0,1,.69-1.21c.29-.31.76-.45,1-.76-2.2-1.05-5.37-.43-6,.84,1.1.59,2.21,1.17,3.29,1.78a1,1,0,0,1,.37,1.68,4.59,4.59,0,0,0-.69,3.63c.19,1.13.18,2.29.31,3.44.09.72.29,1.19,1.26.76a.94.94,0,0,1,1.3,1.06,34.85,34.85,0,0,1-1.72,5.14c-.13.31-.95.32-1.46.47a11.82,11.82,0,0,1-.13-1.18,2,2,0,0,1,.11-.95c1-1.76.31-3-1.17-4-.93-.67-1.66-1.62-2.6-2.28S29.87,119,28.8,118.3A5.21,5.21,0,0,1,27.07,117c-.56-.87.07-1.64,2-2.27a15.18,15.18,0,0,0-1.27-.86c-.36-.22-1-.27-1.11-.57-.9-1.79-2.25-3.45-2-5.65a7.13,7.13,0,0,1,.32-1.09c.38.16.76.34,1.15.48s.92.22,1.35.4c.7.31,1.38.67,2.07,1,1.25-1.9,1.11-3.45-.4-5.52a5.1,5.1,0,0,0-5.27-2l-.19-1.25c2.33-2.12,4.84-3.83,8.18-3.78-.82.71-.75,1.41.38,3.08.21-1.2.39-2.26.58-3.33,1.06-1.14,2.58-.72,3.86-1.13l-1.71.9a6.6,6.6,0,0,1,.75,4.74,3,3,0,0,0,.93,3c1.11.89,2.2,1.81,3.29,2.72,1.42,1.17,2,1,2.49-.73a4.79,4.79,0,0,0,.08-2.1,12.15,12.15,0,0,0-.82-2.35c-.74-1.81-.17-3.6,0-5.4l.12-.21.33-.35a16.12,16.12,0,0,1,1.71-1.06,13.88,13.88,0,0,1,1.89-.61ZM31.75,113.5a1.53,1.53,0,0,0-.29,2.43c.14.17,1.14,0,1.34-.33C33.57,114.41,32.16,114.27,31.75,113.5Z" transform="translate(0.02 -0.38)" style="fill:#135778"/><path d="M14.14,127.24a13.47,13.47,0,0,1,2,1,3.67,3.67,0,0,0,3.22.49c-.8-1.49-1.57-2.85-2.26-4.25a3.28,3.28,0,0,1-.31-1.51c.08-1.57.25-3.14.41-4.95,1.1.69,1.63.54,2.05-.43.18-.42.92-.6,1.4-.89a4.4,4.4,0,0,1,.71,1.35c.1.75.47.88,1.06.7A19,19,0,0,0,24.6,118c1-.49,1.9-.33,2.33.64s-.32,1.33-1,1.7A14.61,14.61,0,0,0,24,121.43c-2.23,1.65-2,4.37-.58,7.59.33-.64.57-1.15.86-1.63a13.51,13.51,0,0,1,1.67-2.71c1.12-1.15,2.44-.72,2.92.79a1,1,0,0,0,.29.51c1.57,1.18,1.75,3.06,2.36,4.71.49,1.3.17,1.59-1.25,1.41a1.48,1.48,0,0,0-.39.11c.37.9,2,1.11,1.35,2.47-.37,1.16.69,1.32,1.26,1.84a1.57,1.57,0,0,1,.52.84c0,.14-.43.43-.7.5a4.39,4.39,0,0,1-1.4.09c-.95-.11-1.88-.35-2.83-.42a1.72,1.72,0,0,0-1.12.39c-1,.86-2,1.81-3,2.69-.62.54-1,.29-1.13-.47-.05-.37-.09-.73-.18-1.41a11.23,11.23,0,0,1-1.5,1.41c-.69.41-1.46,1.32-2.24.24a2,2,0,0,0-1.79-.93,2.57,2.57,0,0,1-.88-.31c1.45-1.5,2.79-2.92,4.16-4.31.55-.55,1-1,.28-1.79-.2-.2-.11-.72-.07-1.09a4.55,4.55,0,0,1,.26-.89,12.81,12.81,0,0,0-1.29,1.43c-1.67,1.65-3.48,3.18-5.06,4.91a7.08,7.08,0,0,1-3.89,1.92c-.73.18-1.06-.29-.87-1a3.57,3.57,0,0,1,.7-1.24c.9-1.11,1.88-2.16,2.76-3.29.59-.75,1.26-1.54.82-2.64l-2,.34C12.68,130.09,13.41,128.67,14.14,127.24Z" transform="translate(0.02 -0.38)" style="fill:#125879"/><path d="M12,131.52l2-.34c.44,1.1-.23,1.89-.82,2.64-.88,1.13-1.86,2.18-2.76,3.29a3.57,3.57,0,0,0-.7,1.24c-.19.68.14,1.15.87,1a7.08,7.08,0,0,0,3.89-1.92c1.58-1.73,3.39-3.26,5.06-4.91a12.81,12.81,0,0,1,1.29-1.43,4.55,4.55,0,0,0-.26.89c0,.37-.13.89.07,1.09.75.78.27,1.24-.28,1.79-1.37,1.39-2.71,2.81-4.16,4.31a2.57,2.57,0,0,0,.88.31,2,2,0,0,1,1.79.93c.78,1.08,1.55.17,2.24-.24a11.23,11.23,0,0,0,1.5-1.41c.09.68.13,1,.18,1.41.12.76.51,1,1.13.47,1-.88,2-1.83,3-2.69a1.72,1.72,0,0,1,1.12-.39c.95.07,1.88.31,2.83.42a4.39,4.39,0,0,0,1.4-.09c.27-.07.72-.36.7-.5a1.57,1.57,0,0,0-.52-.84c-.57-.52-1.63-.68-1.26-1.84H32a5.37,5.37,0,0,0,.83,1.35,12.47,12.47,0,0,0,1.8,1.19c-1.23,1.63-1.23,1.63-.17,3.24a1.69,1.69,0,0,1,.14.45c-2.49.28-5,.6-7.47.85q-9.52,1-19,1.91a1.34,1.34,0,0,1-.35,0,4.92,4.92,0,0,0,1.2-3.73c-.09-.88-.3-1.55-1.42-1.42a2.86,2.86,0,0,1-1-.24l5-6.25.25-.24Z" transform="translate(0.02 -0.38)" style="fill:#21404e"/><path d="M124.83,89.87c.57,2.09,1.1,4.19,1.74,6.26.32,1.06.84,2.07,1.26,3.1.23.57.69,1.18-.1,1.68a2,2,0,0,1-2.42-.5c-.8-1.42-1.6-2.85-2.38-4.29-1.22-2.22-2.8-3.87-5.62-3.71a4.79,4.79,0,0,1-2.37-.29,2.89,2.89,0,0,1-1.35-1.73c-.2-.84.59-1.06,1.35-1.08a5.58,5.58,0,0,0,4-1.84l1.28,0c.63,0,1.26,0,1.89,0,1,.07,1.88.25,2.06,1.51C124.23,89.27,124.6,89.56,124.83,89.87Z" transform="translate(0.02 -0.38)" style="fill:#145778"/><path d="M164,209.37c-2.07,1.48-4.12,3-6.2,4.43a1.13,1.13,0,0,1-1,.18,1,1,0,0,1-.37-.9c.18-1,.46-1.93.73-2.89s.66-1.89.85-2.86a3.12,3.12,0,0,0-.91-3,10.32,10.32,0,0,1-1.82-3.12c-.33-.79.09-1.27,1-1.21a3.52,3.52,0,0,0,1.53-.27,1.72,1.72,0,0,1,2.62,1.61c0,.78.13,1.55.2,2.32h.53v-3.68c.07,1,.07,2.05.24,3.05a8.37,8.37,0,0,0,.7,1.9c.55,1.25,1.12,2.48,1.67,3.72,0,0-.07,0-.06.07a.71.71,0,0,0,.07.16Z" transform="translate(0.02 -0.38)" style="fill:#145778"/><path d="M41.77,95.28c-.18,1.8-.75,3.59,0,5.4a12.15,12.15,0,0,1,.82,2.35,4.79,4.79,0,0,1-.08,2.1c-.54,1.78-1.07,1.9-2.49.73-1.09-.91-2.18-1.83-3.29-2.72a3,3,0,0,1-.93-3A6.6,6.6,0,0,0,35,95.36l1.71-.9.74-.17h4l-.2,1.33Z" transform="translate(0.02 -0.38)" style="fill:#213f4c"/><path d="M151.86,148.84a6,6,0,0,1-.39-1.7c.13-1.95-.29-2.29-2.15-1.58a14.81,14.81,0,0,1-3.1,1c-.51.07-1.12-.54-1.68-.85.29-.46.47-1.14.89-1.36,1.51-.79,3.16-1.4,4.12-2.91a13.05,13.05,0,0,0,.89-2.42,7.91,7.91,0,0,1-1.63.17,10.36,10.36,0,0,1-1.61-.43c.28-.63.52-1.29.85-1.89.11-.2.49-.25.71-.42.71-.54,1.48-.94,1.08-2.18-.3-.93.75-2,1.93-2.17l.26,1.15c.09-.43.15-.73.2-1,0,2-.12,4-.14,6.06,0,3,0,6,0,8.95A12.47,12.47,0,0,1,151.86,148.84Z" transform="translate(0.02 -0.38)" style="fill:#125879"/><path d="M164.41,242.21l-.13-1c-.58,1-1,1.78-1.56,2.52a4.58,4.58,0,0,1-1.25,1.11c-.55.35-.44.52-.08,1a2.57,2.57,0,0,1,.54,1.62c0,.32-.68.64-1.11.85a3,3,0,0,1-1,.12l-4.76.31c0-.43.62-1.14,1.65-1.83,1.41-.95,2.78-2,4.12-3a1.22,1.22,0,0,0,.37-1c0-.18-.56-.43-.86-.41-1.42.09-2.85.21-4.26.4s-1.87-.07-1.87-1.46a1.35,1.35,0,0,1,.7-1,4,4,0,0,1,2-.29,8.1,8.1,0,0,0,4.43-.39,12.48,12.48,0,0,1,3.61-.37C164.72,240.28,164.57,241.25,164.41,242.21Z" transform="translate(0.02 -0.38)" style="fill:#145676"/><path d="M151,121.93c-.65.87-1.79,1-3.3.4-.4-.16-.84-.21-1.23-.39s-.93-.44-.94-.68a1.42,1.42,0,0,1,.61-1.12c.74-.36,1-.61.63-1.52-.54-1.23.29-2.19,1.66-2.16.12-.32.23-.65.35-1,.68,1.75,1.37,3.5,2,5.27A6.21,6.21,0,0,1,151,121.93Z" transform="translate(0.02 -0.38)" style="fill:#145676"/><path d="M6.46,138.26a2.86,2.86,0,0,0,1,.24c1.12-.13,1.33.54,1.42,1.42a4.92,4.92,0,0,1-1.2,3.73L6,143.8l-1.22-2.92-1.1.58-.07-.07Z" transform="translate(0.02 -0.38)" style="fill:#145778"/><path d="M153,157.28c-2.05-.94-3.14-2.81-4.34-4.56a1.32,1.32,0,0,1,.26-1.21,2.66,2.66,0,0,1,1.65,0c.41.14.71.61,1.3,1.17v-3.39c.4,2.45.81,4.91,1.21,7.37A1.93,1.93,0,0,1,153,157.28Z" transform="translate(0.02 -0.38)" style="fill:#125879"/><path d="M152.11,126.3c-.84.27-.35.93-.35,1.39a26.64,26.64,0,0,0,.22,2.68l-.38.12c-.29-.6-.62-1.17-.86-1.79-.54-1.41-1.15-2.83-.37-4.35.26-.5.58-1,.87-1.46Z" transform="translate(0.02 -0.38)" style="fill:#145676"/><path d="M143.08,101.58c-.16-.5-.33-1-.49-1.48.78.46,1.57.92,2.33,1.41a1,1,0,0,1,.34.48c1.05,3.12,2.1,6.24,3.12,9.37a2.66,2.66,0,0,1-.06,1c-.8-2.15-1.6-4.31-2.41-6.46l-.31-.55-.16.28-.72,0,.83-1.15-.24-.94-.53.43c-.21-.66-.41-1.3-.63-2Zm1.84.77-.07-.09a1,1,0,0,0-.08.19s0,.06.06.09Z" transform="translate(0.02 -0.38)" style="fill:#125879"/><path d="M3.84,144,0,144.44l3.61-3.05.07.07Z" transform="translate(0.02 -0.38)" style="fill:#145778"/><path d="M32.89,95.59c-.19,1.07-.37,2.13-.58,3.33-1.13-1.67-1.2-2.37-.38-3.08Z" transform="translate(0.02 -0.38)" style="fill:#21404e"/><path d="M156.67,164.23c-1.51-.24-1.25-1.45-1.35-2.47C156.64,162.1,156.67,163.15,156.67,164.23Z" transform="translate(0.02 -0.38)" style="fill:#125879"/><path d="M119.46,62.43v0Z" transform="translate(0.02 -0.38)" style="fill:#9f8fa4"/><path d="M118.47,70.1c.23-1.36.46-2.73.7-4.1C118.93,67.37,118.7,68.74,118.47,70.1Z" transform="translate(0.02 -0.38)" style="fill:#9f8fa4"/><path d="M119.37,45.44,117.87,42Z" transform="translate(0.02 -0.38)" style="fill:#9f8fa4"/><path d="M119.2,54.51c.21-1.13.41-2.26.62-3.4C119.61,52.25,119.41,53.38,119.2,54.51Z" transform="translate(0.02 -0.38)" style="fill:#9f8fa4"/><path d="M119.83,47.6c-.11-.57-.23-1.14-.35-1.71C119.6,46.46,119.72,47,119.83,47.6Z" transform="translate(0.02 -0.38)" style="fill:#9f8fa4"/><path d="M119.22,65.55l.15-1.71Z" transform="translate(0.02 -0.38)" style="fill:#9f8fa4"/><path d="M141.55,98.71c-.38-.42-.76-.83-1.13-1.25C140.79,97.88,141.17,98.29,141.55,98.71Z" transform="translate(0.02 -0.38)" style="fill:#125879"/><path d="M152.36,129.65l-.19-2.65C152.23,127.88,152.29,128.76,152.36,129.65Z" transform="translate(0.02 -0.38)" style="fill:#125879"/><path d="M117.9,73.79c.16-.52.33-1,.5-1.55C118.23,72.75,118.06,73.27,117.9,73.79Z" transform="translate(0.02 -0.38)" style="fill:#9f8fa4"/><path d="M119.4,57.2c-.07-.41-.13-.82-.2-1.22Z" transform="translate(0.02 -0.38)" style="fill:#9f8fa4"/><path d="M148.75,114.76c-.14-.57-.27-1.13-.41-1.7C148.48,113.63,148.61,114.19,148.75,114.76Z" transform="translate(0.02 -0.38)" style="fill:#145676"/><path d="M137.78,95.06l-1-.72Z" transform="translate(0.02 -0.38)" style="fill:#125879"/><path d="M139,96l-.75-.68Z" transform="translate(0.02 -0.38)" style="fill:#125879"/><path d="M129.63,90.48l-1.24-.39Z" transform="translate(0.02 -0.38)" style="fill:#145778"/><path d="M134.66,92.9l-.53-.4Z" transform="translate(0.02 -0.38)" style="fill:#125879"/><path d="M161.25,198.53l-.18-1Z" transform="translate(0.02 -0.38)" style="fill:#145778"/><path d="M142.29,99.66c-.14-.18-.28-.35-.43-.52C142,99.31,142.15,99.48,142.29,99.66Z" transform="translate(0.02 -0.38)" style="fill:#125879"/><path d="M161.3,199.48l0-.48Z" transform="translate(0.02 -0.38)" style="fill:#145778"/><path d="M133.74,92.37l-.56-.38Z" transform="translate(0.02 -0.38)" style="fill:#125879"/><path d="M133,91.92l-.55-.36Z" transform="translate(0.02 -0.38)" style="fill:#125879"/><path d="M116.81,75.87l.19-.51Z" transform="translate(0.02 -0.38)" style="fill:#9f8fa4"/><path d="M136.82,94.34l-.52-.42Z" transform="translate(0.02 -0.38)" style="fill:#125879"/><path d="M131.54,91.21l-.49-.23Z" transform="translate(0.02 -0.38)" style="fill:#145778"/><path d="M131.05,91l-.49-.21Z" transform="translate(0.02 -0.38)" style="fill:#145778"/><path d="M152.36,130.85v0Z" transform="translate(0.02 -0.38)" style="fill:#125879"/><path d="M142.58,100.1l-.22-.26Z" transform="translate(0.02 -0.38)" style="fill:#125879"/><path d="M139.21,96.27,139,96Z" transform="translate(0.02 -0.38)" style="fill:#125879"/><path d="M11.74,131.77l-.25.24Z" transform="translate(0.02 -0.38)" style="fill:#125879"/><path d="M135.12,93.16l-.25-.2Z" transform="translate(0.02 -0.38)" style="fill:#125879"/><path d="M155.25,161.57c-.06-.09-.13-.17-.2-.26C155.12,161.4,155.19,161.48,155.25,161.57Z" transform="translate(0.02 -0.38)" style="fill:#125879"/><path d="M154.77,160.85l-.21-.25Z" transform="translate(0.02 -0.38)" style="fill:#125879"/><path d="M140.18,97.22l-.24-.23Z" transform="translate(0.02 -0.38)" style="fill:#125879"/><path d="M135.39,93.37l-.27-.21Z" transform="translate(0.02 -0.38)" style="fill:#125879"/><path d="M135.85,93.63l-.26-.2Z" transform="translate(0.02 -0.38)" style="fill:#125879"/><path d="M157.16,165.42l-.19-.27Z" transform="translate(0.02 -0.38)" style="fill:#125879"/><path d="M157.39,165.9l-.15-.29Z" transform="translate(0.02 -0.38)" style="fill:#125879"/><path d="M157.63,166.62a2.69,2.69,0,0,0-.16-.29A2.69,2.69,0,0,1,157.63,166.62Z" transform="translate(0.02 -0.38)" style="fill:#125879"/><path d="M154,159.89l-.2-.24Z" transform="translate(0.02 -0.38)" style="fill:#125879"/><path d="M139.93,97l-.24-.23Z" transform="translate(0.02 -0.38)" style="fill:#125879"/><path d="M139.46,96.5l-.25-.23Z" transform="translate(0.02 -0.38)" style="fill:#125879"/><path d="M163.92,208.84a.71.71,0,0,1-.07-.16s0-.05.06-.07A1.69,1.69,0,0,1,163.92,208.84Z" transform="translate(0.02 -0.38)" style="fill:#213f4c"/><path d="M132,91.45l-.27-.19Z" transform="translate(0.02 -0.38)" style="fill:#145778"/><path d="M121.94,132.09c-.91-2.21-2.33-2.89-5-2.4l-1.29.26c-.64.12-1.41.55-1.75-.36s.54-1.81,1.36-2.12a25.07,25.07,0,0,0,4.1-1.82c2.41-1.43,2.24-3.83,2-6.18a.86.86,0,0,0-.06-.23c-.43-2.22-.22-2.55,2-2.95a3.28,3.28,0,0,0-.24-1.12,3.24,3.24,0,0,1-.71-3.12s-.62-.51-.87-.45a1.59,1.59,0,0,1-2-1.9c.19-.72.56-1.39.79-2.11a7.4,7.4,0,0,0,.49-1.93c.06-1.84,0-3.68,0-5.52a3.38,3.38,0,0,1,.53-1.17c.43.3,1.12.52,1.26.92,1,2.94,3.21,5.07,5,7.49a2.6,2.6,0,0,0,.69.46c1.57.94,2,2.14.82,3.57a9.84,9.84,0,0,0-2.11,4.28,12.18,12.18,0,0,1-1.37,2.62c-.86,1.67-.07,3.29,1.79,3.37,2,.09,4.11-.07,6.17-.09.33,0,.87,0,.93.21a1.22,1.22,0,0,1-.14,1.06c-1,1-2,1.9-3.07,2.81-.69.6-1.43,1.14-2.14,1.73a4.43,4.43,0,0,0-1.64,4.15Zm3.33-22.41.28-.12c-.22-.27-.39-.66-.68-.79a2.1,2.1,0,0,0-1.24-.11c-.12,0-.16.6-.18.93s.18.73,0,.91c-.77,1,.17,1.32.66,1.77s1,.31,1.11-.46S125.27,110.39,125.27,109.68Z" transform="translate(0.02 -0.38)" style="fill:#145778"/><path d="M85.93,135.74c-.19-1.3-.35-2.59-.58-3.87-.13-.69-.41-1.43.53-1.67a1.48,1.48,0,0,1,2,.83c.32.78.68,1.54,1,2.31l.44-.14c-.34-1.78-.67-3.55-1-5.33-1.12,2.41-2.76.79-4.12.67-.47,1.4-1.81,2-2.77.92a6.34,6.34,0,0,0-5.45-2c-.09,0-.2-.11-.46-.26a8.33,8.33,0,0,1,.78-1c1.92-1.87,3.85-3.71,5.78-5.57a4.41,4.41,0,0,0,.81-.87,1.25,1.25,0,0,1,1.86-.49,9.3,9.3,0,0,0,4.87,1.34,10.33,10.33,0,0,1,3.08.74c.25.07.62.47.57.62a1.93,1.93,0,0,1-.63.9c-.9.75-1.83,1.45-2.46,1.94.69,1.5,1.24,2.73,1.82,4,.41.87.82,1.75,2,1.85.56,1.44,1.17,2.83,2.71,3.53.18.09.28.36.41.55Zm.93-10.86c.1-.49.21-1.09.32-1.69-.6,0-1.21-.06-1.81-.07-.28,0-.62-.07-.82.06a7,7,0,0,0-1,.92c.38.31.72.79,1.15.88A8.59,8.59,0,0,0,86.86,124.88Z" transform="translate(0.02 -0.38)" style="fill:#145676"/><path d="M136.82,172.6c2.38.78,4.12-.57,5.94-1.74a2.92,2.92,0,0,1,1.64-.44c.21,0,.52.77.51,1.19a1.88,1.88,0,0,1-.67,1c-.7.7-1.5,1.31-2.18,2a4.07,4.07,0,0,0-.17,5.73c.5.57,1.64.65,2.51.79,1.06.18,2.15.17,3.21.29.29,0,.72.17.78.37a1,1,0,0,1-.28.83,7,7,0,0,1-1.46,1c-1.42.73-2.93,1.28-4.26,2.14a4.5,4.5,0,0,0-1.66,2.2,26,26,0,0,0-.74,4c.52,0,1.26,0,2,0s1.09.25,1,1a3.54,3.54,0,0,0,1.28,2.84c1,1,1.95,1.92,2.89,2.92.19.21.41.67.32.81a1.43,1.43,0,0,1-.92.59c-1.11.07-2.23,0-3.35,0-1.27,0-2.55-.11-3.82-.17-.08-.82-.15-1.65-.23-2.47a1.07,1.07,0,0,0,1.35-1.1c0-.3-.71-.62-1.11-.9a1.29,1.29,0,0,0-.45-.11Q137.89,184,136.82,172.6Z" transform="translate(0.02 -0.38)" style="fill:#145778"/><path d="M34.55,140.92a1.69,1.69,0,0,0-.14-.45c-1.06-1.61-1.06-1.61.17-3.24a12.47,12.47,0,0,1-1.8-1.19,5.37,5.37,0,0,1-.83-1.35c1-.16,2-.38,3-.48a38.06,38.06,0,0,0,4.15-.32,5.18,5.18,0,0,0,2.29-1.33c.28-.25.26-1.05.11-1.52-.3-1,.14-1.72,1.13-1.79a15.58,15.58,0,0,0,2-.46c.4-.09.91-.29,1.18-.13s.34.72.33,1.1c0,.67-.17,1.33-.22,2a.79.79,0,0,0,.22.63,14.19,14.19,0,0,0,3.78,2.15c1,.25,2.27-.39,3.4-.72a11.14,11.14,0,0,0,1.59-.78c1,2,.84,2.32-.74,3.64a18.68,18.68,0,0,0-2.11,2.47l-5.73.57c-.56-1-1.13-2.1-1.69-3.16l-.39.06L43.43,140Z" transform="translate(0.02 -0.38)" style="fill:#125879"/><path d="M142.05,227.29c2.48.07,4-1.37,5.38-3.22.38-.53.74-1.29,1.55-.82s.93,1.32.3,2.26a8.56,8.56,0,0,0-1.84,4.79,12.35,12.35,0,0,0,1.33-.68c1.46-1,2.86-2.18,4.39-3.11.58-.35,1.82-.59,2.11-.28.63.68.26,1.64-.4,2.35a13.65,13.65,0,0,1-1,1c-1.45,1.19-1.8,2.39-1.12,4.37.5,1.46,1.13,2.89,1.68,4.34.11.31.28.85.16.93a1.33,1.33,0,0,1-1.07.27c-1.05-.45-2.05-1-3.06-1.56-.56-.31-1.08-.68-1.64-1a3.84,3.84,0,0,0-4.38-.1,7,7,0,0,1-1.44.57Z" transform="translate(0.02 -0.38)" style="fill:#145778"/><path d="M134.6,149.11a16.59,16.59,0,0,0,.68-6.68,4.29,4.29,0,0,1,.36-1.36c.45.13,1,.14,1.33.43.79.72,1.38,1.67,2.22,2.32,1.07.84,2.33,1.45,3.45,2.23.66.45,1.61,1,1.72,1.58.15.85-.71,1.39-1.66,1.5-.21,0-.39.33-.62.54,1.54,1.13.81,2.65.89,4a9.1,9.1,0,0,1,0,1.28c0,.3,0,.75-.19.86a1.13,1.13,0,0,1-1,0c-1.18-.7-2.25-1.59-3.47-2.21a26.6,26.6,0,0,0-3.41-1.23C134.81,151.32,134.7,150.21,134.6,149.11Zm6.45.72c-.39-.36-.92-.61-1-1-.32-1-.93-.85-1.56-.5-.86.47-.55,1,0,1.58C139.84,151.57,139.8,151.6,141.05,149.83Z" transform="translate(0.02 -0.38)" style="fill:#145676"/><path d="M108.66,123.59a8.93,8.93,0,0,0,.94,1.91,1.87,1.87,0,0,1,0,2.57,6.92,6.92,0,0,1,1.4-.43,3,3,0,0,1,1.65.19c.24.17.23,1,0,1.45-.54,1.34-1.21,2.63-1.83,3.94l-4.61.49-.6,0-1,.13a5.11,5.11,0,0,0-1.31-.86c-.8-.23-1.16-.76-.82-1.4.77-1.44,1.7-2.78,2.57-4.16.11.75.23,1.51.34,2.26l.22,0a37.2,37.2,0,0,1,.89-3.82C106.9,124.87,107.3,123.74,108.66,123.59Zm.25,4.71a3.4,3.4,0,0,1-.69-.28c-.89-.55-1.28-.09-1.39.72a4.68,4.68,0,0,0,0,1.79,1.31,1.31,0,0,0,.94.73c.28,0,.76-.42.85-.74A13.22,13.22,0,0,0,108.91,128.3Z" transform="translate(0.02 -0.38)" style="fill:#1a5776"/><path d="M72.73,137.07c.22-1.59,1.79-1.57,2.76-2.12a10.21,10.21,0,0,1,3.59-.91,1.62,1.62,0,0,1,1.21.71c.12.18-.36.74-.58,1.13-.09.17-.2.33-.29.49Z" transform="translate(0.02 -0.38)" style="fill:#1a5776"/><path d="M132.77,131.08c.25-.25.47-.64.77-.71s1,.09,1,.26a43.23,43.23,0,0,1,.95,4.9,1.78,1.78,0,0,1-.74,1.37c-.27.18-.89-.18-1.36-.29Z" transform="translate(0.02 -0.38)" style="fill:#145676"/><path d="M135.89,163c1,1.05,2,2.06,2.84,3.18.22.29,0,.94,0,1.42a9.91,9.91,0,0,1-1.45-.08,4.18,4.18,0,0,1-1-.45C136.16,165.72,136,164.37,135.89,163Z" transform="translate(0.02 -0.38)" style="fill:#145676"/><path d="M105.11,127.47c-.87,1.38-1.8,2.72-2.57,4.16-.34.64,0,1.17.82,1.4a5.11,5.11,0,0,1,1.31.86l-4.07.47c1.23-2.34,2.45-4.68,3.71-7,.12-.23.48-.33.9-.61Z" transform="translate(0.02 -0.38)" style="fill:#454e5b"/><path d="M143.51,242.93a19.63,19.63,0,0,1,2.67-.93c.4-.08.89.31,1.35.49a5.23,5.23,0,0,1-.77,1c-1,.74-2,1.42-3,2.13C143.67,244.7,143.59,243.81,143.51,242.93Z" transform="translate(0.02 -0.38)" style="fill:#145676"/><path d="M43.43,140l.82-3.39.39-.06c.56,1.06,1.13,2.11,1.69,3.16Z" transform="translate(0.02 -0.38)" style="fill:#24404d"/><path d="M65.3,137.81l-.68-1,2.61-2.23v3Z" transform="translate(0.02 -0.38)" style="fill:#145676"/><path d="M3.84,144l-.18-2.56,1.1-.58L6,143.8Z" transform="translate(0.02 -0.38)" style="fill:#24404d"/><path d="M141.29,219.64a8.73,8.73,0,0,1,1.12,1.16c.75,1.1.49,1.59-.83,1.72C141.48,221.56,141.38,220.6,141.29,219.64Z" transform="translate(0.02 -0.38)" style="fill:#1a5776"/><path d="M139,195.42a1.29,1.29,0,0,1,.45.11c.4.28,1.11.6,1.11.9a1.07,1.07,0,0,1-1.35,1.1Z" transform="translate(0.02 -0.38)" style="fill:#24404d"/><path d="M105.67,133.76l.6,0Z" transform="translate(0.02 -0.38)" style="fill:#454e5b"/><path d="M65.47,46.75c0-.12,0-.25,0-.38L66,45.14l.94.94c.1.25.19.51.31.75.69,1.29,1.36,2.58,2.08,3.85a15.19,15.19,0,0,0,1.1,1.47l1,1,.81.61.39.12,1,.63h0c.54.81,1.08,1.62,1.61,2.43l.32.43c.3,1.11.54,2.23.93,3.3.15.41.66.69,1,1a.82.82,0,0,1,.2.12c.45.28.91.55,1.36.85.27.18.72.39.74.61.15,2.13,1.45,4.17.57,6.39l-.55,1a22,22,0,0,1-6.67,3.93l-3.62.64-1,.1a10.31,10.31,0,0,1-4.88-2.41,33.7,33.7,0,0,1-8.13-9.35,65.43,65.43,0,0,1-3.27-5.69,8.62,8.62,0,0,1-.6-3.26c-.14-3.35-.08-6.71-.31-10a21.08,21.08,0,0,0-1.1-4A12.62,12.62,0,0,1,49.94,39a4.17,4.17,0,0,1,1-3.51,24,24,0,0,0,2.38-3.45c.8-1.36,1.46-2.8,2.24-4.34,1,1,2.76,1.47,3,3.41a2.67,2.67,0,0,0,.3.78,4.42,4.42,0,0,1,.33,4.16c-.76,1.71,0,2.72,2,3.51a3.82,3.82,0,0,1,2.3,1.77.93.93,0,0,1-.18,1.33c-1.17,1.11-1.14,1.64.15,2.54a1.3,1.3,0,0,1,.45,1.93A3.11,3.11,0,0,0,64.2,51l.28.21-.08-.38c0-.79.09-1.59.13-2.39l0-.08.06-.07Zm2.66,22.4c1.88-.09,3.68-.36,4.86-2.09.54-.8,1-1.61,1.6-2.39.42-.58.34-.92-.34-1.16-1.58-.56-3.15-1.17-4.74-1.7a2.33,2.33,0,0,0-1.17,0c-.89.19-1.76.46-2.65.65-1.43.32-1.92,1.47-2.34,2.65a2.09,2.09,0,0,0,.7,2.49A6.41,6.41,0,0,0,68.13,69.15Z" transform="translate(0.02 -0.38)" style="fill:#fdfcfb"/><path d="M80.48,88.93c.2.14.51.23.56.41a15.28,15.28,0,0,0,2.95,5c1,1.18.57,2.31-.62,2.51a9.75,9.75,0,0,1-1.62,0c.11.53.41,1.12.28,1.58a21.52,21.52,0,0,1-1.25,3.17,3.08,3.08,0,0,0,.74,3.1c.39.26,1.18,0,1.76-.11,1-.21,1.91-.61,2.89-.74.51-.06,1.49.23,1.53.48a2.72,2.72,0,0,1-.41,1.94,4.19,4.19,0,0,1-2,1.33,3.47,3.47,0,0,0-2.48,3.16,9.58,9.58,0,0,0,0,2.51c0,.39.45.74.78,1.25l-2.85,3.17c-.11.12-.28.21-.33.34-1.27,3.23-4.46,4.69-6.54,7.15a6.75,6.75,0,0,1-3.9,2.37,5.86,5.86,0,0,1-1.44-.08c.09-.51,0-1.14.3-1.52,1-1.31,2.09-2.5,3.08-3.8a14.1,14.1,0,0,0,1.32-2.25c.11-.2,0-.51,0-.77a3.58,3.58,0,0,0-.74.06c-1.23.35-2.43.81-3.68,1a10.51,10.51,0,0,1-2.45-.16c-.1.44-.24,1.08-.4,1.7s-.35,1.4-.56,2.08c-.53,1.64-.53,1.6-2.13,1.21-1-.25-1.19-.78-1.08-1.75a23.11,23.11,0,0,0,.16-4.24c-.13-1.83-1.42-2.85-3-3.56-1-.48-2.09-.93-3.14-1.4-.58-.26-1.34-1.8-.95-2.07a2.75,2.75,0,0,1,1.79-.38c1.21.15,2.39.53,3.61.71a3.48,3.48,0,0,0,3.42-1.57c.93-1.27,1.65-2.7,2.54-4a3,3,0,0,1,1.25-1.16,1.9,1.9,0,0,1,1.55.1c.27.18.21.9.24,1.38a11.88,11.88,0,0,1-.13,1.41c.94-.53,1.59-1,2.28-1.27a1.92,1.92,0,0,1,1.23-.23c2,.7,3.58-.6,5.31-1.12.13,0,.17-.54.14-.82-.08-.94-.2-1.87-.32-2.81a1.62,1.62,0,0,0-.11-.58c-.63-1.17-1.25-2.36-2-3.5a10.45,10.45,0,0,0-1.29-1.38v-.45c.13-.17.27-.34.4-.52l.35-.36c.36-.35.71-.7,1.06-1.06l.38-.39a.09.09,0,0,1,.09-.09l.37-.45c.07-.1.13-.2.19-.3l.28-.44.45-.75,1-1.85ZM67,118.16c1.6-.37,3.07-.67,4.51-1.07.37-.11.9-.51.93-.82.12-1.16,0-2.35.08-3.53,0-.84-.15-1.37-1.16-1.38a3.77,3.77,0,0,1-1.59-.45c-.65-.3-.93-.17-1.1.52-.47,1.89-1,3.77-1.46,5.66C67.1,117.44,67.05,117.81,67,118.16ZM80.52,96.52a20.27,20.27,0,0,0-.64-2.21,1.16,1.16,0,0,0-.83-.62,1.23,1.23,0,0,0-1,.45c-.36.57.4,3,1,3.51Z" transform="translate(0.02 -0.38)" style="fill:#145778"/><path d="M68.89,95.8c-1.51.47-3,.84-4.5,1.45A2.54,2.54,0,0,0,62.87,100c.11,2.1,0,4.19-1.57,5.83a5.27,5.27,0,0,1-1.48.75,5.1,5.1,0,0,1-.52-1.44c-.13-3.12,0-6.27-.31-9.38-.22-2.36-1.53-5.45-3.77-5.47l-.12-.63c.12-.5.25-1,.37-1.51.84-.24,1.65-.46,1.23-1.67-.06-.17.23-.57.45-.74a5.12,5.12,0,0,0,1.9-3.83L62.64,81c0,1.59-.06,3.19,0,4.78.1,2,.39,4,2.52,5,1.36.63,2.82,1.07,4.17,1.72a19.55,19.55,0,0,1,2.4,1.59l0,.06a.2.2,0,0,0-.16.1l-1.72,1.11Z" transform="translate(0.02 -0.38)" style="fill:#125879"/><path d="M71.75,94.06a19.55,19.55,0,0,0-2.4-1.59c-1.35-.65-2.81-1.09-4.17-1.72-2.13-1-2.42-3-2.52-5-.08-1.59,0-3.19,0-4.78l5.51-1.47c.14.5.29,1,.43,1.48s0,.88,0,1.31c.17,1.6.33,1.73,1.87,1.37a49.33,49.33,0,0,0,5.09-1.31,50.57,50.57,0,0,0,4.6-2.16l1,.82a27.06,27.06,0,0,1-3.46,3.94c-2.45,1.87-4.18,4-4.25,7.22A1.94,1.94,0,0,1,71.75,94.06Z" transform="translate(0.02 -0.38)" style="fill:#24404d"/><path d="M80.18,80.18a50.57,50.57,0,0,1-4.6,2.16,49.33,49.33,0,0,1-5.09,1.31c-1.54.36-1.7.23-1.87-1.37-.05-.43,0-.87,0-1.31L73,78.79a4.11,4.11,0,0,0,.71-.41c2-1.82,4-3.65,6-5.47a16.87,16.87,0,0,1-.1,2A8.46,8.46,0,0,0,80.18,80.18Z" transform="translate(0.02 -0.38)" style="fill:#f7f8f9"/><path d="M109.93,87.4c1,1.26,2,2.48,2.89,3.79.51.73,1.06,1.55.17,2.47-.15.15-.09.61,0,.88.43,1.28,1,2.52,1.32,3.82a8,8,0,0,1,.1,2.84c-.13.87-.78.51-1.15.14a12.19,12.19,0,0,1-1-1.46.93.93,0,0,0-.15.2c-.15.47-.29.93-.43,1.4a7.56,7.56,0,0,1-1.37-1c-.82-.89-1.54-1.87-2.31-2.81a8.62,8.62,0,0,1,.45-1.09A14.27,14.27,0,0,0,109.93,87.4Z" transform="translate(0.02 -0.38)" style="fill:#145676"/><path d="M107.81,98.15c.21.27.59.54.59.81,0,2.75,1.47,4.88,2.95,7,1,1.35,2.5,1.6,4,1.83a8.13,8.13,0,0,0,1.56,0c1.11,0,1.47.55,1.42,1.58s-.51,1.16-1.53,1.25a13.68,13.68,0,0,0-4.09,1.32c-.28.12-.33.9-.36,1.39,0,.29.21.59.3.9.49,1.68.21,2.15-1.41,2.38.33-4.87-1.55-9.33-2.6-13.94C108.29,101.18,108.08,99.66,107.81,98.15Z" transform="translate(0.02 -0.38)" style="fill:#1a5776"/><path d="M94,120.06c-1.35-1-2.91-1.92-3-3.92,0-.72-.46-.84-.94-.37-.8.78-1.4.13-2.4-.24,1.28-1,2.33-2,3.47-2.79.45-.33,1.1.53,1,1.33a1.2,1.2,0,0,0,1.43,1.39c.17,0,.45-.19.45-.28a6.9,6.9,0,0,0-.18-2,7.17,7.17,0,0,0-1.08-1.62l2.33-2.25.14,0,.33.42.19.27c-.11,1.32-.12,2.67-.35,4C95,116,94.44,118,94,120.06Z" transform="translate(0.02 -0.38)" style="fill:#1a5776"/><path d="M73,78.79,68.58,81c-.14-.49-.29-1-.43-1.48.08-.93.17-1.86.25-2.79,0-.46.09-.92.14-1.38l1-.1c.2.85-.38,1.87.51,2.6a15.83,15.83,0,0,0,1.81-1.4,15.19,15.19,0,0,0,1.3-1.84,22,22,0,0,0,6.67-3.93c-.06.54-.11,1.09-.17,1.63L73,76.08Z" transform="translate(0.02 -0.38)" style="fill:#0cabdf"/><path d="M91.6,96.79a51.21,51.21,0,0,1-5.1-1.05c-.54-.17-.94-1-1.22-1.63,0-.11.73-.8,1.2-.91,1.45-.35,2.94-.55,4.41-.8l.23.71c.21,1.22.43,2.44.64,3.66A.3.3,0,0,0,91.6,96.79Z" transform="translate(0.02 -0.38)" style="fill:#1a5776"/><path d="M59.05,81.89a5.12,5.12,0,0,1-1.9,3.83c-.22.17-.51.57-.45.74.42,1.21-.39,1.43-1.23,1.67a34,34,0,0,1-1.21-3.33,1.62,1.62,0,0,1,1.31-2.08C56.72,82.41,57.89,82.17,59.05,81.89Z" transform="translate(0.02 -0.38)" style="fill:#24404d"/><path d="M68.89,95.8l1-.47c-.28.52-.56,1-.83,1.58l.25.19c1.11-.67,1.73-2.2,3.53-2.1-1.19,3-4.29,3.46-6.2,5.37l3.51-.79a30.18,30.18,0,0,1-2.89,1A4.08,4.08,0,0,0,64,104.08a2,2,0,0,1-.52,1,3.25,3.25,0,0,1,.36-3c.48-.67,1.21-1.15,1.75-1.78C66.81,98.89,68.78,98,68.89,95.8Z" transform="translate(0.02 -0.38)" style="fill:#454e5b"/><path d="M73,78.79V76.08l6.74-3.8,0,.63c-2,1.82-4,3.65-6,5.47A4.11,4.11,0,0,1,73,78.79Z" transform="translate(0.02 -0.38)" style="fill:#0287bf"/><path d="M96.38,132.53c-2-1.55-2.68-5.59-1.56-9.56Z" transform="translate(0.02 -0.38)" style="fill:#454e5b"/><path d="M79.68,59.09c-.91-.8-1.73-1.48-2.52-2.21a4,4,0,0,1-.7-3.39.69.69,0,0,1,.46-.28.81.81,0,0,1,.44.17C78.41,53.89,80.06,57.76,79.68,59.09Z" transform="translate(0.02 -0.38)" style="fill:#f9e9e7"/><path d="M80.42,69.67c.88-2.22-.42-4.26-.57-6.39,0-.22-.47-.43-.74-.61-.45-.3-.91-.57-1.36-.85.64-.18.39-.46.15-.86a8.51,8.51,0,0,1-1-2.38c1.59,1.08,3.33,1.91,3.33,4.26a17.25,17.25,0,0,0,.82,4.2A2.59,2.59,0,0,1,80.42,69.67Z" transform="translate(0.02 -0.38)" style="fill:#f9e9e7"/><path d="M91.72,86.61C93.37,88,94,93,92.65,95.15Z" transform="translate(0.02 -0.38)" style="fill:#454e5b"/><path d="M81.42,71.33c.64,2.74.19,5.28,0,8C80.08,78.21,80.18,73.07,81.42,71.33Z" transform="translate(0.02 -0.38)" style="fill:#f9e9e7"/><path d="M75,91.73c-.27-2.1.68-3.62,2.34-5C77.8,89.13,76,90.24,75,91.73Z" transform="translate(0.02 -0.38)" style="fill:#454e5b"/><path d="M70.07,49.09c2.85,1.26,3.51,2.07,3.16,3.89A6,6,0,0,1,70.07,49.09Z" transform="translate(0.02 -0.38)" style="fill:#f9e9e7"/><path d="M91.6,96.79a.3.3,0,0,1,.16,0,9.73,9.73,0,0,1,.71,2.7A16.29,16.29,0,0,0,94.4,108a1.21,1.21,0,0,1,.06.34c-1.62-1.85-2-4.13-2.31-6.46C92,100.17,91.79,98.48,91.6,96.79Z" transform="translate(0.02 -0.38)" style="fill:#454e5b"/><path d="M102.51,129.25l-2,3.68C99.86,131.14,100.44,130.1,102.51,129.25Z" transform="translate(0.02 -0.38)" style="fill:#454e5b"/><path d="M95.66,107.91l-2-4.46A4.21,4.21,0,0,1,95.66,107.91Z" transform="translate(0.02 -0.38)" style="fill:#454e5b"/><path d="M60.84,35.44c.53,1.08,1,2,1.49,3C59.75,38.16,59.59,37,60.84,35.44Z" transform="translate(0.02 -0.38)" style="fill:#f9e9e7"/><path d="M95.12,102.9a7.28,7.28,0,0,1-1.2-5l1.65,4.87Z" transform="translate(0.02 -0.38)" style="fill:#9f8fa4"/><path d="M70.47,52.15a15.19,15.19,0,0,1-1.1-1.47c-.72-1.27-1.39-2.56-2.08-3.85-.12-.24-.21-.5-.31-.75a17.09,17.09,0,0,1,2,2.46A30.08,30.08,0,0,1,70.47,52.15Z" transform="translate(0.02 -0.38)" style="fill:#f9e9e7"/><path d="M45.88,93.4l-.06-.35c.6-.18,1.19-.39,1.79-.52,1.64-.37,3.3-.7,5-1-1.47.47-2.93,1-4.41,1.39C47.41,93.1,46.64,93.23,45.88,93.4Z" transform="translate(0.02 -0.38)" style="fill:#24404d"/><path d="M91.12,93.11l-.23-.71c-.1-1.44-.21-2.88-.31-4.31a6.79,6.79,0,0,1,0-.9C90.79,89.16,91,91.14,91.12,93.11Z" transform="translate(0.02 -0.38)" style="fill:#454e5b"/><path d="M85,86.79c-.89.84-1.63,1.95-3.17,1.49-.3-.09-.72.22-1.09.35.46-.67,1-1.12,1.89-.78.3.11.77-.24,1.15-.42S84.59,87,85,86.79Z" transform="translate(0.02 -0.38)" style="fill:#454e5b"/><path d="M74.87,51.88l1.07,1.5-.7.49-1-1.59Z" transform="translate(0.02 -0.38)" style="fill:#f9e9e7"/><path d="M77.55,61.7c-.34-.34-.85-.62-1-1-.39-1.07-.63-2.19-.93-3.3a2.84,2.84,0,0,1,.39.54C76.54,59.17,77,60.44,77.55,61.7Z" transform="translate(0.02 -0.38)" style="fill:#f9e9e7"/><path d="M90.53,86.7l-.67-1.37-1.34.61,1.35-1.33.35.11C90.33,85.38,90.43,86,90.53,86.7Z" transform="translate(0.02 -0.38)" style="fill:#454e5b"/><path d="M88.34,86.05a12.26,12.26,0,0,1-1.72.63,7.61,7.61,0,0,1-1.51.06c.5-.13,1-.29,1.5-.39S87.76,86.15,88.34,86.05Z" transform="translate(0.02 -0.38)" style="fill:#454e5b"/><path d="M66,45.14l-.56,1.23c-.17-.53-.35-1.06-.52-1.59l.09-.84Z" transform="translate(0.02 -0.38)" style="fill:#f9e9e7"/><path d="M75.3,56.94c-.53-.81-1.07-1.62-1.61-2.43C74.23,55.32,74.77,56.13,75.3,56.94Z" transform="translate(0.02 -0.38)" style="fill:#f9e9e7"/><path d="M79.45,90.11l-1,1.85Z" transform="translate(0.02 -0.38)" style="fill:#454e5b"/><path d="M65.47,46.75l-.83,1.56Z" transform="translate(0.02 -0.38)" style="fill:#f9e9e7"/><path d="M74.87,96.32v.45l-1.21.46Z" transform="translate(0.02 -0.38)" style="fill:#454e5b"/><path d="M64.8,44.7c-1-.32-1.11-.41-.75-1Z" transform="translate(0.02 -0.38)" style="fill:#f9e9e7"/><path d="M64.8,44.7l-.75-1h0l.9,0a.72.72,0,0,1,.09.2l-.09.84A.48.48,0,0,1,64.8,44.7Z" transform="translate(0.02 -0.38)" style="fill:#fdfcfb"/><path d="M65,43.74l-.9,0C64.38,43.13,64.69,43,65,43.74Z" transform="translate(0.02 -0.38)" style="fill:#f9e9e7"/><path d="M72.26,98.28l-1,.65Z" transform="translate(0.02 -0.38)" style="fill:#454e5b"/><path d="M73.69,54.51l-1-.63Z" transform="translate(0.02 -0.38)" style="fill:#f9e9e7"/><path d="M73.23,97.56l-.8.61Z" transform="translate(0.02 -0.38)" style="fill:#454e5b"/><path d="M72.32,53.76l-.81-.61Z" transform="translate(0.02 -0.38)" style="fill:#f9e9e7"/><path d="M55.1,89.64l.12.63-.8,0Z" transform="translate(0.02 -0.38)" style="fill:#24404d"/><path d="M77.52,93.45l-.37.45Z" transform="translate(0.02 -0.38)" style="fill:#454e5b"/><path d="M78,92.71l-.28.44Z" transform="translate(0.02 -0.38)" style="fill:#454e5b"/><path d="M95.19,109.28l-.14,0-.25-.55Z" transform="translate(0.02 -0.38)" style="fill:#454e5b"/><path d="M75.62,95.44l-.35.36Z" transform="translate(0.02 -0.38)" style="fill:#454e5b"/><path d="M53.28,91l-.61.42Z" transform="translate(0.02 -0.38)" style="fill:#24404d"/><path d="M54,90.52l-.6.45Z" transform="translate(0.02 -0.38)" style="fill:#24404d"/><path d="M77.06,94l-.38.39Z" transform="translate(0.02 -0.38)" style="fill:#454e5b"/><path d="M54.46,90.22l-.46.3Z" transform="translate(0.02 -0.38)" style="fill:#24404d"/><polygon points="64.59 48.01 64.55 48.08 64.53 48.02 64.59 48.01" style="fill:#f9e9e7"/><path d="M42.22,94.72l-.33.35Z" transform="translate(0.02 -0.38)" style="fill:#213f4c"/><path d="M95.71,110l-.19-.27Z" transform="translate(0.02 -0.38)" style="fill:#454e5b"/><path d="M71.56,94.22a.2.2,0,0,1,.16-.1Z" transform="translate(0.02 -0.38)" style="fill:#454e5b"/><path d="M143.08,101.58l1.07.4c.22.67.42,1.31.63,2l.53-.43.24.94-.83,1.15h-.12c-1.95,0-2,.19-1.71,2.18.31,2.36.46,4.75.6,7.13,0,.83.07,1.45,1.11,1.63s1.24.92,1,1.84a2.25,2.25,0,0,1-.15.46c-1.49,2.7-1.47,5.74-2,8.66a2,2,0,0,1-.4,1,1.29,1.29,0,0,1-.9.38c-.21,0-.51-.34-.59-.58-.66-2-2.38-3.26-3.67-4.81a1.49,1.49,0,0,0-1.06-.47c-1.35.06-1.42-.78-1.25-1.72a6,6,0,0,1,.76-2.36,5,5,0,0,0,.66-3.19q0-.42,0-.84c0-2.12,0-2.14-2-2.91-1-.39-2.05-.66-3-1.09-.47-.21-1.17-.68-1.15-1a1.79,1.79,0,0,1,1-1.25c1.38-.61,2.83-1,4.25-1.55,2.16-.76,2.43-1.51,2.12-3.78-.11-.83.64-1.78,1-2.66.09-.2.32-.35.47-.53.82-1,1.59-.89,2.07.34C142.07,101.09,142.2,101.73,143.08,101.58Zm-3.24,15.75-.34,0c.06.88.08,1.78.2,2.65.05.33.3.82.56.89a2.85,2.85,0,0,0,1.15-.14C140.81,119.45,140.33,118.39,139.84,117.33Z" transform="translate(0.02 -0.38)" style="fill:#145778"/><path d="M157.53,179l1.11-.23c-.1,1.63.21,3.2-.52,4.81s-1,3.27-1.56,4.88c-.15.42-.61.74-.93,1.1-.28-.38-.59-.74-.84-1.14-1.26-2-1.92-4.62-4.7-5.33a.77.77,0,0,1-.61-1.17c.2-.48.22-1.18.57-1.42,1.92-1.37,1.85-3.82,3.11-5.54.8-1.09.43-1.58-.67-2.29s-2.69-.58-3.08-2.21c0-.05-.7-.09-.79,0a1.55,1.55,0,0,1-2.15.67,2.07,2.07,0,0,1-.72-1.81c.47-1.73-.17-3.22-.62-4.78-.25-.87-.63-1.72-.84-2.6-.08-.39,0-1.13.23-1.2a2.19,2.19,0,0,1,1.39.16c1.88.82,3.7,1.76,5.6,2.52a3,3,0,0,0,1.85-.1c.91-.28,1.15.27,1.39.88a1.66,1.66,0,0,1,0,.83c-.54,3,.47,6,.56,9,0,.91,1,1.76,1.41,2.68C157.05,177.39,157.21,178.08,157.53,179ZM150,169.31c2.66-.05,2.16-.35,1.22-2.17,0-.07-.06-.15-.1-.21a1,1,0,0,0-1.62-.27c-.56.38-.46.78,0,1.28A4.78,4.78,0,0,1,150,169.31Zm6,10.12c-1.63-.94-1.62-.94-2,1.08,0,.2-.21.46-.13.56.23.33.58.85.83.82a1.51,1.51,0,0,0,1-.79A6.46,6.46,0,0,0,156,179.43Z" transform="translate(0.02 -0.38)" style="fill:#145676"/><path d="M159.39,222.87c-.08.8-.23,1.2-1.07.9a16.28,16.28,0,0,0-3-.72c-.81-.11-1.6-.08-2-1a.54.54,0,0,0-.49-.17c-.16.12-.2.38-.34.55-.26.32-.5.79-.83.87a2.42,2.42,0,0,1-1.41-.24,1.11,1.11,0,0,1-.45-.81c-.17-2.84-2.38-4.58-3.64-6.82a4.23,4.23,0,0,1-.28-1.14,4.15,4.15,0,0,1,1.39-.28c1.75.29,3.47.79,5.23,1a4.21,4.21,0,0,0,2.25-.6c.72-.39,1.1-.24,1.45.4.11.2.33.4.35.61a15.18,15.18,0,0,0,2.07,5.59C159,221.65,159.17,222.33,159.39,222.87ZM153.57,221a3.16,3.16,0,0,0,1.17-.44c.24-.24.43-.89.28-1.11a3.48,3.48,0,0,0-1.4-1.21,1.89,1.89,0,0,0-1.32.29c-.13.06-.14.65,0,.87A17.9,17.9,0,0,0,153.57,221Z" transform="translate(0.02 -0.38)" style="fill:#145676"/><path d="M132,99.62c0,.35.12.77,0,1.06a1.52,1.52,0,0,1-.86.8,1.1,1.1,0,0,1-.89-.58c-.65-1.75-1.25-3.52-1.77-5.31-.16-.55-.72-1.41.38-1.67A1.67,1.67,0,0,1,130.94,95c.5,1.5.86,3,1.28,4.57Z" transform="translate(0.02 -0.38)" style="fill:#145676"/><path d="M145.79,137.2l-1.12,2c-.66-.55-1.63-1-1.92-1.69a12.12,12.12,0,0,1-.64-3.62c0-.41.36-1.2.57-1.2.51,0,1.3.2,1.5.57A40,40,0,0,1,145.79,137.2Z" transform="translate(0.02 -0.38)" style="fill:#145676"/><path d="M142.91,205.79c1.9.14,3.09,1.43,4.47,2.34a.83.83,0,0,1,.08.83c-.35.34-.91.83-1.24.73-1.48-.41-3.1-.63-4.1-2a9.61,9.61,0,0,1-.67-1.32Z" transform="translate(0.02 -0.38)" style="fill:#145676"/><path d="M148.36,193.35a3.5,3.5,0,0,1-.15,1.17c-.18.34-.55.81-.84.82s-1.08-.37-1.1-.62a38.6,38.6,0,0,1,0-4.81c0-.26.69-.49,1.06-.74.19.3.5.57.56.88C148.08,191.18,148.21,192.32,148.36,193.35Z" transform="translate(0.02 -0.38)" style="fill:#145676"/><path d="M152.56,207.87c-.14.64-.32,1.27-1.09.8-1.26-.76-2.5-1.58-3.69-2.45-.26-.19-.51-.88-.39-1,.33-.39,1-.95,1.29-.83a6.87,6.87,0,0,1,3.73,3A2.46,2.46,0,0,1,152.56,207.87Z" transform="translate(0.02 -0.38)" style="fill:#145676"/><path d="M146.65,188c-1.06.94-2.1,1.92-3.21,2.79-.31.23-.87.13-1.31.18a6.67,6.67,0,0,1-.08-1.09,10.14,10.14,0,0,0,.24-1.41c-.11-1.32.62-1.59,1.69-1.41.88.14,1.74.35,2.62.53Z" transform="translate(0.02 -0.38)" style="fill:#145676"/><path d="M152.38,193.77c-.81-.41-1.64-.8-2.41-1.28-.1-.06,0-.83.15-.85.53-.1,1.27-.28,1.59,0a5.71,5.71,0,0,1,1,1.76Z" transform="translate(0.02 -0.38)" style="fill:#145676"/><path d="M145.44,105.63l.16-.28.31.55Z" transform="translate(0.02 -0.38)" style="fill:#145778"/><path d="M67.65,129.9a6.65,6.65,0,0,1,.67.47c.36.33.69.68,1,1-.33.31-.61.76-1,.92-1.63.67-3.3,1.25-4.95,1.87l-5.3-3.82c0-.39,0-.79,0-1.19a20.6,20.6,0,0,0,3.12-1.44,2.72,2.72,0,0,1,3.4.09Z" transform="translate(0.02 -0.38)" style="fill:#e09091"/><path d="M45.66,120.23c1.4-.1,1.47,1,2,1.76.62.91,1.28,1.81,1.83,2.76A27.32,27.32,0,0,1,51,127.91a1.11,1.11,0,0,1-.29,1,1.13,1.13,0,0,1-1.07-.06,12.68,12.68,0,0,1-2.51-2.62c-1.39-2.31-2.59-4.73-3.83-7.13a4.23,4.23,0,0,1-.2-1.31,4.44,4.44,0,0,1,1.47.09C45.7,118.38,46.17,119.37,45.66,120.23Z" transform="translate(0.02 -0.38)" style="fill:#145676"/><path d="M67.65,129.9l-3-2.07a2.72,2.72,0,0,0-3.4-.09,20.6,20.6,0,0,1-3.12,1.44c-.33-1.63-.67-3.26-1-4.89A3.35,3.35,0,0,1,57,123a1.06,1.06,0,0,1,.67-.71,1.3,1.3,0,0,1,1,.4c1.6,2,3.94,2.91,6,4.16a1.52,1.52,0,0,0,1.15,0c1.12-.41,1.59.13,1.74,1.11A14.79,14.79,0,0,1,67.65,129.9Z" transform="translate(0.02 -0.38)" style="fill:#1a5776"/><path d="M54.88,100.06a15.7,15.7,0,0,1-.52,2.55.86.86,0,0,1-1.65.06c-.71-2.06-1.49-4.16-.5-6.35.17-.38.6-.65.91-1,.34.35.87.65,1,1.06C54.46,97.62,54.65,98.88,54.88,100.06Z" transform="translate(0.02 -0.38)" style="fill:#145676"/><path d="M58.1,130.37l5.3,3.82-1.19,1.15a9.16,9.16,0,0,1-.76-1.22c-.29-.65-.46-.75-1.06-.19a2.26,2.26,0,0,1-1.77.4c-.33-.06-.72-.8-.74-1.25A17.79,17.79,0,0,1,58.1,130.37Z" transform="translate(0.02 -0.38)" style="fill:#1a5776"/><path d="M88.87,108.63c0-1.33,0-2.66,0-4,0-.25.51-.62.81-.64a1.28,1.28,0,0,1,.94.48,5.88,5.88,0,0,1,.8,1.58,1.06,1.06,0,0,1-.11.93c-.67.65-1.42,1.21-2.14,1.81Z" transform="translate(0.02 -0.38)" style="fill:#145676"/><path d="M31.75,113.5c.41.77,1.82.91,1,2.1-.2.3-1.2.5-1.34.33A1.53,1.53,0,0,1,31.75,113.5Z" transform="translate(0.02 -0.38)" style="fill:#21404e"/><path d="M144.92,102.35l-.09.19s-.07-.06-.06-.09a1,1,0,0,1,.08-.19Z" transform="translate(0.02 -0.38)" style="fill:#145778"/><path d="M125.27,109.68c0,.71,0,1.43,0,2.13s-.5,1-1.11.46-1.43-.78-.66-1.77c.14-.18-.06-.6,0-.91s.06-.91.18-.93a2.1,2.1,0,0,1,1.24.11c.29.13.46.52.68.79Z" transform="translate(0.02 -0.38)" style="fill:#21404e"/><path d="M86.86,124.88a8.59,8.59,0,0,1-2.13.1c-.43-.09-.77-.57-1.15-.88a7,7,0,0,1,1-.92c.2-.13.54-.06.82-.06.6,0,1.21,0,1.81.07C87.07,123.79,87,124.39,86.86,124.88Z" transform="translate(0.02 -0.38)" style="fill:#21404e"/><path d="M141.05,149.83c-1.25,1.77-1.21,1.74-2.62.09-.53-.62-.84-1.11,0-1.58.63-.35,1.24-.49,1.56.5C140.13,149.22,140.66,149.47,141.05,149.83Z" transform="translate(0.02 -0.38)" style="fill:#21404e"/><path d="M108.91,128.3a13.22,13.22,0,0,1-.27,2.22c-.09.32-.57.76-.85.74a1.31,1.31,0,0,1-.94-.73,4.68,4.68,0,0,1,0-1.79c.11-.81.5-1.27,1.39-.72A3.4,3.4,0,0,0,108.91,128.3Z" transform="translate(0.02 -0.38)" style="fill:#21404e"/><path d="M68.13,69.15a6.41,6.41,0,0,1-4.08-1.51,2.09,2.09,0,0,1-.7-2.49c.42-1.18.91-2.33,2.34-2.65.89-.19,1.76-.46,2.65-.65a2.33,2.33,0,0,1,1.17,0c1.59.53,3.16,1.14,4.74,1.7.68.24.76.58.34,1.16-.56.78-1.06,1.59-1.6,2.39C71.81,68.79,70,69.06,68.13,69.15Zm3.51-4.66-.12-.42c-2-.35-6,.58-6.75,1.89Z" transform="translate(0.02 -0.38)" style="fill:#f06561"/><path d="M73.2,74.58a15.19,15.19,0,0,1-1.3,1.84,15.83,15.83,0,0,1-1.81,1.4c-.89-.73-.31-1.75-.51-2.6Z" transform="translate(0.02 -0.38)" style="fill:#0287bf"/><path d="M64.4,50.85l.08.38L64.2,51Z" transform="translate(0.02 -0.38)" style="fill:#ea9594"/><path d="M67,118.16c.07-.35.12-.72.21-1.07.48-1.89,1-3.77,1.46-5.66.17-.69.45-.82,1.1-.52a3.77,3.77,0,0,0,1.59.45c1,0,1.19.54,1.16,1.38,0,1.18,0,2.37-.08,3.53,0,.31-.56.71-.93.82C70.05,117.49,68.58,117.79,67,118.16Z" transform="translate(0.02 -0.38)" style="fill:#21404e"/><path d="M80.52,96.52,79.1,97.65c-.62-.5-1.38-2.94-1-3.51a1.23,1.23,0,0,1,1-.45,1.16,1.16,0,0,1,.83.62A20.27,20.27,0,0,1,80.52,96.52Z" transform="translate(0.02 -0.38)" style="fill:#21404e"/><path d="M139.84,117.33c.49,1.06,1,2.12,1.57,3.44a2.85,2.85,0,0,1-1.15.14c-.26-.07-.51-.56-.56-.89-.12-.87-.14-1.77-.2-2.65Z" transform="translate(0.02 -0.38)" style="fill:#21404e"/><path d="M150,169.31a4.78,4.78,0,0,0-.53-1.37c-.43-.5-.53-.9,0-1.28a1,1,0,0,1,1.62.27c0,.06.06.14.1.21C152.12,169,152.62,169.26,150,169.31Z" transform="translate(0.02 -0.38)" style="fill:#21404e"/><path d="M156,179.43a6.46,6.46,0,0,1-.29,1.67,1.51,1.51,0,0,1-1,.79c-.25,0-.6-.49-.83-.82-.08-.1.09-.36.13-.56C154.37,178.49,154.36,178.49,156,179.43Z" transform="translate(0.02 -0.38)" style="fill:#21404e"/><path d="M153.57,221a17.9,17.9,0,0,1-1.28-1.6c-.13-.22-.12-.81,0-.87a1.89,1.89,0,0,1,1.32-.29,3.48,3.48,0,0,1,1.4,1.21c.15.22,0,.87-.28,1.11A3.16,3.16,0,0,1,153.57,221Z" transform="translate(0.02 -0.38)" style="fill:#21404e"/><path d="M71.64,64.49,64.77,66c.77-1.31,4.74-2.24,6.75-1.89Z" transform="translate(0.02 -0.38)" style="fill:#f9e9e7"/></svg>