<svg xmlns="http://www.w3.org/2000/svg" width="24" height="24" color="#000" fill="none"><path d="M9.66 1.282c-1.032.032-1.582.085-2.14.205-1.795.385-2.768 1.435-3.098 3.344C4.268 5.72 4.26 6.055 4.26 12c0 5.954.007 6.254.163 7.169.34 1.998 1.41 3.068 3.408 3.408.833.142 1.352.162 4.169.162 2.817 0 3.336-.02 4.169-.162 1.998-.34 3.068-1.41 3.408-3.408.156-.915.163-1.215.163-7.169s-.007-6.254-.163-7.169c-.14-.822-.44-1.562-.833-2.055-.638-.8-1.618-1.256-3.044-1.415-.931-.105-3.957-.144-6.04-.079m4.438 1.548c-.153.753-.198.931-.262 1.058-.159.312-.367.352-1.836.352s-1.677-.04-1.836-.352c-.064-.127-.109-.305-.262-1.058-.014-.066.107-.07 2.098-.07 1.991 0 2.112.004 2.098.07m-5.64.46c.161.924.369 1.419.761 1.81.522.521 1.103.659 2.781.659 1.674 0 2.259-.139 2.781-.659.393-.392.599-.883.761-1.815l.072-.415.206.022c.615.063 1.291.343 1.618.67.337.337.576.923.681 1.669.093.662.12 2.156.12 6.769 0 6.538-.028 7.039-.443 7.909-.408.855-1.166 1.191-2.916 1.29-.91.052-4.858.051-5.76 0-1.761-.102-2.506-.431-2.916-1.29-.415-.87-.443-1.371-.443-7.909 0-4.613.027-6.107.12-6.769.105-.746.344-1.332.681-1.669.242-.242.726-.486 1.158-.583.165-.037.318-.073.34-.08.022-.007.104-.014.183-.016l.143-.003.072.41m2.347 14.99c-.391.092-.633.519-.524.924.059.218.288.453.5.511.214.06 2.224.06 2.438 0a.84.84 0 0 0 .306-.191.739.739 0 0 0-.348-1.246c-.191-.044-2.183-.043-2.372.002" fill-rule="evenodd" fill="#000"/></svg>