<svg xmlns="http://www.w3.org/2000/svg" viewBox="0 0 245.58 49.17"><path d="M74.92,36c-.13,0-.19-.14-.19-.4s0-.2.11-.22.12,0,.12-.06-.1-.19-.31,0-.29.27-.16.32.09.08,0,.08-.15.08-.14.26,0,.25-.06.25-.16-.1-.16-.31a.77.77,0,0,0-.23-.6c-.24-.21-.37-.26-.4-.15a.12.12,0,0,0,0,.08s0,.16-.12.33a1,1,0,0,0-.16.34c0,.18,0,.18-.07,0a3.21,3.21,0,0,0-.08-.48.61.61,0,0,0-.14-.35c-.07-.06-.14,0-.22,0a1,1,0,0,0-.2.39l-.11.44c0-.4,0-.61-.08-.64s-.07,0-.12.08a1,1,0,0,0-.24.71c0,.32,0,.48-.08.48s-.12-.37-.12-1.11c0-.31,0-.39-.12-.23s-.11.14-.11,0-.11-.16-.32,0a.22.22,0,0,0-.08.15c0,.08,0,.11-.12.08s-.08,0-.08,0a1,1,0,0,0,0,.2c0,.21,0,.32,0,.32s-.1,0-.15.07S70.7,36,70.7,36s-.06-.22-.16-.24-.12,0-.12-.08-.07-.16-.2-.08a.56.56,0,0,0-.12.2L70,34.73c0-1-.1-2.82-.22-5.31s-.19-4.17-.22-5q-.2-5.32-.2-11a25,25,0,0,1,.08-2.84c.06-.21.16-.32.32-.32s.24,0,.24-.12-.06-.09-.16,0a.17.17,0,0,1-.14,0,.22.22,0,0,1-.08-.14,2.23,2.23,0,0,0-.06-.26,1.46,1.46,0,0,1,0-.39,1.53,1.53,0,0,1,0-.3s.06-.05.14,0,.16,0,.16-.08a.7.7,0,0,0-.12-.35,1.1,1.1,0,0,1,0-.6c0-.34.08-.51.16-.51s0,.13,0,.39a.12.12,0,0,1,0,.08V8a1,1,0,0,0,.24.56,1,1,0,0,1,.23.51c0,.21.07.25.2.12s.1-.27,0-.48-.09-.27,0-.27.17.19.28.59l.19.39V9.3c0-.08.06-.12.08-.12a.5.5,0,0,0,.22.27c.12.08.2.1.26,0a3.73,3.73,0,0,0,.12-.65c.05-.41.1-.62.15-.65s.14-.08.08-.24,0-.12,0-.14,0,0,.1.1a.5.5,0,0,1,0,.26q0,.18.06.18a.13.13,0,0,0,.12,0s.08-.06.08-.08.06-.09.2,0,.15,0,.15,0a.21.21,0,0,1,0-.12c0-.16,0-.23.14-.22a.53.53,0,0,1,.3.14c0,.06.08,0,.08-.08,0-.29,0-.43,0-.43s0,0,.08.12a.44.44,0,0,1,.06.16,1.54,1.54,0,0,1,0,.19l0,.08c.16,0,.29-.12.4-.35,0-.08,0-.12.08-.12s0,0,0,.12.06.17.18.27.16.2.13.28-.08.11-.17.1-.14,0-.14.1.06.17.18.27a.51.51,0,0,1,.17.36c0,.18,0,.2.12,0s.12-.19.12-.08a1.74,1.74,0,0,0,.08.33l.12.42a.38.38,0,0,1,0,.28c-.11,0-.16,0-.16,0s0-.1-.14-.06-.1.08,0,.14c.27.18.4,1.31.4,3.39q0,4.47.43,15.25c.11,2.32.16,4.15.16,5.49C75.16,35.4,75.08,36,74.92,36ZM70.1,8.19c-.18,0-.19-.12,0-.2s.19,0,.19.16S70.21,8.24,70.1,8.19Zm0,1c0,.13,0,.19,0,.19V9A.19.19,0,0,0,70.07,9.14Zm.47,1.46a.25.25,0,0,0-.2-.28s-.09,0-.12.12c-.15.37-.14.55,0,.55s.08,0,.08-.11,0-.12.08-.12S70.54,10.7,70.54,10.6Zm-.12-.83s-.08,0-.08-.12,0-.12-.08-.12-.16.1-.08.28.12.14.2.12.16,0,.16.12,0,.19.12.19.16.19.16.56c0,.18,0,.27,0,.27l0-.12c.06-.18.11-.26.16-.23s0,0,.06,0a.51.51,0,0,0,0-.16.34.34,0,0,0-.08-.16s-.08,0-.18-.12-.18-.21-.27-.33S70.45,9.77,70.42,9.77Zm.2-1.54c0-.11,0-.16,0-.18s0,0,.1.1l.25.22a1.66,1.66,0,0,1,.3.29.53.53,0,0,1,.12.32c0,.13,0,.21-.08.24s-.07,0-.12-.12a.4.4,0,0,1,0-.2l0-.24s-.07,0-.14,0a.5.5,0,0,1-.19-.15A.62.62,0,0,1,70.62,8.23Zm.91,2c0-.1-.08-.18-.24-.23h-.24l.24.19C71.45,10.3,71.53,10.31,71.53,10.2Zm-.2.91s0-.13.08-.23-.12,0-.12.11S71.3,11.11,71.33,11.11Zm.43-.55,0-.2c-.21.08-.33.16-.35.24a.56.56,0,0,0,.2.12C71.7,10.72,71.76,10.66,71.76,10.56ZM71.41,8a.22.22,0,0,1,0-.16l0,.28v0S71.43,8.14,71.41,8Zm.83,2.57s0-.07,0-.14l-.16-.24A.38.38,0,0,1,72,10l0-.16,0,0s-.06.06-.12,0-.09,0-.12,0,.11.29.4.55C72.14,10.61,72.21,10.65,72.24,10.6Zm0-1.74c0-.08-.06-.13-.18-.16a.27.27,0,0,1-.22-.15c-.08-.14-.14-.15-.2,0s0,.15.12.29a.51.51,0,0,0,.36.22C72.24,9,72.28,9,72.28,8.86ZM72,9.37c0-.18,0-.28,0-.29s-.09,0-.2.06-.06.16,0,.31S72,9.61,72,9.37Zm0,2.33c0-.07,0-.11-.08-.11l-.12.08A.6.6,0,0,0,72,11.7Zm.2-4c0-.08,0-.12,0-.12l0,.23v0s0,0-.06,0A.27.27,0,0,1,72.16,7.72Zm.24-.4c0-.13,0-.14.11,0a.41.41,0,0,0,0,.12s0,.09,0,.12S72.45,7.45,72.4,7.32ZM73,8.51a.39.39,0,0,0-.16-.32c-.11-.08-.21,0-.32.08a.72.72,0,0,0-.11.39c0,.14,0,.14.11,0l.16-.06.22,0C73,8.55,73,8.53,73,8.51Zm-.16,2.21c0-.19-.12-.29-.2-.32s-.12,0-.12,0,0,.16.2.32l.16.14A.51.51,0,0,0,72.83,10.72Zm.28-1.42c0-.06,0-.09,0-.1a.34.34,0,0,0-.12,0A.34.34,0,0,1,72.79,9c-.08-.16-.13-.2-.16-.12s0,.26.16.4S73.11,9.48,73.11,9.3Zm0,.75A.11.11,0,0,0,73,9.93a.17.17,0,0,1-.16-.08l0-.08a.16.16,0,0,0,0,.12.28.28,0,0,0,.2.27C73.05,10.19,73.11,10.15,73.11,10.05Zm0,24.48-.24-.07q0,.15.12.15C73.07,34.61,73.11,34.59,73.11,34.53Zm0-27.84c0-.13,0-.2,0-.2l0,.28v0A.63.63,0,0,1,73.15,6.69Zm.19,3.83c0-.1,0-.16,0-.16l-.15.24.07,0A.11.11,0,0,0,73.34,10.52Zm.12-2a.26.26,0,0,0-.12-.24.3.3,0,0,0-.12.16c0,.16,0,.23.12.23S73.46,8.57,73.46,8.47ZM74,9.65a1,1,0,0,0-.25-.49c-.15-.17-.27-.17-.38,0a.18.18,0,0,0,0,.17.19.19,0,0,0,.18.1s.16.08.32.24S74.09,9.91,74,9.65Zm-.47.32c-.08.1-.08.18,0,.23s.22,0,.2-.15V10C73.69,9.84,73.62,9.84,73.54,10Zm.44.63s0,0-.1-.08l-.2-.06c-.07,0-.1,0-.1.06s.08.12.24.12S74,10.63,74,10.6Zm.27-2.45,0-.36v0a1.56,1.56,0,0,1,0,.68A1.11,1.11,0,0,1,74.25,8.15Zm.24,0V8.07l0,.28Zm0,28V36l.08.35Z" style="fill:#e60066"/><path d="M85.07,40.66c-.13,0-.21-.13-.23-.43,0-.15,0-.23.09-.26s.11,0,.11-.07c0-.21-.13-.22-.32,0s-.26.33-.12.37.1.08,0,.1-.14.11-.11.3,0,.29,0,.29-.17-.1-.19-.34a.89.89,0,0,0-.3-.64c-.26-.22-.4-.26-.41-.14a.09.09,0,0,0,0,.08c0,.06,0,.19-.08.39a1.59,1.59,0,0,0-.12.4c0,.2,0,.21-.08,0a3.67,3.67,0,0,0-.13-.52.67.67,0,0,0-.17-.39c-.08-.05-.15,0-.22.07a1,1,0,0,0-.15.46l-.07.5c0-.44-.09-.68-.15-.7s-.06,0-.11.1a1.15,1.15,0,0,0-.15.82q0,.54,0,.54t-.24-1.23c0-.36-.08-.44-.14-.26s-.11.18-.12.06-.12-.17-.31,0a.25.25,0,0,0-.06.19c0,.09,0,.12-.11.1s-.08,0-.08,0a1.5,1.5,0,0,0,.06.22q.08.35,0,.36c-.06,0-.11,0-.15.1a.21.21,0,0,1-.09-.13c0-.14-.08-.23-.18-.25s-.13,0-.13-.07-.08-.18-.21-.07a.53.53,0,0,0-.09.23l-.2-1.19q-.21-1.77-.8-6t-.76-5.64q-.78-6-1.4-12.33a30.32,30.32,0,0,1-.24-3.21c0-.24.13-.37.28-.38s.24-.07.23-.16-.07-.1-.16,0a.12.12,0,0,1-.14,0,.28.28,0,0,1-.1-.15l-.08-.28a2.26,2.26,0,0,1-.09-.44,2.19,2.19,0,0,1,0-.34c0-.05.06-.06.14,0s.16,0,.15-.1a1,1,0,0,0-.16-.39c-.06,0-.09-.27-.11-.66s0-.59.11-.59,0,.14,0,.44a.19.19,0,0,1,0,.1v.09a1.25,1.25,0,0,0,.29.6,1.21,1.21,0,0,1,.3.55c0,.24.09.28.21.11s.07-.3-.06-.53-.12-.3-.07-.31.2.21.34.64l.24.43V11c0-.1,0-.14.07-.15a.49.49,0,0,0,.24.29c.13.08.22.09.26,0a3.06,3.06,0,0,0,.05-.74,1.79,1.79,0,0,1,.09-.75c.1,0,.12-.1.05-.27s-.05-.14,0-.16,0,0,.11.1a.69.69,0,0,1,0,.29c0,.14,0,.2.08.2s.07,0,.12,0,.07-.06.07-.09,0-.11.19-.07.16,0,.15-.06,0-.07,0-.13,0-.26.11-.25a.43.43,0,0,1,.31.12c.06.06.09,0,.07-.09,0-.33,0-.49,0-.5s.05,0,.09.13a.34.34,0,0,1,.07.17,1.15,1.15,0,0,1,0,.22l0,.09c.16,0,.28-.16.36-.44,0-.09,0-.14.06-.14s.05,0,.05.13a.47.47,0,0,0,.21.29c.13.11.19.21.17.3a.15.15,0,0,1-.17.13q-.14,0-.12.12a.49.49,0,0,0,.2.3.52.52,0,0,1,.22.38q0,.32.12,0c.06-.18.1-.22.11-.1a1.76,1.76,0,0,0,.12.37c.07.19.12.34.16.46a.41.41,0,0,1,0,.31c-.1.07-.15.06-.16,0s-.06-.1-.14-.05-.09.1,0,.16c.28.18.54,1.44.77,3.78q.48,5,2.1,17.1.54,3.9.76,6.16C85.25,40,85.23,40.64,85.07,40.66ZM77.23,9.85c-.19,0-.21-.12-.06-.22s.2-.05.22.16S77.34,9.9,77.23,9.85Zm.07,1.07c0,.15,0,.22.06.22l0-.36A.2.2,0,0,0,77.3,10.92Zm.63,1.6c0-.18-.09-.28-.23-.3s-.08.06-.1.15c-.12.43-.09.63.1.62s.07-.06.06-.14,0-.14.07-.15S77.94,12.63,77.93,12.52Zm-.21-.93s-.08,0-.09-.12,0-.13-.09-.13-.15.12-.05.32.13.15.21.12.16,0,.17.11.06.22.14.21.18.2.22.61c0,.21,0,.31.07.31l0-.14c0-.21.08-.3.13-.28s0,0,.06,0a.77.77,0,0,0,0-.18.75.75,0,0,0-.1-.17s-.09,0-.19-.11l-.31-.35C77.81,11.65,77.75,11.59,77.72,11.59Zm0-1.75a.39.39,0,0,1,0-.2s.05,0,.11.11l.28.22a1.6,1.6,0,0,1,.33.3.64.64,0,0,1,.15.34c0,.15,0,.24,0,.28s-.07,0-.14-.12a.64.64,0,0,1-.06-.22l-.06-.26s-.07,0-.14,0a.49.49,0,0,1-.21-.16A.74.74,0,0,1,77.75,9.84ZM78.87,12c0-.12-.1-.2-.26-.25l-.24,0,.26.19C78.8,12.09,78.88,12.09,78.87,12Zm-.1,1a2.57,2.57,0,0,0,.06-.28.12.12,0,0,0-.11.15C78.73,13,78.75,13,78.77,13Zm.37-.67-.06-.22c-.2.11-.31.21-.32.31a.42.42,0,0,0,.21.11C79.1,12.54,79.16,12.47,79.14,12.35Zm-.63-2.81c0-.09,0-.15,0-.18l.07.31v0S78.55,9.66,78.51,9.54Zm1.11,2.81s0-.08,0-.15A2.77,2.77,0,0,0,79.4,12a.66.66,0,0,1-.12-.24l-.06-.17,0,.05c0,.06-.06.08-.11.05s-.1,0-.12,0,.13.32.45.59C79.53,12.38,79.6,12.41,79.62,12.35Zm-.15-2c0-.09-.07-.14-.19-.16a.29.29,0,0,1-.24-.15c-.09-.15-.16-.15-.2,0s0,.17.15.32.27.22.38.21S79.48,10.51,79.47,10.39Zm-.22.61c0-.21,0-.32-.07-.33s-.09,0-.19.08,0,.19.07.35S79.28,11.26,79.25,11Zm.22,2.62q0-.13-.09-.12l-.11.1A.41.41,0,0,0,79.47,13.62Zm-.24-4.5c0-.09,0-.14,0-.14l.07.26v0s0,0-.06,0A.33.33,0,0,1,79.23,9.12Zm.19-.47c0-.15,0-.17.11-.06a.55.55,0,0,0,0,.13.13.13,0,0,1,0,.14C79.54,8.86,79.49,8.79,79.42,8.65Zm.72,1.27A.49.49,0,0,0,80,9.58c-.12-.07-.22,0-.31.12a.94.94,0,0,0-.07.46c0,.15.05.14.11,0a.35.35,0,0,1,.15-.08l.22-.07C80.11,10,80.14,10,80.14,9.92Zm.08,2.51c-.07-.2-.15-.32-.23-.34s-.12,0-.12,0,.06.18.24.34.17.15.17.14A.53.53,0,0,0,80.22,12.43Zm.12-1.63a.12.12,0,0,0,0-.11l-.12,0a.34.34,0,0,1-.17-.14c-.1-.17-.16-.21-.17-.12a.4.4,0,0,0,.2.43C80.26,11,80.36,11,80.34,10.8Zm.09.84a.13.13,0,0,0-.14-.12.14.14,0,0,1-.16-.07l0-.09a.29.29,0,0,0,0,.14.31.31,0,0,0,.23.29Q80.44,11.82,80.43,11.64Zm2.68,27.55a1,1,0,0,0-.25-.07c0,.12.06.18.14.17S83.11,39.25,83.11,39.19Zm-3-31.33c0-.14,0-.22,0-.22l.07.31V8A.48.48,0,0,1,80.1,7.86Zm.61,4.29c0-.11,0-.17,0-.17l-.14.28.09,0C80.69,12.29,80.72,12.24,80.71,12.15Zm-.1-2.32a.33.33,0,0,0-.15-.25.29.29,0,0,0-.1.19c0,.18.07.26.15.25S80.62,10,80.61,9.83Zm.68,1.28a1.41,1.41,0,0,0-.31-.53c-.17-.18-.29-.16-.37.06a.21.21,0,0,0,0,.2.19.19,0,0,0,.19.09s.17.08.34.24S81.39,11.4,81.29,11.11Zm-.44.4c-.07.13-.06.22,0,.27s.23,0,.18-.2v-.09C81,11.35,80.91,11.36,80.85,11.51Zm.5.67s0,0-.11-.08a.65.65,0,0,0-.2,0c-.07,0-.1,0-.09.07s.09.13.25.11S81.35,12.21,81.35,12.18Zm0-2.78V9a1.9,1.9,0,0,1,.08.76A1.16,1.16,0,0,1,81.36,9.4Zm.24,0,0-.13.07.31Zm3.06,31.45,0-.17.12.39A1.56,1.56,0,0,0,84.66,40.87Z" style="fill:#e60066"/><path d="M91.92,16.58a1.78,1.78,0,0,1,.63-.08,12.35,12.35,0,0,1,2.29.23q4.62.84,7,5.89A11.29,11.29,0,0,1,102.5,27a15.13,15.13,0,0,1-1.07,6.09,1.87,1.87,0,0,0-.23.71c0,.1,0,.15-.08.15s-.17.15-.28.44a9,9,0,0,1-.71,1.1q-2.88,4-6.87,4a6,6,0,0,1-3.3-1,6.72,6.72,0,0,1-2.39-2.71,6,6,0,0,1-.51-1.3,2.17,2.17,0,0,0-.2-.79,8.93,8.93,0,0,1-.28-2.57,14.25,14.25,0,0,1,.24-2.8q.2-1,.57-2.28a6.57,6.57,0,0,1,.54-1.48,3.82,3.82,0,0,0,.35-.75,7.23,7.23,0,0,1,.36-.79.8.8,0,0,0,.16-.39.33.33,0,0,1,.07-.24c.06,0,.16-.17.3-.43a6.51,6.51,0,0,0,.3-.6.29.29,0,0,1,.31-.19c.13,0,.19-.07.16-.2a.5.5,0,0,1,.08-.36,1.31,1.31,0,0,1,.3-.39c.11-.11.2-.13.25-.08s0,0,0-.08a.07.07,0,0,1,.08-.08c.11,0,.17-.06.2-.2l0-.27c.37.37.55.49.55.35s0-.15-.12-.15-.12-.08-.12-.24,0-.2.12-.2.12-.06.12-.2,0-.22.16-.12.16.09.16,0a1.57,1.57,0,0,0,0-.25c0-.11,0-.16.12-.16s.1,0-.08-.12-.17-.06-.2,0-.13,0-.24-.16-.14-.15-.12-.15a.24.24,0,0,1,.12,0,.36.36,0,0,0,.32,0,.38.38,0,0,1,.31,0q.24,0,.3-.24a1.14,1.14,0,0,0,0-.55l-.08-.32s-.08.09-.08.28c0,.39-.15.46-.47.19a.87.87,0,0,1-.4-.63c0-.18,0-.22.12-.1s.12.12.12,0,0-.13.06-.15a.17.17,0,0,1,.16,0A.58.58,0,0,0,91.92,16.58Zm-1.39,5.13,0,.24a1.08,1.08,0,0,0,0-.44A1,1,0,0,0,90.53,21.71Zm.36-3.24s-.07-.08,0-.16l.08-.11s.08.05.08.15ZM91.24,21c0-.21-.07-.22-.23,0s-.15.28,0,.28S91.24,21.16,91.24,21Zm.24-.28c0-.15,0-.23-.12-.23s-.08,0-.08.1a.65.65,0,0,0,0,.19c0,.07.06.1.08.1S91.48,20.83,91.48,20.72Zm.4-.23c.26,0,.3-.19.11-.56-.07-.15-.13-.15-.15,0s-.07.15-.12.12-.06,0-.1,0a.27.27,0,0,0-.06.16C91.56,20.41,91.67,20.49,91.88,20.49ZM92,17.33a.3.3,0,0,0-.23-.32c-.11,0-.16,0-.16.08a.58.58,0,0,0,.16.32C91.92,17.56,92,17.54,92,17.33Zm2.89,5a.42.42,0,0,1,.12.4c0,.13-.1.05-.28-.24s-.3-.42-.36-.32,0,.24.2.48.23.42,0,.39-.09,0-.12,0a.54.54,0,0,0,0,.22c0,.13,0,.2-.11.2s-.12.09-.12.2a.41.41,0,0,1-.12.31,8,8,0,0,0-1.31,2.45,10.39,10.39,0,0,0-.94,4,6.4,6.4,0,0,0,.55,3.32,1,1,0,0,0,.87.43,3.18,3.18,0,0,0,2.13-1.14c.34-.35.52-.54.52-.6a1.35,1.35,0,0,1,.27-.51,9,9,0,0,0,1.07-4.74A6.55,6.55,0,0,0,96.58,24a5.38,5.38,0,0,0-.89-1.18c-.38-.4-.67-.6-.85-.6A.24.24,0,0,0,94.88,22.34Zm-2.37-2.92a.7.7,0,0,1-.12-.24c0-.21-.15-.23-.28-.08s-.11.24,0,.32a.58.58,0,0,0,.38.12C92.57,19.54,92.59,19.5,92.51,19.42Zm-.16.95a.14.14,0,0,0,.06-.16,2,2,0,0,0-.06-.28c0-.1,0-.15-.08-.15s0,.09,0,.27S92.27,20.37,92.35,20.37Zm1.74,2.68c0-.23-.07-.26-.2-.08s0,.18.12.2A.36.36,0,0,1,94.09,23.05Zm.24-1.1c0-.08-.07-.12-.2-.12a.22.22,0,0,0-.16,0s0,.05.08.08S94.33,22.05,94.33,22Z" style="fill:#e60066"/><path d="M116,17.92a.23.23,0,0,0,.19-.13.86.86,0,0,0,.11-.24l0-.12s.12.05.2.15.14.16.16.16h0s0-.11,0-.24c0-.48-.07-.71-.18-.71s-.16-.09-.16-.27v-.28a2.47,2.47,0,0,1,.67,1.29.38.38,0,0,1-.07.22c-.05.06-.08.11-.07.14s.07.19.2.19.22-.5.19-1.47v-.24l0,.16c.06.13.12.19.17.19l0,0h0s.08,0,.08.11,0,.2-.15.21-.08,0-.08,0,0,.06.08.11a.63.63,0,0,1,.18.43c0,.08,0,.12-.08.12h-.12a.69.69,0,0,0,.11.19c.07.11.11.16.14.16s0-.06,0-.16,0-.09.11-.18a.46.46,0,0,0,.11-.23s0-.07,0-.07-.17-.14-.17-.35,0-.2.11-.2.12.06.12.19a1.36,1.36,0,0,0,.13.31.8.8,0,0,1,.13.35c0,.05,0,.1-.11.14s-.12.08-.12.11.07.05.18.09.19.08.19.13l0,0c0,.06,0,.08.08.08h0a12.61,12.61,0,0,0,1.19-1.07l1.11-1.06a3.22,3.22,0,0,0,.42-.34,5.63,5.63,0,0,1,1.11-.66,11,11,0,0,1,1.46-.65,5.53,5.53,0,0,1,1.57-.25,3.67,3.67,0,0,1,1.55.31,5.42,5.42,0,0,1,1.09.63c.38.28.57.47.57.58s.1.22.28.6a4.19,4.19,0,0,1,.28.64v0l-.21-.35c-.14-.23-.22-.35-.25-.34s-.08.08-.07.24,0,.07,0,.13a.67.67,0,0,1,0,.18v.16l0,0s-.08-.06-.17-.17-.13-.18-.16-.18l0,0-.36-.18v0s0,0,0,0a.44.44,0,0,1,0,.15h0l-.17-.15a.94.94,0,0,0-.24-.11s0,.07,0,.2v.36c0,.07-.07.12-.23.12a.4.4,0,0,1-.24-.09.44.44,0,0,0-.16-.09.17.17,0,0,0-.19.2q0,.16.36.15c.21,0,.34.32.38.89v.08c0,.27,0,.4-.11.4s-.15-.11-.29-.33a1.43,1.43,0,0,0-.24-.32c-.06,0-.13.09-.21.26a1.06,1.06,0,0,0-.13.34l0,0a.37.37,0,0,1,.09-.16c.07-.08.11-.12.14-.12s.08.07.09.23a.91.91,0,0,1-.34.7,1.12,1.12,0,0,1-.74.32.21.21,0,0,1-.2-.11.22.22,0,0,0-.2-.11,2.37,2.37,0,0,0-1.2.63,14.35,14.35,0,0,0-1.4,1.33c-.55.59-.82.93-.82,1s0,0,0,0h-.08c-.11,0-.16.06-.16.17a.46.46,0,0,1-.22.4,1.18,1.18,0,0,0-.27.24,1.52,1.52,0,0,1-.27.63c-.19.31-.31.46-.36.46h0c-.08,0-.12.06-.12.17a.59.59,0,0,1-.18.44,1.59,1.59,0,0,0-.43,1.2s.06.63.2,1.81.26,2.54.39,4.08.21,2.75.24,3.64a5.61,5.61,0,0,1-.12,1.19c-.09.48-.17.72-.25.72s0,0,0-.11v0c-.1,0-.15.18-.13.55l-.37-.22a.67.67,0,0,1-.33-.46c0-.14-.05-.2-.12-.2s-.17-.26-.19-.78l-.1.4a1.24,1.24,0,0,1-.28.48c-.17.19-.29.29-.37.29s-.08,0-.08-.08,0-.16.11-.16a.11.11,0,0,0,.12-.12,1,1,0,0,0-.18-.41c-.11-.17-.2-.25-.28-.25s0,.07,0,.2,0,.24-.11.24-.12-.05-.13-.15,0-.2-.12-.2-.12.1-.11.28-.06.31-.17.84l-.18.56,0-.59c0-.77-.13-1.16-.24-1.18a1.56,1.56,0,0,0-.12-.11.2.2,0,0,0-.12-.08s0,.08,0,.24a.57.57,0,0,1,0,.22s-.06,0-.08,0a.06.06,0,0,0-.08,0s0,.09,0,.2c0,.26-.11.4-.35.41s-.23-.06-.24-.19,0-.1.15-.21,0,0,0,0a1.31,1.31,0,0,0-.31,0l-.2,0,0-1.66c-.06-.86-.18-2.27-.36-4.21s-.3-3.06-.33-3.35q-.12-1.21-.39-3.21c-.17-1.32-.29-2.39-.34-3.21a12.09,12.09,0,0,0-.22-1.65.67.67,0,0,1-.13-.39c0-.11,0-.16.08-.16l0,0h0s.07-.07.07-.2,0-.24-.09-.24h0v0c-.13,0-.2-.14-.21-.43,0-.1,0-.15.08-.16a.76.76,0,0,1,.2.17c.11.12.18.18.2.18s.08-.09.07-.24,0-.16-.08-.16l0,0h-.08s0,0,0-.07l0-.08c0-.16.07-.26.07-.28a.79.79,0,0,1,.2.27,1.62,1.62,0,0,1,.18.62v.36c0,.42.05.63.1.63v0a.27.27,0,0,1,.23-.17c.11,0,.16,0,.16-.08s-.06-.13-.19-.23a.43.43,0,0,1-.18-.31.36.36,0,0,1,.22-.33s0,0-.08,0-.16-.09-.16-.27,0-.24.11-.24.12,0,.12.15,0,.12.12.11a.11.11,0,0,0,.12-.12.42.42,0,0,0,0-.12.24.24,0,0,1,0-.11c0-.08,0-.12.11-.13s.08,0,.08-.12a1.26,1.26,0,0,0-.13-.33,1.16,1.16,0,0,1-.13-.29v0a4.12,4.12,0,0,0,.57.5c.08,0,.12-.07.11-.21v-.15l.32.3c.11,0,.16-.1.15-.28s0-.12,0-.12.12.14.13.43v.08A.45.45,0,0,0,116,17.92Zm-1,1.14q0-.24-.09-.24a.32.32,0,0,0-.19.13.3.3,0,0,0-.11.24q0,.15.24.15C115,19.33,115.07,19.24,115.07,19.06Zm0,2.84c0-.08-.05-.11-.16-.11s-.11,0-.11.12a.11.11,0,0,0,.12.12C115,22,115.05,22,115,21.9Zm0-3.71c0,.23.08.35.21.35s0-.07,0-.2-.06-.24-.17-.23S115.08,18.13,115.08,18.19Zm.38-.45s-.07,0-.12.08a1.19,1.19,0,0,0,.19.29,1,1,0,0,1,.19.33v0l0,0h.08s0,0,0-.12a1.26,1.26,0,0,0-.12-.41C115.61,17.82,115.54,17.74,115.46,17.74Zm.16,1.42c0,.23.11.35.29.34s0-.08,0-.24-.06-.35-.17-.35a.17.17,0,0,0-.15.13Zm0-2.18,0-.12s0,.07,0,.2v.08l0,0s0-.05-.05-.16ZM117,37.84s0,.06.05.16v.12h0s0,0,0-.16Zm-.69-20.6v-.36s.08.07.09.2v.12Zm.38.74c0-.08-.08-.12-.24-.11s0,0,0,0,0,.15.13.15S116.65,18,116.65,18Zm.4,1.17c0-.11,0-.16-.13-.16s-.11,0-.11.05.07.19.2.19S117.05,19.2,117.05,19.15Zm.1-.4a.11.11,0,0,0,.12-.12.12.12,0,0,0-.13-.12.12.12,0,0,0-.11.13C117,18.71,117.07,18.75,117.15,18.75Zm0-1.9V16.7c.06,0,.08.06.09.19l0,.08v0S117.13,17,117.13,16.85ZM118,37.26c0,.18,0,.27-.11.28h0v0c0-.19,0-.28.15-.28Zm-.6-18c.08,0,.11-.09.11-.24a0,0,0,0,0,0,0,.14.14,0,0,0-.16.16C117.29,19.22,117.31,19.26,117.37,19.26Zm.41-.61v0c0,.08,0,.12,0,.12s0,0,0-.12v-.12l0,0A.16.16,0,0,0,117.78,18.65Zm.63-.06a.11.11,0,0,0-.12-.12c-.11,0-.16.05-.15.13s0,.11.16.11S118.41,18.67,118.41,18.59Zm1.23,19.05v0c0,.08,0,.12,0,.12s.07,0,.07-.16v0l0,0,0-.11A.54.54,0,0,0,119.64,37.64Zm.11-14.39a.11.11,0,0,0-.12-.12c-.08,0-.12.06-.11.16s0,.16.08.16S119.76,23.38,119.75,23.25Zm0,1.14c.06-.08.1-.13.1-.16s-.05-.11-.13-.25-.14-.21-.17-.21,0,.06,0,.2v.27c0,.26,0,.4.09.39v0A1.08,1.08,0,0,1,119.77,24.39Zm.4-.56c.08,0,.11,0,.11-.13s0-.11,0-.11-.07,0-.12.08a.19.19,0,0,0-.07.12S120.09,23.83,120.17,23.83Zm.17-.68h.12c0-.1-.07-.15-.2-.15s-.08,0-.08,0S120.24,23.13,120.34,23.15Zm6-4.87c0-.1-.07-.15-.2-.15s-.16,0-.15.09.09.15.28.14S126.39,18.34,126.38,18.28Zm.74-1.48c.11,0,.16,0,.16-.09a.16.16,0,0,0-.12,0h0c-.08,0-.12,0-.12.08Z" style="fill:#e60066"/><path d="M132.17,18.26a2.15,2.15,0,0,1,.63-.08,11.6,11.6,0,0,1,2.3.24q4.62.82,7,5.88a11.34,11.34,0,0,1,.71,4.43,15.26,15.26,0,0,1-1.07,6.08,1.81,1.81,0,0,0-.24.71c0,.11,0,.16-.07.16s-.18.14-.28.43a8.78,8.78,0,0,1-.71,1.11q-2.88,4-6.87,4a6,6,0,0,1-3.3-1,6.55,6.55,0,0,1-2.39-2.7,6.31,6.31,0,0,1-.52-1.31,2.17,2.17,0,0,0-.19-.79,8.51,8.51,0,0,1-.28-2.56,14.36,14.36,0,0,1,.24-2.81c.13-.66.32-1.41.57-2.27a6.91,6.91,0,0,1,.53-1.48,3.56,3.56,0,0,0,.36-.75,7.11,7.11,0,0,1,.35-.79.74.74,0,0,0,.16-.4.32.32,0,0,1,.08-.23,1.58,1.58,0,0,0,.3-.44,6,6,0,0,0,.29-.59.32.32,0,0,1,.32-.2c.13,0,.18-.06.16-.2a.48.48,0,0,1,.08-.35,1.33,1.33,0,0,1,.29-.4c.12-.1.21-.13.26-.07s0,0,0-.08,0-.08.08-.08.17-.07.2-.2l0-.28c.36.37.55.49.55.36s0-.16-.12-.16-.12-.08-.12-.24,0-.19.12-.19.12-.07.12-.2,0-.22.16-.12.15.09.15,0a1.48,1.48,0,0,0,0-.26c0-.1,0-.15.11-.15s.11,0-.08-.12-.17-.07-.19,0-.14,0-.24-.16-.14-.16-.12-.16a.41.41,0,0,1,.12,0,.36.36,0,0,0,.32,0,.48.48,0,0,1,.31,0q.24,0,.3-.24a1.14,1.14,0,0,0,0-.55l-.08-.31s-.08.09-.08.27c0,.4-.16.46-.47.2a.84.84,0,0,1-.4-.63c0-.19,0-.22.12-.1s.12.11.12,0a.18.18,0,0,1,.06-.16.26.26,0,0,1,.16,0A.4.4,0,0,0,132.17,18.26Zm-1.38,5.14,0,.23a1,1,0,0,0,0-.43A.54.54,0,0,0,130.79,23.4Zm.36-3.24c-.06,0-.07-.08,0-.16l.08-.12c.05,0,.07.05.07.16Zm.35,2.53c0-.22-.08-.23-.24,0s-.14.27,0,.27S131.5,22.84,131.5,22.69Zm.24-.28q0-.24-.12-.24c-.05,0-.08,0-.08.1a.48.48,0,0,0,0,.2c0,.06,0,.1.08.1S131.74,22.51,131.74,22.41Zm.39-.24c.27,0,.31-.18.12-.55-.08-.16-.13-.16-.16,0s-.06.14-.11.12-.06,0-.1,0a.24.24,0,0,0-.06.15C131.82,22.09,131.92,22.17,132.13,22.17Zm.12-3.16a.3.3,0,0,0-.23-.31c-.11,0-.16,0-.16.07a.55.55,0,0,0,.16.32C132.17,19.25,132.25,19.22,132.25,19Zm2.89,5a.38.38,0,0,1,.11.39c0,.14-.09.06-.27-.23s-.31-.42-.36-.32,0,.24.2.47.22.43,0,.4a.08.08,0,0,0-.12,0,.39.39,0,0,0,0,.22c0,.13,0,.19-.12.19a.19.19,0,0,0-.12.2.48.48,0,0,1-.11.32A7.65,7.65,0,0,0,133,28.14a10.33,10.33,0,0,0-.95,4,6.35,6.35,0,0,0,.56,3.32,1,1,0,0,0,.87.44,3.2,3.2,0,0,0,2.13-1.15,2.48,2.48,0,0,0,.51-.59,1.28,1.28,0,0,1,.28-.51,9,9,0,0,0,1.07-4.74,6.41,6.41,0,0,0-.68-3.24,5.12,5.12,0,0,0-.89-1.19c-.38-.39-.66-.59-.84-.59A.24.24,0,0,0,135.14,24Zm-2.37-2.92a.83.83,0,0,1-.12-.24c-.06-.21-.15-.24-.28-.08s-.11.24,0,.32a.61.61,0,0,0,.38.11C132.83,21.22,132.84,21.18,132.77,21.11Zm-.16.94s.07-.08.06-.15,0-.18-.06-.28-.06-.16-.08-.16,0,.09,0,.28S132.53,22.05,132.61,22.05Zm1.74,2.69c0-.24-.07-.26-.2-.08s0,.17.12.2A.28.28,0,0,1,134.35,24.74Zm.23-1.11c0-.08-.06-.12-.2-.12a.25.25,0,0,0-.15,0s0,.06.08.08S134.58,23.74,134.58,23.63Z" style="fill:#e60066"/><path d="M145.37,27.27s0,.06,0,.19v.08l0,0s0,0,0-.16Zm.78,9.63a1.62,1.62,0,0,1,.1-.23.77.77,0,0,0,.1-.28s0,0,0,0,0,0,0,0a.88.88,0,0,0,0-.18c0-.09,0-.22,0-.39s0-.31,0-.42c0-1.34-.12-2.58-.21-3.73s-.16-2.22-.18-3.22a9.11,9.11,0,0,0-.16-1.89.32.32,0,0,1-.12-.28c0-.1,0-.16.08-.16l0,0h.08s0,0,0-.08a.17.17,0,0,0-.12-.19c-.08,0-.12-.46-.12-1.31,0-.34,0-1.17,0-2.49s0-2.21,0-2.68.07-.87.2-.95a.1.1,0,0,0-.08,0c-.1,0-.16-.12-.16-.36s0-.27.08-.27h.08l.08,0a1.22,1.22,0,0,1-.24-.67c0-.16,0-.24,0-.24l.08.08a.14.14,0,0,0,.12.08l.08-.24c.05-.13.09-.2.12-.2s.15.17.29.5a2.23,2.23,0,0,1,.22.61c0,.1,0,.16-.08.16h0l0,0s-.07,0-.07.12.07.31.23.31h.12a.93.93,0,0,0,.08-.51,1.33,1.33,0,0,0-.12-.71.48.48,0,0,1-.16-.28.07.07,0,0,1,.08-.08s.07,0,.12.1.09.1.12.1,0,0,0,0,0,0,0,0,.12.25.12.75v.2c0,.31,0,.47,0,.47h0a1.25,1.25,0,0,1,.29.22,1.3,1.3,0,0,0,.3.22v0l-.12-.24a.92.92,0,0,1-.12-.36q0-.15.12-.15c.05,0,.08,0,.08-.12s0-.21,0-.38a2.63,2.63,0,0,1,0-.29V17l0-.08s0,.08-.12.16-.13.12-.16.12-.12-.07-.11-.2a1.19,1.19,0,0,1,.43-.79v.24q0,.15-.12.15h0a.07.07,0,0,0-.08.08s0,0,.12,0h.32c.13,0,.19.07.19.2s-.05.24-.15.24-.08.05-.08.15.08.32.23.32.12-.1.12-.32,0-.44.12-.47,0,0,0-.08a2.2,2.2,0,0,0-.08-.26,1.17,1.17,0,0,1-.08-.29c0-.11,0-.17,0-.18a.16.16,0,0,0-.1,0,.17.17,0,0,1-.19-.12v-.12a0,0,0,0,1,0,0l0,0h.11s0,0,0,0v-.07a.26.26,0,0,1,0-.16h0c.08,0,.19.17.34.51a5.8,5.8,0,0,1,.26.71v-.24q0-.27-.12-.27a0,0,0,0,1,0,0s0-.07.08-.14a.29.29,0,0,0,.08-.14s0,0-.08,0-.12-.06-.12-.19,0-.2.08-.2.27.25.35.75c0,.21.07.31.12.31s0-.06,0-.19,0-.2.12-.2h0c.05,0,.08,0,.08,0a.11.11,0,0,0-.12-.12c-.08,0-.12-.1-.12-.31v0l0-.2,0,.16c0,.1.1.15.16.15s.08.08.1.22,0,.29,0,.44,0,.23,0,.25.07-.18.07-.55,0-.59.12-.59a.34.34,0,0,1,.08.27,1.34,1.34,0,0,1-.08.48c.16-.32.25-.48.28-.48l.16.24c.08.16.14.24.19.24l.2-.24s0,.12,0,.36v.19a7.69,7.69,0,0,0,1-.67.75.75,0,0,1,.47-.27c.06,0,.16-.07.32-.2s.26-.2.32-.2h0a.93.93,0,0,0,.36-.18,1.05,1.05,0,0,1,.32-.17,8.88,8.88,0,0,1,1.58-.16,1.66,1.66,0,0,1,1.18.35.34.34,0,0,0,.2.12v0h0a1.59,1.59,0,0,1,.55.32,1.84,1.84,0,0,0,.59.35c.19,0,.46-.18.83-.55a10.47,10.47,0,0,1,2.93-1.3,7.71,7.71,0,0,1,2.33-.36,5.75,5.75,0,0,1,1.69.24q.75.19.87.39a.24.24,0,0,0,.2.12c.16,0,.49.28,1,.83a6.08,6.08,0,0,1,1,1.34,17.27,17.27,0,0,1,1,6.64q0,2.1-.12,6.91a45.1,45.1,0,0,1-.19,4.7.22.22,0,0,0,0,.16.45.45,0,0,0,0,.18.63.63,0,0,1,0,.14c0,.21-.07.31-.2.31h-.08v.08c0,.08,0,.2,0,.38s0,.27,0,.29l-.32-.35a.93.93,0,0,1-.19-.52v0s0,0,0,0,0,0,0,0l0,0s0,0,0,0a.5.5,0,0,0-.06.26,3.24,3.24,0,0,0,0,.44c0,.14,0,.21,0,.21s-.12,0-.12-.15,0-.2-.12-.2l-.35-.71c-.11.47-.2.71-.28.71s-.12-.11-.12-.32v-.16c0,.16-.05.24-.16.24s-.26-.14-.55-.43v.31c0,.24-.05.36-.16.36s-.08-.06-.08-.16l0-.08v-.12a.54.54,0,0,0,0-.2l0,0-.12.11a.52.52,0,0,0-.11.26,2.21,2.21,0,0,0-.06.32c0,.09,0,.13-.06.13a1.79,1.79,0,0,1-.26-.57,1.79,1.79,0,0,0-.26-.57c0,.08,0,.12-.08.12L165,35l-.12-.08s0,0,0,.08v.27c0,.06,0,.08,0,.08l-.12-.08a.37.37,0,0,0-.16-.07l-.08,0s0,0,0,0,.16.23.16.52v0l0,.43c-.16-.55-.32-.83-.47-.83s-.08,0-.08.12a.11.11,0,0,0,.12.12c.08,0,.11.09.11.28s0,.19,0,.19A.41.41,0,0,1,164,36a4.17,4.17,0,0,1-.2-1.86c0-1.08,0-2.94,0-5.57s0-4.54,0-5.73a16,16,0,0,0-.2-3.63c-.18-.32-.33-.47-.43-.47a3.56,3.56,0,0,0-1.34.33,4.27,4.27,0,0,0-1.15.65c-.66.61-1.08.91-1.26.91s-.08.08-.08.24a3.64,3.64,0,0,0,.16,1.06,34.46,34.46,0,0,1,.23,5.34q0,1.26-.18,3.75c-.11,1.66-.19,2.63-.21,2.92a.51.51,0,0,1-.14.34.19.19,0,0,0-.1.18.77.77,0,0,0,0,.27l.08.52c-.34-.35-.51-.56-.51-.64a.11.11,0,0,0-.12-.12c-.08,0-.12-.07-.12-.23s0-.24-.12-.24l0,0h0c-.1,0-.16.09-.16.12a0,0,0,0,0,0,0,.34.34,0,0,1,.2.35c0,.19-.05.28-.16.28s-.12,0-.12.16,0,.2.08.2.09,0,.2.15.16.19.16.24v0a.12.12,0,0,0-.08,0h-.08c-.08,0-.15.07-.2.2l0,.08V35.8a.27.27,0,0,0,0-.12v-.12a.41.41,0,0,0-.16-.3.4.4,0,0,1-.15-.29c0-.16.05-.25.15-.28s.08,0,.08-.08,0-.1-.12-.15-.11-.1-.11-.12a.64.64,0,0,1,.08-.22.78.78,0,0,0,.07-.22s0-.08,0-.08-.1.08-.15.24l-.12.28s-.06-.09-.08-.26-.07-.26-.12-.26-.24.06-.24.16a.07.07,0,0,0,.08.08c.11,0,.16.18.16.4s0,.27-.12.27-.12-.08-.12-.24,0-.23-.11-.23S157,34.17,157,34s0-.24-.12-.24-.24.11-.24.32v.28c-.16-.34-.27-.52-.35-.52s-.12.18-.12.52v.27l0,.08,0,.08-.08-.2c0-.13,0-.19-.08-.19s0,0,0-.12a1.94,1.94,0,0,0,0-.24.21.21,0,0,0-.1-.16.28.28,0,0,1-.2-.27c0-.14,0-.2.08-.2l0,0h0c.11,0,.16-.08.16-.24l0-.08V33l0-.08c-.05,0-.12.12-.22.34a1.63,1.63,0,0,0-.13.61c0,.19,0,.28,0,.28l-.2-.2v.36q0,.27-.12.27s-.07,0-.12-.15l-.08-.12a.25.25,0,0,0,0,.15c0,.29-.08.44-.23.44s0,0,0-.12,0-.08,0-.08h0v0a1.07,1.07,0,0,0,.16.36,1.08,1.08,0,0,1,.15.35v0h-.08s-.07-.07-.13-.22-.12-.21-.14-.21h0c-.29,0-.44-.13-.44-.4,0-.1,0-.16.12-.16h.12c.08,0,.12-.06.12-.19s.05-.28.16-.28.2,0,.2-.12,0,0-.08,0l-.48.16a.65.65,0,0,1,0-.24c0-.52.07-1.47.2-2.84,0-.58.08-1.74.08-3.48a54.1,54.1,0,0,0-.24-5.57c-.05-.47-.1-.71-.16-.71s-.07,0-.07-.15a1,1,0,0,1,0-.2c0-.11,0-.19,0-.24s0-.2-.08-.2-.16.08-.16.24,0,.12,0,.12h-.08c-.08,0-.24.12-.49.35s-.38.41-.38.52,0,.08,0,.08h-.08s-.12.1-.2.29-.13.3-.15.3-.12.05-.12.16a.11.11,0,0,1-.12.12H152l0,0c-.08,0-.12.12-.12.35s0,.28-.08.28a.12.12,0,0,1-.08,0l0-.08s0,.08,0,.24,0,.21-.1.23a.45.45,0,0,1-.18,0,.07.07,0,0,0-.08.08s0,0,0,0,0,0,0,0v.12c0,.11,0,.16-.08.16a.11.11,0,0,1-.12-.12c0-.08-.06-.14-.2-.2l-.07,0,0,0a1.49,1.49,0,0,0,.11.28,1,1,0,0,1,.12.31v.12a3.46,3.46,0,0,0-.08,1c0,.47.06,1.58.16,3.32.16,2.42.26,4.33.32,5.73l.12,2.37-.16.11-.24.16q-.12.07-.12.12h.16c-.24.16-.35.3-.35.43s0,.16-.08.16a.16.16,0,0,0-.16.14c0,.09-.05.14-.08.14s-.11-.13-.26-.4a1.45,1.45,0,0,0-.25-.39c-.08,0-.12,0-.12-.16a.29.29,0,0,1,.16-.28l0,0H150c-.11,0-.21.08-.3.25s-.18.26-.26.26-.15-.08-.15-.24-.12-.39-.36-.39-.24.06-.24.19h.08c.05,0,.08.06.08.16s0,.16-.08.16l-.23-.47a12.26,12.26,0,0,1-.52,1.42s0,0,0-.12,0-.22,0-.43,0-.33,0-.36c0-.61-.12-.91-.35-.91s-.14.07-.16.22a.61.61,0,0,1-.12.29.64.64,0,0,0-.2.44l0,.24a3.73,3.73,0,0,0-.43-.6c-.08,0-.12.06-.12.16s0,.12.08.12h.08s.08,0,.08.12,0,.16-.08.16c-.21,0-.32-.1-.32-.28a.19.19,0,0,0-.12-.18C146.19,37,146.15,37,146.15,36.9Zm-.67-20.73c.14,0,.2.13.2.39,0,.06,0,.08-.12.08s-.12-.09-.12-.27S145.46,16.17,145.48,16.17Zm.4,2H146a0,0,0,0,0,0,0,.56.56,0,0,0-.1-.16.3.3,0,0,0-.18-.11s0,0,0,.11S145.75,18.13,145.88,18.18Zm-.08-2.29,0-.08s.12.08.2.24a.93.93,0,0,1,.12.39l0,.12Zm.36,1.5c0-.08,0-.12,0-.12s-.16.07-.16.2,0,0,.08,0A.11.11,0,0,0,146.16,17.39Zm.23-1.42.08-.12c.05,0,.08.06.08.16l0,.12h0c-.05,0-.08,0-.08-.12Zm.08,2.88v.2c.05,0,.08-.08.08-.24l0,0v0A.24.24,0,0,0,146.47,18.85Zm.24-2.44v-.2s.08.08.08.23v.12l0,0A.38.38,0,0,1,146.71,16.41Zm.35-.28A.24.24,0,0,1,147,16c0-.1,0-.16.12-.16s0,.06,0,.16S147.12,16.13,147.06,16.13Zm0,1.62,0-.16s0,.07,0,.2v.12l0,0A.59.59,0,0,1,147.06,17.75Zm.24-2.25v-.16s.08.05.08.16l0,.15S147.3,15.6,147.3,15.5Zm.59,3.87a0,0,0,0,0,0,0l-.23-.48C147.7,19.2,147.76,19.37,147.89,19.37Zm0-.91v0a.11.11,0,0,0-.12-.12s0,0,0,.12,0,.16,0,.16S147.88,18.54,147.93,18.46Zm.59-.87c0-.21,0-.32-.11-.32s0,.06,0,.16c0,.29,0,.44.12.44S148.52,17.77,148.52,17.59Zm.36.16c0-.08,0-.12-.08-.12s-.12.07-.12.2,0,0,.08,0A.11.11,0,0,0,148.88,17.75Zm-.12-.48c0,.14.05.2.16.2s.16-.06.16-.2S149,17,148.92,17,148.76,17.12,148.76,17.27Zm.4-2.17s0,.05,0,.16v.12h0s0-.05,0-.16Zm.43,2.21,0,0s.07,0,.14-.1a.35.35,0,0,0,.1-.13v0l0,0Q149.59,17,149.59,17.31Zm.16-2.17V15c.08,0,.12.07.12.2v.12l0,0A.28.28,0,0,1,149.75,15.14ZM150,38.05a.12.12,0,0,1,0-.24c.08,0,.11,0,.11.12S150.07,38.05,150,38.05Zm.39-.28a1,1,0,0,0,.2-.23,0,0,0,0,0,0,0C150.43,37.5,150.38,37.59,150.38,37.77ZM150.93,23s-.09-.05-.19-.16v.08a.37.37,0,0,0,.12.22c.07.09.13.14.15.14s.08,0,.08-.12,0-.16-.08-.16Zm.2-.47c0-.27,0-.4-.16-.4s0,0,0,0,0,0,0,0,0,0,0,0c0,.26.07.4.2.4A.12.12,0,0,0,151.13,22.49Zm.59-1.19c0-.08,0-.12-.07-.12s-.12.07-.12.2,0,0,.08,0S151.72,21.38,151.72,21.3Zm2.33,14,0-.19s0,.08,0,.23v.12l0,0A.54.54,0,0,1,154.05,35.32Zm.87-.35a.11.11,0,0,1,.12-.12c.08,0,.12,0,.12.16s0,.16-.08.16S154.92,35.1,154.92,35Zm.24-2.33s.06.14.18.27.2.2.25.2,0-.06,0-.2-.07-.28-.23-.31h-.12C155.2,32.6,155.16,32.61,155.16,32.64Zm0,.63v0c0,.08,0,.12,0,.12s.08,0,.08-.12,0,0,0,0,0,0,0,0l0-.08A.16.16,0,0,0,155.16,33.27Zm.51,1.26v-.35c.06,0,.08.06.08.2v.11Zm.08.52c0-.29.06-.44.16-.44s.08,0,.08.12c0,.37-.07.55-.2.55S155.75,35.21,155.75,35.05Zm.12,1.14s0,.07-.08.12,0-.05,0-.16v0l0-.11C155.84,36,155.87,36.06,155.87,36.19Zm.83-1.38v.08c-.16,0-.24,0-.24-.16s0-.12,0-.12S156.65,34.68,156.7,34.81Zm.28-2.29v-.16c-.06,0-.16.08-.32.24a.16.16,0,0,0,.12,0C156.91,32.64,157,32.6,157,32.52Zm-.28.63.24.28a0,0,0,0,0,0,0c0-.18-.08-.28-.24-.28A0,0,0,0,0,156.7,33.15Zm.08,1.27,0-.2s0,.09,0,.27v.12l0,0S156.78,34.57,156.78,34.42Zm.67.86s-.14-.07-.28-.23a.76.76,0,0,1-.19-.32,0,0,0,0,1,0,0s.14.09.27.26a.91.91,0,0,1,.2.33Zm1.46.24q-.12,0-.27-.24a.68.68,0,0,1-.16-.35c0-.11,0-.16.08-.16s.16.08.16.24,0,.2.11.2.12.06.12.19S158.94,35.52,158.91,35.52Zm-.19.36,0-.16c.06,0,.08.08.08.24l0,.08h0s0,0,0-.12Zm6.51-1.5c0-.08,0-.12,0-.12a.14.14,0,0,0-.16.16s0,.07.08.07S165.23,34.46,165.23,34.38Zm1.35.47a.11.11,0,0,0-.12-.12c-.11,0-.16,0-.16.12s0,.12.16.12A.11.11,0,0,0,166.58,34.85Zm.75,0v0c0,.08,0,.12,0,.12s0,0,0-.12v-.12l0,0A.16.16,0,0,0,167.33,34.89Zm.51,2.09v-.35s.08.06.08.2v.11Zm.43-.55s0,.07-.08.12,0,0,0-.16v0l0-.12C168.25,36.23,168.27,36.3,168.27,36.43Z" style="fill:#e60066"/><path d="M174.67,21.89a.94.94,0,0,1-.2-.4c0-.08.07-.15.2-.22s.2-.12.2-.17a.38.38,0,0,1,.18-.3.58.58,0,0,1,.33-.14c.11,0,.16,0,.16-.08s0,0,0,0,.28-.34.85-.71a2.92,2.92,0,0,1,1.13-.55c.13,0,.19,0,.19-.08s.62-.43,1.86-.73a13.37,13.37,0,0,1,3-.45,12.82,12.82,0,0,1,2.93.47,4.78,4.78,0,0,1,.69.34,4.56,4.56,0,0,0,.57.29A3.36,3.36,0,0,1,188.22,21a6.18,6.18,0,0,1,.47,2.72c0,.58,0,.87-.11.87a0,0,0,0,0,0,0v0a.09.09,0,0,0,.07,0c.19,0,.28-.17.28-.51V24c0-.05,0-.08,0-.08a.28.28,0,0,1,.18.1.34.34,0,0,1,.1.22c0,.1,0,.15-.08.15h-.08c-.05,0-.08,0-.08.12s0,.2.12.2.12.2.12.59v0c0,.37-.06.56-.16.56l0,0h-.24a.46.46,0,0,1,.16.35s0,.13,0,.24,0,.25-.06.43,0,.36-.08.52a28.49,28.49,0,0,0-.27,4.1,20.89,20.89,0,0,0,.23,2.87,6.75,6.75,0,0,0,.52,2.07,1.4,1.4,0,0,1,.08.36,4.23,4.23,0,0,0,.29.75,3.71,3.71,0,0,1,.3.79,2,2,0,0,0,.06.27A1.64,1.64,0,0,1,190,39c0,.1,0,.16,0,.16s-.16-.07-.16-.2,0-.12-.08-.12-.28.13-.28.4l0,.08v.27c0,.05,0,.08,0,.08s-.15-.09-.15-.28a.89.89,0,0,0-.32-.55l-.32-.35a2.89,2.89,0,0,0-.11.63.76.76,0,0,0,0,.25,1.24,1.24,0,0,1,.06.22s0,0,0,0a1.26,1.26,0,0,1-.31-.26c-.19-.17-.3-.25-.36-.25a.31.31,0,0,0-.12.06.24.24,0,0,1-.15.06l-.14,0-.14,0,.36.67v0s-.14-.09-.32-.28v.12a.27.27,0,0,1-.08.16v0a1.32,1.32,0,0,0,.24.49,1.82,1.82,0,0,1,.23.42,0,0,0,0,1,0,0l-.9-1s-.08-.11-.22-.24-.23-.2-.26-.2v0a1,1,0,0,0,0,.24v.2q0,.24-.12.27a.16.16,0,0,0-.12.16l.12.12a.42.42,0,0,1,.12.32c0,.08,0,.11-.08.11a.11.11,0,0,0-.08,0h-.08a.13.13,0,0,0-.15.15s0,0,.08,0a.14.14,0,0,1,.15.16.24.24,0,0,1,0,.12l-.07.16a0,0,0,0,1,0,0c0-.06-.18-.24-.44-.56a14.46,14.46,0,0,1-1.5-4.1Q184,36,183.84,36h0a12.78,12.78,0,0,1-8.89,3.71,3.62,3.62,0,0,1-3-1.11,2,2,0,0,1-.64-.87,1.75,1.75,0,0,0-.27-.59,2.55,2.55,0,0,1-.12-1,5.35,5.35,0,0,1,.06-.84,3.46,3.46,0,0,1,.1-.5,3.66,3.66,0,0,1,.23-.51,3.5,3.5,0,0,0,.24-.51c.19-.4.3-.6.36-.6a.11.11,0,0,0,.12-.12c0-.13.27-.49.83-1.08a20.15,20.15,0,0,1,1.77-1.68,18.49,18.49,0,0,1,1.66-1.3.11.11,0,0,0,.12-.12c0-.08.07-.12.2-.12a.57.57,0,0,0,.39-.2c.11-.1.58-.45,1.42-1s1.64-1.15,2.61-1.89a8.87,8.87,0,0,0,1.34-1.25,3.49,3.49,0,0,0,.79-1c0-.11-.11-.16-.35-.16h-.63a4.73,4.73,0,0,0-2.57.67l-.28.16a5.4,5.4,0,0,0-.55.31q-.24.16-.24.24s0,0-.08,0h-.08l-.07,0c-.06,0-.08,0-.08.08s0,0,0,0,0,0,0,0a.24.24,0,0,0,0,.12l0,0a.12.12,0,0,0-.08,0l-.08,0c-.08,0-.12.09-.12.28v.19l-.16-.35,0,.08c0,.08-.06.11-.12.11a.11.11,0,0,0-.08,0c-.1-.06-.15-.11-.15-.16v-.28c0-.6,0-.91-.12-.91l0,0c-.05,0-.13-.07-.22-.22s-.15-.21-.18-.21h0v.08a1,1,0,0,0,.08.21.64.64,0,0,1,.08.26l0,0v0l-.08.12q-.27,0-.27-.63v-.16a.24.24,0,0,1,0-.12v-.08a.36.36,0,0,0-.08-.24h0c-.08,0-.12.06-.12.16a.37.37,0,0,1-.14.28c-.09.08-.14.14-.14.2a1,1,0,0,0,.12.23.7.7,0,0,1,.12.28l-.12.12c-.05,0-.08-.06-.08-.16a.77.77,0,0,0-.14-.4c-.09-.15-.16-.23-.21-.23l0,.08h0s0-.08,0-.24,0-.28-.12-.28,0,.06,0,.16c0,.5.05.75.16.75a.11.11,0,0,1,.12.12,0,0,0,0,1,0,0c-.08,0-.17-.07-.28-.2a.68.68,0,0,1-.16-.27c0-.14,0-.2-.11-.2s-.12-.07-.12-.2a.21.21,0,0,0-.24-.24c-.11,0-.16.07-.16.2s-.05.24-.16.24-.08.06-.08.2l0,.07v.12a.79.79,0,0,1,0,.28h0s0,0-.07-.08,0-.12,0-.3v-.47c0-.14,0-.22,0-.22s-.12-.08-.12-.23,0-.2,0-.2l.08.12c.08.1.15.15.23.15s.28-.14.28-.43A.87.87,0,0,0,174.67,21.89Zm-1.06,1.5c0-.11,0-.16,0-.16s.11.13.11.39v0h0C173.65,23.64,173.61,23.55,173.61,23.39Zm.15-.71h.16c.11,0,.16.19.16.51v.36c-.16-.48-.25-.74-.28-.79Zm.24-.12c-.1,0-.16-.07-.16-.2s.07-.12.2-.12.2-.1.2-.31,0-.28,0-.28.17.09.27.28a.92.92,0,0,1,.16.43c0,.16,0,.24,0,.24l-.16-.16c-.1-.11-.17-.16-.19-.16s-.12,0-.18.14S174,22.56,174,22.56Zm.91,1.26c-.11,0-.16-.08-.16-.24s.05-.35.16-.35.08.12.08.35S175,23.82,174.91,23.82Zm.51-1.38h.08s.07,0,.12.08l0,0a.22.22,0,0,0,0-.16v0c0-.13,0-.2-.12-.2h-.08s0,0,0,0,0,0,0,0-.08,0-.08,0V22c0-.18-.06-.27-.19-.27s-.16,0-.16,0a.12.12,0,0,1,.08,0s.08.1.16.29S175.37,22.44,175.42,22.44ZM175.11,24l0-.12s0,.07,0,.2v.08h0s0,0,0-.12Zm.35-1.19c0-.07,0-.11-.12-.11s-.11.06-.11.19,0,.12.07.12S175.46,23,175.46,22.83Zm-.12,1.43c0-.08,0-.12,0-.12s.2.09.2.27,0,.12,0,.12S175.34,24.44,175.34,24.26Zm.83-1.15a.34.34,0,0,0-.1-.2c-.06-.08-.12-.12-.17-.12v0a.45.45,0,0,0,.1.24c.06.11.11.16.13.16S176.17,23.19,176.17,23.11Zm0,1.5,0-.12c.06,0,.08.07.08.2l0,.08h0s0,0,0-.12Zm.75,0-.08.08s0,0,0-.12,0-.08-.07-.08-.16-.06-.16-.19v-.24C176.8,24.3,176.92,24.48,176.92,24.61Zm.28-.35,0-.12s0,.06,0,.2l0,.07s0,0,0-.11Zm0,.71,0-.12s0,.06,0,.2l0,.11v0s0-.06,0-.19Zm.47-1.42c0-.14,0-.2-.08-.2s-.06,0-.11.16v0a.1.1,0,0,0,.11.11C177.65,23.66,177.67,23.62,177.67,23.55Zm-.11.55,0,.16s0-.07,0-.2v-.12l0,0A.56.56,0,0,0,177.56,24.1Zm.86-.36c0-.1-.07-.16-.23-.16s-.12,0-.12.08.06.2.2.2S178.42,23.82,178.42,23.74Zm0-.91c0-.07,0-.11-.07-.11s-.12.06-.12.19,0,0,.08,0S178.42,22.91,178.42,22.83Zm4.74,8.38c0-1.19-.06-1.78-.19-1.78a13.83,13.83,0,0,1-1.43,1.11,4.09,4.09,0,0,1-.35.25l-.55.38c-.16.1-.36.25-.6.43s-.42.35-.57.5a2.71,2.71,0,0,0-.39.49,1,1,0,0,0-.18.51c0,.27,0,.4.16.4a5.72,5.72,0,0,0,.79-.3l1.64-.67c.61-.25,1.07-.43,1.36-.53S183.16,31.66,183.16,31.21Zm3.08,8.69c0-.14,0-.2,0-.2s-.1,0-.12.12v0c0,.1,0,.16.12.16S186.24,40,186.24,39.9Zm.44.55,0-.16s0,.07,0,.2v.12l0,0A.42.42,0,0,1,186.68,40.45ZM189,24.93a.11.11,0,0,0-.12-.12c-.08,0-.12.07-.12.2s0,.15.08.15S189,25.09,189,24.93Zm.47-.16a.21.21,0,0,1,0-.12c0-.13,0-.2.12-.2s0,.07,0,.2,0,.12-.08.12Zm0-.91,0-.2s0,.08,0,.24V24C189.51,24,189.48,24,189.48,23.86Z" style="fill:#e60066"/><path d="M194.42,18.28v-.12s0,0,0,0-.09.12-.12.12-.16-.09-.16-.28,0-.12.08-.12h.12c.11,0,.16-.06.16-.19v-.2s.12.13.2.39c0-.65,0-1,.12-1s.14-.11.19-.32v0c.06,0,.08.26.08.79v.24c0,.05,0,.08.12.08s.28-.07.28-.2a.21.21,0,0,0-.12-.16.35.35,0,0,1-.12-.31c0-.14,0-.2,0-.2l.08.12.08.08s0,0,0-.08V16.7c0-.13,0-.2.12-.2s.08.07.08.2v.16a.47.47,0,0,0,0,.23q0,.36.15.36h.12s0,0,0,.08,0,.08.12.08a.16.16,0,0,1,.16.12v0c.05,0,.1-.15.16-.44a1.18,1.18,0,0,1,.11-.43c.19,0,.28.13.28.39,0,.05,0,.08,0,.08a.09.09,0,0,0-.08,0h0a.07.07,0,0,0-.08.08s.06,0,.16,0a.81.81,0,0,0,.67-.24,3.77,3.77,0,0,1,.67-.51,2.66,2.66,0,0,1,.64-.36l0,0a.35.35,0,0,0,.15-.12,7.21,7.21,0,0,1,2.1-1,8.5,8.5,0,0,1,2.72-.5,3.78,3.78,0,0,1,1.11.12A4.81,4.81,0,0,1,207,16.19a6.06,6.06,0,0,1,1.26,2.48l.44,1.23v5.25q0,9.6-.75,10.35a.48.48,0,0,0-.16.36V36c0,.06,0,.08,0,.08s-.12-.09-.12-.27l0-.2,0,.08s-.06.1-.09.16a.24.24,0,0,0-.06.11v-.15c0-.11,0-.16,0-.16l-.12.2-.12.19S207,36,207,35.82s0-.44.12-.44.12-.08.12-.24-.07-.11-.2-.11-.21,0-.24-.12-.13-.2-.23-.2l-.08,0,.08.08a.19.19,0,0,1,.07.12s0,.08,0,.08a.28.28,0,0,1-.16,0c-.24,0-.36-.15-.36-.44v-.24a3,3,0,0,0-.2.64v-.44q0-.44-.27-.51h-.12c-.08,0-.12,0-.12,0s.06.08.18.18.18.17.18.25,0,.12-.08.12h-.16c-.08,0-.12.07-.12.2s0,.16-.08.16h0q-.08,0-.18.45a1.27,1.27,0,0,1-.13.45s-.06-.2-.1-.61a2.08,2.08,0,0,0-.1-.61q-.12,0-.12-.24c0-.16-.07-.23-.2-.23s-.16.1-.16.31a1.55,1.55,0,0,1-.09.44c-.07.18-.12.27-.14.27v-.12l0,0-.08.12q-.08.12-.12.12a.29.29,0,0,0,0-.16v0c0-.23,0-.35-.12-.35s0,0,0,.12c0,.26-.06.39-.19.39s-.08-.09-.08-.27-.06-.25-.16-.28-.16-.08-.16-.16c0-.39.1-2.13.24-5.21q.12-2.18.12-5.1c0-2.87-.15-4.3-.44-4.3a5.32,5.32,0,0,0-1.1.47,3.62,3.62,0,0,0-1,.55c0,.06-.08.08-.24.08s-.28,0-.28.12,0,.08-.08.08h-.27c-.11,0-.16,0-.16.12a.38.38,0,0,1-.14.28.48.48,0,0,1-.29.11s-.11-.06-.24-.19,0,.08,0,.23,0,.2-.12.2-.13,0-.16.16-.09.2-.12.2l-.19-.08-.2,0s-.08.08-.08.24-.05.23-.16.23h0c-.1,0-.18.09-.23.28a.16.16,0,0,1,0-.12v0a.37.37,0,0,1,.11-.24.37.37,0,0,0,.12-.27l0-.16-.08.12-.07.12s0,0,0-.12,0-.28-.08-.28-.08.4-.08,1.19q0,3.51.27,9.83c0,.5.06,1,.08,1.6s0,1,.06,1.3,0,.55,0,.73v.38a.72.72,0,0,1,0,.22.57.57,0,0,1,0,.14s0,.06,0,.07l-.07.08-.1.1H198c.1,0,.15.07.15.2s0,.12-.08.12-.13-.06-.23-.18-.16-.19-.16-.22,0-.08-.12-.08h-.08l-.16.08s.06.08.16.14.16.13.16.18-.07.13-.2.16l-.12,0c-.08,0-.11-.11-.11-.32s0-.35-.12-.35-.16-.07-.16-.2v-.08s-.09.11-.18.33-.15.34-.18.34v0q0-.24-.27-.24T196,37.4c0-.14,0-.2-.12-.2s-.16.06-.24.18-.14.17-.19.17-.16.08-.16.24,0,.12,0,.12l-.2-.2s0,0,0,.08,0,.16.08.42a3.28,3.28,0,0,1,.08.57v.16q-.12,0-.3-1c-.11-.66-.23-1-.33-1a.07.07,0,0,0-.08.08.24.24,0,0,0,0,.08.19.19,0,0,1,0,.08,1.38,1.38,0,0,1-.32.63c-.21.29-.37.43-.47.43h0l-.08-.07-.39.19V38.3a.24.24,0,0,1,0-.11,1.39,1.39,0,0,0-.14-.48,1.27,1.27,0,0,1-.14-.55c0-.61-.09-2.25-.18-4.94s-.18-5.24-.26-7.66-.13-3.74-.15-3.95,0-.18,0-.32a1.66,1.66,0,0,1,0-.27c0-.32,0-.49.12-.52a.21.21,0,0,0,.07-.15,1.25,1.25,0,0,0-.05-.26.9.9,0,0,1-.06-.26s0-.11.13-.18.14-.11.14-.13,0,0-.08,0h-.15c-.08,0-.12-.1-.12-.28s0-.28.08-.28h0l.07,0s0,0,0-.08a1.14,1.14,0,0,0-.11-.31,1.2,1.2,0,0,1-.12-.28c0-.13.06-.2.19-.2s0,.08,0,.24,0,.32.12.32.12.06.12.19a.34.34,0,0,1-.24.36s0,0,.08,0,.16.08.16.24,0,.15.12.15.12.1.12.28,0,.33-.12.36,0,0,0,0a.21.21,0,0,0,.24.23c.05,0,.08-.1.08-.31V19c.15.32.27.47.35.47s.07,0,.14-.09a.45.45,0,0,0,.1-.14s0-.08-.1-.16a.36.36,0,0,1-.1-.24v-.2l.12.16c.1.11.18.16.24.16h.08v0a.6.6,0,0,0-.12-.18.38.38,0,0,1-.12-.21c0-.16,0-.24-.08-.24h0c-.08,0-.12-.05-.12-.16s0-.2,0-.2.15.09.28.26a.78.78,0,0,1,.19.34c0,.07,0,.11.08.11S194.37,18.52,194.42,18.28ZM193,18.12l0-.16s0,.07,0,.2v.12l0,0A.4.4,0,0,1,193,18.12Zm.24-.59s.07.06.13.18a.65.65,0,0,1,.1.21c0,.06-.05.08-.16.08s-.11-.09-.11-.27S193.21,17.53,193.24,17.53Zm0,1,0-.2s0,.08,0,.24v.11l0,0A.38.38,0,0,1,193.24,18.52Zm.23,2.68c0-.08,0-.12-.08-.12s-.15.07-.15.2,0,0,.07,0S193.47,21.28,193.47,21.2Zm.32-4a.67.67,0,0,0,.08.3.79.79,0,0,1,.08.26s0,0,0,0,0,0,0,0l0,.16v-.16c0-.13-.06-.19-.16-.19s-.12-.11-.12-.32.07-.28.2-.28.2,0,.2-.11,0-.12,0-.12.07.05.07.16a.17.17,0,0,1-.19.19C193.83,17.17,193.79,17.19,193.79,17.21Zm0-.71,0-.16s0,.07,0,.2v.16l0,0A.67.67,0,0,1,193.75,16.5Zm.55,20.7c-.29.1-.43.17-.43.2s.08.11.23.11.24,0,.24-.15Zm-.16-17.85c.14.13.21.19.24.19s.08-.09.08-.27,0-.4-.08-.4,0,.05,0,.16a.28.28,0,0,1-.1.18C194.18,19.27,194.14,19.32,194.14,19.35Zm.08-2.06,0-.27s0,.1,0,.31v.08l0,.08,0-.08Zm.24-.43,0-.24s0,.11,0,.32v.11l0,0S194.46,17,194.46,16.86Zm.47,1.38c0-.08,0-.12-.07-.12s-.12.07-.12.2,0,.08.08.08S194.93,18.34,194.93,18.24Zm.4-.16c0-.1-.08-.16-.24-.16s0,0,0,.08.06.12.16.12S195.33,18.11,195.33,18.08Zm.12,19.24c0-.08,0-.12-.08-.12a.19.19,0,0,0-.2.16l-.08.08c0,.05,0,.07.12.07S195.45,37.45,195.45,37.32Zm0-19.44s0,.08.1.14a.24.24,0,0,0,.17.1c.08,0,.12-.06.12-.2s0-.19-.16-.19S195.49,17.78,195.49,17.88Zm0,20.23v-.36s.08.07.08.2v.12Zm.08-1.27v.08c0,.08,0,.12,0,.12s.07,0,.07-.12l0-.08v-.08l0,0A.16.16,0,0,0,195.57,36.84Zm.23-19.75c0-.07,0-.11.08-.11s.28.07.28.23,0,.12-.08.12S195.8,17.25,195.8,17.09Zm0-.86V16c.06,0,.08.09.08.27v.12l0,0S195.84,16.38,195.84,16.23Zm.44,20.61s-.06,0-.16,0-.2.06-.2.16,0,0,.08,0S196.28,37,196.28,36.84Zm-.2-20.14v-.24s.08.08.08.24v.12l0,0A.22.22,0,0,1,196.08,16.7Zm.43,20.62c0-.08,0-.12,0-.12s-.15.06-.15.2,0,0,.08,0S196.51,37.4,196.51,37.32Zm-.19.55c.05,0,.08.05.08.16l0,.12s0-.06,0-.16Zm.12-21.61,0-.15s0,.06,0,.19v.12l0,0A.56.56,0,0,1,196.44,16.26Zm.23.52v-.2c.05,0,.08.07.08.2l0,.12S196.67,16.86,196.67,16.78Zm.4.31,0-.11s0,.05,0,.15l0,.12s0,0,0-.12Zm.94,3.08a1,1,0,0,0-.09-.21c-.07-.12-.12-.18-.14-.18a.77.77,0,0,0,.1.24c.06.13.11.19.13.19Zm-.19.76c.08.13.13.19.16.19s.11-.13.11-.39l0-.36s0,.06,0,.16a.26.26,0,0,1-.11.18c-.08.06-.12.11-.12.14s0,0,0,0S197.82,20.9,197.82,20.93Zm0,.67.12.14.13.15a.18.18,0,0,0,.1.06s0,0,0-.08V21.6l0-.08a0,0,0,0,1,0,0h0l.08,0c.05,0,.08,0,.08-.12l0-.2c-.21.08-.32.19-.32.32s0,.12-.07.12l0,0h0l-.08,0Zm0,16.66,0-.15s0,.06,0,.19v.12l0,0A.4.4,0,0,1,197.78,38.26Zm.91-16.74c.15,0,.23-.2.23-.59v-.2c0-.48-.06-.71-.12-.71s-.07,0-.13.14a.46.46,0,0,0-.1.17s0,0,.08,0,.12.08.12.24,0,.2-.12.2h-.12a.1.1,0,0,0-.08,0s-.08,0-.08.08,0,.1.16.15.12.14.12.32S198.66,21.52,198.69,21.52Zm.63-1.15c.1,0,.16,0,.16-.12s0-.11-.12-.11-.2.05-.2.15S199.21,20.37,199.32,20.37Zm.27.91c-.15-.08-.23-.17-.23-.28s0-.15-.12-.15,0,0,0,0a.58.58,0,0,0,.12.25c.08.12.14.18.2.18Zm1-1.14a.14.14,0,0,0-.16-.16c-.05,0-.08,0-.08,0a.14.14,0,0,0,.16.15C200.6,20.17,200.62,20.16,200.62,20.14Zm3.68,13.78v0q0,.12,0,.12s0,0,0-.12v-.12l0,0A.21.21,0,0,0,204.3,33.92Zm.11.59,0-.12s0,.07,0,.2v.08l0,0s0-.05,0-.16Zm1.74.87,0-.24s0,.08,0,.24v.12l0,0A.22.22,0,0,1,206.15,35.38Zm1.7,0c0-.16-.07-.24-.2-.24a0,0,0,0,0,0,0c0,.19.07.28.2.28S207.85,35.43,207.85,35.38Z" style="fill:#e60066"/><path d="M220.41,26.36a5.41,5.41,0,0,0-.32-1.42c-.21-.66-.43-1-.67-1a1.86,1.86,0,0,0-.49.3,1.65,1.65,0,0,1-.53.29q-.12,0-.72.75a7.2,7.2,0,0,0-.79,1.19,6.76,6.76,0,0,0-.59,3,11.14,11.14,0,0,0,.57,3.42,5.25,5.25,0,0,0,1.29,2.35,1.65,1.65,0,0,0,1.06.31,2.54,2.54,0,0,0,1.15-.24,5.62,5.62,0,0,0,1.34-1c.27-.21.41-.3.44-.28s.17,0,.2,0,.13-.09.23,0a1.15,1.15,0,0,1,.32.28,1.64,1.64,0,0,1,.24.43c.07.21.15.33.23.36a.12.12,0,0,0,.16-.08.67.67,0,0,0,0-.24c-.05-.13-.07-.2-.06-.2a.94.94,0,0,1,.14.16c.18.24.21.41.08.52s-.15.19-.14.43.07.36.18.36.2-.06.2-.16.08-.11.25-.1.28,0,.34-.1.16-.18.16-.08,0,.16.08.16.09,0,.11-.12a.4.4,0,0,0,0-.2l0-.19,0,0c.05.07.12.06.2,0s0-.06,0,0a.24.24,0,0,0,0,.11.48.48,0,0,0,0,.22.61.61,0,0,1,0,.24c0,.06-.07.1-.12.1s-.37.26-.55.79c-.05.13-.06.19,0,.18a1.41,1.41,0,0,0,.26-.26l.23-.28v.44q0,.51.12.12c0-.24.12-.36.2-.36s.13.05.08.16a1.39,1.39,0,0,0,.16.31c.31.5.35.75.11.75s-.19,0-.19.12a.72.72,0,0,1-.48.48c-.08,0-.12.06-.12.19s0,.16-.07.16a2.12,2.12,0,0,0-.68.48,6.66,6.66,0,0,1-4.66,1.77,6.53,6.53,0,0,1-4.26-1.38,10.47,10.47,0,0,1-1.17-1.1c-.41-.45-.61-.73-.61-.83s0-.16-.12-.16a.11.11,0,0,1-.12-.12,4.47,4.47,0,0,0-.45-.95,6.12,6.12,0,0,1-.46-.91c-.07-.31-.17-.63-.27-.95A14.72,14.72,0,0,1,211,29.6a12.26,12.26,0,0,1,1.38-5.89,5.69,5.69,0,0,1,1.07-1.54c0-.05.08-.09.08-.12a3.12,3.12,0,0,1,.59-.67q2.76-2.76,5.57-2.76a4.77,4.77,0,0,1,1.22.21,5.35,5.35,0,0,1,1,.34.08.08,0,0,0,.12,0,.49.49,0,0,0,0-.26c0-.23.08-.29.24-.15a.35.35,0,0,0,.19.11s0,0-.08-.11-.1-.18.08-.36a.85.85,0,0,0,.2-.51c0-.14,0-.19,0-.18s.08.08.16.22.15.24.06.33a.4.4,0,0,0-.14.22c0,.1,0,.13.16.08a1.6,1.6,0,0,1,.12.35c-.06.16-.11.24-.16.24a.3.3,0,0,0-.12.16.32.32,0,0,0,.06.22s.1,0,.18,0,.16,0,.16,0,0,.12.07.12.2,0,.2-.08,0-.11-.12-.11-.12-.1-.12-.28,0-.36.12-.36.12-.06.12-.19,0-.16.12-.16.18.17,0,.51a.24.24,0,0,1,0,.12l0,0h0a.34.34,0,0,0,.2-.36q0-.27.12-.09c.07.11.11.11.11,0s0-.2-.11-.2a.11.11,0,0,1-.12-.12c0-.1.09-.08.27.08s.24.35.08.51-.08.21,0,.38.15.25.26.25.1-.06.06-.11a2.21,2.21,0,0,1-.14-.24c-.05-.11-.07-.18,0-.24s.16-.06.32,0a.28.28,0,0,0,.08-.2l0-.23a.35.35,0,0,0,.07.15l.12.12c0-.15.06-.19.16-.12a.39.39,0,0,1,.12.28c0,.16,0,.15.08,0a.31.31,0,0,1,0-.12l.08-.27v.08c0,.15.06.23.19.23s.16,0,.16-.16a.14.14,0,0,1,.16-.15s.08,0,.08.12.05.07.16.05.16,0,.16.1a.8.8,0,0,0,.15.36.54.54,0,0,1,.12.43q-.08.32.12.36s.08,0,.08-.2v-.28c.18.37.21.61.08.72a.49.49,0,0,0-.14.11s0,.06.06.08a.45.45,0,0,1,.06.28,2,2,0,0,1-.14.47,2.15,2.15,0,0,0-.12.36,3.24,3.24,0,0,1-.14.65q-.13.54-.21.81a17.42,17.42,0,0,0-.48,2.84,1.14,1.14,0,0,0,.08.34,1.48,1.48,0,0,1,.08.49c0,.27-.07.4-.12.4a.22.22,0,0,0-.39.12s0,0,.12.06.11.08.11.21-.13.24-.23.08a.11.11,0,0,1-.12.12c-.08,0-.15.07-.2.28s-.16.23-.31.08a.6.6,0,0,0-.36-.2c-.08,0-.12-.13-.12-.4s0-.27,0-.27,0,0-.08.12-.12.13-.12-.08l-.07-.24c-.06.05-.08.22-.08.51a1.11,1.11,0,0,1,0,.3s-.05,0-.1-.14-.19-.13-.24.16V28a.24.24,0,0,0,0,.12,3.56,3.56,0,0,1-.31-1c0-.21-.06-.32-.08-.32s-.11.28-.08.75v.36a.31.31,0,0,0-.36-.28q-.31,0-.24,1.11l0-.12-.16-.28,0,.08c0,.11,0,.09-.08,0a.4.4,0,0,1,0-.2c-.05-.26-.13-.42-.24-.47a1.34,1.34,0,0,0-.12.24l0,.2-.07-.12a.34.34,0,0,1,0-.36s0,0,0-.06,0,0-.1,0c-.42.16-.66.15-.71,0a.3.3,0,0,0-.18-.21.46.46,0,0,1-.22-.3.41.41,0,0,1,0-.4A.75.75,0,0,0,220.41,26.36Zm1.62.79,0-.16c-.29.11-.4.21-.32.32a.3.3,0,0,0,.2.08C222,27.39,222,27.31,222,27.15Zm.24,7.46a.11.11,0,0,0-.12-.12l-.12.08A.67.67,0,0,0,222.27,34.61Zm.63.08c0-.13-.08-.2-.24-.2s-.16,0-.08.12a.6.6,0,0,0,.08.08,1.25,1.25,0,0,1,.32.52c.1.29.17.34.19.15s0-.51-.15-.51S222.9,34.8,222.9,34.69Zm-.36-6.44v-.11l0,.27Zm.12,7.19v.16l0-.32A.22.22,0,0,0,222.66,35.44Zm.24.67c0,.06.09,0,.12-.07a.45.45,0,0,0,0-.24c-.06,0-.11,0-.16.08A.2.2,0,0,0,222.9,36.11Zm0-2.44v-.16a1.72,1.72,0,0,1,.16.23c.21.37.26.56.15.56s-.1,0-.15-.12A.88.88,0,0,1,222.94,33.67Zm.35-5.34c0-.13,0-.14.12,0a.24.24,0,0,0,0,.12c0,.06,0,.09,0,.12S223.35,28.47,223.29,28.33Zm.48,7.9c0-.1-.07-.16-.2-.16a.14.14,0,0,0-.16.16c0,.06.05.08.16.08S223.77,36.29,223.77,36.23Zm.47-18.09q0-.2.12.12a.79.79,0,0,1,.12.24q0,.2-.12-.12A.79.79,0,0,1,224.24,18.14Zm0,10.07c0-.1,0-.17,0-.19s.13,0,.16.12a.25.25,0,0,1,0,.23C224.32,28.37,224.27,28.32,224.24,28.21Zm0,7c0-.08,0-.12,0-.12l0,.23v0s0,0-.06,0A.51.51,0,0,1,224.24,35.25ZM225,19.33c0-.13,0-.2-.12-.2s-.13.05-.08.16S224.94,19.43,225,19.33Zm0-.91c0-.08,0-.12,0-.12l0,.24v0s0,0-.06,0A.59.59,0,0,1,225,18.42Zm.44,1.42q.07-.15,0-.12-.24.12-.24.24Q225.39,20,225.43,19.84Zm0,16.67a.59.59,0,0,0,0-.32c-.06-.13-.07-.19,0-.19s.06,0,.19.07a1.46,1.46,0,0,1,.3.54c.12.3.15.48.1.53s-.09,0-.2-.08a1,1,0,0,1-.25-.29C225.42,36.65,225.4,36.56,225.43,36.51Zm0-17.06,0-.28v.12Zm.39.55c.11.05.18,0,.24-.12s0-.12,0-.12a.44.44,0,0,0-.16.08C225.76,19.89,225.74,20,225.82,20Zm.36-.51c.1,0,.08-.1-.08-.28a.1.1,0,0,1,0-.08l0-.08s0,.05,0,.16S226,19.49,226.18,19.49Zm-.2,16.9v-.16l.08.36Zm.12-18V18.3l0,.28Zm.27,1.9c0-.08,0-.12-.07-.12l-.12.23C226.31,20.43,226.37,20.39,226.37,20.32Zm.44-.87s-.05,0-.08-.08l.08-.4v0a.93.93,0,0,0,.24.44l.11.15-.11-.07C226.91,19.45,226.83,19.42,226.81,19.45Z" style="fill:#e60066"/><path d="M243.72,33c.08,0,.23.12.45.41s.36.43.42.43.1-.08,0-.2a.43.43,0,0,1-.14-.42c0-.14,0-.2,0-.19a.73.73,0,0,1,.05.22c0,.2.12.3.27.28s.17-.18.1-.49-.07-.41,0-.44.07,0,.13.1c.28.26.43.24.47-.06a.36.36,0,0,1,.07.19.82.82,0,0,1,0,.36,1.05,1.05,0,0,1-.13.26.72.72,0,0,0-.09.37.8.8,0,0,1-.08.33c0,.08-.09.12-.14.1s-.11,0-.07.08v.12c0,.21-.19.63-.67,1.25s-.78,1-.94,1-.19.06-.18.11a2.85,2.85,0,0,1-.74.61,8.72,8.72,0,0,1-1.31.81,7.33,7.33,0,0,1-2.38.71,7,7,0,0,1-5.39-1.36A6.32,6.32,0,0,1,232,36.25l-.46-.5a10.94,10.94,0,0,1-2.46-6,10.28,10.28,0,0,1,.92-6.33,1.59,1.59,0,0,1,.09-.2,1.19,1.19,0,0,0,.1-.17l.08-.13.09-.11v0a2.76,2.76,0,0,1,.52-.94.55.55,0,0,0,.15-.34,6.75,6.75,0,0,1,1-1.33,13.79,13.79,0,0,1,1.4-1.5.24.24,0,0,1,.13,0,.17.17,0,0,0,.12,0s.06,0,0-.07.06-.16.21-.26l.47-.32a2,2,0,0,0,.29-.22.44.44,0,0,1,.3-.16c.16,0,.23-.06.22-.11s.07-.08.23-.09.23-.05.22-.13.06-.11.19-.1.2,0,.19-.11l0,0c.1.12.2.11.31,0,0,.08.09.17.24.29s.17,0,.14-.14,0-.35.11-.41.07,0,.09.06,0,.05,0,.08,0,.11.09,0a.5.5,0,0,0,0-.17l.05-.2s0,.17.09.42l.12.59,0-.48c0-.21,0-.32,0-.32l.15.26a1.61,1.61,0,0,1,0,.31.49.49,0,0,0,.18.42c0,.05.08,0,.07,0a.29.29,0,0,0,0-.2c-.08-.2-.08-.32,0-.35s.18,0,.26.16a.23.23,0,0,1,0,.24v.08c.05-.06.13-.06.24,0s.1,0,.12-.06c0-.26-.11-.39-.22-.41s-.05,0-.09-.07A.43.43,0,0,1,238,17c0-.13,0-.21,0-.24l.09.07a.22.22,0,0,0,.1-.13c0-.21,0-.32.11-.33s.21,0,.22.13.09.15.23.23.22.15.23.22l0,0a.43.43,0,0,0,0-.2l0-.4.1.46.12.27v0a.24.24,0,0,1,0-.13.56.56,0,0,1,.1-.15.39.39,0,0,0,.06-.15.11.11,0,0,0-.08-.11q-.21-.09,0-.51c0-.06,0-.06.08,0,.27.6.5.89.71.86.06,0,.07-.06.06-.17l0-.19c-.08-.2-.09-.32,0-.34s.16.07.24.27.14.22.22.21.11-.06.12,0,.11.13.27-.07a.21.21,0,0,0,.06-.17c0-.18,0-.19.16,0a.36.36,0,0,1,.07.27q0,.08,0,0l.09-.09c.12-.09.2,0,.26.17v.11a6,6,0,0,1,.21,1,27.69,27.69,0,0,0,1,4,1.92,1.92,0,0,0,.24.62.32.32,0,0,0,.31.12,1.15,1.15,0,0,1,.39.05c.28.12.39.27.33.44a.16.16,0,0,1-.11.05c-.08,0-.12,0-.14-.14a.2.2,0,0,0,0-.1s0,0-.06,0,.08.22.32.56.11.28,0,.24a.41.41,0,0,0-.32.14.44.44,0,0,0-.14.36c0,.13.11.16.26.09s.11,0,.12,0,0,.16.18.14.27,0,.28.08-.08.09-.26.11-.25.14-.19.35a.87.87,0,0,0,.23.44.37.37,0,0,0,.39.07c.18,0,.28,0,.29.06s-.07.18-.25.26-.37.07-.44,0-.13-.07-.11.06,0,.2-.09.21-.18.18,0,.46.32.29.36,0l.05.07q.06.39.09.39t.15.18c0,.13,0,.15-.16.06a.39.39,0,0,0-.21-.11c-.05,0-.08,0-.09.07a1,1,0,0,0,0,.23.32.32,0,0,1,0,.21s-.1,0-.22,0h-.26a7.73,7.73,0,0,0-2,.74,15.93,15.93,0,0,0-1.94,1,1.62,1.62,0,0,1-.57.23.43.43,0,0,0-.24.14.4.4,0,0,1-.2.12,11.2,11.2,0,0,0-1.42.71,3.71,3.71,0,0,1-.53.26,2.78,2.78,0,0,0-.51.31,1,1,0,0,1-.65.21c-.17,0-.24,0-.22.14s0,.18-.09.21-.1-.05-.23-.17-.13-.1-.11.06a2.54,2.54,0,0,0,.72,1.1,3.69,3.69,0,0,0,1.22.92,2.62,2.62,0,0,0,1,0,3.21,3.21,0,0,0,1.29-.45,3.64,3.64,0,0,0,1.31-1.57c.09-.17.13-.21.14-.13s.11.24.25.08a.6.6,0,0,0,.12-.33c0-.27.14-.36.28-.28s.28.27.21.41a.09.09,0,0,1-.11,0c-.08,0-.12,0-.1.13s.09.23.21.13a.44.44,0,0,0,.09-.25c0-.16.11-.14.24.05a.57.57,0,0,1,.1.11,1.62,1.62,0,0,0,.42.46c.05,0,.09.09.11.23s.07.14.17.13.12.17.27.52c-.05-.36,0-.55.09-.56s.13-.1.16-.27a.15.15,0,0,1,0,.12Q243.53,33,243.72,33Zm-9-3.17s0,0-.06,0l-.15.24c-.13.23-.11.26,0,.07A.33.33,0,0,0,234.7,29.79Zm3.58-4.89s-.06-.29-.16-.79-.22-1-.33-1.45-.2-.69-.25-.69a2.87,2.87,0,0,0-.79.66c-.42.43-.78.82-1.08,1.18a6,6,0,0,0-.77,1.76,5.25,5.25,0,0,0-.34,1.61c0,.06,0,.08.05.08a.26.26,0,0,0,.18-.15c0-.08.15-.14.33-.16a.47.47,0,0,0,.31-.12,11.54,11.54,0,0,1,2.85-1.61C238.38,25.18,238.38,25.08,238.28,24.9Zm-2.8,5.81c0,.07,0,.12,0,.14s.07,0,.13-.06a.69.69,0,0,0,.13-.2c0-.07,0-.11,0-.13s-.07,0-.13.05A.63.63,0,0,0,235.48,30.71Zm.1-12.14s-.15,0-.38-.15c0,0,0,0,.11.08l.19.08C235.56,18.6,235.58,18.59,235.58,18.57Zm.31-.4c0-.11-.06-.15-.14-.14s-.11.06-.1.17.06.19.14.18S235.9,18.3,235.89,18.17Zm.29.4a.1.1,0,0,0-.14-.1l-.1.09A1,1,0,0,0,236.18,18.57Zm.07.55a.15.15,0,0,1,.06-.15l.14-.14c.05,0,.06-.08,0-.1s-.09,0-.17.08a.9.9,0,0,0-.19.22c-.05.08,0,.13,0,.18S236.26,19.22,236.25,19.12ZM236.5,18c.11,0,.15,0,.14-.14a.88.88,0,0,0-.07-.23c-.1-.12-.14-.12-.12,0s-.07.14-.26.11-.18,0-.2,0a.54.54,0,0,0,0,.26c0,.16.07.23.15.22a.11.11,0,0,1,.13.11c0,.1.1.14.25.12s.15-.07.14-.18a.1.1,0,0,0-.13-.1c-.08,0-.12,0-.14-.1S236.41,17.93,236.5,18Zm0-1,0-.12.08.27Zm1.12,1.25-.25-.09s0,0,0,.08.07.11.17.1S237.65,18.23,237.64,18.18Zm1.31-.93a.25.25,0,0,0-.2-.14.35.35,0,0,1-.24-.2c-.14-.22-.19-.24-.17-.06a1,1,0,0,0,.3.48c.27.23.4.26.38.11A.64.64,0,0,0,239,17.25ZM241,31.36l0-.12.08.27Zm-.87-14.23q.19,0-.06-.15a.28.28,0,0,0-.13-.06q-.19,0,.06.15C240.06,17.12,240.11,17.14,240.13,17.13Zm2,14.76,0-.23c-.22.13-.28.26-.18.38s.12.13.17.1S242.12,32,242.1,31.89Zm-1.33-14.76a2.22,2.22,0,0,1-.24-.29c0-.05-.06-.06-.08-.05s0,.07,0,.14a.3.3,0,0,0,.24.25C240.83,17.21,240.86,17.2,240.77,17.13ZM240.46,16a.25.25,0,0,1,0-.16l.08.27v0S240.5,16.11,240.46,16Zm.26.13c0-.18,0-.19.15,0s.1.09.1.15,0,.19-.15,0A.26.26,0,0,1,240.72,16.14Zm.77,1c0-.28-.08-.42-.14-.42s0,.06,0,.17,0,.08-.11.09-.09.1,0,.21a.49.49,0,0,0,.15.25c.06.05.1,0,.14,0A.5.5,0,0,0,241.49,17.15ZM241,15.74q0-.24.09-.09c.08.1.1.17,0,.23A.27.27,0,0,1,241,15.74Zm3,17.89c0,.11-.09,0-.23-.17s-.25-.29-.27-.28,0,.17.06.19.16.2.15.5l0,.23,0,0c.1-.09.17-.13.23-.11s0,0,.07-.05a.44.44,0,0,0,0-.2q0-.16-.06-.15Zm-.38-1.35s.06,0,.12,0a.9.9,0,0,1,.2.17.84.84,0,0,1,.18.28c.07.15.09.23.05.25s-.12,0-.23-.11C243.66,32.63,243.56,32.43,243.67,32.28Zm.24-.31c0-.15,0-.23.05-.24s.14.06.19.29,0,.24-.08.25S243.94,32.18,243.91,32Zm-.23-5.7,0,.15v-.31S243.67,26.19,243.68,26.27Zm.95,6.68a.86.86,0,0,1,0-.35c0-.13,0-.16.07-.09a1.52,1.52,0,0,1,.08.35C244.79,33.2,244.75,33.23,244.63,33Zm.16-.93,0-.12.08.27Zm.28.32c0-.16,0-.19.15-.1a.23.23,0,0,1,.14.18c0,.16,0,.19-.15.1A.23.23,0,0,1,245.07,32.34Zm-.68-9.19c0-.32,0-.27.25.12.08.23.07.33,0,.29A.57.57,0,0,1,244.39,23.15Z" style="fill:#e60066"/><path d="M64.93,33c.08,0,.23.12.45.41s.36.43.41.43.11-.08,0-.2a.41.41,0,0,1-.14-.42c0-.14,0-.2,0-.19a.72.72,0,0,1,.05.21c0,.21.12.31.27.29s.16-.18.1-.49-.07-.41,0-.44.07,0,.13.1c.28.26.43.24.47-.06a.36.36,0,0,1,.07.19,1,1,0,0,1,0,.36,1.58,1.58,0,0,1-.13.26.63.63,0,0,0-.09.37,1,1,0,0,1-.08.33c0,.08-.09.12-.14.1s-.11,0-.07.08v.12c0,.21-.19.63-.67,1.25s-.78,1-.94,1-.19.06-.19.11-.23.26-.73.61a9.26,9.26,0,0,1-1.31.81,7.33,7.33,0,0,1-2.38.71,7,7,0,0,1-5.39-1.36,6.32,6.32,0,0,1-1.49-1.32l-.46-.5a10.94,10.94,0,0,1-2.46-6,10.32,10.32,0,0,1,.92-6.34l.09-.19a1.19,1.19,0,0,0,.1-.17l.08-.13.09-.11v0a2.76,2.76,0,0,1,.52-.94.55.55,0,0,0,.15-.34,6.75,6.75,0,0,1,1-1.33,13.79,13.79,0,0,1,1.4-1.5.24.24,0,0,1,.13,0,.17.17,0,0,0,.12,0s0,0,0-.07.06-.16.21-.26l.47-.32a2,2,0,0,0,.29-.22.44.44,0,0,1,.3-.16c.16,0,.23-.06.22-.11s.07-.08.23-.09.23-.05.22-.13,0-.11.19-.1.19,0,.18-.11l.05,0c.09.12.2.11.31,0,0,.08.09.17.24.29s.16,0,.14-.14,0-.35.11-.41.07,0,.08.06.05.05.05.08,0,.11.09,0a.5.5,0,0,0,0-.17l0-.2s0,.17.09.42l.12.59,0-.48c0-.21,0-.32,0-.32l.16.26a1.61,1.61,0,0,1,0,.31.51.51,0,0,0,.17.42c.06.05.09,0,.08,0a.29.29,0,0,0,0-.2c-.08-.2-.09-.32,0-.35s.18,0,.26.16a.26.26,0,0,1,0,.24v.08c.05-.06.13-.06.24,0s.1,0,.11-.06c0-.26-.1-.39-.21-.41s0,0-.09-.07a.43.43,0,0,1-.06-.19c0-.13,0-.21,0-.24l.09.07a.27.27,0,0,0,.1-.13c0-.21,0-.32.11-.33s.21,0,.22.13.09.15.23.22.22.16.23.23l0,0a.43.43,0,0,0,0-.2l0-.4.1.46.12.27v0a.24.24,0,0,1,.05-.13l.09-.15a.3.3,0,0,0,.07-.15.11.11,0,0,0-.08-.11q-.21-.09,0-.51c0-.06.05-.06.08,0,.27.6.5.89.71.86.05,0,.07-.06.06-.17l0-.19c-.08-.2-.08-.32,0-.34s.15.07.23.27.15.22.23.21.11-.06.12,0,.11.13.27-.07a.21.21,0,0,0,.06-.17c0-.18,0-.19.16,0a.36.36,0,0,1,.07.27q0,.08,0,0l.08-.09c.12-.09.21,0,.27.17v.11a7.19,7.19,0,0,1,.21,1,27.69,27.69,0,0,0,1,4,1.92,1.92,0,0,0,.24.62.32.32,0,0,0,.31.12,1.19,1.19,0,0,1,.39.05c.28.12.39.27.33.44a.16.16,0,0,1-.11.05c-.08,0-.13,0-.14-.14a.41.41,0,0,0,0-.1s0,0-.06,0,.08.22.31.56.12.28,0,.24a.41.41,0,0,0-.32.14.44.44,0,0,0-.14.36c0,.13.1.16.25.09s.12,0,.13,0,0,.16.17.14.28,0,.29.08-.08.09-.26.11-.25.14-.19.35a.87.87,0,0,0,.23.44.37.37,0,0,0,.39.07c.18,0,.28,0,.29.06s-.07.18-.25.26-.37.07-.44,0-.13-.07-.11.06,0,.2-.09.21-.18.18,0,.46.31.29.36,0l0,.07q.06.39.09.39t.15.18c0,.13,0,.15-.16.06a.39.39,0,0,0-.21-.11s-.08,0-.09.07a1,1,0,0,0,0,.23.41.41,0,0,1,0,.21s-.1,0-.22,0h-.26a7.6,7.6,0,0,0-2,.74,15.93,15.93,0,0,0-1.94,1,1.62,1.62,0,0,1-.57.23.43.43,0,0,0-.24.14.49.49,0,0,1-.2.12,10.53,10.53,0,0,0-1.42.71,4.32,4.32,0,0,1-.53.26,2.78,2.78,0,0,0-.51.31,1,1,0,0,1-.65.21c-.17,0-.24,0-.22.14s0,.18-.1.21-.1-.05-.22-.17-.13-.1-.11.06a2.54,2.54,0,0,0,.72,1.1,3.6,3.6,0,0,0,1.22.92,2.62,2.62,0,0,0,1,0,3.21,3.21,0,0,0,1.29-.45,3.64,3.64,0,0,0,1.31-1.57c.08-.17.13-.21.14-.13s.11.23.25.08a.6.6,0,0,0,.12-.33c0-.27.14-.36.28-.28s.28.27.21.41a.09.09,0,0,1-.11,0c-.09,0-.12,0-.11.13s.1.23.22.13a.52.52,0,0,0,.09-.25c0-.16.11-.15.24.05a.57.57,0,0,1,.1.11,1.62,1.62,0,0,0,.42.46s.09.09.1.23a.15.15,0,0,0,.18.13s.12.17.27.52c0-.36,0-.55.08-.57s.14-.09.17-.26a.15.15,0,0,1,0,.12Q64.74,33,64.93,33Zm-9-3.17s0,0-.06,0L55.7,30c-.13.23-.11.26,0,.07A.33.33,0,0,0,55.91,29.79Zm3.58-4.89s-.06-.29-.16-.79-.22-1-.33-1.45-.2-.69-.25-.69a2.87,2.87,0,0,0-.79.66c-.42.43-.78.82-1.08,1.18a6,6,0,0,0-.77,1.76,5.25,5.25,0,0,0-.34,1.61c0,.06,0,.08,0,.08a.26.26,0,0,0,.18-.15c0-.08.15-.14.33-.16a.47.47,0,0,0,.31-.12,11.54,11.54,0,0,1,2.85-1.61C59.59,25.18,59.59,25.08,59.49,24.9Zm-2.8,5.81c0,.07,0,.12,0,.14s.08,0,.14-.06a.86.86,0,0,0,.13-.2c0-.07,0-.11,0-.14s-.07,0-.13.06A.63.63,0,0,0,56.69,30.71Zm.1-12.14s-.15,0-.38-.15c0,0,0,0,.11.08l.19.08C56.77,18.6,56.79,18.59,56.79,18.57Zm.3-.4c0-.11-.06-.15-.13-.14s-.11.06-.1.17.06.19.14.18S57.11,18.3,57.09,18.17Zm.3.4a.11.11,0,0,0-.14-.11l-.1.1A1,1,0,0,0,57.39,18.57Zm.07.55a.15.15,0,0,1,.06-.15l.14-.14c.05,0,.05-.08,0-.1s-.09,0-.17.08a.9.9,0,0,0-.19.22.12.12,0,0,0,0,.18C57.44,19.25,57.47,19.22,57.46,19.12ZM57.71,18c.11,0,.15,0,.14-.14a.88.88,0,0,0-.07-.23c-.1-.12-.14-.12-.12,0s-.08.15-.26.12-.18,0-.2,0a.54.54,0,0,0,0,.26c0,.16.07.23.14.22a.11.11,0,0,1,.14.11c0,.1.1.14.25.12s.15-.07.14-.18a.11.11,0,0,0-.13-.1c-.08,0-.12,0-.14-.1S57.62,17.93,57.71,18Zm0-1,0-.12.08.27Zm1.12,1.25-.25-.09s0,0,0,.08.07.11.17.1S58.85,18.23,58.85,18.18Zm1.31-.93a.25.25,0,0,0-.2-.14.35.35,0,0,1-.24-.2c-.14-.22-.19-.24-.17-.06a1,1,0,0,0,.3.48c.27.23.4.26.38.11A.64.64,0,0,0,60.16,17.25Zm2.05,14.11,0-.12.08.27Zm-.87-14.23q.19,0-.06-.15c-.06,0-.1-.07-.13-.06s-.11.07.06.15S61.31,17.14,61.34,17.13Zm2,14.76,0-.23c-.22.13-.28.26-.19.38s.13.13.18.1S63.33,32,63.31,31.89ZM62,17.13a2.22,2.22,0,0,1-.24-.29c0-.05-.06-.06-.09-.05s0,.06,0,.14a.3.3,0,0,0,.23.25C62,17.21,62.07,17.2,62,17.13ZM61.67,16a.25.25,0,0,1,0-.16l.08.27v0S61.71,16.11,61.67,16Zm.26.13c0-.18,0-.19.15,0a.19.19,0,0,1,.1.15c0,.18,0,.19-.15,0A.22.22,0,0,1,61.93,16.14Zm.77,1c0-.28-.09-.42-.14-.42s0,.06,0,.17,0,.08-.1.09-.1.1-.06.21a.57.57,0,0,0,.16.25c.06.05.1,0,.13,0A.48.48,0,0,0,62.7,17.15Zm-.47-1.41q0-.24.09-.09c.08.1.1.17,0,.23A.27.27,0,0,1,62.23,15.74Zm3,17.89c0,.11-.08,0-.22-.17s-.25-.29-.27-.28,0,.17.06.19.16.2.15.5l0,.23,0,0c.1-.1.17-.13.23-.11s0,0,.07-.05a.44.44,0,0,0,0-.2q0-.16-.06-.15Zm-.37-1.35s.06,0,.12,0a.9.9,0,0,1,.2.17.84.84,0,0,1,.18.28c.07.15.09.23.05.25s-.12,0-.23-.11C64.87,32.63,64.77,32.43,64.88,32.28Zm.24-.31c0-.15,0-.23,0-.24s.15.06.2.29,0,.24-.08.25S65.14,32.18,65.12,32Zm-.23-5.7,0,.15v-.31S64.88,26.19,64.89,26.27Zm1,6.68a.72.72,0,0,1,0-.35c0-.13,0-.16.07-.09a1.52,1.52,0,0,1,.08.35C66,33.2,66,33.23,65.84,33ZM66,32l0-.12.08.27Zm.28.32c0-.16,0-.19.15-.1a.23.23,0,0,1,.14.18c0,.16,0,.19-.15.1A.23.23,0,0,1,66.28,32.34Zm-.69-9.19c0-.32,0-.27.26.12.08.23.07.33,0,.29A.61.61,0,0,1,65.59,23.15Z" style="fill:#e60066"/><path d="M75.23,36c-.13,0-.2-.14-.2-.4s0-.2.12-.22.12,0,.12-.06-.11-.19-.32,0-.29.27-.15.32.09.08,0,.08-.16.08-.14.26,0,.25-.06.25-.16-.1-.16-.31a.74.74,0,0,0-.24-.6c-.23-.21-.37-.26-.39-.15a.12.12,0,0,0,0,.08s0,.16-.12.33a.83.83,0,0,0-.16.34c0,.18,0,.18-.08,0a2.25,2.25,0,0,0-.08-.48.55.55,0,0,0-.13-.35c-.07-.06-.14,0-.22,0a.88.88,0,0,0-.2.39l-.12.44c0-.4,0-.61-.08-.64s-.06,0-.12.08a1,1,0,0,0-.23.71c0,.32,0,.48-.08.48s-.12-.37-.12-1.11c0-.31,0-.39-.12-.23s-.12.14-.12,0-.1-.16-.31,0a.19.19,0,0,0-.08.15c0,.08,0,.11-.12.08s-.08,0-.08,0a.58.58,0,0,0,0,.2c0,.21,0,.32,0,.32s-.1,0-.16.07S71,36,71,36s0-.22-.15-.24-.12,0-.12-.08-.07-.16-.2-.08a.56.56,0,0,0-.12.2l-.08-1.07c0-1-.1-2.82-.21-5.31s-.2-4.17-.22-5q-.2-5.32-.2-11a25,25,0,0,1,.08-2.84c0-.21.16-.32.32-.32s.23,0,.23-.12,0-.09-.16,0a.15.15,0,0,1-.13,0A.22.22,0,0,1,70,10a2.61,2.61,0,0,1-.06-.26,1.46,1.46,0,0,1,0-.39,1,1,0,0,1,0-.3S69.94,9,70,9s.15,0,.15-.08a.78.78,0,0,0-.11-.35C70,8.49,70,8.29,70,8s.08-.51.15-.51,0,.13,0,.39a.11.11,0,0,1,0,.08V8a1,1,0,0,0,.23.56,1,1,0,0,1,.24.51c0,.21.06.25.2.12s.1-.27,0-.48-.1-.27,0-.27.17.19.27.59l.2.39V9.3c0-.08,0-.12.08-.12a.5.5,0,0,0,.22.27c.12.08.2.1.25,0a2.31,2.31,0,0,0,.12-.65c.06-.41.11-.62.16-.65s.13-.08.08-.24,0-.12,0-.14,0,0,.1.1a.65.65,0,0,1,0,.26q0,.18.06.18s.06,0,.12,0,.08-.06.08-.08.06-.09.19,0,.16,0,.16,0a.16.16,0,0,1,0-.12c0-.16,0-.23.14-.22a.53.53,0,0,1,.3.14c0,.06.07,0,.07-.08,0-.29,0-.43,0-.43s.06,0,.08.12a.24.24,0,0,1,.06.16.68.68,0,0,1,0,.19l0,.08c.16,0,.29-.12.4-.35,0-.08,0-.12.08-.12s0,0,0,.12a.38.38,0,0,0,.17.27c.12.11.17.2.14.28a.15.15,0,0,1-.18.1c-.09,0-.13,0-.13.1a.38.38,0,0,0,.17.27.48.48,0,0,1,.18.36c0,.18,0,.2.12,0s.12-.19.12-.08a1.18,1.18,0,0,0,.08.33l.12.42a.38.38,0,0,1,0,.28c-.11,0-.16,0-.16,0s0-.1-.14-.06-.1.08,0,.14q.39.27.39,3.39,0,4.47.44,15.25c.1,2.32.16,4.15.16,5.49C75.47,35.4,75.39,36,75.23,36ZM70.41,8.19c-.18,0-.2-.12,0-.2s.2,0,.2.16S70.52,8.24,70.41,8.19Zm0,1c0,.13,0,.19,0,.19V9A.19.19,0,0,0,70.37,9.14Zm.48,1.46a.25.25,0,0,0-.2-.28q-.08,0-.12.12c-.16.37-.14.55,0,.55s.08,0,.08-.11,0-.12.08-.12S70.85,10.7,70.85,10.6Zm-.12-.83c-.06,0-.08,0-.08-.12s0-.12-.08-.12-.16.1-.08.28.12.14.2.12.16,0,.16.12,0,.19.11.19.16.19.16.56c0,.18,0,.27,0,.27l0-.12c0-.18.11-.26.16-.23s0,0,.06,0a.51.51,0,0,0,0-.16.46.46,0,0,0-.08-.16s-.09,0-.18-.12-.18-.21-.27-.33S70.75,9.77,70.73,9.77Zm.19-1.54c0-.11,0-.16,0-.18s0,0,.09.1.14.13.26.22a1.66,1.66,0,0,1,.3.29.53.53,0,0,1,.12.32c0,.13,0,.21-.08.24s-.07,0-.12-.12a.4.4,0,0,1,0-.2l0-.24s-.07,0-.14,0a.52.52,0,0,1-.2-.15A.92.92,0,0,1,70.92,8.23Zm.91,2c0-.1-.08-.18-.23-.23h-.24s.1.09.24.19S71.83,10.31,71.83,10.2Zm-.19.91a1.3,1.3,0,0,0,.07-.23.1.1,0,0,0-.11.11C71.6,11.07,71.61,11.11,71.64,11.11Zm.43-.55,0-.2c-.21.08-.33.16-.35.24a.52.52,0,0,0,.19.12C72,10.72,72.07,10.66,72.07,10.56ZM71.71,8a.28.28,0,0,1,0-.16l0,.28v0S71.74,8.14,71.71,8Zm.83,2.57s0-.07,0-.14-.09-.14-.15-.24a.38.38,0,0,1-.1-.21l0-.16,0,0a.09.09,0,0,1-.12,0s-.09,0-.12,0,.11.29.4.55C72.45,10.61,72.52,10.65,72.54,10.6Zm0-1.74c0-.08-.06-.13-.17-.16a.26.26,0,0,1-.22-.15c-.08-.14-.15-.15-.2,0s0,.15.12.29a.51.51,0,0,0,.36.22C72.54,9,72.58,9,72.58,8.86Zm-.27.51c0-.18,0-.28,0-.29s-.09,0-.2.06-.07.16,0,.31S72.31,9.61,72.31,9.37Zm0,2.33c0-.07,0-.11-.08-.11l-.12.08A.56.56,0,0,0,72.27,11.7Zm.2-4q0-.12,0-.12l0,.23v0s0,0-.05,0A.27.27,0,0,1,72.47,7.72Zm.23-.4c0-.13,0-.14.12,0a.24.24,0,0,0,0,.12s0,.09,0,.12S72.75,7.45,72.7,7.32Zm.59,1.19a.38.38,0,0,0-.15-.32c-.11-.08-.21,0-.32.08a.74.74,0,0,0-.12.39q0,.21.12,0L73,8.6l.22,0C73.26,8.55,73.29,8.53,73.29,8.51Zm-.15,2.21c-.06-.19-.12-.29-.2-.32s-.12,0-.12,0,0,.16.2.32.16.15.16.14S73.16,10.8,73.14,10.72Zm.27-1.42c0-.06,0-.09,0-.1a.23.23,0,0,0-.11,0A.3.3,0,0,1,73.1,9c-.08-.16-.13-.2-.16-.12s0,.26.16.4S73.41,9.48,73.41,9.3Zm0,.75a.11.11,0,0,0-.12-.12.15.15,0,0,1-.15-.08l0-.08a.16.16,0,0,0,0,.12.26.26,0,0,0,.2.27C73.36,10.19,73.41,10.15,73.41,10.05Zm0,24.48a1.3,1.3,0,0,0-.23-.07c0,.1,0,.15.11.15S73.41,34.59,73.41,34.53Zm0-27.84c0-.13,0-.2,0-.2l0,.28v0Zm.2,3.83c0-.1,0-.16,0-.16l-.16.24.08,0A.11.11,0,0,0,73.65,10.52Zm.12-2a.26.26,0,0,0-.12-.24.3.3,0,0,0-.12.16c0,.16,0,.23.12.23S73.77,8.57,73.77,8.47Zm.55,1.18a.94.94,0,0,0-.26-.49c-.14-.17-.27-.17-.37,0a.15.15,0,0,0,0,.17.19.19,0,0,0,.18.1s.16.08.31.24S74.4,9.91,74.32,9.65Zm-.47.32c-.08.1-.08.18,0,.23s.22,0,.2-.15V10C74,9.84,73.93,9.84,73.85,10Zm.43.63s0,0-.1-.08a.7.7,0,0,0-.19-.06c-.07,0-.1,0-.1.06s.08.12.23.12S74.28,10.63,74.28,10.6Zm.28-2.45,0-.36v0a1.56,1.56,0,0,1,0,.68A1.11,1.11,0,0,1,74.56,8.15Zm.24,0V8.07l0,.28Zm0,28V36l.07.35C74.85,36.27,74.82,36.21,74.8,36.15Z" style="fill:#e60066"/><path d="M85.07,40.66c-.13,0-.21-.13-.23-.43,0-.15,0-.23.09-.26s.11,0,.11-.07c0-.21-.13-.22-.32,0s-.26.33-.12.37.1.08,0,.1-.14.11-.11.3,0,.29,0,.29-.17-.1-.19-.34a.89.89,0,0,0-.3-.64c-.26-.22-.4-.26-.41-.14a.09.09,0,0,0,0,.08c0,.06,0,.19-.08.39a1.59,1.59,0,0,0-.12.4c0,.2,0,.21-.08,0a3.67,3.67,0,0,0-.13-.52.67.67,0,0,0-.17-.39c-.08-.05-.15,0-.22.07a1,1,0,0,0-.15.46l-.07.5c0-.44-.09-.68-.15-.7s-.06,0-.11.1a1.15,1.15,0,0,0-.15.82q0,.54,0,.54t-.24-1.23c0-.36-.08-.44-.14-.26s-.11.18-.12.06-.12-.17-.31,0a.25.25,0,0,0-.06.19c0,.09,0,.12-.11.1s-.08,0-.08,0a1.5,1.5,0,0,0,.06.22q.08.35,0,.36c-.06,0-.11,0-.15.1a.21.21,0,0,1-.09-.13c0-.14-.08-.23-.18-.25s-.13,0-.13-.07-.08-.18-.21-.07a.53.53,0,0,0-.09.23l-.2-1.19q-.21-1.77-.8-6t-.76-5.64q-.78-6-1.4-12.33a30.32,30.32,0,0,1-.24-3.21c0-.24.13-.37.28-.38s.24-.07.23-.16-.07-.1-.16,0a.12.12,0,0,1-.14,0,.28.28,0,0,1-.1-.15l-.08-.28a2.26,2.26,0,0,1-.09-.44,2.19,2.19,0,0,1,0-.34c0-.05.06-.06.14,0s.16,0,.15-.1a1,1,0,0,0-.16-.39c-.06,0-.09-.27-.11-.66s0-.59.11-.59,0,.14,0,.44a.19.19,0,0,1,0,.1v.09a1.25,1.25,0,0,0,.29.6,1.21,1.21,0,0,1,.3.55c0,.24.09.28.21.11s.07-.3-.06-.53-.12-.3-.07-.31.2.21.34.64l.24.43V11c0-.1,0-.14.07-.15a.49.49,0,0,0,.24.29c.13.08.22.09.26,0a3.06,3.06,0,0,0,.05-.74,1.79,1.79,0,0,1,.09-.75c.1,0,.12-.1.05-.27s-.05-.14,0-.16,0,0,.11.1a.69.69,0,0,1,0,.29c0,.14,0,.2.08.2s.07,0,.12,0,.07-.06.07-.09,0-.11.19-.07.16,0,.15-.06,0-.07,0-.13,0-.26.11-.25a.43.43,0,0,1,.31.12c.06.06.09,0,.07-.09,0-.33,0-.49,0-.5s.05,0,.09.13a.34.34,0,0,1,.07.17,1.15,1.15,0,0,1,0,.22l0,.09c.16,0,.28-.16.36-.44,0-.09,0-.14.06-.14s.05,0,.05.13a.47.47,0,0,0,.21.29c.13.11.19.21.17.3a.15.15,0,0,1-.17.13q-.14,0-.12.12a.49.49,0,0,0,.2.3.52.52,0,0,1,.22.38q0,.32.12,0c.06-.18.1-.22.11-.1a1.76,1.76,0,0,0,.12.37c.07.19.12.34.16.46a.41.41,0,0,1,0,.31c-.1.07-.15.06-.16,0s-.06-.1-.14-.05-.09.1,0,.16c.28.18.54,1.44.77,3.78q.48,5,2.1,17.1.54,3.9.76,6.16C85.25,40,85.23,40.64,85.07,40.66ZM77.23,9.85c-.19,0-.21-.12-.06-.22s.2-.05.22.16S77.34,9.9,77.23,9.85Zm.07,1.07c0,.15,0,.22.06.22l0-.36A.2.2,0,0,0,77.3,10.92Zm.63,1.6c0-.18-.09-.28-.23-.3s-.08.06-.1.15c-.12.43-.09.63.1.62s.07-.06.06-.14,0-.14.07-.15S77.94,12.63,77.93,12.52Zm-.21-.93s-.08,0-.09-.12,0-.13-.09-.13-.15.12-.05.32.13.15.21.12.16,0,.17.11.06.22.14.21.18.2.22.61c0,.21,0,.31.07.31l0-.14c0-.21.08-.3.13-.28s0,0,.06,0a.77.77,0,0,0,0-.18.75.75,0,0,0-.1-.17s-.09,0-.19-.11l-.31-.35C77.81,11.65,77.75,11.59,77.72,11.59Zm0-1.75a.39.39,0,0,1,0-.2s.05,0,.11.11l.28.22a1.6,1.6,0,0,1,.33.3.64.64,0,0,1,.15.34c0,.15,0,.24,0,.28s-.07,0-.14-.12a.64.64,0,0,1-.06-.22l-.06-.26s-.07,0-.14,0a.49.49,0,0,1-.21-.16A.74.74,0,0,1,77.75,9.84ZM78.87,12c0-.12-.1-.2-.26-.25l-.24,0,.26.19C78.8,12.09,78.88,12.09,78.87,12Zm-.1,1a2.57,2.57,0,0,0,.06-.28.12.12,0,0,0-.11.15C78.73,13,78.75,13,78.77,13Zm.37-.67-.06-.22c-.2.11-.31.21-.32.31a.42.42,0,0,0,.21.11C79.1,12.54,79.16,12.47,79.14,12.35Zm-.63-2.81c0-.09,0-.15,0-.18l.07.31v0S78.55,9.66,78.51,9.54Zm1.11,2.81s0-.08,0-.15A2.77,2.77,0,0,0,79.4,12a.66.66,0,0,1-.12-.24l-.06-.17,0,.05c0,.06-.06.08-.11.05s-.1,0-.12,0,.13.32.45.59C79.53,12.38,79.6,12.41,79.62,12.35Zm-.15-2c0-.09-.07-.14-.19-.16a.29.29,0,0,1-.24-.15c-.09-.15-.16-.15-.2,0s0,.17.15.32.27.22.38.21S79.48,10.51,79.47,10.39Zm-.22.61c0-.21,0-.32-.07-.33s-.09,0-.19.08,0,.19.07.35S79.28,11.26,79.25,11Zm.22,2.62q0-.13-.09-.12l-.11.1A.41.41,0,0,0,79.47,13.62Zm-.24-4.5c0-.09,0-.14,0-.14l.07.26v0s0,0-.06,0A.33.33,0,0,1,79.23,9.12Zm.19-.47c0-.15,0-.17.11-.06a.55.55,0,0,0,0,.13.13.13,0,0,1,0,.14C79.54,8.86,79.49,8.79,79.42,8.65Zm.72,1.27A.49.49,0,0,0,80,9.58c-.12-.07-.22,0-.31.12a.94.94,0,0,0-.07.46c0,.15.05.14.11,0a.35.35,0,0,1,.15-.08l.22-.07C80.11,10,80.14,10,80.14,9.92Zm.08,2.51c-.07-.2-.15-.32-.23-.34s-.12,0-.12,0,.06.18.24.34.17.15.17.14A.53.53,0,0,0,80.22,12.43Zm.12-1.63a.12.12,0,0,0,0-.11l-.12,0a.34.34,0,0,1-.17-.14c-.1-.17-.16-.21-.17-.12a.4.4,0,0,0,.2.43C80.26,11,80.36,11,80.34,10.8Zm.09.84a.13.13,0,0,0-.14-.12.14.14,0,0,1-.16-.07l0-.09a.29.29,0,0,0,0,.14.31.31,0,0,0,.23.29Q80.44,11.82,80.43,11.64Zm2.68,27.55a1,1,0,0,0-.25-.07c0,.12.06.18.14.17S83.11,39.25,83.11,39.19Zm-3-31.33c0-.14,0-.22,0-.22l.07.31V8A.48.48,0,0,1,80.1,7.86Zm.61,4.29c0-.11,0-.17,0-.17l-.14.28.09,0C80.69,12.29,80.72,12.24,80.71,12.15Zm-.1-2.32a.33.33,0,0,0-.15-.25.29.29,0,0,0-.1.19c0,.18.07.26.15.25S80.62,10,80.61,9.83Zm.68,1.28a1.41,1.41,0,0,0-.31-.53c-.17-.18-.29-.16-.37.06a.21.21,0,0,0,0,.2.19.19,0,0,0,.19.09s.17.08.34.24S81.39,11.4,81.29,11.11Zm-.44.4c-.07.13-.06.22,0,.27s.23,0,.18-.2v-.09C81,11.35,80.91,11.36,80.85,11.51Zm.5.67s0,0-.11-.08a.65.65,0,0,0-.2,0c-.07,0-.1,0-.09.07s.09.13.25.11S81.35,12.21,81.35,12.18Zm0-2.78V9a1.9,1.9,0,0,1,.08.76A1.16,1.16,0,0,1,81.36,9.4Zm.24,0,0-.13.07.31Zm3.06,31.45,0-.17.12.39A1.56,1.56,0,0,0,84.66,40.87Z" style="fill:#e60066"/><path d="M31,25.06c0,.1,0,.15.05.15a1.86,1.86,0,0,0,.09-.3C31,24.91,31,25,31,25.06Z" style="fill:#f083a2"/><path d="M31.49,25.35a.2.2,0,0,0,0,.14c0,.17,0,.25.05.25Z" style="fill:#f083a2"/><path d="M30.81,26.58a1.12,1.12,0,0,1,.15.34,1.53,1.53,0,0,0,.21.46c.08.12.17.16.26.12a.26.26,0,0,0,.09-.17s0-.11-.12-.2l-.21-.21a2,2,0,0,0-.21-.2Z" style="fill:#f083a2"/><path d="M32.51,25.09c0-.23,0-.34-.15-.34s-.13.15.06.44l.09.09Z" style="fill:#f083a2"/><path d="M32.47,25.77c.06-.1,0-.13,0-.09a.12.12,0,0,1-.16,0,.66.66,0,0,1-.14-.26c0-.13-.08-.23-.1-.3L32,24.85c0-.26-.1-.28-.19-.05s0,.59.29,1C32.21,26,32.35,26,32.47,25.77Z" style="fill:#f083a2"/><path d="M41.43,42c.07,0,.12.16.14.39l.6-.59c-.09-.06-.14-.18-.14-.39s-.09-.39-.24-.39-.23.11-.23.34,0,.16.1.17l.16,0s.07.09.07.22-.09.21-.28.05a1.08,1.08,0,0,1-.37-.68c-.07-.39-.2-.44-.38-.14a.81.81,0,0,0-.17.54c0,.46-.11.44-.24-.05a.64.64,0,0,0-.05-.24l-.14-.39L40,40.8l-.14-.09,0,.14c.06.2,0,.31-.14.35a.66.66,0,0,0-.09-.15c0-.13-.08-.22-.24-.29s-.14,0-.14,0a.9.9,0,0,0,.1.22c.16.19.13.39-.09.59l-.13.15h-.05l.05-.1c.06-.1,0-.27-.13-.51s-.2-.4-.17-.47,0-.11-.09,0-.14.05-.23,0a.34.34,0,0,0-.23-.14c-.1,0-.06.11.09.34l0,.1,0,.09a.1.1,0,0,0-.14,0,.58.58,0,0,0,0,.27c0,.19,0,.21-.14.05s-.2-.16-.32,0-.23.12-.24.06a.29.29,0,0,0-.14-.25.26.26,0,0,0-.28,0,.24.24,0,0,0-.13.22c0,.23-.07.28-.23.15a.28.28,0,0,1-.19-.19,4.1,4.1,0,0,1-.15-1.32c0-.26,0-.39,0-.39a20.07,20.07,0,0,0,0-3.14c0-.85,0-2.93,0-6.26s0-5.6,0-6.81a10.41,10.41,0,0,0-.17-2.06l-.32.4c-.12.17-.37.49-.75,1s-.63.82-.75,1a2.21,2.21,0,0,0-.27.44.51.51,0,0,1-.09.25,1.29,1.29,0,0,1-.2.25c-.08.06-.13.08-.16.05s-.13.15-.19.34-.15.35-.18.35-.13.08-.13.24,0,.2-.14.2-.11.06-.16.18a2.73,2.73,0,0,1-.13.29c0,.08-.1.11-.16.08s-.1,0-.1.05c0,.26-.13.39-.22.39s-.15,0-.16.08a.51.51,0,0,0,0,.27.29.29,0,0,1,0,.24c0,.07-.11.08-.23.05s-.26,0-.3.08,0,.16.16.22a.18.18,0,0,1,0,.22,3.34,3.34,0,0,1-.21.32.7.7,0,0,0-.13.25c0,.13-.13.33-.39.61s-.43.41-.52.38-.14.18-.13.54c0,.13,0,.18-.1.15s-.1,0-.11,0a.45.45,0,0,0,0,.19.38.38,0,0,1-.14.35,7.1,7.1,0,0,0-.13,1.74c0,1.13-.07,2.29-.12,3.5a5.75,5.75,0,0,1-.25,2,1,1,0,0,0-.09.54c0,.23,0,.35-.18.35s-.13.07-.13.2,0,.15-.07.17a.22.22,0,0,1-.16,0,.16.16,0,0,0-.14,0s0,.11,0,.24.08.24,0,.22a2.23,2.23,0,0,1-.35-.21c-.34-.26-.44-.44-.29-.54,0-.06-.06-.1-.09-.1s-.23-.14-.24-.43l-.05-.25,0,0c-.09.07-.17.09-.23.05s-.11,0-.05.1,0,.21-.11.42a2.05,2.05,0,0,0-.2.37c0,.13,0,.2-.14.2s-.1,0-.11-.12a.43.43,0,0,1,0-.25.26.26,0,0,1,.13-.17.14.14,0,0,0,0-.2c0-.06-.1-.15-.16-.26a.6.6,0,0,1-.1-.27c0-.16-.08-.25-.23-.24s-.12.06-.07.17a.21.21,0,0,1-.07.27c-.15.07-.23,0-.23-.14,0-.46-.14-.33-.41.39l-.27.84c-.06,0-.12-.13-.19-.39s-.07-.42,0-.49a.54.54,0,0,0,.08-.25.65.65,0,0,0,0-.34c0-.1-.08-.14-.14-.14s-.19,0-.19-.1,0-.12-.11-.07a.17.17,0,0,0-.07.22.77.77,0,0,1-.41.15c-.19,0-.2.05-.05.15s.11.24-.13.34-.28.06-.28,0,0,0-.14.1l0,.15v-.3c0-.19,0-.31-.09-.34s-.24,0-.24,0a1.53,1.53,0,0,1,.05-.3q.33-2.05.2-19.49L24,11.34a30.75,30.75,0,0,0-.25-4.89c-.13-.29-.15-.44-.06-.44s.27-.07.51-.4.24-.28.27-.25l0,.15a.76.76,0,0,0,.14.51c.13.21.24.32.33.32l.1-.61a.22.22,0,0,1,0-.12l.14-.8c0-.06.06.05.1.35s0,.39-.14.39-.07,0-.1.06l0,.12a.62.62,0,0,0,0,.16.28.28,0,0,0,.18.2c.1.06.16,0,.19-.15a9.56,9.56,0,0,0,0-1.13c0-.07.06-.1.09-.1s.11.18.14.15.07,0,.12,0a2,2,0,0,1,.11.2c.07.19.13.29.19.29s.11-.13,0-.49a.86.86,0,0,1,.18-.69c.15-.13.23-.08.23.15s0,.27-.16.12-.16-.14-.16,0,.08.29.24.29.23-.09.22-.25.11-.2.33-.1.1,0,0-.15a1.55,1.55,0,0,1-.14-.19.55.55,0,0,1-.06-.64c.19-.26.28-.31.28-.15a.85.85,0,0,1,0,.15,1.07,1.07,0,0,0,.15.88q.14.24.27.09a.47.47,0,0,0,.09-.25c.09-.26.19-.29.28-.1s.2.28.33.24.18-.16.18-.39a.77.77,0,0,1,.08-.49c.06-.07.16-.06.3,0a.36.36,0,0,1,.22.31c0,.13,0,.2.14.2s.18.09.19.29a1.64,1.64,0,0,0,.21.56c.15.28.2.46.17.56a.48.48,0,0,0,.05.44c.23.46.37,3.42.45,8.91l.06,4.5.36-.44a28,28,0,0,1,1.87-2.21A9.86,9.86,0,0,1,34,15c.09,0,.14,0,.14-.1s.07-.15.23-.15.18,0,.18-.15a3.94,3.94,0,0,1,.74-.45,4.25,4.25,0,0,1,1.84-.42c1.24,0,1.93.09,2.09.32a1.17,1.17,0,0,0,.28.24q3.25,1.62,3.36,9.16.07,5.39-.05,10.11c-.08,3.16-.12,5.11-.11,5.86s0,1.4,0,1.75a24.48,24.48,0,1,0-1.27,1.29C41.38,42.17,41.38,42,41.43,42ZM28.15,3.65,28.2,4V4s-.06-.07-.1-.2A.29.29,0,0,1,28.15,3.65Zm-.79-.29c.09,0,.14.15.14.44s0,.35,0,.35-.06-.07-.09-.2a3,3,0,0,1-.08-.36A.21.21,0,0,1,27.36,3.36ZM23.78,5.42a.13.13,0,0,1,.14.14c0,.1-.05.15-.14.15a.12.12,0,0,1-.14-.14C23.64,5.47,23.68,5.42,23.78,5.42Zm1.63,34.33a.79.79,0,0,1,0-.17c0-.1,0-.15,0-.15l.05.3v0S25.43,39.8,25.41,39.75Zm2.73,0a.72.72,0,0,1,0-.17c0-.09,0-.14,0-.14l.05.29v.05S28.16,39.76,28.14,39.71Zm.43.44a.47.47,0,0,1,0-.17c0-.1,0-.15,0-.15l.06.29v.05S28.58,40.2,28.57,40.15ZM36.8,42c-.09,0-.14,0-.14-.14s.05-.15.14-.15.14,0,.14.15A.12.12,0,0,1,36.8,42Zm.51-.15c-.15-.06-.19-.11-.09-.15s.09-.05.09-.17,0-.17.09-.17.14.1.14.29S37.47,41.85,37.31,41.82Zm.42.19v-.2l.1.44Zm1.12.62-.18.4a4.23,4.23,0,0,0,0-1.28c-.09-.29-.07-.44.09-.44s.2.15.24.46A1.65,1.65,0,0,1,38.85,42.63Z" style="fill:#f083a2"/><path d="M42.44,41.41s0,.05,0,.11l.08-.09Z" style="fill:#f083a2"/><path d="M42,40.78c.09,0,.14,0,.14-.05a1.73,1.73,0,0,0-.28-.1C41.88,40.73,41.92,40.78,42,40.78Z" style="fill:#f083a2"/><path d="M40.9,40.45a.47.47,0,0,0,0-.29l0,.1Z" style="fill:#f083a2"/><path d="M41,39.62q0-.15-.18-.15c-.19,0-.2.06,0,.17S41,39.75,41,39.62Z" style="fill:#f083a2"/><path d="M31.65,27c.13,0,.19-.07.19-.2a.24.24,0,0,0-.15-.17.39.39,0,0,1-.18-.27l-.05-.19v.29C31.47,26.83,31.53,27,31.65,27Z" style="fill:#f083a2"/><path d="M28.9,4.15a.62.62,0,0,0-.15-.31c-.12-.2-.22-.23-.28-.1,0,.33.1.51.29.54S28.9,4.23,28.9,4.15Z" style="fill:#f083a2"/><path d="M28.91,5c-.13,0-.19.07-.19.2s.09.25.26.07S29.12,5,28.91,5Z" style="fill:#f083a2"/><polygon points="27.01 5.33 26.96 4.99 26.96 5.13 27.01 5.33" style="fill:#f083a2"/><path d="M26.07,7.05c.09,0,.13,0,.13-.14s0-.15-.05-.15A1.16,1.16,0,0,0,26.07,7.05Z" style="fill:#f083a2"/><path d="M30.7,28.1q-.19-.44-.33.15a.65.65,0,0,0,.15.59c.13.16.19.21.19.14,0-.42,0-.62,0-.59S30.79,28.29,30.7,28.1Z" style="fill:#f083a2"/><path d="M25.77,5.69a.34.34,0,0,0,.14.29A.06.06,0,0,0,26,6a.44.44,0,0,0-.19-.44Z" style="fill:#f083a2"/><path d="M28.9,38.85a2.22,2.22,0,0,0-.15-.32c-.06-.11-.12-.17-.18-.17s-.08.22.33.63C28.93,39,28.93,39,28.9,38.85Z" style="fill:#f083a2"/><path d="M30.29,26.93c0,.06,0,.18.07.34s.05.26.05.29,0,.2,0,.2a.58.58,0,0,0,.16-.1c.15-.1.16-.21,0-.32s-.17-.18-.14-.22l0-.05v-.14c0-.1-.06-.15-.19-.15A.11.11,0,0,0,30.29,26.93Z" style="fill:#f083a2"/><path d="M30.48,26s-.06,0-.09.19a.78.78,0,0,0,.05.3l.09-.25A.54.54,0,0,0,30.48,26Z" style="fill:#f083a2"/><path d="M30.66,25.36c-.09,0-.06.18.1.44,0,0,0-.07,0-.2S30.75,25.36,30.66,25.36Z" style="fill:#f083a2"/><path d="M30.16,29.43c0,.06.05,0,.14-.08s.12-.19.09-.22S30.22,29.2,30.16,29.43Z" style="fill:#f083a2"/></svg>